<svg width="14" height="14" viewBox="0 0 14 14" fill="none" xmlns="http://www.w3.org/2000/svg">
<path d="M6.89565 10.1164H7.88644V6.15328H6.89565V10.1164ZM7.34121 4.93131C7.49553 4.93131 7.62498 4.88067 7.72956 4.77939C7.83415 4.67811 7.88644 4.55261 7.88644 4.40289C7.88644 4.24382 7.83424 4.11047 7.72986 4.00286C7.62546 3.89525 7.49611 3.84145 7.3418 3.84145C7.18748 3.84145 7.05803 3.89525 6.95344 4.00286C6.84886 4.11047 6.79657 4.24382 6.79657 4.40289C6.79657 4.55261 6.84876 4.67811 6.95315 4.77939C7.05754 4.88067 7.1869 4.93131 7.34121 4.93131ZM7.3459 13.4191C6.4351 13.4191 5.57917 13.2457 4.7781 12.8989C3.97704 12.5521 3.27652 12.0787 2.67654 11.4788C2.07657 10.8788 1.60319 10.1779 1.25642 9.37597C0.90964 8.57409 0.736252 7.71729 0.736252 6.80555C0.736252 5.89382 0.90964 5.03701 1.25642 4.23514C1.60319 3.43325 2.07657 2.73507 2.67654 2.14059C3.27652 1.54612 3.97745 1.0755 4.77934 0.728721C5.58122 0.381945 6.43803 0.208557 7.34976 0.208557C8.26149 0.208557 9.1183 0.381945 9.92018 0.728721C10.7221 1.0755 11.4202 1.54612 12.0147 2.14059C12.6092 2.73507 13.0798 3.43412 13.4266 4.23776C13.7734 5.0414 13.9468 5.89862 13.9468 6.80942C13.9468 7.72021 13.7734 8.57615 13.4266 9.37721C13.0798 10.1783 12.6092 10.8778 12.0147 11.4757C11.4202 12.0737 10.7212 12.5471 9.91755 12.8959C9.11391 13.2447 8.25669 13.4191 7.3459 13.4191ZM7.34976 12.4283C8.9075 12.4283 10.2313 11.8806 11.3212 10.7852C12.411 9.68985 12.956 8.36329 12.956 6.80555C12.956 5.24781 12.4121 3.92401 11.3243 2.83414C10.2365 1.74428 8.90887 1.19934 7.3415 1.19934C5.78927 1.19934 4.46547 1.74324 3.3701 2.83104C2.27472 3.91885 1.72704 5.24644 1.72704 6.81381C1.72704 8.36604 2.27472 9.68985 3.3701 10.7852C4.46547 11.8806 5.79202 12.4283 7.34976 12.4283Z" fill="#EF8C1F"/>
</svg>
