<svg width="470" height="470" viewBox="0 0 470 470" fill="none" xmlns="http://www.w3.org/2000/svg">
<rect x="0.333984" y="0.333374" width="469.333" height="469.333" rx="64" fill="#F7843A"/>
<mask id="mask0_3_37" style="mask-type:alpha" maskUnits="userSpaceOnUse" x="135" y="135" width="200" height="200">
<rect x="135" y="135" width="200" height="200" fill="#D9D9D9"/>
</mask>
<g mask="url(#mask0_3_37)">
<path d="M216.874 264.375C218.68 264.375 220.173 263.75 221.353 262.5C222.534 261.25 223.124 259.792 223.124 258.125C223.124 257.847 223.089 257.5 223.02 257.083C222.95 256.667 222.846 256.319 222.707 256.042C223.124 256.319 223.61 256.528 224.166 256.667C224.721 256.806 225.277 256.875 225.832 256.875C227.638 256.875 229.131 256.25 230.312 255C231.492 253.75 232.082 252.292 232.082 250.625C232.082 248.958 231.457 247.5 230.207 246.25C228.957 245 227.499 244.375 225.832 244.375C224.86 244.375 223.992 244.583 223.228 245C222.464 245.417 221.735 245.972 221.041 246.667L197.499 221.875C198.471 221.319 199.27 220.556 199.895 219.583C200.52 218.611 200.832 217.569 200.832 216.458C200.832 214.792 200.207 213.333 198.957 212.083C197.707 210.833 196.249 210.208 194.582 210.208C192.916 210.208 191.457 210.799 190.207 211.979C188.957 213.16 188.332 214.653 188.332 216.458C188.332 216.875 188.367 217.292 188.437 217.708C188.506 218.125 188.61 218.472 188.749 218.75C188.332 218.472 187.881 218.264 187.395 218.125C186.909 217.986 186.318 217.917 185.624 217.917C183.957 217.917 182.499 218.507 181.249 219.687C179.999 220.868 179.374 222.361 179.374 224.167C179.374 225.833 179.999 227.292 181.249 228.542C182.499 229.792 183.957 230.417 185.624 230.417C186.735 230.417 187.777 230.174 188.749 229.688C189.721 229.201 190.485 228.472 191.041 227.5L214.582 252.292C213.471 252.708 212.534 253.438 211.77 254.479C211.006 255.521 210.624 256.736 210.624 258.125C210.624 259.792 211.249 261.25 212.499 262.5C213.749 263.75 215.207 264.375 216.874 264.375ZM151.874 241.458L158.749 230.417L224.791 292.5C226.596 294.167 228.68 295.417 231.041 296.25C233.402 297.083 235.763 297.5 238.124 297.5C240.068 297.5 241.805 297.326 243.332 296.979C244.86 296.632 246.457 295.903 248.124 294.792L318.332 250.625V265.417L254.791 305.208C252.291 306.736 249.652 307.917 246.874 308.75C244.096 309.583 241.11 310 237.916 310C234.027 310 230.173 309.306 226.353 307.917C222.534 306.528 219.166 304.444 216.249 301.667L151.874 241.458ZM190.832 178.958L197.499 168.333C207.916 173.75 217.673 180.937 226.77 189.896C235.867 198.854 242.43 208.264 246.457 218.125C251.735 211.875 257.325 207.326 263.228 204.479C269.131 201.632 277.707 198.681 288.957 195.625C295.207 193.958 300.624 192.257 305.207 190.521C309.791 188.785 314.166 186.944 318.332 185V198.75C314.582 200.278 310.589 201.771 306.353 203.229C302.117 204.687 297.36 206.111 292.082 207.5C280.138 210.694 271.284 213.993 265.52 217.396C259.756 220.799 254.305 226.736 249.166 235.208C248.61 236.042 247.881 236.701 246.978 237.188C246.075 237.674 245.068 237.917 243.957 237.917C242.568 237.917 241.284 237.431 240.103 236.458C238.923 235.486 238.193 234.306 237.916 232.917C235.138 222.083 229.374 211.806 220.624 202.083C211.874 192.361 201.943 184.653 190.832 178.958ZM158.749 230.417C168.749 239.722 179.756 250.069 191.77 261.458C203.784 272.847 214.791 283.194 224.791 292.5C226.596 294.167 228.68 295.417 231.041 296.25C233.402 297.083 235.763 297.5 238.124 297.5C240.068 297.5 241.805 297.326 243.332 296.979C244.86 296.632 246.457 295.903 248.124 294.792C258.541 288.125 270.173 280.764 283.02 272.708C295.867 264.653 307.638 257.292 318.332 250.625L248.124 294.792C246.457 295.903 244.86 296.632 243.332 296.979C241.805 297.326 240.068 297.5 238.124 297.5C235.763 297.5 233.402 297.083 231.041 296.25C228.68 295.417 226.596 294.167 224.791 292.5L158.749 230.417Z" fill="white"/>
</g>
</svg>
