<svg width="470" height="470" viewBox="0 0 470 470" fill="none" xmlns="http://www.w3.org/2000/svg">
<rect x="0.333984" y="0.333374" width="469.333" height="469.333" rx="64" fill="#F7843A"/>
<mask id="mask0_3_41" style="mask-type:alpha" maskUnits="userSpaceOnUse" x="135" y="135" width="200" height="200">
<rect x="135" y="135" width="200" height="200" fill="#D9D9D9"/>
</mask>
<g mask="url(#mask0_3_41)">
<path d="M235 318.333C215.972 318.333 200.104 311.806 187.396 298.75C174.687 285.694 168.333 269.444 168.333 250C168.333 236.111 173.854 221.007 184.896 204.688C195.937 188.368 212.639 170.694 235 151.667C257.361 170.694 274.062 188.368 285.104 204.688C296.146 221.007 301.666 236.111 301.666 250C301.666 269.444 295.312 285.694 282.604 298.75C269.896 311.806 254.027 318.333 235 318.333ZM235 305.833C250.555 305.833 263.472 300.521 273.75 289.896C284.027 279.271 289.166 265.95 289.166 249.933C289.166 239.005 284.548 226.563 275.312 212.604C266.076 198.646 252.639 183.889 235 168.333C217.361 183.889 203.923 198.646 194.687 212.604C185.451 226.563 180.833 239.005 180.833 249.933C180.833 265.95 185.972 279.271 196.25 289.896C206.527 300.521 219.444 305.833 235 305.833ZM210 280.833H260V268.333H210V280.833ZM228.75 260H241.25V241.25H260V228.75H241.25V210H228.75V228.75H210V241.25H228.75V260Z" fill="white"/>
</g>
</svg>
