<svg width="470" height="470" viewBox="0 0 470 470" fill="none" xmlns="http://www.w3.org/2000/svg">
<rect x="0.333984" y="0.333374" width="469.333" height="469.333" rx="64" fill="#F7843A"/>
<mask id="mask0_3_42" style="mask-type:alpha" maskUnits="userSpaceOnUse" x="132" y="122" width="207" height="207">
<rect x="132" y="122" width="207" height="207" fill="#D9D9D9"/>
</mask>
<g mask="url(#mask0_3_42)">
<path d="M254.044 315.631L186.984 296.441V308.731H140.625V223.775H207.253L262.238 244.475C266.119 245.912 269.389 248.248 272.048 251.483C274.708 254.717 276.037 259.353 276.037 265.391H300.619C306.656 265.391 311.688 267.547 315.713 271.859C319.738 276.172 321.75 281.994 321.75 289.325V294.931L254.044 315.631ZM153.562 295.794H173.831V236.712H153.562V295.794ZM253.181 302.262L308.381 285.444C307.519 282.712 306.441 280.844 305.147 279.837C303.853 278.831 302.344 278.328 300.619 278.328H255.984C251.672 278.328 247.683 278.041 244.017 277.466C240.352 276.891 236.866 276.1 233.559 275.094L216.094 269.703L220.838 257.197L236.578 262.372C240.172 263.522 243.586 264.312 246.82 264.744C250.055 265.175 255.194 265.391 262.238 265.391C262.238 263.666 261.914 261.976 261.267 260.323C260.62 258.67 259.506 257.484 257.925 256.766L205.097 236.712H186.984V282.856L253.181 302.262Z" fill="white"/>
<path d="M295.875 221.187C287.538 221.187 280.422 218.312 274.528 212.562C268.634 206.812 265.688 199.769 265.688 191.431C265.688 185.394 267.484 179.967 271.078 175.151C274.672 170.336 278.409 165.628 282.291 161.028L295.875 145.503L309.459 161.244C313.341 165.844 317.078 170.515 320.672 175.259C324.266 180.003 326.062 185.394 326.062 191.431C326.062 199.769 323.116 206.812 317.222 212.562C311.328 218.312 304.213 221.187 295.875 221.187ZM295.824 208.25C300.602 208.25 304.68 206.607 308.058 203.32C311.436 200.034 313.125 196.071 313.125 191.431C313.125 187.119 311.65 183.323 308.701 180.045C305.751 176.767 302.842 173.446 299.972 170.084L295.659 165.556L291.562 170.084L282.938 180.003C280.062 183.309 278.625 187.119 278.625 191.431C278.625 196.071 280.297 200.034 283.642 203.32C286.986 206.607 291.047 208.25 295.824 208.25Z" fill="white"/>
</g>
</svg>
