<svg width="470" height="470" viewBox="0 0 470 470" fill="none" xmlns="http://www.w3.org/2000/svg">
<rect x="0.333984" y="0.333374" width="469.333" height="469.333" rx="64" fill="#F7843A"/>
<mask id="mask0_3_44" style="mask-type:alpha" maskUnits="userSpaceOnUse" x="135" y="135" width="200" height="200">
<rect x="135" y="135" width="200" height="200" fill="#D9D9D9"/>
</mask>
<g mask="url(#mask0_3_44)">
<path d="M276.667 328.958C268.611 328.958 261.736 326.181 256.042 320.625C250.347 315.069 247.5 308.264 247.5 300.208C247.5 294.375 249.236 289.132 252.708 284.479C256.181 279.826 259.792 275.278 263.542 270.833L276.667 255.833L289.792 271.042C293.542 275.486 297.153 280 300.625 284.583C304.097 289.167 305.833 294.375 305.833 300.208C305.833 308.264 302.986 315.069 297.292 320.625C291.597 326.181 284.722 328.958 276.667 328.958ZM276.618 316.458C281.234 316.458 285.174 314.871 288.437 311.695C291.701 308.52 293.333 304.691 293.333 300.208C293.333 296.042 291.908 292.375 289.059 289.207C286.209 286.04 283.398 282.832 280.625 279.583L276.458 275.208L272.5 279.583L264.167 289.167C261.389 292.361 260 296.042 260 300.208C260 304.691 261.616 308.52 264.847 311.695C268.078 314.871 272.002 316.458 276.618 316.458Z" fill="white"/>
<path d="M222.5 313.958C204.306 312.847 189.34 305.868 177.604 293.021C165.868 280.174 160 264.444 160 245.833C160 231.944 165.521 216.84 176.563 200.521C187.604 184.201 204.306 166.528 226.667 147.5C245.278 163.333 260.174 178.611 271.354 193.333C282.535 208.056 289.444 221.528 292.083 233.75H279.167C276.528 223.889 270.694 212.951 261.667 200.938C252.639 188.924 240.972 176.667 226.667 164.167C209.028 179.722 195.59 194.479 186.354 208.438C177.118 222.396 172.5 234.861 172.5 245.833C172.5 260.972 177.188 273.75 186.563 284.167C195.938 294.583 207.917 300.347 222.5 301.458V313.958Z" fill="white"/>
</g>
</svg>
