<svg width="470" height="470" viewBox="0 0 470 470" fill="none" xmlns="http://www.w3.org/2000/svg">
<rect x="0.333984" y="0.333496" width="469.333" height="469.333" rx="64" fill="#F7843A"/>
<mask id="mask0_3_48" style="mask-type:alpha" maskUnits="userSpaceOnUse" x="135" y="135" width="200" height="200">
<rect x="135" y="135" width="200" height="200" fill="#D9D9D9"/>
</mask>
<g mask="url(#mask0_3_48)">
<path d="M235.104 233.125C242.118 233.125 247.951 230.799 252.604 226.146C257.257 221.493 259.583 215.66 259.583 208.646C259.583 201.632 257.257 195.764 252.604 191.042C247.951 186.319 242.118 183.958 235.104 183.958C228.09 183.958 222.222 186.319 217.5 191.042C212.778 195.764 210.417 201.632 210.417 208.646C210.417 215.66 212.778 221.493 217.5 226.146C222.222 230.799 228.09 233.125 235.104 233.125ZM221.875 212.708C220.764 212.708 219.792 212.292 218.958 211.458C218.125 210.625 217.708 209.653 217.708 208.542C217.708 207.431 218.125 206.458 218.958 205.625C219.792 204.792 220.764 204.375 221.875 204.375C222.986 204.375 223.958 204.792 224.792 205.625C225.625 206.458 226.042 207.431 226.042 208.542C226.042 209.653 225.625 210.625 224.792 211.458C223.958 212.292 222.986 212.708 221.875 212.708ZM235 212.708C233.889 212.708 232.917 212.292 232.083 211.458C231.25 210.625 230.833 209.653 230.833 208.542C230.833 207.431 231.25 206.458 232.083 205.625C232.917 204.792 233.889 204.375 235 204.375C236.111 204.375 237.083 204.792 237.917 205.625C238.75 206.458 239.167 207.431 239.167 208.542C239.167 209.653 238.75 210.625 237.917 211.458C237.083 212.292 236.111 212.708 235 212.708ZM248.125 212.708C247.014 212.708 246.042 212.292 245.208 211.458C244.375 210.625 243.958 209.653 243.958 208.542C243.958 207.431 244.375 206.458 245.208 205.625C246.042 204.792 247.014 204.375 248.125 204.375C249.236 204.375 250.208 204.792 251.042 205.625C251.875 206.458 252.292 207.431 252.292 208.542C252.292 209.653 251.875 210.625 251.042 211.458C250.208 212.292 249.236 212.708 248.125 212.708ZM172.5 310C169.167 310 166.25 308.75 163.75 306.25C161.25 303.75 160 300.833 160 297.5V172.5C160 169.167 161.25 166.25 163.75 163.75C166.25 161.25 169.167 160 172.5 160H297.5C300.833 160 303.75 161.25 306.25 163.75C308.75 166.25 310 169.167 310 172.5V297.5C310 300.833 308.75 303.75 306.25 306.25C303.75 308.75 300.833 310 297.5 310H172.5ZM172.5 297.5H297.5V172.5H172.5V297.5Z" fill="white"/>
</g>
</svg>
