<svg width="470" height="470" viewBox="0 0 470 470" fill="none" xmlns="http://www.w3.org/2000/svg">
<rect width="469.333" height="469.333" rx="64" fill="#F7843A"/>
<mask id="mask0_3_51" style="mask-type:alpha" maskUnits="userSpaceOnUse" x="134" y="134" width="201" height="201">
<rect x="134.666" y="134.667" width="200" height="200" fill="#D9D9D9"/>
</mask>
<g mask="url(#mask0_3_51)">
<path d="M200.083 287.167H210.499V268.833H228.833V258.417H210.499V240.083H200.083V258.417H181.749V268.833H200.083V287.167ZM244.874 279.875H286.749V269.666H244.874V279.875ZM244.874 257.583H286.749V247.167H244.874V257.583ZM252.583 223.625L265.291 210.917L277.999 223.625L285.499 216.125L272.791 203.417L285.499 190.708L277.999 183.208L265.291 195.917L252.583 183.208L245.083 190.708L257.791 203.417L245.083 216.125L252.583 223.625ZM184.874 208.625H225.708V198.208H184.874V208.625ZM172.166 309.667C168.833 309.667 165.916 308.417 163.416 305.917C160.916 303.417 159.666 300.5 159.666 297.167V172.167C159.666 168.833 160.916 165.917 163.416 163.417C165.916 160.917 168.833 159.667 172.166 159.667H297.166C300.499 159.667 303.416 160.917 305.916 163.417C308.416 165.917 309.666 168.833 309.666 172.167V297.167C309.666 300.5 308.416 303.417 305.916 305.917C303.416 308.417 300.499 309.667 297.166 309.667H172.166ZM172.166 297.167H297.166V172.167H172.166V297.167Z" fill="white"/>
</g>
</svg>
