<svg width="52" height="52" viewBox="0 0 52 52" fill="none" xmlns="http://www.w3.org/2000/svg">
<g clip-path="url(#clip0_2148_1167)">
<path d="M50.074 11.498C48.5257 7.54193 45.5696 4.50844 41.7497 2.95511C40.098 2.28399 38.4253 1.94339 36.7794 1.94339C31.3053 1.94339 27.4754 5.60847 25.981 7.32663C24.4941 5.60258 20.681 1.92236 15.2086 1.92236C13.5678 1.92236 11.9001 2.26213 10.2509 2.93241C6.43106 4.48573 3.4741 7.51922 1.92582 11.4745C0.274091 15.6954 0.434722 20.479 2.36734 24.6008C5.11153 30.4516 11.3501 39.5605 25.4865 49.7232L25.9768 50.0764L26.4671 49.7232C40.6732 39.5101 46.9051 30.4357 49.6307 24.6218C51.565 20.5018 51.7257 15.7181 50.074 11.498Z" fill="#ED5A87"/>
</g>
<defs>
<clipPath id="clip0_2148_1167">
<rect width="50.4138" height="50.4138" fill="white" transform="translate(0.792969 0.792969)"/>
</clipPath>
</defs>
</svg>
