<svg width="470" height="471" viewBox="0 0 470 471" fill="none" xmlns="http://www.w3.org/2000/svg">
<rect x="0.333344" y="0.951904" width="469.333" height="469.333" rx="64" fill="#F7843A"/>
<path d="M228.488 268.066L228.488 268.066C227.767 268.709 226.891 269.029 225.922 269.029C225.161 269.029 224.386 268.93 223.601 268.738C222.545 268.481 221.748 267.796 221.196 266.848L203.621 240.338H149.266H148.116L148.116 239.188L148.116 231.831L148.116 230.681H149.266H204.496C205.817 230.681 207.032 230.967 208.104 231.575C209.114 232.148 209.998 232.91 210.756 233.849L210.788 233.888L210.816 233.93L224.044 253.629L240 205.49C240.176 204.534 240.678 203.738 241.456 203.139L241.456 203.139C242.228 202.545 243.112 202.229 244.078 202.229C244.877 202.229 245.641 202.37 246.355 202.666M228.488 268.066L245.915 203.728M228.488 268.066C229.154 267.472 229.626 266.723 229.916 265.853L228.488 268.066ZM246.355 202.666L245.915 203.728M246.355 202.666C246.355 202.666 246.355 202.666 246.354 202.666L245.915 203.728M246.355 202.666C247.17 203.003 247.828 203.601 248.352 204.365L248.36 204.376L248.36 204.376L265.953 230.681M245.915 203.728C246.479 203.961 246.975 204.39 247.404 205.016L265.339 231.831M265.953 230.681H265.339V231.831M265.953 230.681H320.734H321.884V231.831V239.188V240.338H320.734H265.137C263.815 240.338 262.595 240.051 261.51 239.448M265.953 230.681L266.295 231.191L265.339 231.831M265.339 231.831H319.584H320.734L245.949 217.995M245.949 217.995L229.917 265.851L245.949 217.995ZM245.949 217.995L258.576 236.902L258.609 236.952L258.648 236.999C259.516 238.042 260.467 238.869 261.51 239.448M261.51 239.448C261.51 239.448 261.51 239.448 261.51 239.448L262.068 238.443L261.51 239.448ZM235.023 184.425C229.436 176.031 223.03 169.553 215.791 165.032L215.181 166.007L215.791 165.032C208.131 160.248 199.826 157.85 190.898 157.85C178.76 157.85 168.518 161.986 160.25 170.261C151.982 178.537 147.85 188.805 147.85 200.988C147.85 202.804 147.941 204.553 148.123 206.234L148.123 206.234C148.306 207.917 148.598 209.665 148.998 211.48L149.197 212.382H150.121H157.582H158.947L158.715 211.037C158.41 209.264 158.129 207.563 157.872 205.932L157.872 205.931C157.625 204.358 157.5 202.71 157.5 200.988C157.5 191.367 160.706 183.418 167.103 177.058L166.292 176.242L167.103 177.058C173.504 170.692 181.41 167.507 190.898 167.507C198.527 167.507 205.586 169.793 212.102 174.395C218.631 179.007 224.872 186.187 230.799 196.01L231.135 196.566H231.784H238.161H238.816L239.15 196.002C244.991 186.144 251.188 178.959 257.713 174.369C264.226 169.787 271.346 167.507 279.102 167.507C288.717 167.507 296.65 170.695 302.985 177.054C309.322 183.414 312.5 191.363 312.5 200.988C312.5 202.71 312.375 204.358 312.128 205.931C311.871 207.563 311.59 209.264 311.285 211.037L311.053 212.382H312.418H319.879H320.803L321.002 211.48C321.402 209.666 321.694 207.917 321.877 206.234L320.734 206.11L321.877 206.234C322.059 204.553 322.15 202.804 322.15 200.988C322.15 188.805 318.018 178.537 309.75 170.261C301.482 161.986 291.24 157.85 279.102 157.85C270.287 157.85 262.126 160.188 254.642 164.857C247.556 169.277 241.022 175.816 235.023 184.425ZM181.268 258.636H178.645L180.423 260.565C186.394 267.047 193.338 274.116 201.252 281.772C209.161 289.424 218.354 298.119 228.833 307.858L228.834 307.86L234.219 312.844L235 313.567L235.781 312.844L241.166 307.86L241.167 307.858C251.646 298.119 260.839 289.424 268.748 281.772C276.662 274.116 283.606 267.047 289.577 260.565L291.355 258.636H288.732H279.048H278.548L278.207 259.001C272.665 264.939 266.27 271.325 259.019 278.16C251.962 284.811 243.956 292.277 235 300.558C226.044 292.276 218.03 284.781 210.956 278.07C203.684 271.171 197.276 264.812 191.73 258.993L191.39 258.636H190.897H181.268Z" fill="white" stroke="white" stroke-width="2.3"/>
</svg>
