<svg width="470" height="470" viewBox="0 0 470 470" fill="none" xmlns="http://www.w3.org/2000/svg">
<rect x="0.333984" y="0.333496" width="469.333" height="469.333" rx="64" fill="#F7843A"/>
<mask id="mask0_3_54" style="mask-type:alpha" maskUnits="userSpaceOnUse" x="135" y="135" width="200" height="200">
<rect x="135" y="135" width="200" height="200" fill="#D9D9D9"/>
</mask>
<g mask="url(#mask0_3_54)">
<path d="M164.5 285C161.167 285 158.25 283.75 155.75 281.25C153.25 278.75 152 275.833 152 272.5V197.5C152 194.306 153.25 191.424 155.75 188.854C158.25 186.285 161.167 185 164.5 185H306.167C309.5 185 312.417 186.285 314.917 188.854C317.417 191.424 318.667 194.306 318.667 197.5V272.5C318.667 275.833 317.417 278.75 314.917 281.25C312.417 283.75 309.5 285 306.167 285H164.5ZM164.5 272.5H306.167V197.5H279.083V235H266.583V197.5H241.583V235H229.083V197.5H204.083V235H191.583V197.5H164.5V272.5Z" fill="white"/>
</g>
</svg>
