<svg width="470" height="470" viewBox="0 0 470 470" fill="none" xmlns="http://www.w3.org/2000/svg">
<rect x="0.333984" y="0.333496" width="469.333" height="469.333" rx="64" fill="#F7843A"/>
<mask id="mask0_3_57" style="mask-type:alpha" maskUnits="userSpaceOnUse" x="135" y="135" width="200" height="200">
<rect x="135" y="135" width="200" height="200" fill="#D9D9D9"/>
</mask>
<g mask="url(#mask0_3_57)">
<path d="M235.389 318.667C223.898 318.667 213.099 316.479 202.993 312.104C192.887 307.729 184.049 301.757 176.479 294.188C168.91 286.618 162.938 277.775 158.562 267.658C154.187 257.541 152 246.732 152 235.229C152 223.727 154.187 212.917 158.562 202.8C162.938 192.683 168.91 183.875 176.479 176.375C184.049 168.875 192.892 162.938 203.009 158.562C213.125 154.187 223.935 152 235.438 152C246.94 152 257.75 154.187 267.866 158.562C277.983 162.938 286.792 168.875 294.292 176.375C301.792 183.875 307.729 192.694 312.104 202.833C316.479 212.972 318.667 223.787 318.667 235.278C318.667 246.769 316.479 257.567 312.104 267.674C307.729 277.78 301.792 286.605 294.292 294.149C286.792 301.693 277.972 307.665 267.833 312.066C257.694 316.466 246.88 318.667 235.389 318.667ZM235.438 306.167C255.09 306.167 271.792 299.257 285.542 285.438C299.292 271.618 306.167 254.882 306.167 235.229C306.167 215.576 299.305 198.875 285.581 185.125C271.857 171.375 255.108 164.5 235.333 164.5C215.75 164.5 199.049 171.362 185.229 185.086C171.41 198.81 164.5 215.559 164.5 235.333C164.5 254.917 171.41 271.618 185.229 285.438C199.049 299.257 215.785 306.167 235.438 306.167Z" fill="white"/>
<circle cx="246.5" cy="191.5" r="7.5" fill="white"/>
<circle cx="277.5" cy="212.5" r="7.5" fill="white"/>
<circle cx="249.5" cy="221.5" r="7.5" fill="white"/>
</g>
</svg>
