<svg width="470" height="471" viewBox="0 0 470 471" fill="none" xmlns="http://www.w3.org/2000/svg">
<rect x="0.333374" y="0.951904" width="469.333" height="469.333" rx="64" fill="#F7843A"/>
<path d="M273.812 165.85L273.803 165.85H273.793C269.881 165.85 266.436 166.551 263.494 167.999L264.002 169.03L263.494 167.999C260.718 169.364 257.973 170.838 255.261 172.418C252.619 173.957 249.704 175.396 246.512 176.733L246.956 177.793L246.512 176.733C243.46 178.01 239.636 178.674 235 178.674C230.47 178.674 226.726 178.011 223.727 176.735L223.277 177.793L223.727 176.735C220.585 175.398 217.694 173.959 215.05 172.418C212.335 170.836 209.571 169.362 206.757 167.996C203.777 166.549 200.247 165.85 196.207 165.85C189.178 165.85 183.168 168.486 178.24 173.708C173.314 178.927 170.85 185.262 170.85 192.647C170.85 194.031 170.927 195.941 171.077 198.366L171.077 198.366C171.229 200.812 171.508 203.699 171.914 207.024L171.915 207.032L182.961 292.935C183.352 296.76 184.878 299.817 187.601 301.982C190.238 304.079 193.184 305.15 196.409 305.15C198.807 305.15 201.011 304.372 202.989 302.858L202.29 301.945L202.989 302.858C204.882 301.409 206.541 299.631 207.97 297.534C207.971 297.532 207.972 297.53 207.973 297.529L231.211 264.204C232.199 263.24 233.015 262.547 233.666 262.099C234.382 261.606 234.727 261.533 234.798 261.533C235.574 261.533 236.18 261.728 236.669 262.076L236.669 262.076C237.269 262.503 237.826 263.044 238.338 263.708L262.234 298.178L262.243 298.19L262.252 298.202C263.677 300.147 265.267 301.778 267.025 303.082L267.71 302.159L267.025 303.082C268.872 304.452 270.936 305.15 273.188 305.15C276.403 305.15 279.373 304.113 282.072 302.083C284.873 299.977 286.445 296.956 286.837 293.151L298.085 207.034L298.086 207.024C298.492 203.699 298.771 200.812 298.923 198.366C299.073 195.941 299.15 194.031 299.15 192.647C299.15 185.262 296.686 178.951 291.756 173.785L290.932 174.572L291.756 173.785C286.831 168.624 280.83 165.965 273.812 165.85ZM248.367 185.584L247.98 184.501L248.367 185.584C251.99 184.29 255.519 182.558 258.955 180.393C261.559 178.84 263.989 177.49 266.245 176.344C268.34 175.28 270.844 174.726 273.793 174.726C278.5 174.726 282.456 176.44 285.727 179.906L286.564 179.117L285.727 179.906C289.002 183.375 290.643 187.598 290.643 192.647C290.643 193.751 290.578 195.378 290.444 197.541C290.311 199.676 290.046 202.228 289.645 205.202L289.644 205.21L278.506 291.96C278.279 293.271 277.679 294.287 276.699 295.07L277.416 295.969L276.699 295.07C275.674 295.888 274.582 296.274 273.39 296.274C272.509 296.274 271.73 295.975 271.008 295.327C270.181 294.583 269.457 293.693 268.84 292.647L268.82 292.613L268.797 292.58L245.696 258.997C245.695 258.996 245.695 258.995 245.694 258.994C244.413 257.11 242.861 255.582 241.038 254.429L241.038 254.429C239.179 253.253 237.159 252.657 235 252.657C232.842 252.657 230.816 253.253 228.943 254.427L228.943 254.427C227.104 255.579 225.544 257.107 224.261 258.992C224.26 258.993 224.259 258.995 224.258 258.996L201.429 291.903C200.539 293.016 199.672 294.044 198.826 294.988C198.178 295.712 197.399 296.06 196.409 296.06C195.331 296.06 194.252 295.69 193.151 294.861C192.154 294.111 191.59 293.105 191.455 291.752L191.453 291.736L191.451 291.721L180.356 205.21L180.355 205.202C179.954 202.228 179.689 199.676 179.556 197.541C179.422 195.378 179.357 193.751 179.357 192.647C179.357 187.598 180.998 183.375 184.273 179.906L184.273 179.906C187.544 176.44 191.5 174.726 196.207 174.726C199.153 174.726 201.757 175.279 204.04 176.359L204.532 175.319L204.04 176.359C206.454 177.5 208.906 178.843 211.397 180.39L211.403 180.394C214.938 182.556 218.483 184.287 222.037 185.582L222.037 185.582C225.673 186.906 230.003 187.55 235 187.55C240.198 187.55 244.664 186.907 248.367 185.584Z" fill="white" stroke="white" stroke-width="2.3"/>
</svg>
