<svg width="52" height="52" viewBox="0 0 52 52" fill="none" xmlns="http://www.w3.org/2000/svg">
<g clip-path="url(#clip0_2148_804)">
<path d="M48.0614 10.2817C47.3327 7.52384 45.1992 4.89242 42.0556 2.87298C39.9382 1.51273 37.329 0.792969 34.507 0.792969C32.2372 0.792969 29.9051 1.26064 27.761 2.14787L27.5988 2.21646C27.5124 2.25388 27.4287 2.29129 27.3387 2.32247C26.9245 2.46589 26.6065 2.58971 26.3473 2.69037C26.048 2.80617 25.876 2.87031 25.7424 2.90327L28.1057 5.19974C31.0774 7.73228 31.0676 10.2301 31.0507 14.7669L31.0471 15.9365C31.0471 16.4291 30.6489 16.8273 30.1563 16.8273C29.6637 16.8273 29.2655 16.4291 29.2655 15.9365L29.2682 14.7616C29.286 10.3699 29.2923 8.55271 26.9067 6.51723L22.369 2.10779C20.2747 1.55905 17.866 1.07357 15.541 1.07357C14.0676 1.07357 12.7493 1.27578 11.6251 1.67397C6.51991 3.48318 1.99644 9.47023 3.39499 18.7684C3.56157 19.8685 3.72191 20.9775 3.88404 22.0919C5.05365 30.1234 6.26068 38.4283 9.36689 45.9279L9.47379 46.1871C10.2443 48.064 11.5351 51.2068 13.7817 51.2068H13.9625L14.1291 51.1364C16.1913 50.2634 16.9627 48.2841 17.5257 46.8392C17.9061 45.8638 18.2446 44.8705 18.5715 43.9102C19.3982 41.4846 20.1785 39.1935 21.5851 37.1366C23.0941 34.9283 24.9977 33.6634 26.8069 33.6634C27.6051 33.6634 28.413 33.903 29.2058 34.3751C31.66 35.8369 32.4296 38.7864 33.1744 41.6387C33.3864 42.4529 33.6064 43.2947 33.8612 44.0804C34.9836 47.5349 36.4445 51.066 38.7775 51.066C39.8731 51.066 40.8459 50.2964 41.7501 48.7116C43.496 45.6517 44.2452 42.2436 44.9685 38.9476L45.2224 37.7958C45.5074 36.522 45.8246 35.208 46.1479 33.8647C47.9678 26.301 50.0318 17.7297 48.0614 10.2817Z" fill="#DB8CD2"/>
</g>
<defs>
<clipPath id="clip0_2148_804">
<rect width="50.4138" height="50.4138" fill="white" transform="translate(0.792969 0.792969)"/>
</clipPath>
</defs>
</svg>
