<svg width="470" height="470" viewBox="0 0 470 470" fill="none" xmlns="http://www.w3.org/2000/svg">
<rect x="0.333984" y="0.333496" width="469.333" height="469.333" rx="64" fill="#F7843A"/>
<mask id="mask0_3_62" style="mask-type:alpha" maskUnits="userSpaceOnUse" x="135" y="135" width="200" height="201">
<rect x="135" y="135" width="200" height="200" fill="#D9D9D9"/>
</mask>
<g mask="url(#mask0_3_62)">
<path d="M219.792 267.292C222.986 270.486 227.604 271.979 233.646 271.771C239.688 271.563 244.098 269.306 246.875 265L291.875 194.375L222.084 240C217.917 242.778 215.695 247.223 215.417 253.334C215.139 259.445 216.598 264.098 219.792 267.292ZM234.584 168.542C242.5 168.542 250.764 169.827 259.375 172.396C267.986 174.966 276.25 179.375 284.167 185.625L273.334 193.334C267.084 189.167 260.382 186.077 253.229 184.063C246.077 182.049 239.86 181.042 234.579 181.042C215.069 181.042 198.456 188.001 184.741 201.92C171.025 215.839 164.167 232.698 164.167 252.497C164.167 258.749 165.035 265.07 166.771 271.459C168.507 277.848 170.973 283.75 174.167 289.167H294.792C297.848 284.167 300.278 278.334 302.084 271.667C303.889 265 304.792 258.473 304.792 252.084C304.792 246.25 303.924 239.966 302.188 233.229C300.452 226.493 297.361 220.278 292.917 214.584L301.042 203.75C306.32 211.528 310.278 219.341 312.917 227.188C315.556 235.035 317.014 242.917 317.292 250.834C317.57 259.167 316.736 267.014 314.792 274.375C312.848 281.736 310 288.542 306.25 294.792C304.584 297.986 302.813 299.931 300.938 300.625C299.063 301.32 296.736 301.667 293.959 301.667H175C172.639 301.667 170.313 301.077 168.021 299.896C165.729 298.716 164.028 297.014 162.917 294.792C159.306 288.125 156.528 281.354 154.584 274.479C152.639 267.604 151.667 260.278 151.667 252.5C151.667 240.973 153.854 230.104 158.229 219.896C162.604 209.688 168.542 200.799 176.042 193.229C183.542 185.66 192.339 179.653 202.434 175.209C212.528 170.764 223.245 168.542 234.584 168.542Z" fill="white"/>
</g>
</svg>
