<svg width="470" height="470" viewBox="0 0 470 470" fill="none" xmlns="http://www.w3.org/2000/svg">
<rect x="0.333984" y="0.333496" width="469.333" height="469.333" rx="64" fill="#F7843A"/>
<mask id="mask0_3_63" style="mask-type:alpha" maskUnits="userSpaceOnUse" x="135" y="135" width="200" height="201">
<rect x="135" y="135" width="200" height="200" fill="#D9D9D9"/>
</mask>
<g mask="url(#mask0_3_63)">
<path d="M234.958 264.167C244.153 264.167 252.014 260.917 258.542 254.418C265.069 247.918 268.333 240.071 268.333 230.876C268.333 221.681 265.083 213.82 258.584 207.292C252.084 200.765 244.237 197.501 235.042 197.501C225.847 197.501 217.986 200.751 211.458 207.25C204.931 213.75 201.667 221.597 201.667 230.792C201.667 239.987 204.917 247.848 211.416 254.376C217.916 260.903 225.763 264.167 234.958 264.167ZM228.75 326.667V310.001H212.083V297.501H228.75V276.459C217.315 274.5 207.859 269.254 200.382 260.719C192.905 252.185 189.167 242.223 189.167 230.834C189.167 225.834 189.931 220.965 191.458 216.228C192.986 211.49 195.278 207.123 198.333 203.126L189.583 194.376L177.917 206.042L169.167 197.292L180.833 185.626L160 164.792V189.167H147.5V143.334H193.333V155.834H168.958L189.792 176.667L201.458 165.001L210.208 173.751L198.542 185.417L207.5 194.376C211.528 191.32 215.868 188.994 220.521 187.396C225.174 185.799 230 185.001 235 185.001C240 185.001 244.861 185.765 249.583 187.292C254.306 188.82 258.681 191.112 262.708 194.167L301.042 155.834H276.667V143.334H322.5V189.167H310V164.792L271.667 203.126C274.722 207.153 277.014 211.513 278.542 216.203C280.069 220.894 280.833 225.771 280.833 230.834C280.833 242.223 277.095 252.185 269.618 260.719C262.141 269.254 252.685 274.5 241.25 276.459V297.501H257.917V310.001H241.25V326.667H228.75Z" fill="white"/>
</g>
</svg>
