<svg width="52" height="52" viewBox="0 0 52 52" fill="none" xmlns="http://www.w3.org/2000/svg">
<g clip-path="url(#clip0_2148_627)">
<path d="M45.8058 10.6957C45.8055 10.1986 45.4025 9.7958 44.9055 9.79541H41.3046C40.8075 9.79571 40.4047 10.1986 40.4043 10.6957V11.5959H45.8058V10.6957Z" fill="#5E82F8"/>
<path d="M18.7975 7.99499C18.7988 7.00118 19.6041 6.19575 20.598 6.19447H30.5007C31.4946 6.19575 32.2999 7.00109 32.3012 7.99499V11.5959H34.1017V7.99499C34.0998 6.00709 32.4887 4.39601 30.5008 4.39404H20.598C18.61 4.39601 16.999 6.00709 16.9971 7.99499V11.5959H18.7976V7.99499H18.7975Z" fill="#5E82F8"/>
<path d="M30.5013 7.99512H20.5986V11.5961H30.5013V7.99512Z" fill="#5E82F8"/>
<path d="M48.506 13.3965H3.49375C2.0028 13.3982 0.794643 14.6063 0.792969 16.0973V44.9051C0.794643 46.3961 2.0028 47.6042 3.49375 47.6059H48.5061C49.9969 47.6042 51.2052 46.3961 51.2068 44.9051V16.0973C51.2052 14.6063 49.9969 13.3982 48.506 13.3965ZM37.7031 33.2019C37.7018 34.1958 36.8964 35.0012 35.9025 35.0024H29.6008V41.3042C29.5995 42.2981 28.7942 43.1034 27.8003 43.1047H22.3988C21.4049 43.1034 20.5996 42.2981 20.5983 41.3042V35.0024H14.2966C13.3027 35.0012 12.4973 34.1958 12.4961 33.2019V27.8005C12.4973 26.8066 13.3027 26.0012 14.2966 25.9999H20.5983V19.6982C20.5996 18.7043 21.4049 17.899 22.3988 17.8977H27.8003C28.7942 17.899 29.5995 18.7043 29.6008 19.6982V25.9999H35.9025C36.8964 26.0012 37.7018 26.8066 37.7031 27.8005V33.2019Z" fill="#5E82F8"/>
<path d="M11.5958 10.6957C11.5955 10.1986 11.1926 9.7958 10.6955 9.79541H7.0946C6.59755 9.79571 6.19473 10.1986 6.19434 10.6957V11.5959H11.5958V10.6957Z" fill="#5E82F8"/>
<path d="M27.8006 26V19.6982H22.3991V26C22.3978 26.9939 21.5925 27.7992 20.5986 27.8005H14.2969V33.202H20.5986C21.5924 33.2032 22.3978 34.0086 22.3991 35.0025V41.3042H27.8006V35.0025C27.8019 34.0086 28.6072 33.2032 29.6011 33.202H35.9028V27.7987L29.6011 27.8005C28.6072 27.7992 27.8019 26.9939 27.8006 26Z" fill="#5E82F8"/>
</g>
<defs>
<clipPath id="clip0_2148_627">
<rect width="50.4138" height="50.4138" fill="white" transform="translate(0.792969 0.792969)"/>
</clipPath>
</defs>
</svg>
