<svg width="470" height="470" viewBox="0 0 470 470" fill="none" xmlns="http://www.w3.org/2000/svg">
<rect x="0.333984" y="0.333496" width="469.333" height="469.333" rx="64" fill="#F7843A"/>
<mask id="mask0_3_64" style="mask-type:alpha" maskUnits="userSpaceOnUse" x="135" y="135" width="200" height="201">
<rect x="135" y="135" width="200" height="200" fill="#D9D9D9"/>
</mask>
<g mask="url(#mask0_3_64)">
<path d="M307.083 213.125L298.333 204.375L307.708 195L275 162.292L265.625 171.667L256.666 162.709L262.916 156.25C266.111 153.056 270.069 151.494 274.791 151.563C279.514 151.632 283.472 153.264 286.666 156.459L313.541 183.334C316.736 186.528 318.333 190.452 318.333 195.105C318.333 199.757 316.736 203.681 313.541 206.875L307.083 213.125ZM207.083 313.334C203.889 316.528 199.965 318.126 195.312 318.126C190.659 318.126 186.736 316.528 183.541 313.334L153.75 283.542C151.389 281.129 150.208 278.164 150.208 274.649C150.208 271.133 151.389 268.195 153.75 265.834L162.916 256.667L171.875 265.417L162.5 274.792L195.208 307.501L204.583 298.126L213.333 307.084L207.083 313.334ZM289.791 249.167L307.5 231.459L238.541 162.5L220.833 180.209L289.791 249.167ZM231.458 307.501L249.375 289.584L180.416 220.625L162.5 238.542L231.458 307.501ZM233.333 255.834L256.041 233.125L236.875 213.959L214.166 236.667L233.333 255.834ZM240.208 316.251C237.856 318.612 234.942 319.792 231.465 319.792C227.988 319.792 225.069 318.612 222.708 316.251L153.75 247.292C151.389 244.94 150.208 242.026 150.208 238.549C150.208 235.072 151.389 232.153 153.75 229.792L171.458 211.875C173.872 209.514 176.836 208.334 180.352 208.334C183.867 208.334 186.805 209.514 189.166 211.875L205.208 227.917L228.125 205L212.083 188.959C209.722 186.607 208.541 183.693 208.541 180.216C208.541 176.739 209.722 173.82 212.083 171.459L229.791 153.542C232.205 151.181 235.169 150 238.685 150C242.2 150 245.139 151.181 247.5 153.542L316.458 222.5C318.819 224.914 320 227.879 320 231.394C320 234.909 318.819 237.848 316.458 240.209L298.541 257.917C296.189 260.278 293.275 261.459 289.798 261.459C286.321 261.459 283.402 260.278 281.041 257.917L265 241.876L242.083 264.792L258.125 280.834C260.486 283.247 261.666 286.212 261.666 289.727C261.666 293.243 260.486 296.181 258.125 298.542L240.208 316.251Z" fill="white"/>
</g>
</svg>
