<svg width="470" height="470" viewBox="0 0 470 470" fill="none" xmlns="http://www.w3.org/2000/svg">
<rect x="0.333984" y="0.333008" width="469.333" height="469.333" rx="64" fill="#F7843A"/>
<mask id="mask0_3_95" style="mask-type:alpha" maskUnits="userSpaceOnUse" x="135" y="135" width="200" height="200">
<rect x="135" y="135" width="200" height="200" fill="#D9D9D9"/>
</mask>
<g mask="url(#mask0_3_95)">
<path d="M213.125 313.75L206.458 300.833C205.355 298.597 204.558 296.294 204.068 293.925C203.578 291.557 203.333 289.123 203.333 286.623C203.333 283.596 203.751 280.641 204.587 277.756C205.423 274.872 206.741 272.147 208.541 269.583C209.652 267.778 210.555 265.918 211.25 264.004C211.944 262.09 212.291 260.061 212.291 257.917C212.291 255.543 211.875 253.318 211.041 251.241C210.208 249.164 209.236 247.083 208.125 245C207.014 242.5 206.007 239.929 205.104 237.288C204.201 234.647 203.75 231.94 203.75 229.167V195.417C203.75 191.366 202.465 187.922 199.896 185.087C197.326 182.251 194.097 180.833 190.208 180.833C186.597 180.833 183.507 181.979 180.937 184.271C178.368 186.562 176.944 189.375 176.666 192.708C181.51 194.525 185.498 197.565 188.632 201.827C191.766 206.089 193.333 210.875 193.333 216.186C193.333 223.173 190.902 229.097 186.041 233.958C181.18 238.819 175.277 241.25 168.333 241.25C161.389 241.25 155.486 238.819 150.625 233.958C145.764 229.097 143.333 223.194 143.333 216.25C143.333 210 145.312 204.583 149.271 200C153.229 195.417 158.194 192.639 164.166 191.667C164.722 185 167.495 179.444 172.486 175C177.477 170.556 183.385 168.333 190.208 168.333C191.273 168.333 192.338 168.403 193.402 168.542C194.467 168.681 195.467 168.889 196.401 169.167C202.272 165.694 208.457 163.299 214.955 161.979C221.453 160.66 228.118 160 234.951 160C241.65 160 248.264 160.66 254.791 161.979C261.319 163.299 267.519 165.694 273.39 169.167C274.324 168.889 275.324 168.681 276.389 168.542C277.453 168.403 278.518 168.333 279.583 168.333C286.389 168.333 292.291 170.521 297.291 174.896C302.291 179.271 305.069 184.792 305.625 191.458C311.597 192.431 316.597 195.243 320.625 199.896C324.652 204.549 326.666 210 326.666 216.25C326.666 223.194 324.236 229.097 319.375 233.958C314.514 238.819 308.611 241.25 301.666 241.25C294.722 241.25 288.819 238.819 283.958 233.958C279.097 229.097 276.666 223.194 276.666 216.25C276.666 210.833 278.194 206.007 281.25 201.771C284.305 197.535 288.264 194.514 293.125 192.708C292.847 189.236 291.412 186.389 288.819 184.167C286.227 181.944 283.148 180.833 279.583 180.833C275.816 180.833 272.653 182.251 270.092 185.087C267.53 187.922 266.25 191.366 266.25 195.417V229.167C266.25 231.938 265.764 234.642 264.791 237.281C263.819 239.92 262.708 242.493 261.458 245C260.486 247.079 259.618 249.159 258.854 251.238C258.09 253.318 257.708 255.546 257.708 257.923C257.708 260.002 258.021 262.049 258.646 264.062C259.271 266.076 260.139 267.917 261.25 269.583C263.055 272.083 264.409 274.806 265.312 277.751C266.215 280.697 266.666 283.675 266.666 286.686C266.666 289.173 266.372 291.596 265.784 293.954C265.196 296.313 264.379 298.606 263.333 300.833L256.666 313.75L245.416 308.125L251.875 295.208C252.569 293.819 253.125 292.422 253.541 291.016C253.958 289.609 254.166 288.125 254.166 286.562C254.166 284.687 253.889 282.917 253.333 281.25C252.777 279.583 251.944 277.986 250.833 276.458C248.889 273.681 247.465 270.747 246.562 267.656C245.659 264.566 245.208 261.411 245.208 258.192C245.208 255.231 245.659 252.396 246.562 249.687C247.465 246.979 248.611 244.306 250 241.667C250.972 239.722 251.84 237.698 252.604 235.595C253.368 233.491 253.75 231.348 253.75 229.167V195.331C253.75 191.769 254.375 188.393 255.625 185.203C256.875 182.012 258.611 179.236 260.833 176.875C256.805 175.347 252.606 174.236 248.236 173.542C243.866 172.847 239.457 172.5 235.007 172.5C230.558 172.5 226.146 172.847 221.771 173.542C217.396 174.236 213.194 175.347 209.166 176.875C211.389 179.236 213.125 182.012 214.375 185.203C215.625 188.393 216.25 191.769 216.25 195.331V229.167C216.25 231.389 216.597 233.542 217.291 235.625C217.986 237.708 218.889 239.722 220 241.667C221.25 244.306 222.361 246.979 223.333 249.687C224.305 252.396 224.791 255.214 224.791 258.142C224.791 261.325 224.288 264.477 223.283 267.596C222.277 270.716 220.835 273.67 218.958 276.458C217.847 277.986 217.048 279.601 216.562 281.302C216.076 283.003 215.833 284.782 215.833 286.638C215.833 288.185 216.007 289.653 216.354 291.042C216.701 292.431 217.222 293.819 217.916 295.208L224.375 308.125L213.125 313.75ZM168.333 228.75C171.875 228.75 174.843 227.552 177.239 225.156C179.635 222.76 180.833 219.792 180.833 216.25C180.833 212.708 179.635 209.74 177.239 207.344C174.843 204.948 171.875 203.75 168.333 203.75C164.791 203.75 161.823 204.948 159.427 207.344C157.031 209.74 155.833 212.708 155.833 216.25C155.833 219.792 157.031 222.76 159.427 225.156C161.823 227.552 164.791 228.75 168.333 228.75ZM301.666 228.75C305.208 228.75 308.177 227.552 310.573 225.156C312.968 222.76 314.166 219.792 314.166 216.25C314.166 212.708 312.968 209.74 310.573 207.344C308.177 204.948 305.208 203.75 301.666 203.75C298.125 203.75 295.156 204.948 292.76 207.344C290.364 209.74 289.166 212.708 289.166 216.25C289.166 219.792 290.364 222.76 292.76 225.156C295.156 227.552 298.125 228.75 301.666 228.75Z" fill="white"/>
</g>
</svg>
