<svg width="470" height="470" viewBox="0 0 470 470" fill="none" xmlns="http://www.w3.org/2000/svg">
<rect x="0.333984" y="0.333496" width="469.333" height="469.333" rx="64" fill="#F7843A"/>
<mask id="mask0_3_65" style="mask-type:alpha" maskUnits="userSpaceOnUse" x="135" y="135" width="200" height="201">
<rect x="135" y="135" width="200" height="200" fill="#D9D9D9"/>
</mask>
<g mask="url(#mask0_3_65)">
<path d="M235 310C232.5 310 230.104 309.549 227.813 308.646C225.521 307.744 223.473 306.389 221.667 304.584L165.834 248.542C160.973 243.681 157.396 238.125 155.104 231.875C152.813 225.625 151.667 219.098 151.667 212.292C151.667 197.987 156.32 185.695 165.625 175.417C174.931 165.139 186.528 160 200.417 160C207.084 160 213.368 161.32 219.271 163.959C225.174 166.598 230.417 170.278 235 175C239.445 170.278 244.618 166.598 250.521 163.959C256.424 161.32 262.709 160 269.375 160C283.264 160 294.896 165.139 304.271 175.417C313.646 185.695 318.334 197.917 318.334 212.084C318.334 218.889 317.153 225.417 314.792 231.667C312.431 237.917 308.889 243.473 304.167 248.334L248.125 304.584C246.32 306.389 244.306 307.744 242.084 308.646C239.861 309.549 237.5 310 235 310ZM243.395 203.75C244.465 203.75 245.417 204.028 246.25 204.584C247.084 205.139 247.848 205.834 248.542 206.667L263.334 228.75H302.528C303.63 226.052 304.456 223.314 305.007 220.536C305.558 217.758 305.834 214.941 305.834 212.084C305.834 201.389 302.365 192.119 295.428 184.271C288.491 176.424 279.82 172.5 269.415 172.5C264.527 172.5 259.827 173.507 255.313 175.521C250.799 177.535 246.875 180.348 243.542 183.959L237.917 190C237.5 190.417 237.084 190.764 236.667 191.042C236.25 191.32 235.695 191.459 235 191.459C234.306 191.459 233.706 191.328 233.201 191.066C232.696 190.804 232.254 190.449 231.875 190L226.25 183.959C222.879 180.373 218.946 177.567 214.451 175.54C209.956 173.514 205.278 172.5 200.417 172.5C190.06 172.5 181.429 176.42 174.524 184.259C167.619 192.098 164.167 201.373 164.167 212.084C164.167 214.961 164.445 217.799 165 220.596C165.556 223.393 166.365 226.112 167.427 228.75H210C211.053 228.75 212.052 229.001 212.999 229.503C213.946 230.004 214.683 230.656 215.209 231.459L224.792 246.042L237.292 208.125C237.72 206.875 238.496 205.834 239.621 205C240.745 204.167 242.003 203.75 243.395 203.75ZM245.209 223.959L232.5 261.875C232.087 263.125 231.313 264.167 230.177 265C229.041 265.834 227.801 266.25 226.459 266.25C225.348 266.25 224.375 265.973 223.542 265.417C222.709 264.862 222.014 264.167 221.459 263.334L206.667 241.25H176.25L230.625 295.625C231.32 296.32 232 296.806 232.667 297.084C233.334 297.362 234.111 297.5 235 297.5C235.889 297.5 236.667 297.362 237.334 297.084C238 296.806 238.681 296.32 239.375 295.625L293.542 241.25H260C258.889 241.25 257.917 240.973 257.084 240.417C256.25 239.862 255.486 239.167 254.792 238.334L245.209 223.959Z" fill="white"/>
</g>
</svg>
