<svg width="470" height="470" viewBox="0 0 470 470" fill="none" xmlns="http://www.w3.org/2000/svg">
<rect x="0.333984" y="0.333496" width="469.333" height="469.333" rx="64" fill="#F7843A"/>
<mask id="mask0_3_66" style="mask-type:alpha" maskUnits="userSpaceOnUse" x="135" y="135" width="200" height="200">
<rect x="135" y="135" width="200" height="200" fill="#D9D9D9"/>
</mask>
<g mask="url(#mask0_3_66)">
<path d="M191.976 187.312C187.992 187.312 184.6 185.928 181.8 183.16C179 180.391 177.6 177.049 177.6 173.132C177.6 169.216 179.008 165.882 181.824 163.129C184.64 160.376 188.04 159 192.024 159C196.008 159 199.4 160.384 202.2 163.153C205 165.921 206.4 169.264 206.4 173.18C206.4 177.096 204.992 180.431 202.176 183.184C199.36 185.936 195.96 187.312 191.976 187.312ZM177.6 310V262.812H168V215.625C168 211.732 169.41 208.399 172.23 205.627C175.05 202.855 178.44 201.469 182.4 201.469H201.6C205.56 201.469 208.95 202.855 211.77 205.627C214.59 208.399 216 211.732 216 215.625V262.812H206.4V310H177.6Z" fill="white"/>
<path d="M267.333 310L234 276.667L242.75 267.917L261.083 286.042L260.875 183.958L242.75 202.083L234 193.333L267.333 160L300.667 193.333L291.708 202.292L273.583 183.958V286.042L291.917 267.917L300.667 276.667L267.333 310Z" fill="white"/>
</g>
</svg>
