<svg width="52" height="52" viewBox="0 0 52 52" fill="none" xmlns="http://www.w3.org/2000/svg">
<g clip-path="url(#clip0_2148_1347)">
<path d="M46.1642 22.0133C46.8754 22.0133 47.5856 21.7429 48.1265 21.2012L49.3001 20.0285C50.3827 18.9459 50.3827 17.1846 49.3001 16.103L35.3793 2.18218C34.2985 1.10057 32.5363 1.09959 31.4538 2.18218L30.2802 3.35577C29.2156 4.42032 29.2039 6.1392 30.2351 7.22534L5.76465 31.6958H33.8092L44.257 21.2471C44.7914 21.7546 45.4755 22.0133 46.1642 22.0133ZM31.5556 4.63031L32.7283 3.45672C32.9185 3.26744 33.1673 3.17279 33.4161 3.17279C33.6658 3.17279 33.9154 3.26744 34.1047 3.45672L48.0255 17.3776C48.405 17.7571 48.405 18.3745 48.0255 18.754L46.8519 19.9267C46.4716 20.3062 45.8541 20.3053 45.4755 19.9267L44.6436 19.0947L32.3876 6.83868L31.5556 6.0067C31.1762 5.62724 31.1762 5.00978 31.5556 4.63031ZM24.4934 28.2635C24.3176 28.4393 24.0869 28.5276 23.8561 28.5276C23.6253 28.5276 23.3946 28.4393 23.2188 28.2635L19.3943 24.439C19.0428 24.0874 19.0428 23.5169 19.3943 23.1644C19.7468 22.8129 20.3173 22.8129 20.6689 23.1644L24.4934 26.989C24.8458 27.3414 24.8458 27.9111 24.4934 28.2635ZM25.1307 23.8017C24.9549 23.9784 24.7242 24.0658 24.4934 24.0658C24.2626 24.0658 24.0319 23.9784 23.8561 23.8017L21.9443 21.8899C21.5918 21.5374 21.5918 20.9669 21.9443 20.6154C22.2968 20.2629 22.8664 20.2629 23.2188 20.6154L25.1307 22.5272C25.4831 22.8796 25.4831 23.4501 25.1307 23.8017ZM29.5924 23.1644C29.4158 23.3411 29.186 23.4286 28.9552 23.4286C28.7244 23.4286 28.4937 23.3411 28.3179 23.1644L24.4943 19.3408C24.1418 18.9884 24.1418 18.4178 24.4943 18.0654C24.8458 17.7138 25.4164 17.7138 25.7688 18.0654L29.5924 21.8899C29.944 22.2423 29.944 22.8129 29.5924 23.1644ZM30.2297 18.7035C30.0539 18.8793 29.8232 18.9668 29.5924 18.9668C29.3617 18.9668 29.1318 18.8793 28.9552 18.7035L27.0434 16.7908C26.6909 16.4384 26.6909 15.8679 27.0434 15.5163C27.3949 15.1638 27.9655 15.1638 28.3179 15.5163L30.2297 17.4281C30.5822 17.7805 30.5822 18.3511 30.2297 18.7035ZM34.6915 18.0654C34.5157 18.2412 34.285 18.3295 34.0542 18.3295C33.8234 18.3295 33.5927 18.2412 33.417 18.0654L29.5924 14.2409C29.2409 13.8893 29.2409 13.3188 29.5924 12.9663C29.9449 12.6147 30.5154 12.6147 30.867 12.9663L34.6915 16.7908C35.044 17.1432 35.044 17.7129 34.6915 18.0654Z" fill="#E39AF0"/>
<path d="M3.40648 34.0538C-0.078203 37.5385 -0.078203 43.2082 3.40648 46.6928L4.68556 47.9719C6.45679 49.7432 8.78228 50.6292 11.1088 50.6292C13.4343 50.6292 15.7616 49.7432 17.532 47.9719L32.0061 33.4985H3.96173L3.40648 34.0538Z" fill="#E39AF0"/>
</g>
<defs>
<clipPath id="clip0_2148_1347">
<rect width="50.4138" height="50.4138" fill="white" transform="translate(0.792969 0.792969)"/>
</clipPath>
</defs>
</svg>
