<svg width="470" height="470" viewBox="0 0 470 470" fill="none" xmlns="http://www.w3.org/2000/svg">
<rect x="0.333984" y="0.333496" width="469.333" height="469.333" rx="64" fill="#F7843A"/>
<mask id="mask0_3_70" style="mask-type:alpha" maskUnits="userSpaceOnUse" x="135" y="135" width="200" height="201">
<rect x="135" y="135" width="200" height="200" fill="#D9D9D9"/>
</mask>
<g mask="url(#mask0_3_70)">
<path d="M235.016 165.417C230.839 165.417 227.257 163.93 224.271 160.955C221.284 157.98 219.791 154.403 219.791 150.225C219.791 146.048 221.279 142.466 224.254 139.48C227.229 136.494 230.805 135 234.983 135C239.161 135 242.743 136.488 245.729 139.463C248.715 142.438 250.208 146.015 250.208 150.192C250.208 154.37 248.721 157.952 245.746 160.938C242.77 163.924 239.194 165.417 235.016 165.417ZM213.333 293.334V190.417C204.583 189.723 195.764 188.716 186.875 187.396C177.986 186.077 169.722 184.445 162.083 182.5L165.208 170C176.319 172.778 187.743 174.792 199.479 176.042C211.215 177.292 223.055 177.917 235 177.917C246.944 177.917 258.784 177.292 270.521 176.042C282.257 174.792 293.68 172.778 304.791 170L307.916 182.5C300.277 184.445 292.014 186.077 283.125 187.396C274.236 188.716 265.416 189.733 256.666 190.447V293.334H244.166V242.5H225.833V293.334H213.333ZM201.041 335C198.68 335 196.771 334.271 195.312 332.813C193.854 331.355 193.125 329.445 193.125 327.084C193.125 324.723 193.854 322.813 195.312 321.355C196.771 319.896 198.68 319.167 201.041 319.167C203.402 319.167 205.312 319.896 206.771 321.355C208.229 322.813 208.958 324.723 208.958 327.084C208.958 329.445 208.229 331.355 206.771 332.813C205.312 334.271 203.402 335 201.041 335ZM235.208 335C232.847 335 230.937 334.271 229.479 332.813C228.021 331.355 227.291 329.445 227.291 327.084C227.291 324.723 228.021 322.813 229.479 321.355C230.937 319.896 232.847 319.167 235.208 319.167C237.569 319.167 239.479 319.896 240.937 321.355C242.396 322.813 243.125 324.723 243.125 327.084C243.125 329.445 242.396 331.355 240.937 332.813C239.479 334.271 237.569 335 235.208 335ZM269.375 335C267.014 335 265.104 334.271 263.646 332.813C262.187 331.355 261.458 329.445 261.458 327.084C261.458 324.723 262.187 322.813 263.646 321.355C265.104 319.896 267.014 319.167 269.375 319.167C271.736 319.167 273.646 319.896 275.104 321.355C276.562 322.813 277.291 324.723 277.291 327.084C277.291 329.445 276.562 331.355 275.104 332.813C273.646 334.271 271.736 335 269.375 335Z" fill="white"/>
</g>
</svg>
