<svg width="51" height="51" viewBox="0 0 51 51" fill="none" xmlns="http://www.w3.org/2000/svg">
<g clip-path="url(#clip0_0_239)">
<path d="M18.8874 26.8733L36.6127 20.4204C35.9446 19.7368 35.1306 19.2134 34.2309 18.8892L22.2526 14.5287L17.8901 26.5125L18.8874 26.8733Z" fill="#84A2FF"/>
<path d="M19.2009 28.6986H19.1954L16.77 29.5812C14.6295 30.3602 13.0671 32.2218 12.6714 34.465C12.2753 36.7079 13.1064 38.9921 14.8513 40.4564C16.5957 41.9206 18.9892 42.3432 21.1298 41.5642L33.112 37.2037L28.7531 25.2234L19.2009 28.6986ZM18.2156 32.8428C17.7125 32.8428 17.3047 32.435 17.3047 31.9319C17.3047 31.4291 17.7125 31.0213 18.2156 31.0213C18.7184 31.0213 19.1262 31.4291 19.1262 31.9319C19.1262 32.435 18.7184 32.8428 18.2156 32.8428ZM26.2895 30.0551L23.0808 31.2233C22.9812 31.2602 22.8758 31.2793 22.7691 31.2789C22.3271 31.2793 21.9485 30.9618 21.8714 30.5263C21.7948 30.0909 22.0419 29.6629 22.4578 29.5123L25.6673 28.3445C25.9767 28.2177 26.3304 28.2702 26.5891 28.4815C26.8483 28.6932 26.9705 29.0294 26.9078 29.3574C26.8452 29.6858 26.6078 29.9536 26.2895 30.0551Z" fill="#84A2FF"/>
<path d="M20.5414 13.9061L8.56111 9.5444C5.25163 8.34746 1.59699 10.0491 0.382538 13.3523C0.127274 14.0497 -0.00230374 14.7867 3.09964e-05 15.5291C0.00353309 18.2094 1.67987 20.6021 4.19788 21.5208L16.1817 25.8844L20.5414 13.9061ZM2.73245 15.538C2.22931 15.538 1.82151 15.1302 1.82151 14.6275C1.82151 14.1244 2.22931 13.7166 2.73245 13.7166C3.2352 13.7166 3.643 14.1244 3.643 14.6275C3.643 15.1302 3.2352 15.538 2.73245 15.538ZM8.4829 12.4204C8.31169 12.8932 7.78987 13.1379 7.31709 12.9671L6.38086 12.8056C6.09992 12.8064 5.82052 12.8504 5.5532 12.936C5.08703 13.0547 4.6088 12.7905 4.46132 12.3328C4.31384 11.8749 4.54771 11.3811 4.99559 11.2056C5.21738 11.1351 5.44424 11.081 5.67421 11.0445C5.90769 11.0059 6.14428 10.9857 6.38086 10.9841L7.55562 11.1402L7.93463 11.2593C8.40547 11.4297 8.65061 11.9484 8.4829 12.4204ZM15.5334 15.9599L12.7936 14.9579C12.4796 14.8532 12.2469 14.5863 12.1862 14.2606C12.1259 13.9349 12.2469 13.6022 12.5021 13.3913C12.7578 13.1807 13.1076 13.1251 13.4158 13.2465L16.1552 14.2438C16.4696 14.3485 16.7019 14.6158 16.7626 14.9415C16.823 15.2668 16.7023 15.5999 16.4467 15.8104C16.191 16.0213 15.8412 16.0766 15.5334 15.9552V15.9599Z" fill="#84A2FF"/>
<path d="M50.6169 24.0474C50.0386 22.4575 48.8522 21.1629 47.3186 20.4481C45.7855 19.7332 44.031 19.6574 42.4418 20.2368L38.4389 21.694C38.4326 21.694 38.4288 21.7022 38.4225 21.7042L30.4603 24.6012L34.8239 36.5768L46.807 32.2151C50.1102 31.0073 51.8138 27.3546 50.6169 24.0474ZM37.2723 25.9973L34.0624 27.1651C33.5896 27.3367 33.067 27.0927 32.8954 26.6199C32.7238 26.1472 32.9678 25.6246 33.4406 25.453L36.6493 24.2817C37.1221 24.1097 37.6447 24.3533 37.8167 24.8261C37.9887 25.2989 37.7451 25.8218 37.2723 25.9938V25.9973ZM47.4583 23.7681C47.1692 24.179 46.6019 24.2786 46.1902 23.9902C45.9633 23.8327 45.7143 23.7097 45.4509 23.6256C45.3189 23.584 45.1839 23.5521 45.0473 23.5303C44.9084 23.5073 44.7683 23.4949 44.6275 23.4937L43.6912 23.6614L40.4806 24.828C40.0125 24.9841 39.5055 24.7389 39.3366 24.2751C39.1681 23.8113 39.3996 23.2976 39.8588 23.1167L44.2251 21.6886L44.6275 21.6722C44.8641 21.6722 45.0999 21.6909 45.3333 21.7279C45.5633 21.7637 45.7902 21.8178 46.012 21.889C46.2303 21.9594 46.4435 22.0454 46.6494 22.1466C46.8548 22.2493 47.0525 22.3672 47.2404 22.4991C47.6506 22.7894 47.7482 23.3575 47.4583 23.7681Z" fill="#84A2FF"/>
</g>
<defs>
<clipPath id="clip0_0_239">
<rect width="50.4138" height="50.4138" fill="white" transform="scale(1.01162)"/>
</clipPath>
</defs>
</svg>
