<svg width="51" height="44" viewBox="0 0 51 44" fill="none" xmlns="http://www.w3.org/2000/svg">
<path d="M45.536 6.37487C45.5357 5.87204 45.1281 5.46454 44.6252 5.46414H40.9824C40.4796 5.46444 40.0721 5.87204 40.0717 6.37487V7.28559H45.536V6.37487Z" fill="#5E82F8"/>
<path d="M18.2138 3.6428C18.2151 2.63744 19.0298 1.82264 20.0352 1.82135H30.053C31.0584 1.82264 31.8731 2.63734 31.8744 3.6428V7.28559H33.6959V3.6428C33.6939 1.63179 32.0641 0.00199218 30.0531 0H20.0352C18.0241 0.00199218 16.3944 1.63179 16.3924 3.6428V7.28559H18.2139V3.6428H18.2138Z" fill="#5E82F8"/>
<path d="M30.0536 3.64293H20.0359V7.28572H30.0536V3.64293Z" fill="#5E82F8"/>
<path d="M48.2676 9.10707H2.73217C1.22389 9.10877 0.00169335 10.331 0 11.8392V40.9819C0.00169335 42.4902 1.22389 43.7124 2.73217 43.7141H48.2677C49.7758 43.7124 50.9981 42.4902 50.9997 40.9819V11.8392C50.9981 10.331 49.7758 9.10877 48.2676 9.10707ZM37.3391 29.1427C37.3378 30.1481 36.5231 30.9628 35.5176 30.9641H29.1427V37.3391C29.1414 38.3446 28.3267 39.1593 27.3212 39.1606H21.857C20.8515 39.1593 20.0368 38.3446 20.0355 37.3391V30.9641H13.6606C12.6551 30.9628 11.8404 30.1481 11.8391 29.1427V23.6785C11.8404 22.673 12.6551 21.8583 13.6606 21.857H20.0355V15.482C20.0368 14.4766 20.8515 13.6619 21.857 13.6606H27.3212C28.3267 13.6619 29.1414 14.4766 29.1427 15.482V21.857H35.5176C36.5231 21.8583 37.3378 22.673 37.3391 23.6785V29.1427Z" fill="#5E82F8"/>
<path d="M10.9284 6.37487C10.9281 5.87204 10.5205 5.46454 10.0177 5.46414H6.37487C5.87204 5.46444 5.46454 5.87204 5.46414 6.37487V7.28559H10.9284V6.37487Z" fill="#5E82F8"/>
<path d="M27.3215 21.857V15.4821H21.8573V21.857C21.856 22.8625 21.0413 23.6772 20.0358 23.6785H13.6609V29.1427H20.0358C21.0412 29.144 21.856 29.9587 21.8573 30.9642V37.3391H27.3215V30.9642C27.3228 29.9587 28.1375 29.144 29.143 29.1427H35.5179V23.6767L29.143 23.6785C28.1375 23.6772 27.3228 22.8625 27.3215 21.857Z" fill="#5E82F8"/>
</svg>
