<svg width="51" height="51" viewBox="0 0 51 51" fill="none" xmlns="http://www.w3.org/2000/svg">
<path d="M17.2738 29.5639C17.135 30.5519 16.6291 31.4515 15.857 32.0832C15.9644 32.279 16.0563 32.4829 16.1318 32.693C16.1491 32.7401 16.1665 32.7861 16.1823 32.8331C16.2479 33.0263 16.3018 33.2233 16.3437 33.4231L16.3487 33.4421C17.5471 31.4004 19.0371 29.5445 20.7714 27.9331C20.7707 27.773 20.7676 27.6136 20.7666 27.4536C19.4934 27.9585 18.313 28.6717 17.2738 29.5639Z" fill="#7E65C3"/>
<path d="M15.678 37.0994C15.6131 37.0199 15.5526 36.9528 15.49 36.8789C14.1839 37.8701 12.5641 38.3569 10.9281 38.2501C8.67225 38.2594 6.42725 37.9369 4.26521 37.2927C3.7884 37.1334 3.53082 36.6181 3.68959 36.1411C3.84836 35.6642 4.36352 35.406 4.84063 35.5642C6.8181 36.1418 8.86808 36.4328 10.9281 36.4287C13.456 36.4287 14.3763 35.4899 14.6095 35.1855C14.735 34.3429 14.5586 33.4829 14.1115 32.7577C12.0458 32.7522 10.0472 32.0234 8.46288 30.6978C8.11197 30.3414 8.11426 29.7688 8.46786 29.4151C8.82146 29.0614 9.3942 29.0592 9.75058 29.4101C11.0524 30.4468 12.6776 30.9925 14.3413 30.9514C14.9931 30.5703 15.4185 29.8957 15.4815 29.1433C15.3387 28.1121 14.8756 27.1518 14.1576 26.3978C10.5076 26.261 8.32433 24.3035 7.31294 20.2575C7.23395 19.9419 7.32937 19.6083 7.56315 19.3821C7.79692 19.156 8.13359 19.0718 8.44625 19.1611C8.75901 19.2505 9.00026 19.4999 9.07924 19.8154C9.92081 23.1787 11.4967 24.563 14.5002 24.5855C15.2973 24.4008 16.0565 24.0796 16.7444 23.6365C16.7511 23.6321 16.7594 23.6319 16.7662 23.6277C18.2942 22.6508 19.1913 20.9383 19.1243 19.1257C19.1243 14.7395 17.1295 10.0189 12.7495 10.0189C4.76861 10.0189 0 19.2796 0 28.2325C0 37.7515 3.37952 47.3567 10.9281 47.3567C17.1241 47.3567 17.3029 41.6343 17.3029 40.982C17.2276 39.5393 16.6539 38.1674 15.6799 37.1007L15.678 37.0994Z" fill="#7E65C3"/>
<path d="M16.1504 25.9955L16.1554 26.0031C16.3822 26.3285 16.5841 26.6705 16.7594 27.0263C16.7665 27.0407 16.7725 27.0562 16.7795 27.0707C16.8339 27.1842 16.8868 27.2995 16.9352 27.4184C16.943 27.4375 16.9489 27.4579 16.9566 27.4771C18.0955 26.6665 19.3409 26.0171 20.6574 25.5472C20.6871 25.5419 20.7171 25.5384 20.7473 25.5363C20.746 25.4474 20.7461 25.3581 20.7446 25.2693C19.6648 25.5505 18.5351 25.5814 17.4415 25.3596C17.03 25.6078 16.5981 25.8205 16.1504 25.9955Z" fill="#7E65C3"/>
<path d="M25.2064 21.5136C25.0792 14.6536 24.4128 7.81419 23.2134 1.05855C23.1102 0.559023 22.7294 0.162992 22.2342 0.0403774C21.739 -0.082237 21.2174 0.0902798 20.8931 0.484021C20.6443 0.780347 20.5433 1.17349 20.6183 1.55299C22.6966 12.325 23.4543 35.113 21.3582 49.4869C21.302 49.8641 21.4148 50.2468 21.6668 50.5331C21.9228 50.8295 22.2952 50.9999 22.6869 50.9996C23.347 51.0052 23.9113 50.5256 24.012 49.8732C24.0552 49.5957 24.095 49.3083 24.1357 49.0239C24.167 48.8059 24.199 48.5917 24.229 48.3685C24.2518 48.1992 24.2728 48.0246 24.2949 47.853C24.3371 47.5246 24.3793 47.1972 24.4188 46.8586C24.4255 46.8022 24.4315 46.744 24.438 46.6874C25.2837 38.3254 25.5405 29.9141 25.2063 21.516L25.2064 21.5136Z" fill="#7E65C3"/>
<path d="M34.848 21.4421C34.0319 21.124 33.2714 20.6786 32.5949 20.1223C32.5037 21.378 32.4064 22.6715 32.3047 23.984C32.7886 23.8264 33.2904 23.7305 33.7982 23.6985C34.0029 22.887 34.3591 22.1214 34.848 21.4421Z" fill="#7E65C3"/>
<path d="M38.2488 5.46563C36.0815 5.49262 34.1239 6.76628 33.2211 8.73677C33.0207 9.10661 32.8447 9.48919 32.6943 9.88194C32.6573 9.97895 32.6243 10.0788 32.5899 10.1776C32.4699 10.5167 32.3635 10.8668 32.2735 11.229C32.2361 11.3804 32.2054 11.5344 32.1732 11.688C32.0998 12.0405 32.0358 12.399 31.9905 12.7687C31.9767 12.8781 31.9645 12.9871 31.9532 13.0968C31.9057 13.578 31.874 14.0682 31.874 14.5724C31.8739 14.8422 31.8904 15.1118 31.9236 15.3797C31.9424 15.5309 31.9768 15.6738 32.0063 15.8191C32.0265 15.918 32.0397 16.0238 32.0644 16.1183C32.1834 16.5807 32.3694 17.0232 32.6167 17.4316L32.6176 17.4337C33.5141 18.7779 34.9065 19.7123 36.4902 20.0326C39.4991 20.0126 41.077 18.6285 41.9191 15.262C41.9981 14.9465 42.2394 14.6971 42.5521 14.6077C42.8649 14.5184 43.2015 14.6025 43.4352 14.8287C43.669 15.0549 43.7643 15.3885 43.6854 15.7041C42.674 19.7502 40.4908 21.7076 36.8407 21.8445C36.1228 22.5984 35.6597 23.5587 35.5169 24.5899C35.5799 25.3424 36.0056 26.017 36.6577 26.3979C38.3237 26.4389 39.9507 25.8914 41.2531 24.8518C41.6108 24.5018 42.1838 24.506 42.5362 24.8613C42.8886 25.2165 42.8883 25.7895 42.5355 26.1444C40.9512 27.47 38.9526 28.1988 36.8869 28.2044C36.4395 28.9301 36.2633 29.7907 36.3893 30.6339C36.627 30.9421 37.5523 31.8754 40.0703 31.8754C42.1301 31.8819 44.1802 31.5909 46.1569 31.0115C46.6341 30.8523 47.1498 31.1102 47.309 31.5873C47.4682 32.0645 47.2103 32.5802 46.7332 32.7394C44.5711 33.3835 42.3261 33.7061 40.0703 33.6968C38.4319 33.8043 36.81 33.3158 35.5034 32.3214C34.4261 33.4283 33.7841 34.8867 33.6955 36.4288C33.6955 37.0811 33.8743 42.8036 40.0703 42.8036C47.619 42.8036 50.9984 33.1983 50.9984 23.6793C50.9983 14.7264 46.2297 5.46563 38.2488 5.46563Z" fill="#7E65C3"/>
<path d="M34.8333 28.2305C34.9148 27.9882 35.0177 27.7537 35.1408 27.5296C34.5116 27.0072 34.0522 26.3095 33.8206 25.5252C33.2367 25.5758 32.6679 25.7379 32.1452 26.0028C32.0931 26.6546 32.0399 27.308 31.9856 27.963C32.9191 28.1764 33.8765 28.2663 34.8333 28.2305Z" fill="#7E65C3"/>
<path d="M30.0579 0.000912825C29.0547 -0.0305625 28.2155 0.755823 28.1817 1.75895C28.0411 6.28433 27.6098 13.6631 27.0274 21.5045C27.1498 25.2367 27.1762 28.913 27.1155 32.4319C27.1142 32.5153 27.1127 32.5987 27.1111 32.6821C27.1029 33.1311 27.0931 33.5773 27.0817 34.0211C27.0769 34.2183 27.0717 34.4153 27.0662 34.612C27.0564 34.9626 27.0456 35.3112 27.0338 35.6577C27.0234 35.9604 27.0123 36.2625 27.0009 36.5639C26.9911 36.8143 26.9814 37.0646 26.9706 37.3127C26.9534 37.7155 26.9343 38.1151 26.9143 38.5139C26.9065 38.6695 26.8992 38.826 26.891 38.9805C26.8651 39.4674 26.8372 39.9509 26.8073 40.4313C26.803 40.5006 26.7991 40.5709 26.7946 40.6401C26.7595 41.1937 26.7217 41.7418 26.6808 42.2844L26.6806 42.2875C26.5589 43.9063 26.4122 45.4718 26.2385 46.9661C26.234 47.0046 26.2299 47.0443 26.2254 47.0827C26.1778 47.4879 26.1275 47.8852 26.0759 48.2793C26.063 48.379 26.0507 48.4817 26.0375 48.5803C25.9935 48.9084 25.9466 49.2284 25.8996 49.5479C25.8812 49.6735 25.8643 49.8053 25.8453 49.9291C25.8026 50.1985 25.881 50.473 26.0597 50.6792C26.2346 50.8846 26.4916 51.002 26.7614 50.9997C27.2068 51.0012 27.5908 50.687 27.6774 50.25C28.8149 44.3688 30.1248 29.3355 30.911 18.1201C30.8809 18.0653 30.8603 18.0053 30.8318 17.9495C30.7549 17.7999 30.6835 17.645 30.6163 17.4854C30.5822 17.4037 30.5447 17.3239 30.5138 17.2407C30.4272 17.0077 30.3532 16.77 30.2919 16.529C30.2718 16.4498 30.2564 16.3682 30.2387 16.2876C30.1959 16.0934 30.1604 15.8932 30.1325 15.687C30.1213 15.6039 30.1089 15.5215 30.1002 15.4373C30.0691 15.15 30.0529 14.8614 30.0517 14.5724C30.0517 13.9957 30.0879 13.4408 30.1407 12.897C30.1483 12.8216 30.1551 12.7464 30.1636 12.6716C30.3238 11.0308 30.7929 9.43515 31.5465 7.96876C31.6745 5.58042 31.7665 3.52984 31.8197 1.8731C31.8494 0.870071 31.061 0.0324878 30.0579 0.000912825Z" fill="#7E65C3"/>
</svg>
