<svg width="51" height="34" viewBox="0 0 51 34" fill="none" xmlns="http://www.w3.org/2000/svg">
<path d="M50.3766 15.4924L41.5028 6.61864C32.68 -2.20621 18.3196 -2.20621 9.49688 6.61864L0.623115 15.4924C-0.207705 16.3232 -0.207705 17.6662 0.623115 18.497L9.49688 27.3708C13.9083 31.7822 19.703 33.99 25.4998 33.99C31.2966 33.99 37.0913 31.7822 41.5027 27.3708L50.3765 18.497C51.2074 17.6662 51.2074 16.3232 50.3766 15.4924ZM25.4998 27.6194C19.6413 27.6194 14.875 22.8531 14.875 16.9947C14.875 11.1362 19.6413 6.36992 25.4998 6.36992C31.3583 6.36992 36.1245 11.1362 36.1245 16.9947C36.1245 22.8531 31.3583 27.6194 25.4998 27.6194Z" fill="#50C8E6"/>
<path d="M25.4998 10.6201C21.9852 10.6201 19.125 13.4803 19.125 16.9949C19.125 20.5095 21.9852 23.3697 25.4998 23.3697C29.0145 23.3697 31.8747 20.5095 31.8747 16.9949C31.8747 13.4803 29.0146 10.6201 25.4998 10.6201Z" fill="#50C8E6"/>
</svg>
