<svg width="45" height="51" viewBox="0 0 45 51" fill="none" xmlns="http://www.w3.org/2000/svg">
<path d="M4.49114 24.6846L5.65542 25.8489C6.00873 26.1901 6.57034 26.1852 6.91767 25.8379C7.265 25.4906 7.26988 24.9289 6.92864 24.5756L5.76437 23.4114C5.06112 22.7083 3.92116 22.7083 3.21792 23.4114L2.69026 23.939L1.52599 22.7747C1.17268 22.4335 0.611064 22.4384 0.263734 22.7857C-0.0835974 23.133 -0.0884776 23.6947 0.252765 24.048L1.41704 25.2122C2.12028 25.9153 3.26024 25.9153 3.96349 25.2122L4.49114 24.6846Z" fill="#5757D8"/>
<path d="M8.95055 30.3388C8.87729 30.1114 8.71668 29.9224 8.50406 29.8135C8.29144 29.7046 8.04425 29.6846 7.8169 29.758L6.25013 30.2631C5.30401 30.5683 4.78409 31.5823 5.08856 32.5287L5.31727 33.24L3.7496 33.7442C3.3273 33.88 3.0668 34.3032 3.13572 34.7414C3.20464 35.1796 3.58244 35.5023 4.02604 35.5019C4.11995 35.5021 4.21328 35.4872 4.30247 35.4578L5.86924 34.9535C6.32402 34.807 6.70193 34.4858 6.91979 34.0605C7.13764 33.6353 7.17758 33.1409 7.03081 32.6862L6.8021 31.9758L8.36977 31.4715C8.84283 31.319 9.10279 30.8119 8.95055 30.3388Z" fill="#5757D8"/>
<path d="M8.94041 19.5044L8.38123 17.9547C8.04275 17.0206 7.01164 16.5371 6.077 16.8742L5.37466 17.1272L4.81639 15.5776C4.64755 15.1096 4.13133 14.8671 3.66337 15.036C3.19541 15.2048 2.95292 15.721 3.12175 16.189L3.68093 17.7386C4.01941 18.6733 5.05115 19.1569 5.98606 18.8192L6.6875 18.5661L7.24578 20.1149C7.35483 20.4176 7.6171 20.6392 7.93379 20.6961C8.25048 20.753 8.57347 20.6366 8.78111 20.3908C8.98874 20.145 9.04946 19.8071 8.94041 19.5044Z" fill="#5757D8"/>
<path d="M43.5828 25.2122L44.7471 24.048C45.0883 23.6947 45.0834 23.133 44.7361 22.7857C44.3888 22.4384 43.8272 22.4335 43.4739 22.7747L42.3096 23.939L41.7819 23.4114C41.0787 22.7083 39.9387 22.7083 39.2355 23.4114L38.0712 24.5756C37.8371 24.8017 37.7433 25.1365 37.8257 25.4513C37.9081 25.7661 38.1539 26.012 38.4687 26.0944C38.7836 26.1768 39.1184 26.0829 39.3444 25.8489L40.5087 24.6846L41.0364 25.2122C41.7396 25.9153 42.8796 25.9153 43.5828 25.2122Z" fill="#5757D8"/>
<path d="M38.0777 34.0612C38.2943 34.4871 38.6724 34.8085 39.1276 34.9536L40.6944 35.4578C40.7836 35.4873 40.8769 35.5022 40.9708 35.502C41.4144 35.5024 41.7922 35.1796 41.8612 34.7414C41.9301 34.3032 41.6696 33.8801 41.2473 33.7443L39.6796 33.2391L39.9083 32.5296C40.2134 31.583 39.6933 30.5683 38.7468 30.2632L37.18 29.758C36.7181 29.6374 36.2424 29.8981 36.0956 30.3524C35.9488 30.8066 36.182 31.2964 36.6271 31.4689L38.1948 31.9731L37.9661 32.6836C37.8171 33.1392 37.8574 33.6355 38.0777 34.0612Z" fill="#5757D8"/>
<path d="M36.6019 20.6572C37.0694 20.8261 37.5853 20.5842 37.7545 20.1169L38.3128 18.5682L39.0142 18.8212C39.9491 19.1589 40.9809 18.6753 41.3194 17.7407L41.8785 16.1919C42.0474 15.7239 41.8049 15.2077 41.3369 15.0389C40.8689 14.8701 40.3527 15.1125 40.1839 15.5805L39.6256 17.1302L38.9233 16.8762C37.9885 16.5417 36.959 17.0243 36.6181 17.9568L36.0599 19.5064C35.8924 19.9739 36.1349 20.4887 36.6019 20.6572Z" fill="#5757D8"/>
<path d="M15.093 11.1889C16.8163 10.5431 17.9687 8.90848 17.9979 7.06847V0.900442C17.9979 0.403141 18.401 0 18.8983 0H26.1018C26.5991 0 27.0023 0.403141 27.0023 0.900442V7.06847C27.0315 8.90848 28.1839 10.5431 29.9071 11.1889C32.2076 12.1076 33.5886 14.4731 33.2577 16.928C32.9267 19.3829 30.9687 21.2983 28.507 21.5751C26.0454 21.8518 23.7109 20.4191 22.8431 18.0989C22.6216 17.4869 22.5056 16.8417 22.5001 16.1908C22.4864 15.7034 22.0873 15.3154 21.5996 15.3156H21.5942C21.3554 15.317 21.127 15.4133 20.9591 15.5832C20.7912 15.753 20.6978 15.9826 20.6992 16.2215C20.7092 17.3137 20.9669 18.3894 21.4529 19.3676C20.1059 21.2265 17.7301 22.0294 15.5317 21.3686C13.3332 20.7078 11.7938 18.7281 11.695 16.4346C11.5961 14.1411 12.9596 12.0363 15.093 11.1889ZM29.9071 39.2358C28.1837 39.8814 27.0312 41.5162 27.0023 43.3563V49.5243C27.0023 50.0216 26.5991 50.4247 26.1018 50.4247H18.8983C18.401 50.4247 17.9979 50.0216 17.9979 49.5243V43.3563C17.9689 41.5162 16.8164 39.8814 15.093 39.2358C12.8458 38.3427 11.4658 36.0649 11.7145 33.6594C11.9633 31.254 13.7803 29.3068 16.1628 28.8925C16.4665 28.8411 16.774 28.8149 17.0821 28.8141C18.8146 28.8128 20.4421 29.6448 21.4556 31.0499C20.9679 32.0296 20.7093 33.1072 20.6992 34.2015C20.6978 34.4403 20.7912 34.6699 20.9591 34.8398C21.127 35.0097 21.3554 35.1059 21.5942 35.1073H21.5996C22.0917 35.1074 22.4927 34.7124 22.5001 34.2204C22.5028 33.5748 22.6192 32.9347 22.844 32.3295C23.711 30.0086 26.0454 28.5748 28.5075 28.851C30.9696 29.1272 32.9283 31.0427 33.2593 33.498C33.5904 35.9533 32.209 38.3192 29.908 39.2376L29.9071 39.2358ZM32.63 28.7907C31.6417 27.9207 30.4313 27.3418 29.1336 27.1186C26.6659 26.6938 24.1545 27.5801 22.5001 29.4598C20.8462 27.5794 18.3343 26.6929 15.8665 27.1186C14.5688 27.3418 13.3585 27.9207 12.3701 28.7907C11.4005 27.8475 10.8355 26.5644 10.7943 25.2124C10.8362 23.8613 11.4012 22.5793 12.3701 21.6367C13.3585 22.5068 14.5688 23.0856 15.8665 23.3088C18.3348 23.7339 20.8467 22.8464 22.5001 20.965C23.8666 22.5234 25.8399 23.4153 27.9126 23.4115C28.3217 23.4109 28.7301 23.3769 29.1336 23.3097C30.4313 23.0865 31.6417 22.5077 32.63 21.6376C33.5988 22.5799 34.1637 23.8616 34.2058 25.2124C34.164 26.5635 33.599 27.8455 32.63 28.788V28.7907Z" fill="#5757D8"/>
</svg>
