<svg width="43" height="43" viewBox="0 0 43 43" fill="none" xmlns="http://www.w3.org/2000/svg">
<g clip-path="url(#clip0_0_172)">
<path d="M15.3571 16.893C15.3346 16.3285 15.2029 15.7737 14.969 15.2594C14.6029 15.1048 14.1937 15.0856 13.8147 15.205C12.7852 15.5036 11.676 15.1753 10.975 14.3644C10.2423 13.6318 9.66425 13.0536 8.44648 13.0536C8.02244 13.0536 7.67861 12.7099 7.67861 12.2858C7.67861 11.8617 8.02236 11.5179 8.44648 11.5179C9.85229 11.5417 11.1755 12.1863 12.0607 13.2786C12.4016 13.7306 13.0013 13.9012 13.529 13.6963C13.7299 13.6556 13.9329 13.6254 14.137 13.6059L14.1266 13.5869C13.5503 12.7391 13.1825 11.7671 13.0535 10.7501C12.9738 10.0586 12.5557 9.4518 11.9378 9.13123C11.562 8.93882 11.412 8.47901 11.602 8.102C11.7921 7.72491 12.251 7.57206 12.6292 7.75976C13.1184 8.02599 13.5496 8.38738 13.8972 8.82267C13.9481 8.7701 13.9984 8.71954 14.0464 8.67158C14.4228 8.29516 14.5893 8.11065 14.5893 7.67872C14.5893 7.25468 14.933 6.91085 15.3571 6.91085C15.7812 6.91085 16.125 7.2546 16.125 7.67872C16.1159 8.48388 15.7528 9.24419 15.1321 9.75733C14.7557 10.1338 14.5893 10.3183 14.5893 10.7502C14.7464 11.4989 15.046 12.2105 15.4719 12.846C16.2744 14.056 16.7628 15.4469 16.8929 16.8931C16.8929 18.6603 18.518 20.9542 20.6943 22.4362C20.5923 20.8756 20.3954 19.3227 20.1045 17.7862C19.4821 14.4534 19.178 11.0691 19.1964 7.6788V7.53485C19.197 7.32573 19.1972 7.09746 19.189 6.86113L19.1886 6.84324C19.1845 6.73112 19.1777 6.61699 19.1686 6.50235L19.1665 6.47128C19.157 6.35899 19.1437 6.2462 19.1275 6.13383L19.1222 6.09419C19.1054 5.98442 19.0839 5.87558 19.0588 5.76791C19.0551 5.75195 19.0519 5.73591 19.048 5.72004C19.0221 5.61556 18.9908 5.5131 18.9553 5.41265C18.9489 5.39443 18.9426 5.3762 18.9358 5.35823C18.8993 5.26131 18.8568 5.16675 18.8087 5.07504C18.7989 5.05622 18.7886 5.03758 18.7783 5.01902C18.7287 4.92991 18.6727 4.84458 18.6108 4.76362C18.5618 4.69434 18.5082 4.62841 18.4504 4.56626C17.8017 4.02632 16.9658 3.76513 16.1251 3.83963C14.0565 3.91983 12.0698 4.66864 10.4629 5.97375C8.05276 7.77975 6.02966 10.0512 4.51357 12.6535L2.9906 15.701C2.42807 16.6575 1.92904 17.6499 1.49685 18.6719C0.77232 20.8433 0 24.1599 0 36.0894C0 39.2771 1.60847 43.0001 6.14287 43.0001C6.34687 43.0001 9.60571 42.9978 9.80072 42.9941C13.5238 42.9358 16.8867 40.7565 18.4609 37.3821C19.7184 34.335 20.4394 31.0934 20.592 27.8005C18.7986 28.3634 16.822 30.3354 15.9001 31.2573C15.6687 31.4887 15.4391 31.7025 15.2102 31.9079C15.188 31.9494 15.162 31.9888 15.1322 32.0252C14.3169 33.2274 13.8621 34.6374 13.8215 36.0895C13.9209 37.6099 13.1651 39.0591 11.8614 39.8478C11.4822 40.0362 11.022 39.8822 10.8327 39.5035C10.6434 39.1248 10.7963 38.6642 11.1745 38.474C11.9479 37.9377 12.3725 37.0266 12.2858 36.0895C12.3117 35.2683 12.4466 34.454 12.6871 33.6684C11.0509 34.5478 9.08929 34.577 7.42775 33.7465C7.28161 33.7191 7.1401 33.671 7.0074 33.6038C6.31554 33.5829 5.64501 33.8447 5.15017 34.3287C4.95684 34.5256 4.67264 34.6036 4.4059 34.533C4.13917 34.4623 3.9308 34.254 3.86017 33.9872C3.78954 33.7205 3.86756 33.4363 4.06442 33.243C4.53171 32.8021 5.0824 32.4591 5.68406 32.234C5.58504 32.0696 5.50434 31.922 5.45613 31.8257C5.26767 31.4467 5.42136 30.9868 5.79979 30.7973C6.17823 30.6077 6.63855 30.7601 6.82911 31.138C7.01673 31.5142 7.26465 31.8571 7.56313 32.1532C7.69683 32.1933 7.82751 32.2433 7.95391 32.3027C7.98935 32.3146 8.02378 32.3293 8.05687 32.3467C10.1827 33.3901 12.2675 32.7192 14.8144 30.1715C15.9961 28.9898 18.3226 26.6694 20.6793 26.1979C20.6814 26.1468 20.6855 26.0987 20.6875 26.0474C19.7877 25.8975 18.9168 25.6087 18.1059 25.1913C18.0286 25.2492 17.9409 25.2918 17.8477 25.3169C17.7885 25.3993 17.7052 25.5433 17.6408 25.6551C17.1087 26.8649 15.9112 27.6451 14.5896 27.643C13.3718 27.643 12.7937 28.2211 12.0611 28.9537C11.8677 29.1506 11.5835 29.2286 11.3168 29.158C11.0501 29.0873 10.8417 28.879 10.7711 28.6122C10.7004 28.3455 10.7785 28.0613 10.9753 27.868C11.3252 27.5016 11.7075 27.1678 12.1176 26.8704C11.9859 26.7733 11.8639 26.6764 11.7536 26.5865C11.3465 26.2543 11.15 26.1073 10.7503 26.1073C10.3263 26.1073 9.98247 25.7636 9.98247 25.3395C9.98247 24.9153 10.3262 24.5716 10.7503 24.5716C11.4894 24.5854 12.1955 24.8804 12.7247 25.3964C13.2207 25.8819 13.8963 26.1394 14.5896 26.1072C15.6064 26.1072 15.9491 25.5148 16.3105 24.8872C16.4072 24.7137 16.5142 24.5461 16.6309 24.3852C16.2448 24.1542 15.8651 23.9187 15.4977 23.6882C14.6564 23.1077 13.7557 22.6184 12.811 22.2282C11.8997 21.8844 10.9038 21.8336 9.96223 22.0827C9.47495 22.1933 8.97776 22.2546 8.47814 22.2656L8.4715 22.2671C8.09534 22.5628 7.79551 22.9445 7.59723 23.3799C7.40667 23.7578 6.94626 23.9102 6.56791 23.7207C6.18956 23.5312 6.03579 23.0712 6.22425 22.6923C6.35762 22.4298 6.5098 22.1773 6.67961 21.9367C6.28178 21.7852 5.91578 21.5608 5.60041 21.275C5.30521 20.9745 5.30739 20.4921 5.60528 20.1942C5.90318 19.8963 6.3855 19.8941 6.68616 20.1893C7.19015 20.5733 7.81416 20.7657 8.4469 20.7322C8.85607 20.722 9.26314 20.6698 9.66165 20.5762C10.8656 20.2747 12.1324 20.3429 13.297 20.7719C14.3602 21.1958 15.3723 21.7378 16.3145 22.3878C17.6466 23.3448 19.1388 24.0567 20.7209 24.49C20.7218 24.4118 20.7242 24.3358 20.7248 24.2571C17.6824 22.5618 15.3571 19.4088 15.3571 16.893Z" fill="#ED5A87"/>
<path d="M41.5037 18.6715C41.0763 17.6608 40.5828 16.6793 40.0265 15.7335L38.4735 12.629C36.9587 10.0364 34.9402 7.7733 32.5369 5.97326C30.93 4.66823 28.9432 3.91943 26.8747 3.83914C26.034 3.76464 25.1981 4.02584 24.5494 4.56569C24.4917 4.62784 24.4381 4.69376 24.3891 4.76305C24.3272 4.84393 24.2712 4.92926 24.2216 5.01828C24.2112 5.03701 24.2009 5.05582 24.1911 5.07488C24.1431 5.16643 24.1008 5.26074 24.0643 5.35749C24.0575 5.3758 24.051 5.39419 24.0445 5.41267C24.009 5.51295 23.9778 5.61524 23.9519 5.71963C23.948 5.73551 23.9447 5.75155 23.9411 5.7675C23.9159 5.87517 23.8944 5.98401 23.8776 6.09378L23.8724 6.13342C23.8561 6.24571 23.8429 6.3585 23.8334 6.4707L23.8312 6.50371C23.8221 6.61734 23.8154 6.73064 23.8113 6.84183L23.8105 6.87333C23.8027 7.10512 23.8028 7.32928 23.8034 7.53462V7.67857C23.8218 11.0688 23.5178 14.4533 22.8953 17.7859C22.6044 19.3225 22.4074 20.8755 22.3055 22.436C24.4819 20.954 26.1069 18.6601 26.1069 16.8928C26.237 15.4467 26.7254 14.0558 27.5279 12.8458C27.9537 12.2102 28.2534 11.4987 28.4105 10.75C28.4105 10.318 28.2441 10.1335 27.8677 9.7571C27.2471 9.24404 26.8839 8.48373 26.8748 7.67848C26.8748 7.25445 27.2185 6.91061 27.6427 6.91061C28.0668 6.91061 28.4105 7.25436 28.4105 7.67848C28.4105 8.11042 28.577 8.29485 28.9534 8.67126C29.0014 8.71922 29.0517 8.76978 29.1026 8.82235C29.4502 8.38706 29.8814 8.02567 30.3706 7.75944C30.7498 7.57098 31.21 7.72501 31.3993 8.1037C31.5886 8.48238 31.4357 8.94295 31.0575 9.13318C30.4418 9.45433 30.0254 10.0599 29.9462 10.7499C29.8172 11.7668 29.4495 12.7389 28.8731 13.5866L28.8627 13.6057C29.0669 13.6252 29.2698 13.6554 29.4708 13.696C29.9986 13.9008 30.5981 13.7302 30.9391 13.2784C31.8243 12.1861 33.1476 11.5415 34.5533 11.5177C34.9774 11.5177 35.3212 11.8614 35.3212 12.2855C35.3212 12.7096 34.9774 13.0534 34.5533 13.0534C33.3355 13.0534 32.7574 13.6315 32.0248 14.3641C31.3241 15.1757 30.2146 15.5041 29.1851 15.2047C28.8061 15.0853 28.3969 15.1046 28.0308 15.2592C27.7969 15.7734 27.6651 16.3282 27.6426 16.8927C27.6426 19.4085 25.3173 22.5614 22.2754 24.2569C22.276 24.3356 22.2785 24.4114 22.2793 24.4897C23.8614 24.0564 25.3535 23.3446 26.6857 22.3876C27.6278 21.7376 28.64 21.1955 29.7032 20.7716C30.8678 20.3427 32.1347 20.2744 33.3386 20.576C33.7371 20.6695 34.1441 20.7218 34.5533 20.7319C35.1903 20.7662 35.8184 20.5703 36.323 20.18C36.6294 19.8919 37.1101 19.9019 37.4043 20.2025C37.6966 20.5009 37.6946 20.9788 37.3997 21.2748C37.0843 21.5606 36.7183 21.7851 36.3205 21.9365C36.4902 22.177 36.6424 22.4296 36.7759 22.692C36.9643 23.071 36.8106 23.5309 36.4322 23.7204C36.0539 23.9099 35.5935 23.7575 35.4029 23.3797C35.2055 22.9412 34.9028 22.5584 34.5215 22.2654C34.022 22.2544 33.525 22.1931 33.0378 22.0825C32.0963 21.833 31.1003 21.8839 30.1891 22.2279C29.2443 22.6181 28.3437 23.1075 27.5023 23.6879C27.135 23.9185 26.7552 24.154 26.3691 24.385C26.4859 24.5457 26.5929 24.7134 26.6895 24.887C27.051 25.5146 27.3937 26.107 28.4104 26.107C29.1038 26.1392 29.7793 25.8817 30.2753 25.3962C30.8046 24.8802 31.5106 24.5852 32.2497 24.5714C32.6737 24.5714 33.0176 24.9151 33.0176 25.3392C33.0176 25.7633 32.6738 26.1071 32.2497 26.1071C31.85 26.1071 31.6536 26.2541 31.2464 26.5863C31.1361 26.6763 31.014 26.7732 30.8824 26.8703C31.2925 27.1676 31.6748 27.5015 32.0247 27.8678C32.3199 28.1684 32.3177 28.6507 32.0198 28.9487C31.722 29.2466 31.2396 29.2488 30.939 28.9536C30.2064 28.221 29.6282 27.6428 28.4104 27.6428C27.0889 27.645 25.8913 26.8648 25.3592 25.655C25.2947 25.5433 25.2115 25.3993 25.1523 25.3168C25.0591 25.2918 24.9714 25.2491 24.8941 25.1912C24.0832 25.6086 23.2122 25.8975 22.3125 26.0473C22.3144 26.0986 22.3186 26.1467 22.3207 26.1978C24.6773 26.6694 27.0038 28.9897 28.1855 30.1714C30.7471 32.733 32.8415 33.4018 34.9778 32.331C34.9854 32.3271 34.993 32.3252 35.0007 32.3214L35.0149 32.3155C35.1513 32.2499 35.2928 32.1953 35.4379 32.1522C35.7357 31.8562 35.9832 31.5136 36.1709 31.138C36.3614 30.7602 36.8218 30.6077 37.2002 30.7973C37.5785 30.9868 37.7323 31.4467 37.5438 31.8257C37.4958 31.9217 37.4154 32.0687 37.3168 32.2323C37.9184 32.4578 38.4688 32.8014 38.9355 33.2429C39.2307 33.5435 39.2286 34.0258 38.9307 34.3238C38.6328 34.6217 38.1505 34.6239 37.8498 34.3287C37.3571 33.8441 36.6882 33.5814 35.9974 33.6014C35.8633 33.6698 35.7201 33.7187 35.5721 33.7465C33.9105 34.5769 31.949 34.5478 30.3128 33.6684C30.51 34.3317 30.6373 35.0137 30.6926 35.7035C31.1756 35.9508 31.7094 36.0829 32.2521 36.0894C32.6761 36.09 33.0194 36.4343 33.0188 36.8584C33.0181 37.2824 32.6737 37.6255 32.2497 37.6249C31.8246 37.6157 31.4018 37.5589 30.9893 37.4554C31.1619 37.8738 31.4566 38.2305 31.8351 38.4789C32.2058 38.6779 32.3491 39.1369 32.1575 39.5115C31.9677 39.8844 31.5127 40.0344 31.1384 39.8474C29.8347 39.0588 29.0788 37.6096 29.1783 36.0891C29.1377 34.6371 28.6829 33.227 27.8676 32.0249C27.8378 31.9884 27.8118 31.949 27.7896 31.9076C27.5607 31.7022 27.3311 31.4884 27.0997 31.257C26.1778 30.3351 24.2012 28.3631 22.4078 27.8002C22.5603 31.0931 23.2814 34.3347 24.5389 37.3818C26.1135 40.7566 29.477 42.9359 33.2006 42.9938C33.3941 42.9976 36.6529 42.9998 36.8569 42.9998C41.3912 42.9999 42.9997 39.2769 42.9997 36.0891C42.9997 24.1597 42.2274 20.843 41.5037 18.6715Z" fill="#ED5A87"/>
<path d="M22.2924 6.51408C22.2992 6.407 22.3081 6.29933 22.3195 6.18889C22.3256 6.13002 22.3331 6.07157 22.3408 6.01177C22.355 5.902 22.3729 5.79215 22.3932 5.68079C22.405 5.61604 22.417 5.55221 22.4311 5.48712C22.4537 5.38357 22.4821 5.28052 22.5116 5.17688C22.5323 5.10373 22.5513 5.031 22.5757 4.95819C22.6042 4.87412 22.6404 4.79173 22.6743 4.70858C22.7703 4.4636 22.8913 4.2292 23.0353 4.00899V0.767869C23.0351 0.343916 22.6914 0.000251953 22.2675 0H20.7317C20.3078 0.000251953 19.9641 0.343916 19.9639 0.767869V4.00916C20.1079 4.22937 20.2289 4.46377 20.3249 4.70875C20.3589 4.7919 20.395 4.87429 20.4235 4.95835C20.4479 5.03117 20.4669 5.1039 20.4876 5.17705C20.5172 5.2806 20.5455 5.38365 20.5681 5.48729C20.5823 5.55238 20.5943 5.6162 20.606 5.68096C20.6263 5.79223 20.6443 5.90217 20.6584 6.01194C20.6661 6.07165 20.6736 6.1301 20.6797 6.18906C20.6911 6.29942 20.7 6.40717 20.7068 6.51425C20.7105 6.57136 20.7149 6.62771 20.7175 6.68348C20.7222 6.7877 20.7249 6.88731 20.7269 6.98666C20.728 7.0389 20.7301 7.09173 20.7306 7.14203C20.7318 7.27044 20.7318 7.39289 20.7316 7.50938L20.7317 7.52718V7.67869C20.7317 8.16731 20.738 8.63091 20.7479 9.07989C20.749 9.13078 20.7495 9.18352 20.7508 9.23391C20.761 9.65442 20.7761 10.0559 20.794 10.4445C20.7971 10.5118 20.8 10.5798 20.8033 10.6462C20.8221 11.0197 20.8439 11.3799 20.8685 11.7267C20.8733 11.7933 20.8782 11.859 20.8832 11.9246C20.9089 12.2658 20.9369 12.5966 20.9675 12.9143C20.9729 12.9709 20.9788 13.0256 20.9844 13.0816C21.0164 13.4015 21.05 13.7131 21.086 14.012C21.0904 14.0487 21.0951 14.0837 21.0996 14.1202C21.1337 14.3984 21.1692 14.6679 21.2058 14.9305C21.2125 14.9779 21.2188 15.0269 21.2255 15.074C21.2629 15.3372 21.3015 15.5919 21.3403 15.8421C21.351 15.9109 21.3617 15.9805 21.3725 16.0486C21.4088 16.2771 21.4453 16.5015 21.482 16.722L21.4998 16.8263L21.5172 16.7218C21.554 16.5015 21.5906 16.2768 21.6269 16.0477C21.6375 15.9812 21.6478 15.9132 21.6583 15.8459C21.6975 15.5945 21.7361 15.3385 21.7737 15.0739C21.7804 15.0268 21.7868 14.9779 21.7934 14.9303C21.8299 14.6677 21.8655 14.3983 21.8995 14.12C21.904 14.0836 21.9088 14.0487 21.9131 14.0118C21.9491 13.7129 21.9828 13.4012 22.0148 13.0814C22.0203 13.0254 22.0262 12.9707 22.0316 12.9141C22.0622 12.5964 22.0903 12.2657 22.116 11.9244C22.1209 11.8588 22.1258 11.7931 22.1306 11.7266C22.1555 11.3794 22.1774 11.0184 22.196 10.6435C22.1992 10.5786 22.2021 10.5122 22.2052 10.4464C22.2231 10.0571 22.2381 9.65493 22.2484 9.23375C22.2497 9.18336 22.2503 9.13061 22.2513 9.07972C22.2612 8.63074 22.2676 8.16715 22.2676 7.67852V7.52702L22.2676 7.50921C22.2674 7.39264 22.2674 7.27028 22.2686 7.14186C22.2692 7.09147 22.2713 7.03873 22.2723 6.98649C22.2742 6.88722 22.277 6.78753 22.2818 6.68331C22.2844 6.62754 22.2888 6.57119 22.2924 6.51408Z" fill="#ED5A87"/>
</g>
<defs>
<clipPath id="clip0_0_172">
<rect width="43" height="43" fill="white"/>
</clipPath>
</defs>
</svg>
