<svg width="51" height="49" viewBox="0 0 51 49" fill="none" xmlns="http://www.w3.org/2000/svg">
<path d="M49.8538 9.68693C48.2875 5.68488 45.297 2.61613 41.4328 1.04475C39.7619 0.365833 38.0697 0.0212694 36.4047 0.0212694C30.867 0.0212694 26.9926 3.72895 25.4807 5.46708C23.9766 3.72299 20.1192 0 14.5832 0C12.9233 0 11.2362 0.343713 9.56784 1.02178C5.70362 2.59316 2.71229 5.66191 1.14601 9.66311C-0.524909 13.9331 -0.362411 18.7724 1.59267 22.942C4.36875 28.8609 10.6798 38.0756 24.9805 48.3564L25.4765 48.7137L25.9725 48.3564C40.3438 38.0246 46.648 28.8447 49.4054 22.9633C51.3622 18.7953 51.5247 13.9561 49.8538 9.68693Z" fill="#ED5A87"/>
</svg>
