<svg width="46" height="51" viewBox="0 0 46 51" fill="none" xmlns="http://www.w3.org/2000/svg">
<path d="M45.1942 9.54592C44.4612 6.77141 42.3149 4.12414 39.1523 2.09254C37.0221 0.724099 34.3973 0 31.5582 0C29.2748 0 26.9286 0.470485 24.7716 1.36306L24.6085 1.43207C24.5215 1.46971 24.4373 1.50735 24.3468 1.53871C23.9301 1.68299 23.6102 1.80756 23.3494 1.90883C23.0483 2.02533 22.8753 2.08985 22.7409 2.12301L25.1184 4.43332C28.108 6.98111 28.0981 9.49395 28.0811 14.0581L28.0775 15.2348C28.0775 15.7303 27.6769 16.1309 27.1814 16.1309C26.6858 16.1309 26.2852 15.7303 26.2852 15.2348L26.2879 14.0527C26.3058 9.63464 26.3121 7.80647 23.9122 5.75874L19.3471 1.32274C17.2402 0.7707 14.817 0.282291 12.478 0.282291C10.9958 0.282291 9.66945 0.48572 8.53849 0.886305C3.40258 2.70641 -1.14813 8.72952 0.258843 18.0837C0.426425 19.1904 0.587734 20.3061 0.750836 21.4272C1.9275 29.507 3.1418 37.862 6.26672 45.4068L6.37426 45.6676C7.14944 47.5558 8.44798 50.7174 10.7081 50.7174H10.89L11.0576 50.6466C13.1322 49.7684 13.9083 47.7771 14.4747 46.3235C14.8573 45.3422 15.1979 44.343 15.5268 43.377C16.3584 40.9367 17.1434 38.6318 18.5585 36.5625C20.0766 34.341 21.9917 33.0684 23.8118 33.0684C24.6147 33.0684 25.4276 33.3095 26.2252 33.7844C28.6941 35.255 29.4684 38.2222 30.2176 41.0917C30.4308 41.9108 30.6522 42.7577 30.9085 43.5481C32.0377 47.0234 33.5074 50.5758 35.8544 50.5758C36.9567 50.5758 37.9353 49.8015 38.8449 48.2073C40.6014 45.129 41.3551 41.7002 42.0828 38.3844L42.3382 37.2257C42.6249 35.9442 42.944 34.6223 43.2693 33.2709C45.1001 25.6616 47.1765 17.0387 45.1942 9.54592Z" fill="#DB8CD2"/>
</svg>
