<svg width="24" height="24" viewBox="0 0 24 24" fill="none" xmlns="http://www.w3.org/2000/svg">
<path d="M17.975 10.875V10.9354L18.0177 10.8927L21.975 6.93535V17.0646L18.0177 13.1073L17.975 13.0646V13.125V18.5C17.975 18.8929 17.8279 19.2367 17.5323 19.5323C17.2367 19.8279 16.8929 19.975 16.5 19.975H3.5C3.10706 19.975 2.7633 19.8279 2.46768 19.5323C2.17205 19.2367 2.025 18.8929 2.025 18.5V5.5C2.025 5.10706 2.17205 4.7633 2.46768 4.46768C2.7633 4.17205 3.10706 4.025 3.5 4.025H16.5C16.8929 4.025 17.2367 4.17205 17.5323 4.46768C17.8279 4.7633 17.975 5.10706 17.975 5.5V10.875ZM3.475 18.5V18.525H3.5H16.5H16.525V18.5V5.5V5.475H16.5H3.5H3.475V5.5V18.5Z" fill="black" stroke="black" stroke-width="0.05"/>
</svg>
