<svg width="74" height="76" viewBox="0 0 74 76" fill="none" xmlns="http://www.w3.org/2000/svg">
<g filter="url(#filter0_d_1637_1260)">
<g filter="url(#filter1_d_1637_1260)">
<rect x="9" y="8" width="56" height="55" rx="8" fill="white"/>
</g>
<path d="M44.1604 52.4849H43.8513C41.8422 52.4849 40.1937 50.8364 40.1937 48.8273V47.5909C40.1937 46.097 39.0088 44.9122 37.5149 44.9122C36.021 44.9122 34.8361 46.097 34.8361 47.5909V49.2909C34.8361 51.0425 33.3937 52.4849 31.6422 52.4849C29.8907 52.4849 28.4482 51.0425 28.4482 49.2909V42.4394C28.4482 42.0788 28.7058 41.8212 29.0664 41.8212C29.427 41.8212 29.6846 42.0788 29.6846 42.4394V49.2909C29.6846 50.3728 30.5604 51.2485 31.6422 51.2485C32.724 51.2485 33.5998 50.3728 33.5998 49.2909V47.5909C33.5998 45.4273 35.3513 43.6758 37.5149 43.6758C39.6785 43.6758 41.4301 45.4273 41.4301 47.5909V48.8273C41.4301 50.1667 42.5119 51.2485 43.8513 51.2485H44.1604C45.6543 51.2485 46.8907 50.0122 46.8907 48.5182V35.4849C46.8907 35.1243 47.1482 34.8667 47.5089 34.8667C47.8695 34.8667 48.127 35.1243 48.127 35.4849V48.5182C48.127 50.6819 46.3755 52.4849 44.1604 52.4849Z" fill="#3C4D56"/>
<path d="M38.8027 42.8515H24.43C23.3482 42.8515 22.4209 41.9757 22.4209 40.8424V21.5242C22.4209 20.3909 23.3482 19.5151 24.43 19.5151H38.8027C39.8845 19.5151 40.8118 20.3909 40.8118 21.5242V40.8939C40.8118 41.9757 39.936 42.8515 38.8027 42.8515Z" fill="#3C4D56"/>
<path d="M34.0633 19.5151H24.43C23.3482 19.5151 22.4209 20.3909 22.4209 21.5242V40.8939C22.4209 41.9757 23.2967 42.903 24.43 42.903H34.0633C34.9391 42.903 35.7118 42.1818 35.7118 41.2545V21.1636C35.7118 20.2363 34.9906 19.5151 34.0633 19.5151Z" fill="#475D6B"/>
<path d="M47.5084 46.8182C49.7276 46.8182 51.5266 44.5118 51.5266 41.6667C51.5266 38.8215 49.7276 36.5151 47.5084 36.5151C45.2892 36.5151 43.4902 38.8215 43.4902 41.6667C43.4902 44.5118 45.2892 46.8182 47.5084 46.8182Z" fill="#475D6B"/>
<path d="M47.5605 36.5667V46.8182C49.7757 46.7667 51.5787 44.5 51.5787 41.6667C51.5787 38.8848 49.7757 36.5667 47.5605 36.5667Z" fill="#3C4D56"/>
<path d="M44.1606 34.2999C47.5462 34.2999 50.2909 31.5553 50.2909 28.1696C50.2909 24.7839 47.5462 22.0393 44.1606 22.0393C40.7749 22.0393 38.0303 24.7839 38.0303 28.1696C38.0303 31.5553 40.7749 34.2999 44.1606 34.2999Z" fill="#D6B8A0"/>
<path d="M44.2119 22.0393V34.2999C47.5604 34.2999 50.2907 31.5181 50.2907 28.1696C50.3422 24.7696 47.6119 22.0393 44.2119 22.0393Z" fill="#C7A38B"/>
<path d="M44.1608 32.394C46.4938 32.394 48.385 30.5028 48.385 28.1698C48.385 25.8368 46.4938 23.9456 44.1608 23.9456C41.8278 23.9456 39.9365 25.8368 39.9365 28.1698C39.9365 30.5028 41.8278 32.394 44.1608 32.394Z" fill="#E7E7E9"/>
<path d="M44.2121 23.9456C41.1727 23.9456 38.906 27.088 40.503 30.2819C41.1727 31.6213 42.6666 32.394 44.1606 32.3425L44.2121 23.9456Z" fill="white"/>
<path d="M44.2122 28.7879C44.6389 28.7879 44.9849 28.4419 44.9849 28.0152C44.9849 27.5884 44.6389 27.2424 44.2122 27.2424C43.7854 27.2424 43.4395 27.5884 43.4395 28.0152C43.4395 28.4419 43.7854 28.7879 44.2122 28.7879Z" fill="#475D6B"/>
<path d="M46.2728 30.0758L43.8516 26.8303L43.0273 27.603L46.2728 30.0758Z" fill="#475D6B"/>
<path d="M43.9023 24.3577H44.5205V24.9758H43.9023V24.3577Z" fill="#70AE43"/>
<path d="M43.9023 31.3638H44.5205V31.982H43.9023V31.3638Z" fill="#E9674A"/>
<path d="M47.4053 27.8606H48.0235V28.4788H47.4053V27.8606Z" fill="#70AE43"/>
<path d="M40.3994 27.8606H41.0176V28.4788H40.3994V27.8606Z" fill="#E9674A"/>
<path d="M46.6602 25.2715L47.0973 25.7086L46.6602 26.1457L46.223 25.7086L46.6602 25.2715Z" fill="#70AE43"/>
<path d="M41.7158 30.2158L42.1529 30.6529L41.7158 31.0901L41.2787 30.6529L41.7158 30.2158Z" fill="#E9674A"/>
<path d="M47.0615 30.6282L46.6244 31.0653L46.1873 30.6282L46.6244 30.1911L47.0615 30.6282Z" fill="#E9674A"/>
<path d="M42.1172 25.6836L41.6801 26.1207L41.2429 25.6836L41.6801 25.2465L42.1172 25.6836Z" fill="#E9674A"/>
</g>
<defs>
<filter id="filter0_d_1637_1260" x="5" y="0" width="64" height="63" filterUnits="userSpaceOnUse" color-interpolation-filters="sRGB">
<feFlood flood-opacity="0" result="BackgroundImageFix"/>
<feColorMatrix in="SourceAlpha" type="matrix" values="0 0 0 0 0 0 0 0 0 0 0 0 0 0 0 0 0 0 127 0" result="hardAlpha"/>
<feOffset dy="-4"/>
<feGaussianBlur stdDeviation="2"/>
<feComposite in2="hardAlpha" operator="out"/>
<feColorMatrix type="matrix" values="0 0 0 0 0 0 0 0 0 0 0 0 0 0 0 0 0 0 0.06 0"/>
<feBlend mode="normal" in2="BackgroundImageFix" result="effect1_dropShadow_1637_1260"/>
<feBlend mode="normal" in="SourceGraphic" in2="effect1_dropShadow_1637_1260" result="shape"/>
</filter>
<filter id="filter1_d_1637_1260" x="0" y="3" width="74" height="73" filterUnits="userSpaceOnUse" color-interpolation-filters="sRGB">
<feFlood flood-opacity="0" result="BackgroundImageFix"/>
<feColorMatrix in="SourceAlpha" type="matrix" values="0 0 0 0 0 0 0 0 0 0 0 0 0 0 0 0 0 0 127 0" result="hardAlpha"/>
<feOffset dy="4"/>
<feGaussianBlur stdDeviation="4.5"/>
<feComposite in2="hardAlpha" operator="out"/>
<feColorMatrix type="matrix" values="0 0 0 0 0 0 0 0 0 0 0 0 0 0 0 0 0 0 0.09 0"/>
<feBlend mode="normal" in2="BackgroundImageFix" result="effect1_dropShadow_1637_1260"/>
<feBlend mode="normal" in="SourceGraphic" in2="effect1_dropShadow_1637_1260" result="shape"/>
</filter>
</defs>
</svg>
