<svg width="25" height="25" viewBox="0 0 25 25" fill="none" xmlns="http://www.w3.org/2000/svg">
<path d="M18.6721 18.7407H20.3222V19.2805H4.6782V18.7407H6.35434H6.86571V18.2293V10.2605C6.86571 8.91071 7.26075 7.72179 8.05138 6.6756C8.83564 5.63785 9.86043 4.9893 11.1469 4.71931L11.5532 4.63403V4.21884V3.46363C11.5532 3.20326 11.6394 3.01252 11.8155 2.85242L11.4731 2.47575L11.8155 2.85242C12.0047 2.6805 12.2237 2.59478 12.5002 2.59478C12.7767 2.59478 12.9958 2.6805 13.1849 2.85242C13.361 3.01252 13.4472 3.20326 13.4472 3.46363V4.21884V4.63403L13.8535 4.71931C15.1403 4.98937 16.1703 5.63838 16.9635 6.67757C17.7622 7.72375 18.1607 8.91198 18.1607 10.2605V18.2293V18.7407H18.6721ZM7.40548 18.2293V18.7407H7.91685H17.1096H17.621V18.2293V10.2605C17.621 8.8443 17.1274 7.62129 16.1466 6.62121C15.1632 5.61862 13.9458 5.11373 12.5262 5.11373C11.1067 5.11373 9.886 5.61847 8.89467 6.61943C7.90456 7.61916 7.40548 8.84272 7.40548 10.2605V18.2293ZM12.5002 22.4055C12.0856 22.4055 11.726 22.259 11.3996 21.9395C11.2146 21.7583 11.0861 21.5619 11.0105 21.3449H13.9922C13.918 21.5641 13.7915 21.7617 13.61 21.9433C13.2971 22.2561 12.9364 22.4055 12.5002 22.4055Z" fill="black" stroke="black"/>
</svg>
