<svg width="321" height="321" viewBox="0 0 321 321" fill="none" xmlns="http://www.w3.org/2000/svg">
<path d="M18.3716 286.327C5.76037 278.241 -1.75555 263.334 0.352507 247.534L28.7557 34.5436C30.1619 24.0086 35.5857 14.6468 44.0285 8.1902C52.474 1.73361 62.9269 -1.04977 73.4619 0.356488L286.453 28.7596C308.206 31.6648 323.539 51.7152 320.64 73.4685L292.239 286.456C290.833 296.994 285.409 306.353 276.964 312.81C268.518 319.266 258.065 322.05 247.53 320.644L34.5396 292.243C28.5915 291.449 23.1201 289.37 18.3716 286.327ZM2.58768 247.831C-0.148029 268.35 14.3197 287.275 34.8388 290.005L247.83 318.408C257.769 319.735 267.631 317.111 275.597 311.02C283.563 304.928 288.68 296.099 290.004 286.16L318.407 73.1692C319.734 63.2301 317.109 53.3678 311.018 45.4017C304.927 37.4382 296.098 32.319 286.159 30.9948L73.1652 2.59166C63.2261 1.26485 53.3638 3.88933 45.4003 9.9831C37.4342 16.0742 32.3177 24.9037 30.9935 34.8428L2.58768 247.831Z" fill="#326B8B"/>
</svg>
