<svg width="24" height="24" viewBox="0 0 24 24" fill="none" xmlns="http://www.w3.org/2000/svg">
<path d="M12 11.2251C11.0747 11.2251 10.3734 10.9379 9.83033 10.3948C9.28723 9.85167 9 9.15041 9 8.2251M12 11.2251C12.9253 11.2251 13.6266 10.9379 14.1697 10.3948C14.7128 9.85167 15 9.15041 15 8.2251M12 11.2251C12.831 11.2251 13.565 10.9457 14.1428 10.3679C14.7206 9.79011 15 9.05612 15 8.2251M12 11.2251C11.169 11.2251 10.435 10.9457 9.85717 10.3679C9.27936 9.79011 9 9.05612 9 8.2251M15 8.2251C15 7.29979 14.7128 6.59853 14.1697 6.05543L14.7 5.5251L14.1697 6.05543C13.6266 5.51233 12.9253 5.2251 12 5.2251M15 8.2251C15 7.39407 14.7206 6.66008 14.1428 6.08227C13.565 5.50445 12.831 5.2251 12 5.2251M12 5.2251C11.0747 5.2251 10.3734 5.51233 9.83033 6.05543C9.28723 6.59853 9 7.29979 9 8.2251M12 5.2251C11.169 5.2251 10.435 5.50445 9.85717 6.08227C9.27936 6.66008 9 7.39407 9 8.2251M18.4979 16.0138C18.658 16.1436 18.796 16.2925 18.9144 16.4607C19.1269 16.7626 19.25 17.1461 19.25 17.6501C19.25 17.2252 19.1212 16.8298 18.8898 16.4766C18.777 16.3044 18.6465 16.149 18.4979 16.0138ZM5.08835 16.4567C5.16956 16.3413 5.25814 16.2357 5.35451 16.1396C5.25552 16.2471 5.16663 16.365 5.08777 16.4921C4.86918 16.8442 4.75 17.2343 4.75 17.6501C4.75 17.1472 4.87355 16.762 5.08835 16.4567Z" stroke="black" stroke-width="1.5"/>
</svg>
