<svg width="22" height="22" viewBox="0 0 22 22" fill="none" xmlns="http://www.w3.org/2000/svg">
<path d="M20.1663 5.04199V16.9587C20.1663 17.3253 20.0288 17.6462 19.7538 17.9212C19.4788 18.1962 19.158 18.3337 18.7913 18.3337H3.20801C2.84134 18.3337 2.52051 18.1962 2.24551 17.9212C1.97051 17.6462 1.83301 17.3253 1.83301 16.9587V5.04199C1.83301 4.67533 1.97051 4.35449 2.24551 4.07949C2.52051 3.80449 2.84134 3.66699 3.20801 3.66699H18.7913C19.158 3.66699 19.4788 3.80449 19.7538 4.07949C20.0288 4.35449 20.1663 4.67533 20.1663 5.04199ZM3.20801 7.53991H18.7913V5.04199H3.20801V7.53991ZM3.20801 10.4962V16.9587H18.7913V10.4962H3.20801Z" fill="black"/>
</svg>
