<svg width="140" height="140" viewBox="0 0 140 140" fill="none" xmlns="http://www.w3.org/2000/svg">
<circle cx="70" cy="70" r="70" fill="#E9F5F9"/>
<g clip-path="url(#clip0_1739_3393)">
<path d="M98.0312 53.0516L59.7745 85.8413L59.7353 85.8742L57.889 86.2125C55.4444 86.6604 53.1 85.0442 52.6521 82.5996L48.4959 59.9469C48.0464 57.5023 49.6641 55.1579 52.1087 54.7085L53.2253 54.5033L92.4045 47.3152C94.8475 46.8657 97.1934 48.4835 97.6413 50.9281L98.0312 53.0516Z" fill="#E9F5F9"/>
<path d="M60.4902 85.2288L59.7745 85.8412L59.7353 85.874L57.889 86.2123C55.4444 86.6602 53.1 85.044 52.6521 82.5995L48.4959 59.9467C48.0464 57.5021 49.6641 55.1578 52.1087 54.7083L53.2253 54.5032L56.1287 53.9707C54.0209 54.6598 52.696 56.8162 53.1079 59.0572L57.2641 81.7052C57.5852 83.4576 58.8818 84.7841 60.4902 85.2288Z" fill="#E9F5F9"/>
<path d="M104.366 84.0493L65.2317 91.231C62.467 91.7384 59.8143 89.9085 59.3069 87.1436L55.3628 65.6519C54.8554 62.8872 56.6853 60.2345 59.4502 59.7271L98.5841 52.5454C101.349 52.038 104.001 53.868 104.509 56.6328L108.453 78.1245C108.96 80.8893 107.13 83.542 104.366 84.0493Z" fill="#E9F5F9"/>
<path d="M82.179 81.2047C87.2624 81.2047 91.3834 77.0837 91.3834 72.0003C91.3834 66.9168 87.2624 62.7959 82.179 62.7959C77.0956 62.7959 72.9746 66.9168 72.9746 72.0003C72.9746 77.0837 77.0956 81.2047 82.179 81.2047Z" fill="#1D718B"/>
<path d="M67.0095 90.9052L65.232 91.2309C62.4664 91.7383 59.8135 89.9076 59.3061 87.1435L55.3628 65.6512C54.8554 62.8872 56.6846 60.2343 59.4502 59.7269L60.2583 59.5781C59.6303 60.607 59.3656 61.8614 59.6005 63.1393L64.0042 87.1435C64.3237 88.885 65.4951 90.2553 67.0095 90.9052Z" fill="#E9F5F9"/>
<path d="M109.896 77.9154L107.957 67.246C107.841 66.6077 107.229 66.1847 106.591 66.3003C105.953 66.4163 105.53 67.0277 105.646 67.6659L107.585 78.3375C107.773 79.3656 107.55 80.4059 106.956 81.2667C106.362 82.1276 105.469 82.7056 104.436 82.8951L96.8756 84.3108C96.2379 84.4303 95.8179 85.0439 95.9373 85.6814C96.043 86.246 96.5361 86.64 97.0903 86.64C97.162 86.64 104.865 85.2047 104.865 85.2047C106.51 84.9026 107.94 83.9779 108.89 82.6005C109.84 81.2235 110.197 79.5588 109.896 77.9154Z" fill="black"/>
<path d="M91.3358 85.2995L65.3067 90.0759C64.2773 90.2647 63.2365 90.0417 62.3757 89.4481C61.5148 88.8543 60.9368 87.9607 60.7479 86.932L56.8047 65.4412C56.4149 63.3172 57.8254 61.2721 59.9488 60.8825L99.0827 53.7006C100.11 53.5121 101.151 53.7349 102.012 54.3291C102.873 54.9231 103.451 55.8167 103.64 56.8448L104.639 62.2914C104.756 62.9296 105.369 63.3518 106.006 63.2347C106.644 63.1175 107.066 62.5055 106.949 61.8675L105.95 56.4208C105.648 54.7754 104.723 53.3459 103.346 52.3956C101.968 51.4454 100.304 51.0882 98.6584 51.3903L98.5474 51.4106L98.3695 50.4426C98.0961 48.9518 97.2583 47.657 96.0107 46.7966C94.7634 45.9364 93.2551 45.6133 91.7647 45.8867L51.469 53.2806C48.3924 53.845 46.3485 56.808 46.9131 59.8854L51.0697 82.5392C51.571 85.2713 53.9634 87.1888 56.6479 87.1888C56.9865 87.1888 57.3299 87.1583 57.6746 87.095L58.366 86.968L58.4372 87.3559C58.9908 90.3727 61.6323 92.49 64.5966 92.49C64.9705 92.49 65.3497 92.4563 65.7303 92.3865L91.7594 87.6101C92.3974 87.4929 92.8198 86.8808 92.7026 86.2429C92.586 85.6048 91.9732 85.1824 91.3358 85.2995ZM57.251 84.7845C55.4472 85.1157 53.7113 83.9178 53.3807 82.1152L49.2241 59.4615C48.8933 57.658 50.0907 55.9217 51.8934 55.5912L92.1891 48.1973C93.0625 48.0366 93.9469 48.2262 94.6776 48.7303C95.4085 49.2344 95.8992 49.993 96.0594 50.8667L96.2372 51.8347L59.525 58.5721C56.1277 59.1954 53.871 62.4672 54.4944 65.8653L57.9425 84.6576L57.251 84.7845Z" fill="black"/>
<path d="M71.8154 71.8887C71.8154 77.6116 76.4713 82.2676 82.1942 82.2676C87.9171 82.2676 92.5731 77.6116 92.5731 71.8887C92.5731 66.1658 87.9171 61.5098 82.1942 61.5098C76.4713 61.5098 71.8154 66.1659 71.8154 71.8887ZM90.2242 71.8887C90.2242 76.3163 86.622 79.9186 82.1944 79.9186C77.7668 79.9186 74.1646 76.3163 74.1646 71.8887C74.1646 67.461 77.7668 63.8588 82.1944 63.8588C86.622 63.859 90.2242 67.461 90.2242 71.8887Z" fill="black"/>
<path d="M31.4538 79.2998L38.5366 77.5684C39.1668 77.4143 39.5527 76.7787 39.3987 76.1487C39.2448 75.5186 38.609 75.1332 37.979 75.2866L30.8959 77.018C30.2658 77.1721 29.8799 77.8077 30.0338 78.4377C30.1649 78.9743 30.6451 79.3337 31.1739 79.3337C31.2662 79.3338 31.3601 79.3227 31.4538 79.2998Z" fill="black"/>
<path d="M47.1605 87.9302L40.0776 89.6616C39.4474 89.8157 39.0615 90.4513 39.2155 91.0813C39.3466 91.6179 39.8267 91.9773 40.3556 91.9773C40.4478 91.9773 40.5418 91.9663 40.6354 91.9434L47.7183 90.212C48.3485 90.0579 48.7343 89.4223 48.5804 88.7923C48.4264 88.1622 47.7906 87.7767 47.1605 87.9302Z" fill="black"/>
<path d="M43.7887 80.7981L32.771 83.6312C32.1427 83.7928 31.7644 84.433 31.926 85.0612C32.0624 85.5913 32.5394 85.9435 33.0626 85.9435C33.1594 85.9435 33.2579 85.9314 33.3559 85.9062L44.3736 83.0731C45.0019 82.9115 45.3803 82.2713 45.2187 81.6431C45.0571 81.015 44.4169 80.6363 43.7887 80.7981Z" fill="black"/>
<path d="M43.9229 76.3433C44.0125 76.3433 44.1033 76.3331 44.1942 76.3115L45.6827 75.9595C46.3139 75.8101 46.7047 75.1774 46.5554 74.5461C46.406 73.9149 45.7729 73.5241 45.1421 73.6734L43.6536 74.0254C43.0223 74.1748 42.6316 74.8075 42.7808 75.4388C42.9087 75.9792 43.3908 76.3433 43.9229 76.3433Z" fill="black"/>
<path d="M34.395 91.2608L31.7193 91.8905C31.0879 92.0391 30.6964 92.6715 30.845 93.3029C30.9723 93.844 31.4546 94.2087 31.9872 94.2087C32.0764 94.2087 32.1667 94.1985 32.2572 94.1772L34.933 93.5475C35.5644 93.3989 35.9559 92.7665 35.8073 92.1351C35.6588 91.5037 35.0269 91.1128 34.395 91.2608Z" fill="black"/>
</g>
<defs>
<clipPath id="clip0_1739_3393">
<rect width="80" height="80" fill="white" transform="translate(30 30)"/>
</clipPath>
</defs>
</svg>
