<svg width="50" height="50" viewBox="0 0 50 50" fill="none" xmlns="http://www.w3.org/2000/svg">
<path d="M45.9974 20.9276C46.7184 20.9276 47.4384 20.6535 47.9868 20.1042L49.1765 18.9154C50.2741 17.8178 50.2741 16.0322 49.1765 14.9357L35.0636 0.822776C33.968 -0.273759 32.1814 -0.274758 31.084 0.822776L29.8942 2.01256C28.8149 3.09181 28.803 4.83441 29.8485 5.93554L5.04029 30.7438H33.4718L44.0639 20.1508C44.6057 20.6654 45.2992 20.9276 45.9974 20.9276ZM31.1872 3.3047L32.3761 2.11491C32.5689 1.92301 32.8212 1.82706 33.0734 1.82706C33.3265 1.82706 33.5796 1.92301 33.7715 2.11491L47.8844 16.2279C48.2691 16.6126 48.2691 17.2386 47.8844 17.6233L46.6946 18.8122C46.309 19.1969 45.6831 19.196 45.2993 18.8122L44.4558 17.9687L32.0307 5.54354L31.1872 4.70008C30.8025 4.31538 30.8025 3.6894 31.1872 3.3047ZM24.0275 27.2641C23.8493 27.4423 23.6154 27.5318 23.3814 27.5318C23.1475 27.5318 22.9136 27.4423 22.7354 27.2641L18.8581 23.3867C18.5017 23.0303 18.5017 22.4519 18.8581 22.0946C19.2154 21.7382 19.7938 21.7382 20.1502 22.0946L24.0275 25.9719C24.3848 26.3292 24.3848 26.9067 24.0275 27.2641ZM24.6736 22.7407C24.4954 22.9198 24.2615 23.0084 24.0275 23.0084C23.7935 23.0084 23.5597 22.9198 23.3814 22.7407L21.4432 20.8025C21.0859 20.4452 21.0859 19.8668 21.4432 19.5103C21.8006 19.153 22.3781 19.153 22.7354 19.5103L24.6736 21.4485C25.0309 21.8059 25.0309 22.3843 24.6736 22.7407ZM29.1969 22.0946C29.0178 22.2737 28.7849 22.3624 28.5509 22.3624C28.3169 22.3624 28.083 22.2737 27.9048 22.0946L24.0284 18.2182C23.6711 17.8609 23.6711 17.2825 24.0284 16.9252C24.3848 16.5688 24.9632 16.5688 25.3205 16.9252L29.1969 20.8025C29.5534 21.1598 29.5534 21.7382 29.1969 22.0946ZM29.843 17.5721C29.6648 17.7504 29.4309 17.839 29.1969 17.839C28.963 17.839 28.73 17.7504 28.5509 17.5721L26.6127 15.633C26.2554 15.2757 26.2554 14.6973 26.6127 14.3409C26.9691 13.9836 27.5475 13.9836 27.9048 14.3409L29.843 16.2791C30.2003 16.6363 30.2003 17.2148 29.843 17.5721ZM34.3664 16.9252C34.1882 17.1034 33.9543 17.1929 33.7203 17.1929C33.4863 17.1929 33.2525 17.1034 33.0742 16.9252L29.1969 13.0479C28.8405 12.6915 28.8405 12.1131 29.1969 11.7557C29.5543 11.3993 30.1327 11.3993 30.4891 11.7557L34.3664 15.633C34.7237 15.9903 34.7237 16.5679 34.3664 16.9252Z" fill="#E39AF0"/>
<path d="M2.64958 33.1342C-0.883195 36.667 -0.883195 42.415 2.64958 45.9477L3.94632 47.2445C5.74199 49.0401 8.09958 49.9384 10.4582 49.9384C12.8158 49.9384 15.1752 49.0401 16.97 47.2445L31.6439 32.5713H3.21249L2.64958 33.1342Z" fill="#E39AF0"/>
</svg>
