<svg width="32" height="31" viewBox="0 0 32 31" fill="none" xmlns="http://www.w3.org/2000/svg">
<g clip-path="url(#clip0_1633_662)">
<path d="M7.96777 6.91441V4.86716C7.96777 2.55054 9.91333 0.666016 12.3044 0.666016H19.696C22.0872 0.666016 24.0327 2.55054 24.0327 4.86716V9.29513H21.6262V4.86716C21.6262 3.83598 20.7603 2.99731 19.696 2.99731H12.3044C11.2402 2.99731 10.3743 3.83598 10.3743 4.86716V9.27408H7.96777V6.91441Z" fill="#636363"/>
<path d="M10.3743 6.91431H8.57642C8.37183 6.91431 8.16895 6.92164 7.96777 6.93536V9.27398H10.3743V6.91431Z" fill="#424242"/>
<path d="M21.626 9.29503H24.0325V6.93536C23.8313 6.92164 23.6284 6.91431 23.4238 6.91431H21.626V9.29503Z" fill="#424242"/>
<path d="M30.2126 30.3852H1.78735C0.800293 30.3852 0 29.6099 0 28.6537V17.5767C0 12.9912 3.83716 9.27417 8.57031 9.27417H23.4297C28.1628 9.27417 32 12.9912 32 17.5767V28.6537C32 29.6099 31.1997 30.3852 30.2126 30.3852Z" fill="#EEEDEE"/>
<path d="M23.4238 9.27417H19.6514C24.3879 9.27417 28.2275 12.9938 28.2275 17.5823V28.5832C28.2275 29.5784 27.3948 30.3852 26.3677 30.3852H30.1399C31.1672 30.3852 32 29.5784 32 28.5832V17.5823C32 12.9938 28.1604 9.27417 23.4238 9.27417Z" fill="#CCCBCC"/>
<path d="M0 28.583C0 29.5782 0.832764 30.385 1.86011 30.385H30.1399C31.1672 30.385 32 29.5782 32 28.583V26.2893H0V28.583Z" fill="#EF2D57"/>
<path d="M28.2271 26.2893V28.583C28.2271 29.5782 27.3943 30.385 26.3672 30.385H30.1394C31.1667 30.385 31.9995 29.5782 31.9995 28.583V26.2893H28.2271Z" fill="#BF2445"/>
<path d="M20.0842 16.5547H17.8865V14.4256C17.8865 13.879 17.429 13.4358 16.8647 13.4358H15.1357C14.5715 13.4358 14.114 13.879 14.114 14.4256V16.5547H11.9163C11.3521 16.5547 10.8945 16.9979 10.8945 17.5445V19.2194C10.8945 19.766 11.3521 20.2092 11.9163 20.2092H14.114V22.3383C14.114 22.8849 14.5715 23.3281 15.1357 23.3281H16.8647C17.429 23.3281 17.8865 22.8849 17.8865 22.3383V20.2092H20.0842C20.6484 20.2092 21.106 19.766 21.106 19.2194V17.5445C21.106 16.9979 20.6484 16.5547 20.0842 16.5547Z" fill="#EF2D57"/>
</g>
<defs>
<clipPath id="clip0_1633_662">
<rect width="32" height="31" fill="white"/>
</clipPath>
</defs>
</svg>
