<svg width="56" height="55" viewBox="0 0 56 55" fill="none" xmlns="http://www.w3.org/2000/svg">
<g filter="url(#filter0_d_1651_1985)">
<g filter="url(#filter1_d_1651_1985)">
<rect width="56" height="55" rx="8" fill="white"/>
</g>
<g clip-path="url(#clip0_1651_1985)">
<path d="M25.6173 45C22.8192 45 20.543 42.7236 20.543 39.9257V31.1706C20.543 30.5876 21.0156 30.115 21.5986 30.115C22.1815 30.115 22.6542 30.5876 22.6542 31.1706V39.9257C22.6542 41.5595 23.9834 42.8887 25.6172 42.8887C27.251 42.8887 28.5803 41.5594 28.5803 39.9257V37.814C28.5803 34.7359 31.0845 32.2316 34.1627 32.2316H39.2381C39.821 32.2316 40.2936 32.7042 40.2936 33.2872C40.2936 33.8702 39.821 34.3428 39.2381 34.3428H34.1627C32.2487 34.3428 30.6915 35.9 30.6915 37.814V39.9257C30.6916 42.7236 28.4153 45 25.6173 45Z" fill="#60B8FF"/>
<path d="M39.3004 32.2349C39.3257 32.3255 39.3403 32.4207 39.3403 32.5193C39.3403 33.1023 38.8677 33.5749 38.2847 33.5749H33.2093C31.2953 33.5749 29.7381 35.1321 29.7381 37.0461V39.1578C29.7381 41.9558 27.4618 44.2321 24.6638 44.2321C23.6815 44.2321 22.7641 43.9507 21.9863 43.4655C22.9085 44.4112 24.1951 45.0001 25.6172 45.0001C28.4152 45.0001 30.6915 42.7237 30.6915 39.9258V37.8141C30.6915 35.9001 32.2487 34.3429 34.1627 34.3429H39.2381C39.8211 34.3429 40.2937 33.8703 40.2937 33.2873C40.2937 32.7254 39.8542 32.2673 39.3004 32.2349Z" fill="#22A7FF"/>
<path d="M40.3138 37.5632C42.6364 37.5632 44.5193 35.6804 44.5193 33.3578C44.5193 31.0352 42.6364 29.1523 40.3138 29.1523C37.9912 29.1523 36.1084 31.0352 36.1084 33.3578C36.1084 35.6804 37.9912 37.5632 40.3138 37.5632Z" fill="#AB9FAA"/>
<path d="M42.5534 29.7986C42.7209 30.2524 42.8127 30.7429 42.8127 31.255C42.8127 33.5776 40.9299 35.4604 38.6072 35.4604C37.784 35.4604 37.0166 35.223 36.3682 34.8142C36.9606 36.4189 38.5037 37.5632 40.3143 37.5632C42.6369 37.5632 44.5197 35.6804 44.5197 33.3578C44.5197 31.8584 43.7345 30.5432 42.5534 29.7986Z" fill="#928392"/>
<path d="M40.3147 35.4606C41.476 35.4606 42.4174 34.5192 42.4174 33.3579C42.4174 32.1966 41.476 31.2551 40.3147 31.2551C39.1533 31.2551 38.2119 32.1966 38.2119 33.3579C38.2119 34.5192 39.1533 35.4606 40.3147 35.4606Z" fill="#D8D1D7"/>
<path d="M41.1448 31.426C41.2703 31.6955 41.3409 31.9957 41.3409 32.3126C41.3409 33.4739 40.3994 34.4154 39.2381 34.4154C38.943 34.4154 38.6622 34.3543 38.4072 34.2445C38.7417 34.9626 39.4695 35.4607 40.3139 35.4607C41.4753 35.4607 42.4166 34.5192 42.4166 33.3579C42.4167 32.4918 41.8928 31.7482 41.1448 31.426Z" fill="#CAC0C9"/>
<path d="M21.5991 31.5662C18.196 31.5662 15.1995 29.2716 14.3123 25.986L11.5891 15.9015C11.3364 14.9658 11.5294 13.9878 12.1187 13.2184C12.708 12.4489 13.6018 12.0076 14.571 12.0076H17.0517C17.3339 12.0076 17.5625 12.2363 17.5625 12.5184C17.5625 12.8005 17.3339 13.0292 17.0517 13.0292H14.571C13.9223 13.0292 13.324 13.3245 12.9297 13.8395C12.5353 14.3545 12.4061 15.0091 12.5752 15.6353L15.2985 25.7198C16.0657 28.5606 18.6565 30.5447 21.5991 30.5447C24.5417 30.5447 27.1327 28.5606 27.8998 25.7198L30.6231 15.6353C30.7921 15.0091 30.663 14.3545 30.2686 13.8395C29.8742 13.3245 29.276 13.0292 28.6274 13.0292H26.1467C25.8645 13.0292 25.6359 12.8005 25.6359 12.5184C25.6359 12.2363 25.8645 12.0076 26.1467 12.0076H28.6274C29.5966 12.0076 30.4904 12.4489 31.0797 13.2184C31.669 13.9879 31.862 14.9659 31.6093 15.9016L28.886 25.9861C27.9988 29.2715 25.0024 31.5662 21.5991 31.5662Z" fill="#928392"/>
<path d="M21.5993 32.1111C17.9505 32.1111 14.7377 29.6508 13.7865 26.1282L13.443 24.8563C13.291 24.2934 13.624 23.714 14.1869 23.562C14.7499 23.4101 15.3292 23.7431 15.4812 24.3058L15.8247 25.5777C16.5278 28.1814 18.9024 29.9999 21.5993 29.9999C24.2963 29.9999 26.6709 28.1814 27.374 25.5777L27.7174 24.3058C27.8694 23.7431 28.4488 23.4098 29.0118 23.562C29.5746 23.7139 29.9077 24.2934 29.7557 24.8563L29.4122 26.1282C28.461 29.6509 25.2482 32.1111 21.5993 32.1111Z" fill="#60B8FF"/>
<path d="M29.1724 23.6211C29.1847 23.745 29.1763 23.8729 29.142 24.0003L28.7986 25.2722C27.8473 28.7948 24.6345 31.2551 20.9857 31.2551C18.5023 31.2551 16.2217 30.1147 14.7178 28.2761C16.1661 30.6108 18.7494 32.111 21.5986 32.111C25.2474 32.111 28.4602 29.6507 29.4115 26.1281L29.7549 24.8562C29.8917 24.3497 29.635 23.8309 29.1724 23.6211Z" fill="#22A7FF"/>
<path d="M17.0921 14.0415C17.932 14.0415 18.6128 13.3607 18.6128 12.5208C18.6128 11.6809 17.932 11 17.0921 11C16.2522 11 15.5713 11.6809 15.5713 12.5208C15.5713 13.3607 16.2522 14.0415 17.0921 14.0415Z" fill="#BBB0BA"/>
<path d="M17.5423 11.0679C17.7021 11.3086 17.7954 11.5973 17.7954 11.9078C17.7954 12.7477 17.1146 13.4286 16.2747 13.4286C16.1179 13.4286 15.9666 13.4048 15.8242 13.3607C16.0966 13.771 16.5625 14.0415 17.0918 14.0415C17.9318 14.0415 18.6126 13.3607 18.6126 12.5208C18.6126 11.8377 18.1623 11.2599 17.5423 11.0679Z" fill="#AB9FAA"/>
<path d="M25.9456 14.0415C26.7855 14.0415 27.4663 13.3607 27.4663 12.5208C27.4663 11.6809 26.7855 11 25.9456 11C25.1057 11 24.4248 11.6809 24.4248 12.5208C24.4248 13.3607 25.1057 14.0415 25.9456 14.0415Z" fill="#BBB0BA"/>
<path d="M26.3958 11.0679C26.5556 11.3086 26.6489 11.5973 26.6489 11.9078C26.6489 12.7477 25.9681 13.4286 25.1282 13.4286C24.9714 13.4286 24.8201 13.4048 24.6777 13.3607C24.9501 13.771 25.416 14.0415 25.9454 14.0415C26.7853 14.0415 27.4661 13.3607 27.4661 12.5208C27.4662 11.8377 27.0158 11.2599 26.3958 11.0679Z" fill="#AB9FAA"/>
</g>
</g>
<defs>
<filter id="filter0_d_1651_1985" x="-4" y="-8" width="64" height="63" filterUnits="userSpaceOnUse" color-interpolation-filters="sRGB">
<feFlood flood-opacity="0" result="BackgroundImageFix"/>
<feColorMatrix in="SourceAlpha" type="matrix" values="0 0 0 0 0 0 0 0 0 0 0 0 0 0 0 0 0 0 127 0" result="hardAlpha"/>
<feOffset dy="-4"/>
<feGaussianBlur stdDeviation="2"/>
<feComposite in2="hardAlpha" operator="out"/>
<feColorMatrix type="matrix" values="0 0 0 0 0 0 0 0 0 0 0 0 0 0 0 0 0 0 0.06 0"/>
<feBlend mode="normal" in2="BackgroundImageFix" result="effect1_dropShadow_1651_1985"/>
<feBlend mode="normal" in="SourceGraphic" in2="effect1_dropShadow_1651_1985" result="shape"/>
</filter>
<filter id="filter1_d_1651_1985" x="-8" y="-4" width="72" height="71" filterUnits="userSpaceOnUse" color-interpolation-filters="sRGB">
<feFlood flood-opacity="0" result="BackgroundImageFix"/>
<feColorMatrix in="SourceAlpha" type="matrix" values="0 0 0 0 0 0 0 0 0 0 0 0 0 0 0 0 0 0 127 0" result="hardAlpha"/>
<feOffset dy="4"/>
<feGaussianBlur stdDeviation="4"/>
<feComposite in2="hardAlpha" operator="out"/>
<feColorMatrix type="matrix" values="0 0 0 0 0 0 0 0 0 0 0 0 0 0 0 0 0 0 0.12 0"/>
<feBlend mode="normal" in2="BackgroundImageFix" result="effect1_dropShadow_1651_1985"/>
<feBlend mode="normal" in="SourceGraphic" in2="effect1_dropShadow_1651_1985" result="shape"/>
</filter>
<clipPath id="clip0_1651_1985">
<rect width="34" height="34" fill="white" transform="translate(11 11)"/>
</clipPath>
</defs>
</svg>
