<svg width="24" height="24" viewBox="0 0 24 24" fill="none" xmlns="http://www.w3.org/2000/svg">
<path d="M8.55043 3.87961L8.55042 3.87961L8.55056 3.88024L9.22537 7.02939C9.25824 7.26002 9.25394 7.46918 9.21307 7.65719C9.17238 7.84437 9.08713 8.00252 8.95732 8.13232L8.95723 8.13241L6.45723 10.6574L6.44355 10.6712L6.45358 10.6879C7.38787 12.2395 8.43494 13.5911 9.59489 14.7427C10.7549 15.8944 12.0693 16.8708 13.538 17.6719L13.5547 17.6811L13.568 17.6674L15.943 15.2174L15.943 15.2174L15.9435 15.2168C16.1076 15.0363 16.2958 14.9096 16.5082 14.8361C16.7206 14.7626 16.9324 14.7505 17.1444 14.7994L17.1447 14.7994L20.1196 15.4494C20.3695 15.5045 20.5743 15.6282 20.7347 15.8207C20.8949 16.0129 20.975 16.2389 20.975 16.5V19.875C20.975 20.1903 20.8702 20.4516 20.6609 20.6609C20.4516 20.8702 20.1903 20.975 19.875 20.975C17.8459 20.975 15.8289 20.4761 13.8236 19.4776C11.8177 18.4788 10.0158 17.1804 8.41768 15.5823C6.81957 13.9842 5.52116 12.1823 4.52238 10.1764C3.52392 8.17112 3.025 6.15408 3.025 4.125C3.025 3.80975 3.12981 3.54839 3.3391 3.3391C3.54839 3.12981 3.80975 3.025 4.125 3.025H7.625C7.8454 3.025 8.04212 3.1017 8.21605 3.25619C8.38957 3.41034 8.5013 3.6176 8.55043 3.87961ZM5.70192 9.30962L5.71638 9.3443L5.74279 9.31757L7.76779 7.26757L7.77722 7.25802L7.77447 7.24488L7.19947 4.49488L7.19531 4.475H7.175H4.5H4.475V4.5C4.475 5.15253 4.57538 5.86716 4.77579 6.64375C4.97617 7.42022 5.28495 8.30888 5.70192 9.30962ZM14.9319 18.3578L14.9079 18.383L14.9395 18.3977C15.6244 18.7151 16.3675 18.9739 17.1689 19.1743C17.9704 19.3746 18.7471 19.4916 19.4989 19.525L19.525 19.5261V19.5V16.825V16.8046L19.505 16.8005L16.93 16.2755L16.9164 16.2727L16.9069 16.2828L14.9319 18.3578Z" fill="black" stroke="black" stroke-width="0.05"/>
</svg>
