<svg width="28" height="28" viewBox="0 0 28 28" fill="none" xmlns="http://www.w3.org/2000/svg">
<path d="M20.9128 20.9163H22.8337V21.6663L5.16699 21.6663L5.16699 20.9163H7.11699H7.61699V20.4163L7.61699 11.4913C7.61699 9.96411 8.06436 8.61705 8.95964 7.43238C9.84869 6.25597 11.0118 5.51999 12.4697 5.21401L12.867 5.13063V4.72467V3.87884C12.867 3.56746 12.9716 3.33405 13.1846 3.14048C13.4102 2.93533 13.6732 2.83301 14.0003 2.83301C14.3275 2.83301 14.5904 2.93533 14.8161 3.14048C15.029 3.33405 15.1337 3.56746 15.1337 3.87884V4.72467V5.13063L15.531 5.21401C16.9892 5.52006 18.158 6.25648 19.0571 7.43431C19.9614 8.61897 20.4128 9.96535 20.4128 11.4913L20.4128 20.4163V20.9163H20.9128ZM8.36699 20.4163V20.9163H8.86699L19.1628 20.9163H19.6628V20.4163L19.6628 11.4913C19.6628 9.92387 19.1173 8.57248 18.0323 7.46624C16.9449 6.35754 15.6003 5.79967 14.0295 5.79967C12.4588 5.79967 11.1103 6.35739 10.0138 7.4645C8.91855 8.5704 8.36699 9.92232 8.36699 11.4913L8.36699 20.4163ZM14.0003 25.1663C13.5159 25.1663 13.0952 24.9942 12.7168 24.6237C12.4746 24.3865 12.3149 24.1254 12.2328 23.833L15.7696 23.833C15.6891 24.1277 15.5321 24.39 15.2947 24.6274C14.9308 24.9913 14.5083 25.1663 14.0003 25.1663Z" fill="#1D718B" stroke="#1D718B"/>
</svg>
