<svg width="24" height="24" viewBox="0 0 24 24" fill="none" xmlns="http://www.w3.org/2000/svg">
<path d="M3.7002 22.3001C3.16976 22.3001 2.66105 22.0894 2.28598 21.7143C1.91091 21.3393 1.7002 20.8306 1.7002 20.3001V16.0201C1.70506 15.494 1.91704 14.991 2.2902 14.6201L14.2902 2.62014C14.8625 2.07713 15.6213 1.77441 16.4102 1.77441C17.1991 1.77441 17.9579 2.07713 18.5302 2.62014L21.3602 5.45014C21.922 6.01264 22.2376 6.77513 22.2376 7.57014C22.2376 8.36514 21.922 9.12763 21.3602 9.69014L9.3602 21.6901C8.98767 22.0596 8.48488 22.2679 7.9602 22.2701H3.6802L3.7002 22.3001ZM3.7002 16.0201V20.3001H7.9802L19.9802 8.30014C20.0739 8.20717 20.1483 8.09657 20.1991 7.97471C20.2499 7.85285 20.276 7.72215 20.276 7.59014C20.276 7.45812 20.2499 7.32742 20.1991 7.20556C20.1483 7.0837 20.0739 6.9731 19.9802 6.88014L17.1802 4.00014C17.0872 3.90641 16.9766 3.83201 16.8548 3.78124C16.7329 3.73048 16.6022 3.70434 16.4702 3.70434C16.3382 3.70434 16.2075 3.73048 16.0856 3.78124C15.9638 3.83201 15.8532 3.90641 15.7602 4.00014L3.7002 16.0201Z" fill="black"/>
<path d="M17.8803 12.7701C17.6179 12.769 17.3665 12.6648 17.1803 12.4801L11.5203 6.82006C11.334 6.63269 11.2295 6.37924 11.2295 6.11506C11.2295 5.85087 11.334 5.59742 11.5203 5.41006C11.6132 5.31633 11.7238 5.24193 11.8457 5.19116C11.9676 5.1404 12.0983 5.11426 12.2303 5.11426C12.3623 5.11426 12.493 5.1404 12.6149 5.19116C12.7367 5.24193 12.8473 5.31633 12.9403 5.41006L18.5903 11.0601C18.7313 11.1999 18.8275 11.3786 18.8666 11.5734C18.9056 11.7681 18.8858 11.9701 18.8097 12.1535C18.7335 12.337 18.6044 12.4936 18.4389 12.6034C18.2734 12.7132 18.0789 12.7712 17.8803 12.7701Z" fill="black"/>
</svg>
