<svg width="26" height="26" viewBox="0 0 26 26" fill="none" xmlns="http://www.w3.org/2000/svg">
<path d="M18.5788 16.2231L17.4142 15.0585C17.7934 14.5891 18.0732 14.061 18.2538 13.4742C18.4343 12.8873 18.5246 12.287 18.5246 11.6731H20.1496C20.1496 12.5037 20.0142 13.3071 19.7434 14.0835C19.4725 14.8599 19.0843 15.5731 18.5788 16.2231ZM15.1121 12.7564L13.6767 11.3481V4.90228C13.6767 4.58766 13.5703 4.32393 13.3574 4.11109C13.1446 3.89827 12.8809 3.79186 12.5663 3.79186C12.2517 3.79186 11.9879 3.89827 11.7751 4.11109C11.5623 4.32393 11.4559 4.58766 11.4559 4.90228V9.1002L9.83086 7.4752V4.90228C9.83086 4.14245 10.0966 3.49658 10.6282 2.96468C11.1598 2.4328 11.8053 2.16686 12.5647 2.16686C13.3241 2.16686 13.9701 2.4328 14.5027 2.96468C15.0354 3.49658 15.3017 4.14245 15.3017 4.90228V11.6731C15.3017 11.8176 15.2882 11.9981 15.2611 12.2148C15.234 12.4314 15.1843 12.612 15.1121 12.7564ZM11.7538 22.7502V19.0669C9.83989 18.8683 8.23294 18.0648 6.93294 16.6564C5.63294 15.2481 4.98294 13.587 4.98294 11.6731H6.60794C6.60794 13.3162 7.19023 14.6974 8.35482 15.8169C9.5194 16.9363 10.9232 17.496 12.5663 17.496C13.2524 17.496 13.9124 17.3847 14.5463 17.1619C15.1803 16.9391 15.7571 16.6262 16.2767 16.2231L17.4413 17.3877C16.8816 17.8571 16.2585 18.2324 15.5721 18.5135C14.8858 18.7946 14.1547 18.979 13.3788 19.0669V22.7502H11.7538ZM22.5059 24.5106L0.974609 2.97936L2.00378 1.9502L23.535 23.4814L22.5059 24.5106Z" fill="black"/>
</svg>
