<svg width="124" height="123" viewBox="0 0 124 123" fill="none" xmlns="http://www.w3.org/2000/svg">
<path d="M84.3138 39.1215C85.0406 39.1215 85.6048 39.1183 86.1692 39.1221C91.93 39.1608 97.6941 39.0906 103.451 39.2642C113.28 39.5605 122.509 48.0212 123.755 57.7086C124.322 62.1161 123.905 66.0059 122.487 68.8582C120.661 65.5955 117.639 64.2461 114.229 63.5016C114.229 62.4803 114.266 61.5246 114.223 60.5724C113.926 54.0435 108.667 48.9223 102.082 48.8028C98.6457 48.7404 95.2052 48.8487 91.7699 48.7565C90.3028 48.7173 88.8049 48.5041 87.3904 48.1183C85.1206 47.4991 82.9484 47.6149 80.6818 48.168C78.7613 48.6364 76.7527 48.7482 74.5773 49.0459C74.5773 48.0796 74.5773 47.517 74.5773 46.9544C74.5773 38.8705 74.5832 30.787 74.5753 22.7031C74.5683 15.4294 70.0511 10.2019 62.7864 9.65544C55.6276 9.11709 49.4924 14.5491 49.4389 22.1648C49.3811 30.3924 49.4253 38.6207 49.4247 46.8489C49.4247 47.4176 49.4247 47.9863 49.4247 48.7436C46.0641 48.7436 42.8335 48.8316 39.6124 48.6976C38.4217 48.6482 38.7815 47.8508 39.3526 47.2042C41.6965 44.5506 42.7102 41.4314 42.7158 37.9209C42.7225 33.5515 42.199 29.23 40.6665 25.1615C39.4459 21.9207 39.7353 18.8844 40.6444 15.7346C43.4999 5.84369 53.86 -0.935303 64.1576 0.105287C75.5367 1.25534 84.4838 10.8196 84.3239 22.4998C84.2562 27.4549 84.3129 32.4118 84.3132 37.3678C84.3138 37.8845 84.3138 38.4009 84.3138 39.1215Z" fill="white"/>
<path d="M9.24777 43.1616C10.34 44.5219 11.279 45.797 12.3311 46.9722C13.3896 48.1549 14.5602 49.2382 15.367 50.0489C14.3489 51.2481 13.2913 52.3687 12.377 53.5947C9.46371 57.5026 8.82403 61.7782 10.839 66.2287C12.9536 70.9 16.7623 73.4811 21.8949 73.5793C30.4156 73.7425 38.9415 73.6296 47.4652 73.633C48.0406 73.6333 48.6161 73.633 49.4258 73.633C49.4258 74.2664 49.4258 74.8183 49.4258 75.3699C49.4261 83.744 49.4019 92.1184 49.4351 100.492C49.4586 106.448 53.2063 111.426 58.6739 112.889C66.6 115.01 74.4229 109.176 74.5653 100.999C74.6241 97.631 74.577 94.2611 74.5781 90.8924C74.5781 90.422 74.5781 89.9518 74.5781 89.4813C74.7476 89.3554 74.9167 89.2297 75.0862 89.1038C75.2082 89.4082 75.2506 89.7909 75.4646 90.0052C78.1494 92.6978 80.8686 95.3566 83.5502 98.0527C83.8891 98.3935 84.2483 98.8815 84.2849 99.3272C85.1992 110.412 76.9956 121.15 66.1109 122.642C49.6004 124.904 39.6428 113.084 39.6885 100.544C39.7074 95.3941 39.6905 90.2443 39.6899 85.0948C39.6899 84.5726 39.6899 84.0502 39.6899 83.297C39.0008 83.297 38.4399 83.2996 37.879 83.2967C32.2134 83.2672 26.5412 83.4018 20.8841 83.171C10.3211 82.7399 1.57773 74.6346 0.214674 64.1559C-0.917334 55.4566 2.47607 48.6496 9.24777 43.1616Z" fill="white"/>
<path d="M91.7036 62.9451C94.1367 64.1668 96.6745 64.7008 99.2623 64.9529C103.735 65.3888 108.219 65.7163 112.696 66.1096C113.269 66.1599 113.835 66.3173 114.398 66.4496C119.295 67.599 121.664 70.8496 120.464 75.7086C118.561 83.417 114.86 90.2893 108.834 95.602C102.066 101.568 94.5317 101.869 86.8858 96.8554C80.4913 92.6627 76.0778 86.7334 72.3717 80.2216C70.99 77.7938 69.758 75.2823 68.4243 72.8271C67.9887 72.0251 67.4542 71.275 66.9523 70.5097C64.3863 66.5966 60.7107 65.4766 56.239 66.25C52.1664 66.9544 48.0857 67.3382 44.0378 66.0631C38.5405 64.3314 34.4664 60.9581 31.985 55.7468C31.8417 55.4458 31.6909 55.1486 31.5522 54.8679C29.7178 55.04 28.7206 54.4555 27.9772 52.463C27.5078 51.2055 26.9027 50.7047 25.4778 50.8081C20.866 51.1431 17.6258 48.6209 14.7762 45.4197C11.9704 42.2682 9.63577 38.8154 7.90186 34.9595C6.42546 31.6766 6.78177 28.6458 8.7816 25.6785C9.17918 25.0888 9.16204 24.1689 9.18877 23.3964C9.27073 21.0399 11.3299 18.9957 13.5875 19.1063C16.1662 19.2325 18.1274 21.2955 17.9719 23.7187C17.8228 26.0413 15.8451 27.8709 13.5398 27.8189C11.6286 27.7759 10.8582 28.3541 10.7291 30.2657C10.6634 31.2373 10.7904 32.3175 11.1677 33.207C13.2099 38.0221 16.2674 42.1452 20.2118 45.5916C22.3346 47.4463 24.9139 47.3458 27.5087 46.9981C30.0785 46.6535 32.0832 45.2874 33.8755 43.5372C35.481 41.9693 36.2448 40.053 36.2192 37.8248C36.164 33.0089 35.2514 28.3636 33.3521 23.9252C32.6813 22.3578 31.6322 21.1641 29.9105 20.6483C29.0816 20.3999 28.5401 20.4207 27.9877 21.2805C26.8731 23.0145 24.7887 23.6 22.8792 22.9247C21.0163 22.2662 19.9357 20.6916 19.9924 18.7188C20.0485 16.7693 21.3052 15.1372 23.269 14.6257C24.8983 14.2012 26.2773 14.7453 27.5247 15.8431C28.0629 16.3167 28.7596 16.7834 29.4434 16.8943C32.9508 17.463 35.3459 19.3313 36.7208 22.5787C38.9697 27.8906 40.093 33.4028 39.785 39.1727C39.6364 41.9545 38.3902 44.2806 36.4003 46.151C35.463 47.0319 35.3307 47.7005 35.8992 48.8404C37.0298 51.1073 36.8339 51.693 34.9433 53.295C36.9324 58.876 42.6564 63.1236 48.6629 63.1935C51.5503 63.227 54.4566 62.9162 57.3306 62.5682C62.4039 61.9539 66.3533 63.8448 69.3139 67.7928C70.7805 69.7484 72.0424 71.8867 73.1613 74.0621C76.5567 80.6623 80.3434 86.9985 86.158 91.7856C88.2793 93.532 90.7703 95.0318 93.3381 96.0031C98.1233 97.8134 102.55 96.4678 106.225 93.1234C111.564 88.2635 114.976 82.1711 116.878 75.2647C117.725 72.188 116.569 70.3508 113.377 69.9142C109.264 69.3516 105.11 69.0899 100.971 68.7179C97.2976 68.3878 93.6761 67.8206 90.2984 66.2616C89.4718 65.88 88.8507 65.9031 88.0189 66.3248C83.9928 68.365 79.166 66.953 76.8895 63.1597C74.6374 59.4069 75.7662 54.4468 79.4532 51.8963C82.3729 49.8767 86.5608 50.0803 89.6337 52.3911C92.2337 54.3466 93.3645 58.2846 92.2505 61.5271C92.0982 61.9715 91.9134 62.4039 91.7036 62.9451Z" fill="#E9F5F9"/>
</svg>
