<svg width="26" height="26" viewBox="0 0 26 26" fill="none" xmlns="http://www.w3.org/2000/svg">
<path d="M6.50033 15.1941H14.9774V13.5691H6.50033V15.1941ZM6.50033 11.6732H19.5003V10.0482H6.50033V11.6732ZM6.50033 8.15241H19.5003V6.52741H6.50033V8.15241ZM2.16699 23.8337V3.79199C2.16699 3.35866 2.32949 2.97949 2.65449 2.65449C2.97949 2.32949 3.35866 2.16699 3.79199 2.16699H22.2087C22.642 2.16699 23.0212 2.32949 23.3462 2.65449C23.6712 2.97949 23.8337 3.35866 23.8337 3.79199V17.8753C23.8337 18.3087 23.6712 18.6878 23.3462 19.0128C23.0212 19.3378 22.642 19.5003 22.2087 19.5003H6.50033L2.16699 23.8337ZM5.79616 17.8753H22.2087V3.79199H3.79199V20.042L5.79616 17.8753Z" fill="black"/>
</svg>
