<svg width="153" height="154" viewBox="0 0 153 154" fill="none" xmlns="http://www.w3.org/2000/svg">
<ellipse cx="76.5" cy="77" rx="76.5" ry="77" fill="#E9F5F9"/>
<mask id="mask0_1706_2144" style="mask-type:luminance" maskUnits="userSpaceOnUse" x="37" y="37" width="80" height="80">
<path d="M37 37H117V117H37V37Z" fill="white"/>
</mask>
<g mask="url(#mask0_1706_2144)">
<path d="M115.695 44.5607V109.439C115.695 111.942 113.667 113.972 111.163 113.972H42.8375C40.333 113.972 38.3047 111.942 38.3047 109.439V44.5607C38.3047 42.0576 40.333 40.0279 42.8375 40.0279H111.163C113.667 40.0279 115.695 42.0576 115.695 44.5607Z" fill="#E9F5F9"/>
<path d="M111.163 40.0279H100.287C102.792 40.0279 104.82 42.0576 104.82 44.5608V109.439C104.82 111.942 102.792 113.972 100.287 113.972H111.163C113.668 113.972 115.696 111.942 115.696 109.439V44.5608C115.696 42.0576 113.668 40.0279 111.163 40.0279Z" fill="#E9F5F9"/>
<path d="M115.695 44.561V59.5845H38.3047V44.561C38.3047 42.0579 40.333 40.0282 42.8375 40.0282H111.163C113.667 40.0282 115.695 42.0579 115.695 44.561Z" fill="#E9F5F9"/>
<path d="M111.163 40.0282H100.287C102.792 40.0282 104.82 42.0579 104.82 44.561V59.5845H115.696V44.561C115.696 42.0579 113.668 40.0282 111.163 40.0282Z" fill="#E9F5F9"/>
<path d="M87.9998 52.6187H66.0018C64.483 52.6187 63.252 51.3876 63.252 49.8688C63.252 48.3504 64.483 47.1191 66.0018 47.1191H87.9998C89.5185 47.1191 90.7496 48.3504 90.7496 49.8688C90.7496 51.3876 89.5185 52.6187 87.9998 52.6187Z" fill="white"/>
<path d="M54.2692 52.6187C52.7506 52.6187 51.5195 51.3876 51.5195 49.8688C51.5195 48.3504 52.7506 47.1191 54.2692 47.1191C55.788 47.1191 57.0191 48.3504 57.0191 49.8688C57.0191 51.3876 55.788 52.6187 54.2692 52.6187Z" fill="#E9F5F9"/>
<path d="M99.9862 52.6187C98.4676 52.6187 97.2363 51.3876 97.2363 49.8688C97.2363 48.3504 98.4674 47.1191 99.986 47.1191C101.505 47.1191 102.736 48.3504 102.736 49.8688C102.736 51.3876 101.505 52.6187 99.9862 52.6187Z" fill="#E9F5F9"/>
<path d="M76.9086 96.2568C69.2294 96.2568 63.0039 90.0315 63.0039 82.3523C63.0039 74.6729 69.2294 68.4476 76.9086 68.4476C84.588 68.4476 90.8133 74.6728 90.8133 82.3521C90.8133 90.0314 84.588 96.2568 76.9086 96.2568Z" fill="#E9F5F9"/>
<path d="M77.5891 87.896C76.9862 87.896 76.408 87.6566 75.9819 87.2304L71.1578 82.4063C70.2703 81.5188 70.2703 80.0797 71.1578 79.1919C72.0455 78.3043 73.4845 78.3043 74.3722 79.1919L77.5891 82.4088L91.0786 69.1132C91.9663 68.2254 93.4053 68.2254 94.293 69.1132C95.1805 70.0008 95.1805 71.4399 94.293 72.3276L79.1962 87.2304C78.77 87.6566 78.1919 87.896 77.5891 87.896Z" fill="#1D718B"/>
<path d="M90.4334 103.241H63.3828C62.7355 103.241 62.2109 102.717 62.2109 102.069C62.2109 101.422 62.7355 100.897 63.3828 100.897H90.4334C91.0808 100.897 91.6053 101.422 91.6053 102.069C91.6053 102.717 91.0808 103.241 90.4334 103.241Z" fill="#E9F5F9"/>
<path d="M83.5109 108.628H70.3066C69.6595 108.628 69.1348 108.103 69.1348 107.456C69.1348 106.809 69.6595 106.284 70.3066 106.284H83.5109C84.1582 106.284 84.6827 106.809 84.6827 107.456C84.6827 108.103 84.1582 108.628 83.5109 108.628Z" fill="#E9F5F9"/>
<path d="M111.163 113.973H42.838C40.3342 113.973 38.3047 111.943 38.3047 109.439V44.5608C38.3047 42.057 40.3342 40.0273 42.838 40.0273H111.163C113.667 40.0273 115.697 42.057 115.697 44.5608V109.439C115.697 111.943 113.667 113.973 111.163 113.973Z" stroke="black" stroke-width="2" stroke-miterlimit="10" stroke-linecap="round" stroke-linejoin="round"/>
<path d="M48.3281 59.585H115.696" stroke="black" stroke-width="2" stroke-miterlimit="10" stroke-linecap="round" stroke-linejoin="round"/>
<path d="M38.3047 59.585H43.2506" stroke="black" stroke-width="2" stroke-miterlimit="10" stroke-linecap="round" stroke-linejoin="round"/>
<path d="M87.9998 52.6187H66.0018C64.483 52.6187 63.252 51.3876 63.252 49.8688C63.252 48.3504 64.483 47.1191 66.0018 47.1191H87.9998C89.5185 47.1191 90.7496 48.3504 90.7496 49.8688C90.7496 51.3876 89.5185 52.6187 87.9998 52.6187Z" stroke="black" stroke-width="2" stroke-miterlimit="10" stroke-linecap="round" stroke-linejoin="round"/>
<path d="M54.2692 52.6187C52.7506 52.6187 51.5195 51.3876 51.5195 49.8688C51.5195 48.3504 52.7506 47.1191 54.2692 47.1191C55.788 47.1191 57.0191 48.3504 57.0191 49.8688C57.0191 51.3876 55.788 52.6187 54.2692 52.6187Z" stroke="black" stroke-width="2" stroke-miterlimit="10" stroke-linecap="round" stroke-linejoin="round"/>
<path d="M99.9862 52.6187C98.4676 52.6187 97.2363 51.3876 97.2363 49.8688C97.2363 48.3504 98.4674 47.1191 99.986 47.1191C101.505 47.1191 102.736 48.3504 102.736 49.8688C102.736 51.3876 101.505 52.6187 99.9862 52.6187Z" stroke="black" stroke-width="2" stroke-miterlimit="10" stroke-linecap="round" stroke-linejoin="round"/>
<path d="M89.6914 76.8704C90.4133 78.5517 90.8134 80.4048 90.8134 82.3517C90.8134 86.1907 89.2572 89.6673 86.7414 92.1845C84.2244 94.7001 80.7478 96.2563 76.9086 96.2563C69.2305 96.2563 63.0039 90.0313 63.0039 82.3517C63.0039 78.5126 64.5602 75.036 67.0775 72.5204C69.593 70.0032 73.0695 68.447 76.9086 68.447C80.7478 68.447 84.2244 70.0032 86.7414 72.5204C86.8867 72.6657 87.0289 72.8142 87.1681 72.9674" stroke="black" stroke-width="2" stroke-miterlimit="10" stroke-linecap="round" stroke-linejoin="round"/>
<path d="M83.2123 83.2658L79.1962 87.2304C78.7698 87.6566 78.1919 87.896 77.5891 87.896C76.9861 87.896 76.408 87.6566 75.9819 87.2304L71.1578 82.4063C70.2703 81.5187 70.2703 80.0796 71.1578 79.1919C72.0455 78.3043 73.4845 78.3043 74.3722 79.1919L77.5891 82.4088L91.0786 69.1132C91.9661 68.2254 93.4052 68.2254 94.293 69.1132C95.1805 70.0008 95.1805 71.4397 94.293 72.3276L86.8305 79.6941" stroke="black" stroke-width="2" stroke-miterlimit="10" stroke-linecap="round" stroke-linejoin="round"/>
<path d="M63.3828 102.069H90.4334" stroke="black" stroke-width="2" stroke-miterlimit="10" stroke-linecap="round" stroke-linejoin="round"/>
<path d="M70.3066 107.456H83.5109" stroke="black" stroke-width="2" stroke-miterlimit="10" stroke-linecap="round" stroke-linejoin="round"/>
</g>
</svg>
