<svg width="43" height="43" viewBox="0 0 43 43" fill="none" xmlns="http://www.w3.org/2000/svg">
<g clip-path="url(#clip0_0_122)">
<path d="M30.0366 37.1059C29.7604 35.5932 29.239 34.1358 28.4932 32.7911C28.4374 32.6983 28.3839 32.6024 28.3252 32.5135C28.2718 32.4324 28.2152 32.3602 28.1601 32.2838C28.0802 32.1732 28 32.0629 27.9149 31.9603C27.8941 31.9351 27.8721 31.9132 27.8511 31.8886C27.8396 31.8907 27.8282 31.8913 27.8168 31.8933C27.7225 31.909 27.6255 31.9207 27.5277 31.9325C27.261 31.9685 26.9923 31.9876 26.7232 31.9894C26.4657 31.9894 26.2252 31.9809 25.9995 31.9645C25.9811 31.9631 25.9659 31.9599 25.9476 31.9585C25.7425 31.942 25.5467 31.9206 25.3646 31.8908L25.3512 31.8879C24.3444 31.7302 23.4138 31.2565 22.6939 30.5352C21.8465 31.1235 20.8611 31.4822 19.8339 31.5767C19.819 31.5785 19.8059 31.5814 19.791 31.5831C18.9171 32.4404 18.4509 33.6302 18.5099 34.853C18.5099 36.7319 19.6185 37.6709 20.9027 38.7574C22.1208 39.7889 23.4847 40.9429 23.7599 42.9936H30.6767C30.6354 41.0192 30.4223 39.0521 30.0399 37.1146L30.0366 37.1059Z" fill="#F7B289"/>
<path d="M18.6865 30.1153C18.9521 30.1153 19.1897 30.098 19.4194 30.0769C19.5969 30.0604 19.7588 30.0359 19.916 30.0093C19.9807 29.9984 20.049 29.9893 20.1103 29.9769C20.2673 29.9454 20.4116 29.9089 20.5473 29.8699C20.5929 29.8567 20.6399 29.8442 20.683 29.8304C20.816 29.7882 20.9386 29.7437 21.0508 29.697C21.0831 29.6835 21.1152 29.6701 21.1458 29.6563C21.2542 29.608 21.3546 29.5592 21.4425 29.5105C21.4646 29.498 21.4852 29.4859 21.5061 29.4736C21.5906 29.4243 21.6688 29.3755 21.7335 29.3299C21.7471 29.3201 21.7584 29.3112 21.7712 29.3017C21.8335 29.256 21.8906 29.2116 21.9337 29.174L21.9471 29.1616C21.9996 29.1161 22.0486 29.0667 22.0937 29.0139C22.1417 28.9616 22.1966 28.9162 22.257 28.8788C22.2839 28.8531 22.3127 28.8293 22.343 28.8076C22.4317 28.7623 22.5283 28.7348 22.6275 28.7265C22.6369 28.7256 22.645 28.7195 22.6544 28.7189H22.6545L22.6559 28.7186L22.6577 28.7188C22.6728 28.7179 22.6877 28.7174 22.7031 28.7174C22.7969 28.7351 22.8909 28.7528 22.9847 28.7705C23.0831 28.8062 23.1726 28.8626 23.2473 28.9358C24.3721 30.0603 24.926 30.4538 26.7229 30.4538C26.9226 30.4537 27.1221 30.4413 27.3203 30.4164C27.3348 30.4146 27.3481 30.4114 27.3625 30.4096C27.5501 30.3846 27.7362 30.3489 27.9196 30.3024L27.9494 30.2943C28.6267 30.1167 29.2522 29.781 29.7745 29.3148L29.7818 29.3084C30.1367 28.9918 30.4436 28.6252 30.6927 28.2201L30.6973 28.2125C30.7502 28.1254 30.7897 28.0536 30.8166 28.0018L30.827 27.9815C30.8428 27.9502 30.8538 27.9274 30.8567 27.9212L30.8605 27.9131C30.8859 27.8551 30.9182 27.8006 30.9569 27.7506C30.9704 27.7331 30.9882 27.7198 31.0031 27.7036C31.051 27.6415 31.1131 27.5918 31.1842 27.5588C31.2043 27.5473 31.2221 27.5322 31.2432 27.5225C31.3003 27.496 31.3605 27.4768 31.4224 27.4652C31.4479 27.4623 31.4736 27.4608 31.4993 27.4605C31.7242 27.4369 31.9477 27.5165 32.1071 27.677C33.5145 29.084 34.338 29.1466 35.922 29.1466C37.4197 29.2104 38.7304 28.1487 38.9791 26.6706C38.9791 25.6796 38.482 25.4442 38.4771 25.4427C38.1237 25.3192 37.9109 24.9587 37.9734 24.5896C38.0359 24.2204 38.3557 23.9502 38.7301 23.9501C38.8979 23.9477 39.0649 23.9266 39.2279 23.887C39.269 23.8778 39.3097 23.8651 39.3505 23.8537C39.4994 23.812 39.6447 23.7581 39.7849 23.6927C41.5274 22.8797 43.0001 20.2544 43.0001 18.2039C43.0001 16.054 40.7962 15.2436 40.7025 15.2103C40.4542 15.1221 40.2682 14.913 40.2098 14.6561C40.1514 14.3992 40.2285 14.1303 40.4142 13.9434C41.0134 13.1906 41.2895 12.2308 41.1819 11.2747C41.1819 9.19003 38.6193 8.21175 38.5934 8.20201C38.2924 8.09001 38.0925 7.80312 38.0915 7.48198C38.0915 5.90743 37.3963 2.92951 34.7654 2.92951C34.3126 2.88425 33.8609 3.02539 33.5143 3.32042C33.3008 3.56247 32.9611 3.64953 32.6575 3.54005C32.3585 3.43309 32.1573 3.15183 32.1527 2.8343C32.1527 1.99774 30.5541 0.503365 27.3689 0.503365C26.2773 0.448625 25.2143 0.862035 24.4465 1.63982C24.2829 1.83805 24.0314 1.94182 23.7756 1.91664C23.5199 1.89145 23.2935 1.74057 23.1717 1.51431C23.1417 1.46217 22.283 0.00683594 19.4823 0.00683594C17.9939 0.00683594 16.4235 1.55033 15.9437 2.14517C15.7035 2.44188 15.2824 2.51803 14.9535 2.32434C14.0873 1.83066 13.1198 1.54143 12.1248 1.47879C10.3975 1.37829 8.88823 2.63448 8.67355 4.35134C8.66431 4.93922 8.78672 5.52164 9.03188 6.05603C9.15983 6.29405 9.1537 6.58178 9.01576 6.81418C8.87782 7.04657 8.62821 7.18972 8.35795 7.1914C6.22977 7.1914 4.84404 7.62765 3.86542 8.60593C1.19303 11.2791 2.71998 13.2083 2.78631 13.2892C2.97454 13.5187 3.01367 13.836 2.88681 14.1043C2.75995 14.3725 2.48977 14.5436 2.19297 14.5437C0.870967 14.5437 0.474432 14.9999 0.291151 15.3428C0.0574116 15.9429 -0.0376292 16.5881 0.0134174 17.23C-0.111177 18.5183 0.682061 19.7182 1.91625 20.1081C3.05842 20.2552 4.20596 19.879 5.03933 19.0843C5.33906 18.7845 5.82501 18.7845 6.12483 19.0843C6.42464 19.384 6.42456 19.8699 6.12483 20.1698C5.11884 21.1508 3.76333 21.6904 2.35829 21.6694C2.16292 21.6694 2.00323 21.6592 1.87947 21.6479C1.69048 21.8169 1.58436 22.0598 1.58873 22.3134C1.58873 25.4292 5.15435 25.6072 5.30615 25.6136C6.45369 25.6729 7.59964 25.4695 8.65659 25.0188C8.87522 24.8971 9.13918 24.8889 9.36494 24.9967C9.59071 25.1045 9.75023 25.315 9.79305 25.5615C9.83091 25.7845 10.2185 27.7429 12.1019 27.7429C13.1258 27.7635 14.1382 27.5251 15.0455 27.0501C15.0078 25.5559 15.7606 24.1525 17.0261 23.3573C17.115 22.8973 17.2598 22.45 17.4574 22.0252C15.5152 21.0495 14.3391 19.0124 14.4651 16.8426C14.4651 16.4187 14.8087 16.0749 15.2327 16.0749C15.6566 16.0749 16.0003 16.4186 16.0003 16.8426C16.0003 19.3685 17.4641 20.3473 18.2371 20.6882C19.0162 19.4622 20.3351 18.6832 21.7849 18.5926C22.2379 18.5947 22.6897 18.6375 23.135 18.7206C23.6592 17.1995 25.2268 14.671 27.9338 14.671C28.1042 14.671 28.2628 14.6806 28.4196 14.6914L28.4258 14.6901C29.0461 14.6901 30.5064 13.2583 30.5064 11.9528C30.5064 11.5289 30.85 11.1852 31.274 11.1852C31.698 11.1852 32.0417 11.5289 32.0417 11.9528C31.9571 13.2124 31.3888 14.3905 30.4556 15.2406C31.1865 15.6139 31.7452 16.255 32.015 17.0301C32.1255 17.4368 31.8873 17.8566 31.4813 17.9704C31.0754 18.0842 30.6537 17.8492 30.5368 17.4442C30.512 17.3697 30.0915 16.2062 27.9338 16.2062C26.076 16.2062 24.972 18.1542 24.6048 19.1443C25.1038 19.3435 25.5692 19.618 25.9851 19.9581C26.2968 20.2446 26.3177 20.7294 26.0318 21.0417C25.746 21.3539 25.2612 21.3757 24.9484 21.0904C24.0367 20.414 22.9189 20.074 21.7849 20.1279C20.3837 20.1279 19.2832 21.6316 18.7914 22.7914C19.0935 22.749 19.3981 22.7265 19.7032 22.7243C20.1271 22.7243 20.4709 23.0679 20.4709 23.4919C20.4709 23.9158 20.1272 24.2595 19.7032 24.2595C17.5218 24.2595 16.5492 25.2573 16.5492 27.4942L16.5473 27.5034C16.5473 27.5078 16.549 27.5119 16.5488 27.5164C16.5418 28.2693 16.7933 29.0019 17.2614 29.5917C17.6421 29.9579 18.1591 30.148 18.6865 30.1153ZM32.4463 21.5316C32.6818 20.1327 33.501 18.8999 34.6995 18.141C34.0604 17.3044 33.7105 16.2829 33.7023 15.2302C33.6752 13.9605 34.2089 12.7431 35.1612 11.9028C34.7493 11.4522 34.4925 10.8816 34.4283 10.2745C34.4194 9.8507 34.7555 9.49983 35.1793 9.49043C35.5935 9.49018 35.9366 9.81207 35.9627 10.2254C35.9702 10.3139 36.1366 11.7175 39.0208 11.7175C39.4447 11.7175 39.7884 12.0611 39.7884 12.4851C39.7884 12.909 39.4448 13.2528 39.0208 13.2528C38.1518 13.2759 37.2868 13.1267 36.4757 12.8137C35.6804 13.3575 35.2144 14.267 35.2374 15.2302C35.2541 16.0567 35.5669 16.8497 36.1189 17.465C37.0575 17.1704 38.0371 17.028 39.0208 17.0432C39.4447 17.0432 39.7884 17.3869 39.7884 17.8109C39.7884 18.2348 39.4448 18.5785 39.0208 18.5785C34.3064 18.5785 33.978 21.6374 33.9754 21.6681C33.94 22.0637 33.6087 22.3671 33.2115 22.3675C33.1887 22.3675 33.1658 22.3664 33.1426 22.3644C32.7204 22.3267 32.4086 21.9539 32.4463 21.5316ZM20.5424 15.9396C20.4145 16.098 20.2289 16.199 20.0265 16.2205C19.824 16.2423 19.6213 16.1827 19.4629 16.0548C19.3044 15.9269 19.2034 15.7412 19.182 15.5388C18.9788 13.536 17.2438 12.0423 15.233 12.1392C14.3025 12.061 13.3908 12.4326 12.7802 13.1388C11.6527 14.5564 11.959 17.2603 12.1718 18.1827C12.2337 18.45 12.1483 18.7299 11.9478 18.917C11.7473 19.1042 11.4621 19.1701 11.1998 19.0899C10.9375 19.0097 10.7379 18.7956 10.6763 18.5284C10.4506 17.4461 10.3842 16.3366 10.4791 15.2351C9.316 15.2014 8.03345 14.9245 6.13692 13.0279C5.94306 12.8341 5.86733 12.5514 5.93827 12.2866C6.00921 12.0218 6.21617 11.8148 6.48098 11.7439C6.74587 11.6729 7.02847 11.7487 7.22233 11.9425C8.85456 13.5747 9.72395 13.7016 10.7884 13.7033C10.9586 13.1533 11.2263 12.6384 11.5788 12.1831C12.1505 11.468 12.9487 10.9689 13.8419 10.7679C13.113 9.24024 12.92 7.51153 13.2939 5.86074C13.3598 5.59443 13.5629 5.38369 13.8266 5.3078C14.0902 5.2319 14.3742 5.30259 14.5717 5.49301C14.7691 5.68351 14.8499 5.96485 14.7834 6.231C14.7773 6.25728 14.1559 8.92396 15.5941 10.6221C18.247 10.7069 20.4303 12.7365 20.7081 15.3762C20.7299 15.5785 20.6703 15.7813 20.5424 15.9396ZM29.4348 10.3157C28.0404 10.3364 26.6756 9.91392 25.5369 9.10901C25.1179 9.6235 24.8527 10.246 24.772 10.9045C24.6953 11.5619 24.9247 12.2182 25.3943 12.6845C25.5881 12.8784 25.6639 13.1611 25.5929 13.4259C25.522 13.6908 25.3151 13.8977 25.0502 13.9686C24.7853 14.0395 24.5027 13.9638 24.3089 13.77C23.5171 12.9807 23.1254 11.8753 23.2432 10.7636C23.3612 9.746 23.7819 8.78728 24.4509 8.0115C23.7051 6.92802 23.3275 5.63347 23.3737 4.31902C23.3737 3.89511 23.7174 3.55139 24.1414 3.55139C24.5653 3.55139 24.909 3.89503 24.909 4.31902C24.8395 5.47596 25.2321 6.61318 26.0007 7.4808L26.0076 7.48542C26.0117 7.48954 26.0127 7.49508 26.0167 7.49919C26.9467 8.35372 28.1724 8.81314 29.4349 8.78039C29.8588 8.78039 30.2026 9.12404 30.2026 9.54803C30.2026 9.97202 29.8587 10.3157 29.4348 10.3157ZM24.9496 24.8184C25.6551 24.2448 26.5049 23.8764 27.4058 23.7536C27.6661 21.6301 29.0704 21.0372 29.85 21.0372C30.2704 21.0373 30.6124 21.3756 30.6173 21.7959C30.6221 22.2163 30.2879 22.5623 29.8676 22.5721C29.7717 22.5788 29.1394 22.6751 28.9514 23.7903C29.8781 23.9884 30.7226 24.4635 31.3729 25.1527C31.5515 25.3608 31.6055 25.6484 31.5147 25.9071C31.4237 26.1659 31.2017 26.3565 30.9322 26.4071C30.6627 26.4577 30.3866 26.3608 30.208 26.1527C29.6599 25.5883 28.9138 25.2594 28.1274 25.2356C27.3486 25.2271 26.5899 25.4829 25.9753 25.9612C25.6592 26.2402 25.1773 26.2122 24.8958 25.8984C24.6141 25.5846 24.6382 25.1025 24.9496 24.8184Z" fill="#F7B289"/>
<path d="M40.3022 25.4131C40.3058 25.4227 40.3073 25.4351 40.3108 25.4447C40.3687 25.6067 40.4137 25.7729 40.4451 25.942C40.452 25.9785 40.457 26.0164 40.4629 26.0539C40.4964 26.2578 40.5136 26.4641 40.5144 26.6706C40.2603 28.9988 38.2634 30.7431 35.9222 30.6819C35.3789 30.6923 34.8356 30.6612 34.297 30.5888L34.2895 30.5873C34.1212 30.5611 33.9549 30.5282 33.7895 30.486L33.787 30.4853C33.6177 30.4422 33.4509 30.39 33.2874 30.3286C33.2699 30.322 33.2521 30.312 33.2346 30.3052C33.0807 30.2462 32.9299 30.1793 32.783 30.1048C32.7721 30.0993 32.7609 30.0911 32.7499 30.0855C32.585 29.9997 32.4246 29.9057 32.2693 29.8035C32.261 29.7981 32.2522 29.7905 32.2439 29.785C32.0793 29.6751 31.9126 29.5541 31.7419 29.4158C31.143 30.2563 30.3444 30.9347 29.418 31.3897L29.4256 31.402C30.3832 32.8578 31.0569 34.4817 31.4111 36.1879C33.3959 36.1027 35.3341 35.5595 37.074 34.6006C40.6936 32.511 42.4698 28.7872 41.0335 26.2995C40.8397 25.9661 40.5927 25.6667 40.3022 25.4131Z" fill="#F7B289"/>
</g>
<defs>
<clipPath id="clip0_0_122">
<rect width="43" height="43" fill="white"/>
</clipPath>
</defs>
</svg>
