<svg width="29" height="29" viewBox="0 0 29 29" fill="none" xmlns="http://www.w3.org/2000/svg">
<path d="M1.14747 24.1666L1.14747 21.3271C1.14747 20.6222 1.32872 19.9828 1.69121 19.4089C2.05371 18.8349 2.55718 18.407 3.20162 18.125C4.67175 17.4806 5.99587 17.0174 7.17398 16.7354C8.3521 16.4535 9.56546 16.3125 10.8141 16.3125C12.0627 16.3125 13.271 16.4535 14.439 16.7354C15.6071 17.0174 16.9262 17.4806 18.3963 18.125C19.0407 18.407 19.5492 18.8349 19.9218 19.4089C20.2944 19.9828 20.4807 20.6222 20.4807 21.3271V24.1666L1.14747 24.1666ZM22.2931 24.1666V21.3271C22.2931 20.0583 21.9709 19.0162 21.3265 18.2005C20.682 17.3849 19.8362 16.7254 18.789 16.2219C20.1786 16.383 21.4876 16.6196 22.7161 16.9318C23.9445 17.2439 24.9414 17.6014 25.7067 18.0042C26.3712 18.3868 26.8948 18.8601 27.2775 19.424C27.6601 19.9878 27.8514 20.6222 27.8514 21.3271V24.1666H22.2931ZM10.8141 14.4698C9.4849 14.4698 8.39741 14.0469 7.55158 13.2011C6.70576 12.3553 6.28284 11.2678 6.28284 9.93862C6.28284 8.60946 6.70576 7.52197 7.55158 6.67614C8.39741 5.83032 9.4849 5.4074 10.8141 5.4074C12.1432 5.4074 13.2307 5.83032 14.0765 6.67614C14.9224 7.52197 15.3453 8.60946 15.3453 9.93862C15.3453 11.2678 14.9224 12.3553 14.0765 13.2011C13.2307 14.0469 12.1432 14.4698 10.8141 14.4698ZM21.689 9.93862C21.689 11.2678 21.2661 12.3553 20.4202 13.2011C19.5744 14.0469 18.4869 14.4698 17.1578 14.4698C16.9362 14.4698 16.6895 14.4547 16.4177 14.4245C16.1458 14.3943 15.8991 14.3389 15.6776 14.2584C16.1609 13.7549 16.5284 13.1356 16.7802 12.4006C17.0319 11.6655 17.1578 10.8449 17.1578 9.93862C17.1578 9.03238 17.0319 8.23186 16.7802 7.53707C16.5284 6.84229 16.1609 6.20288 15.6776 5.61886C15.8991 5.55844 16.1458 5.5081 16.4177 5.46782C16.6895 5.42754 16.9362 5.4074 17.1578 5.4074C18.4869 5.4074 19.5744 5.83032 20.4202 6.67614C21.2661 7.52197 21.689 8.60946 21.689 9.93862ZM2.95995 22.3541L18.6682 22.3541V21.3271C18.6682 21.0049 18.5725 20.6927 18.3812 20.3906C18.1899 20.0885 17.9532 19.8771 17.6713 19.7563C16.2213 19.1118 15.0029 18.6788 14.0161 18.4573C13.0293 18.2358 11.962 18.125 10.8141 18.125C9.66615 18.125 8.59376 18.2358 7.5969 18.4573C6.60003 18.6788 5.3766 19.1118 3.92661 19.7563C3.64467 19.8771 3.41308 20.0885 3.23183 20.3906C3.05058 20.6927 2.95995 21.0049 2.95995 21.3271V22.3541ZM10.8141 12.6573C11.5995 12.6573 12.2489 12.4006 12.7625 11.887C13.276 11.3735 13.5328 10.724 13.5328 9.93862C13.5328 9.15321 13.276 8.50373 12.7625 7.9902C12.2489 7.47666 11.5995 7.21989 10.8141 7.21989C10.0286 7.21989 9.37917 7.47666 8.86564 7.9902C8.3521 8.50373 8.09533 9.15321 8.09533 9.93862C8.09533 10.724 8.3521 11.3735 8.86564 11.887C9.37917 12.4006 10.0286 12.6573 10.8141 12.6573Z" fill="#1D718B"/>
</svg>
