<svg width="140" height="140" viewBox="0 0 140 140" fill="none" xmlns="http://www.w3.org/2000/svg">
<circle cx="70" cy="70" r="70" fill="#E9F5F9"/>
<mask id="mask0_1748_3486" style="mask-type:luminance" maskUnits="userSpaceOnUse" x="30" y="30" width="80" height="80">
<path d="M30 30H110V110H30V30Z" fill="white"/>
</mask>
<g mask="url(#mask0_1748_3486)">
<path d="M94.8904 97.5503H37.4404C34.8515 97.5503 32.7529 95.4517 32.7529 92.8628V48.065H99.5779V92.8628C99.5779 95.4517 97.4792 97.5503 94.8904 97.5503Z" fill="#E9F5F9"/>
<path d="M42.8232 57.2334H45.7332" stroke="black" stroke-width="2" stroke-miterlimit="10" stroke-linecap="round" stroke-linejoin="round"/>
<path d="M53.7666 57.2334H56.6766" stroke="black" stroke-width="2" stroke-miterlimit="10" stroke-linecap="round" stroke-linejoin="round"/>
<path d="M64.71 57.2334H67.62" stroke="black" stroke-width="2" stroke-miterlimit="10" stroke-linecap="round" stroke-linejoin="round"/>
<path d="M75.6543 57.2334H78.5643" stroke="black" stroke-width="2" stroke-miterlimit="10" stroke-linecap="round" stroke-linejoin="round"/>
<path d="M86.5986 57.2334H89.5086" stroke="black" stroke-width="2" stroke-miterlimit="10" stroke-linecap="round" stroke-linejoin="round"/>
<path d="M42.8232 67.6162H45.7332" stroke="black" stroke-width="2" stroke-miterlimit="10" stroke-linecap="round" stroke-linejoin="round"/>
<path d="M53.7666 67.6162H56.6766" stroke="black" stroke-width="2" stroke-miterlimit="10" stroke-linecap="round" stroke-linejoin="round"/>
<path d="M64.71 67.6162H67.62" stroke="black" stroke-width="2" stroke-miterlimit="10" stroke-linecap="round" stroke-linejoin="round"/>
<path d="M75.6543 67.6162H78.5643" stroke="black" stroke-width="2" stroke-miterlimit="10" stroke-linecap="round" stroke-linejoin="round"/>
<path d="M86.5986 67.6162H89.5086" stroke="black" stroke-width="2" stroke-miterlimit="10" stroke-linecap="round" stroke-linejoin="round"/>
<path d="M42.8232 77.999H45.7332" stroke="black" stroke-width="2" stroke-miterlimit="10" stroke-linecap="round" stroke-linejoin="round"/>
<path d="M53.7666 77.999H56.6766" stroke="black" stroke-width="2" stroke-miterlimit="10" stroke-linecap="round" stroke-linejoin="round"/>
<path d="M64.71 77.999H67.62" stroke="black" stroke-width="2" stroke-miterlimit="10" stroke-linecap="round" stroke-linejoin="round"/>
<path d="M42.8232 88.3823H45.7332" stroke="black" stroke-width="2" stroke-miterlimit="10" stroke-linecap="round" stroke-linejoin="round"/>
<path d="M53.7666 88.3823H56.6766" stroke="black" stroke-width="2" stroke-miterlimit="10" stroke-linecap="round" stroke-linejoin="round"/>
<path d="M64.71 88.3823H67.62" stroke="black" stroke-width="2" stroke-miterlimit="10" stroke-linecap="round" stroke-linejoin="round"/>
<path d="M99.578 92.8628V74.5815C96.9769 73.3739 94.1217 72.7364 91.1684 72.7364C88.813 72.7364 86.4658 73.1569 84.2633 73.9645C82.7441 74.5214 81.0548 74.3708 79.6375 73.59L79.0159 73.2476C78.212 72.8047 77.3102 72.5706 76.4083 72.5706C74.5153 72.5706 72.7348 73.5936 71.7622 75.2401C70.7872 76.8903 70.7608 78.884 71.6914 80.5734L72.0345 81.1959C72.8208 82.6234 72.9544 84.3208 72.3973 85.8522C71.2456 89.0184 70.8977 92.4767 71.4202 95.8217C71.5114 96.4065 71.6294 96.9825 71.7692 97.5503H94.8905C97.4792 97.5503 99.578 95.4517 99.578 92.8628Z" fill="#E9F5F9"/>
<path d="M37.5529 92.8628V48.065H32.7529V92.8628C32.7529 95.4517 34.8515 97.5503 37.4404 97.5503H42.2404C39.6517 97.5503 37.5529 95.4517 37.5529 92.8628Z" fill="#E9F5F9"/>
<path d="M71.0115 97.5503H37.4404C34.8515 97.5503 32.7529 95.4517 32.7529 92.8628V48.065" stroke="black" stroke-width="2" stroke-miterlimit="10" stroke-linecap="round" stroke-linejoin="round"/>
<path d="M99.5781 48.0648V72.8076" stroke="black" stroke-width="2" stroke-miterlimit="10" stroke-linecap="round" stroke-linejoin="round"/>
<path d="M94.8904 36.0017H37.4404C34.8515 36.0017 32.7529 38.1004 32.7529 40.6892V48.0649H99.5779V40.6892C99.5779 38.1004 97.4792 36.0017 94.8904 36.0017Z" fill="#1D718B"/>
<path d="M42.2404 36.0017H37.4404C34.8515 36.0017 32.7529 38.1004 32.7529 40.6892V48.0649H37.5529V40.6892C37.5529 38.1004 39.6517 36.0017 42.2404 36.0017Z" fill="#1D718B"/>
<path d="M45.8429 48.0649H99.5779V40.6892C99.5779 38.1004 97.4792 36.0017 94.8904 36.0017H37.4404C34.8515 36.0017 32.7529 38.1004 32.7529 40.6892V48.0649H39.8025" stroke="black" stroke-width="2" stroke-miterlimit="10" stroke-linecap="round" stroke-linejoin="round"/>
<path d="M46.0769 40.8315C43.4094 40.8315 41.2471 38.669 41.2471 36.0017C41.2471 33.3344 43.4094 31.1719 46.0769 31.1719C48.7444 31.1719 50.9068 33.3344 50.9068 36.0017" stroke="black" stroke-width="2" stroke-miterlimit="10" stroke-linecap="round" stroke-linejoin="round"/>
<path d="M59.4695 40.8315C56.802 40.8315 54.6396 38.669 54.6396 36.0017C54.6396 33.3344 56.802 31.1719 59.4695 31.1719C62.137 31.1719 64.2993 33.3344 64.2993 36.0017" stroke="black" stroke-width="2" stroke-miterlimit="10" stroke-linecap="round" stroke-linejoin="round"/>
<path d="M72.8621 40.8315C70.1946 40.8315 68.0322 38.669 68.0322 36.0017C68.0322 33.3344 70.1946 31.1719 72.8621 31.1719C75.5294 31.1719 77.6919 33.3344 77.6919 36.0017" stroke="black" stroke-width="2" stroke-miterlimit="10" stroke-linecap="round" stroke-linejoin="round"/>
<path d="M86.2546 40.8315C83.5871 40.8315 81.4248 38.669 81.4248 36.0017C81.4248 33.3344 83.5871 31.1719 86.2546 31.1719C88.922 31.1719 91.0845 33.3344 91.0845 36.0017" stroke="black" stroke-width="2" stroke-miterlimit="10" stroke-linecap="round" stroke-linejoin="round"/>
<path d="M102.538 81.3521C97.4478 76.2616 89.7941 75.2983 83.7322 78.4605C82.6616 79.0189 81.3848 79.0122 80.3273 78.4296C79.3217 77.8757 78.2003 77.2578 77.1317 76.6691C75.8273 75.9507 74.3947 77.3839 75.1133 78.6885L76.873 81.8827C77.4534 82.9361 77.468 84.2102 76.9106 85.2761C73.6866 91.4438 74.7361 99.2636 80.0616 104.354C86.4547 110.465 96.4645 110.293 102.655 103.977C108.818 97.6877 108.779 87.593 102.538 81.3521Z" fill="#1D718B"/>
<path d="M83.3615 104.354C78.0362 99.2637 76.9865 91.4439 80.2107 85.2762C80.7679 84.2103 80.7535 82.9362 80.173 81.8828L78.4133 78.6886C78.1569 78.2234 78.1754 77.7422 78.363 77.3475C77.9512 77.1206 77.5377 76.8928 77.1318 76.6692C75.8272 75.9508 74.3946 77.3842 75.1133 78.6886L76.873 81.8828C77.4533 82.9362 77.4679 84.2103 76.9107 85.2762C73.6865 91.4439 74.7362 99.2637 80.0616 104.354C83.6185 107.754 88.2944 109.208 92.8097 108.742C89.3891 108.387 86.0544 106.928 83.3615 104.354Z" fill="#E9F5F9"/>
<path d="M96.9989 90.2151H94.1363C93.8811 90.2151 93.6744 90.0084 93.6744 89.7532V86.8905C93.6744 85.9732 92.9307 85.2295 92.0133 85.2295H90.3196C89.4022 85.2295 88.6585 85.9732 88.6585 86.8905V89.7532C88.6585 90.0084 88.4518 90.2151 88.1966 90.2151H85.3339C84.4166 90.2151 83.6729 90.9588 83.6729 91.8763V93.5699C83.6729 94.4873 84.4166 95.231 85.3339 95.231H88.1966C88.4518 95.231 88.6585 95.4379 88.6585 95.693V98.5557C88.6585 99.473 89.4022 100.217 90.3196 100.217H92.0133C92.9307 100.217 93.6744 99.473 93.6744 98.5557V95.693C93.6744 95.4379 93.8811 95.231 94.1363 95.231H96.9989C97.9164 95.231 98.66 94.4873 98.66 93.5699V91.8763C98.66 90.9588 97.9164 90.2151 96.9989 90.2151Z" fill="#E9F5F9"/>
<path d="M96.9989 90.2151H94.1363C93.8811 90.2151 93.6744 90.0084 93.6744 89.7532V86.8905C93.6744 85.9732 92.9307 85.2295 92.0133 85.2295H90.3196C89.4022 85.2295 88.6585 85.9732 88.6585 86.8905V89.7532C88.6585 90.0084 88.4518 90.2151 88.1966 90.2151H85.3339C84.4166 90.2151 83.6729 90.9588 83.6729 91.8763V93.5699C83.6729 94.4873 84.4166 95.231 85.3339 95.231H88.1966C88.4518 95.231 88.6585 95.4379 88.6585 95.693V98.5557C88.6585 99.473 89.4022 100.217 90.3196 100.217H92.0133C92.9307 100.217 93.6744 99.473 93.6744 98.5557V95.693C93.6744 95.4379 93.8811 95.231 94.1363 95.231H96.9989C97.9164 95.231 98.66 94.4873 98.66 93.5699V91.8763C98.66 90.9588 97.9164 90.2151 96.9989 90.2151Z" stroke="black" stroke-width="2" stroke-miterlimit="10" stroke-linecap="round" stroke-linejoin="round"/>
<path d="M80.3272 78.4296C79.3216 77.8757 78.2004 77.2578 77.1318 76.6691C75.8272 75.9507 74.3946 77.3841 75.1133 78.6885L76.873 81.8827C77.4533 82.9361 77.4679 84.2102 76.9107 85.2761C73.6865 91.4438 74.7362 99.2636 80.0615 104.354C86.4547 110.465 96.4644 110.293 102.655 103.977C108.818 97.6877 108.779 87.593 102.538 81.3521C97.4477 76.2616 89.7938 75.2983 83.7321 78.4605C82.6615 79.0189 81.3849 79.0122 80.3272 78.4296Z" stroke="black" stroke-width="2" stroke-miterlimit="10" stroke-linecap="round" stroke-linejoin="round"/>
</g>
</svg>
