<svg width="171" height="121" viewBox="0 0 171 121" fill="none" xmlns="http://www.w3.org/2000/svg">
<path fill-rule="evenodd" clip-rule="evenodd" d="M84.6449 6.22481H94.1794C102.046 6.22481 108.481 12.6597 108.481 20.526V44.3617H132.316C135.948 44.3617 139.275 45.7348 141.804 47.9854C129.62 55.4387 117.227 62.613 104.589 69.2104C93.5782 74.9588 82.0625 80.481 70.3437 84.7574V82.4973H46.5093C38.643 82.4973 32.2081 76.0624 32.2081 68.1961V58.6616C32.2081 50.7953 38.643 44.3604 46.5093 44.3604H70.345V20.526C70.3437 12.6597 76.78 6.22481 84.6449 6.22481Z" fill="#1D718B"/>
<path fill-rule="evenodd" clip-rule="evenodd" d="M20.562 0.486023C22.2154 0.286963 23.9081 0.185402 25.5697 0.0743614C26.8913 -0.0136584 27.6171 1.47455 27.3422 2.61746C27.0565 3.8064 26.7694 4.99534 26.4837 6.18429C26.2088 7.32719 24.8858 8.32249 23.7483 7.64271C22.6907 7.01032 21.6304 6.37658 20.5877 5.71846C19.9161 5.29461 19.2322 4.85587 18.5944 4.37785C17.4014 4.21129 16.1718 4.26275 15.1021 4.87347C13.4812 5.80106 12.5712 7.84718 11.9821 9.53039C9.71526 16.0059 7.09363 31.4135 5.49437 38.0596L5.31698 38.7963L1.24776 37.8172L1.42515 37.0806C3.05961 30.2855 5.7151 14.7913 8.03747 8.15593C10.2772 1.75892 13.6531 -1.25271 20.562 0.486023ZM38.514 4.80576C45.4581 6.3996 47.0939 10.6178 46.1771 17.3344C45.3917 23.0976 41.2304 37.0007 39.6325 42.5554C37.7651 43.3584 36.0643 44.4769 34.5951 45.8419L34.4556 45.8081L34.633 45.0714C36.2322 38.4253 41.1126 23.5607 42.0402 16.7629C42.2812 14.9957 42.4017 12.76 41.3794 11.196C40.705 10.1641 39.6339 9.55883 38.495 9.16613C37.7096 9.30154 36.8998 9.38144 36.1104 9.45321C34.8821 9.56425 33.6512 9.64685 32.4203 9.72945C31.0986 9.81747 30.3728 8.32926 30.6477 7.18636C30.9334 5.99741 31.2205 4.80847 31.5062 3.61953C31.7811 2.47662 33.1041 1.48132 34.2416 2.16111C35.6703 3.01558 37.1314 3.87546 38.514 4.80576Z" fill="#1D718B"/>
<path fill-rule="evenodd" clip-rule="evenodd" d="M162.621 46.2808C160.883 46.2808 159.474 44.8725 159.474 43.1337C159.474 41.3964 160.882 39.9867 162.621 39.9867C164.358 39.9867 165.766 41.395 165.766 43.1337C165.768 44.8725 164.358 46.2808 162.621 46.2808ZM146.463 56.571C150.065 54.3732 153.731 52.105 157.477 49.7474C158.897 50.8538 160.683 51.5132 162.622 51.5132C167.249 51.5132 171 47.7622 171 43.1351C171 38.508 167.249 34.757 162.622 34.757C157.995 34.757 154.244 38.508 154.244 43.1351C154.244 43.7634 154.314 44.3769 154.446 44.9659C57.4099 106.022 12.1284 111.564 18.6202 61.5746C20.8884 61.7384 23.1851 61.5177 25.4126 60.9043C26.6422 60.563 27.8393 60.104 28.9903 59.5325V58.6631C28.9903 55.6515 29.7595 52.8119 31.1095 50.3297C30.0939 51.6107 28.8508 52.7157 27.4222 53.5905C24.2223 55.5486 20.4131 56.1498 16.765 55.2724C13.117 54.3949 9.99835 52.1267 8.04025 48.9268C6.08215 45.7269 5.4809 41.9177 6.35839 38.2696C6.57912 37.3502 6.35298 36.386 5.74903 35.6615C5.33737 35.1686 4.78216 34.8233 4.15655 34.673C3.5228 34.52 2.86198 34.5782 2.26615 34.8396C1.40898 35.2147 0.779296 35.9649 0.559924 36.8749C-0.688602 42.064 0.168574 47.4873 2.95406 52.04C4.97716 55.3455 7.89265 57.9779 11.3539 59.6422L12.903 60.3084L13.033 60.3572C6.07538 108.657 37.2696 114.921 106.591 79.1785L106.633 79.1623C93.4411 87.5824 81.3445 94.1473 70.3433 98.8557V106.333C70.3433 114.2 76.7783 120.634 84.6445 120.634H94.1791C102.045 120.634 108.48 114.2 108.48 106.333V82.4975H132.316C140.182 82.4975 146.617 76.0626 146.617 68.1964V58.6618C146.617 57.9522 146.564 57.2535 146.463 56.571ZM32.5653 48.0832C33.0907 47.073 33.4956 45.9951 33.7677 44.8644C33.9885 43.9449 34.629 43.1893 35.497 42.8182C36.0874 42.5664 36.7401 42.5122 37.3644 42.6625C37.7435 42.7532 38.097 42.9157 38.4071 43.1392C36.1172 44.343 34.1225 46.0384 32.5653 48.0832Z" fill="#1D718B"/>
</svg>
