<svg width="29" height="29" viewBox="0 0 29 29" fill="none" xmlns="http://www.w3.org/2000/svg">
<path d="M14.5003 14.4698C13.1711 14.4698 12.0836 14.0469 11.2378 13.2011C10.392 12.3553 9.96905 11.2678 9.96905 9.93862C9.96905 8.60946 10.392 7.52197 11.2378 6.67614C12.0836 5.83032 13.1711 5.4074 14.5003 5.4074C15.8294 5.4074 16.9169 5.83032 17.7627 6.67614C18.6086 7.52197 19.0315 8.60946 19.0315 9.93862C19.0315 11.2678 18.6086 12.3553 17.7627 13.2011C16.9169 14.0469 15.8294 14.4698 14.5003 14.4698ZM4.83367 24.1666V21.3271C4.83367 20.5618 5.02499 19.9073 5.40762 19.3635C5.79026 18.8198 6.28366 18.407 6.88782 18.125C8.23712 17.5209 9.53103 17.0677 10.7696 16.7657C12.0081 16.4636 13.2517 16.3125 14.5003 16.3125C15.7489 16.3125 16.9874 16.4686 18.2159 16.7808C19.4443 17.0929 20.7324 17.5429 22.0801 18.1309C22.7105 18.4154 23.2159 18.8279 23.5963 19.3684C23.9767 19.9089 24.1669 20.5618 24.1669 21.3271V24.1666L4.83367 24.1666ZM6.64616 22.3541L22.3544 22.3541V21.3271C22.3544 21.0049 22.2587 20.6977 22.0674 20.4057C21.8761 20.1137 21.6394 19.8972 21.3575 19.7563C20.0686 19.132 18.8905 18.704 17.8232 18.4724C16.7558 18.2408 15.6482 18.125 14.5003 18.125C13.3524 18.125 12.2347 18.2408 11.1472 18.4724C10.0597 18.704 8.88155 19.132 7.61281 19.7563C7.33087 19.8972 7.09928 20.1137 6.91803 20.4057C6.73678 20.6977 6.64616 21.0049 6.64616 21.3271V22.3541ZM14.5003 12.6573C15.2857 12.6573 15.9351 12.4006 16.4487 11.887C16.9622 11.3735 17.219 10.724 17.219 9.93862C17.219 9.15321 16.9622 8.50373 16.4487 7.9902C15.9351 7.47666 15.2857 7.21989 14.5003 7.21989C13.7149 7.21989 13.0654 7.47666 12.5518 7.9902C12.0383 8.50373 11.7815 9.15321 11.7815 9.93862C11.7815 10.724 12.0383 11.3735 12.5518 11.887C13.0654 12.4006 13.7149 12.6573 14.5003 12.6573Z" fill="#1D718B"/>
</svg>
