<svg width="72" height="71" viewBox="0 0 72 71" fill="none" xmlns="http://www.w3.org/2000/svg">
<g filter="url(#filter0_d_1652_845)">
<rect x="8" y="4" width="56" height="55" rx="8" fill="white"/>
</g>
<path d="M24.7191 38.4621C24.7018 38.4621 24.6849 38.4621 24.6676 38.4621C21.476 38.2142 19.0096 35.557 19 32.3558V26.9508C19.0052 22.3969 22.6957 18.7064 27.2496 18.7012H27.7335C28.1134 18.7012 28.4213 19.0091 28.4213 19.389C28.4213 19.7689 28.1134 20.0769 27.7335 20.0769H27.2496C23.4551 20.0812 20.38 23.1563 20.3757 26.9508V32.3558C20.3834 34.8361 22.2938 36.8952 24.7666 37.0883C25.1465 37.102 25.4434 37.421 25.4297 37.8009C25.4161 38.1808 25.097 38.4777 24.7171 38.464L24.7191 38.4621Z" fill="black"/>
<path d="M47.2845 38.4621C46.9046 38.4758 46.5854 38.179 46.5717 37.7991C46.5579 37.4193 46.8547 37.1001 47.2346 37.0863C49.7072 36.8928 51.6172 34.8339 51.6247 32.3538V26.9508C51.6204 23.1561 48.5452 20.081 44.7504 20.0769H44.267C43.8871 20.0769 43.5791 19.7689 43.5791 19.389C43.5791 19.0091 43.8871 18.7012 44.267 18.7012H44.7504C49.3046 18.7062 52.9952 22.3967 53.0004 26.9508V32.3558C52.9903 35.5553 50.5259 38.2114 47.336 38.4605C47.3207 38.4613 47.3014 38.4621 47.2845 38.4621Z" fill="black"/>
<path d="M47.2846 31.6251V43.9044C47.2847 45.5605 45.9424 46.9032 44.2863 46.9034C44.286 46.9034 44.2858 46.9034 44.2855 46.9034H27.7139C26.0577 46.9036 24.715 45.5613 24.7148 43.9051C24.7148 43.9048 24.7148 43.9047 24.7148 43.9044V31.6251C24.7146 29.9689 26.057 28.6262 27.7131 28.626H27.7139H44.2855C45.9417 28.6258 47.2844 29.9681 47.2846 31.6243V31.6251Z" fill="#2A9D8F"/>
<path d="M29.2359 32.3601H37.0972C37.667 32.3601 38.129 32.8221 38.129 33.3919V38.5017C38.129 39.0716 37.667 39.5335 37.0972 39.5335H29.2359C28.666 39.5335 28.2041 39.0716 28.2041 38.5017V33.3919C28.2041 32.8221 28.666 32.3601 29.2359 32.3601Z" fill="#FCF7ED"/>
<path d="M44.2485 33.7358H41.3988C41.0189 33.7358 40.7109 33.4279 40.7109 33.048C40.7109 32.6681 41.0189 32.3601 41.3988 32.3601H44.2485C44.6284 32.3601 44.9364 32.6681 44.9364 33.048C44.9364 33.4279 44.6284 33.7358 44.2485 33.7358Z" fill="black"/>
<path d="M44.2485 38.8088H41.3988C41.0189 38.8088 40.7109 38.5009 40.7109 38.121C40.7109 37.7411 41.0189 37.4331 41.3988 37.4331H44.2485C44.6284 37.4331 44.9364 37.7411 44.9364 38.121C44.9364 38.5009 44.6284 38.8088 44.2485 38.8088Z" fill="black"/>
<path d="M44.2485 43.8821H41.3988C41.0189 43.8821 40.7109 43.5741 40.7109 43.1942C40.7109 42.8143 41.0189 42.5063 41.3988 42.5063H44.2485C44.6284 42.5063 44.9364 42.8143 44.9364 43.1942C44.9364 43.5741 44.6284 43.8821 44.2485 43.8821Z" fill="black"/>
<path d="M28.8675 44.2248C29.4367 44.2248 29.8981 43.7634 29.8981 43.1942C29.8981 42.625 29.4367 42.1636 28.8675 42.1636C28.2983 42.1636 27.8369 42.625 27.8369 43.1942C27.8369 43.7634 28.2983 44.2248 28.8675 44.2248Z" fill="#E9C46A"/>
<path d="M33.1664 44.2248C33.7355 44.2248 34.197 43.7634 34.197 43.1942C34.197 42.625 33.7355 42.1636 33.1664 42.1636C32.5972 42.1636 32.1357 42.625 32.1357 43.1942C32.1357 43.7634 32.5972 44.2248 33.1664 44.2248Z" fill="#E9C46A"/>
<path d="M37.4662 44.2248C38.0354 44.2248 38.4968 43.7634 38.4968 43.1942C38.4968 42.625 38.0354 42.1636 37.4662 42.1636C36.897 42.1636 36.4355 42.625 36.4355 43.1942C36.4355 43.7634 36.897 44.2248 37.4662 44.2248Z" fill="#E9C46A"/>
<path d="M29.1211 17.178H30.4222V21.5999H29.1211C28.3542 21.5999 27.7324 20.9782 27.7324 20.2113V18.5667C27.7324 17.7997 28.3542 17.178 29.1211 17.178Z" fill="#F4A261"/>
<path d="M32.0083 15.0964H32.7901C33.5219 15.0964 34.1151 15.6897 34.1151 16.4215V22.3567C34.1151 23.0885 33.5219 23.6817 32.7901 23.6817H32.0083C31.1321 23.6817 30.4219 22.9715 30.4219 22.0953V16.6828C30.4219 15.8067 31.1321 15.0964 32.0083 15.0964Z" fill="#E9C46A"/>
<path d="M42.8784 21.5999H41.5781V17.178H42.8784C43.6453 17.178 44.2671 17.7997 44.2671 18.5667V20.2113C44.2671 20.9782 43.6453 21.5999 42.8784 21.5999Z" fill="#F4A261"/>
<path d="M39.9912 23.6817H39.2094C38.4778 23.6815 37.8848 23.0883 37.8848 22.3567V16.4215C37.8848 15.6897 38.478 15.0964 39.2098 15.0964H39.9912C40.8673 15.0964 41.5776 15.8067 41.5776 16.6828V22.0953C41.5776 22.9715 40.8673 23.6817 39.9912 23.6817Z" fill="#E9C46A"/>
<defs>
<filter id="filter0_d_1652_845" x="0" y="0" width="72" height="71" filterUnits="userSpaceOnUse" color-interpolation-filters="sRGB">
<feFlood flood-opacity="0" result="BackgroundImageFix"/>
<feColorMatrix in="SourceAlpha" type="matrix" values="0 0 0 0 0 0 0 0 0 0 0 0 0 0 0 0 0 0 127 0" result="hardAlpha"/>
<feOffset dy="4"/>
<feGaussianBlur stdDeviation="4"/>
<feComposite in2="hardAlpha" operator="out"/>
<feColorMatrix type="matrix" values="0 0 0 0 0 0 0 0 0 0 0 0 0 0 0 0 0 0 0.12 0"/>
<feBlend mode="normal" in2="BackgroundImageFix" result="effect1_dropShadow_1652_845"/>
<feBlend mode="normal" in="SourceGraphic" in2="effect1_dropShadow_1652_845" result="shape"/>
</filter>
</defs>
</svg>
