<svg width="18" height="18" viewBox="0 0 18 18" fill="none" xmlns="http://www.w3.org/2000/svg">
<path d="M2.75984 16.176H2.56668C2.38605 16.1364 2.21888 16.046 2.0861 15.9132L1.82332 16.176L2.0861 15.9132C1.90344 15.7305 1.80082 15.4828 1.80082 15.2244L1.80082 12.0172C1.80375 11.7617 1.90692 11.5177 2.08814 11.3375L2.08926 11.3364L11.084 2.34171C11.4149 2.02998 11.8524 1.85629 12.3072 1.85629C12.762 1.85629 13.1995 2.02998 13.5305 2.34172L15.6475 4.45877C15.6476 4.45883 15.6476 4.45889 15.6477 4.45895C15.6477 4.45896 15.6477 4.45898 15.6478 4.459C15.9705 4.78223 16.1517 5.22031 16.1517 5.67706C16.1517 6.13393 15.9704 6.57211 15.6475 6.89536L6.64939 15.8935C6.64915 15.8937 6.64892 15.894 6.64868 15.8942C6.46758 16.0735 6.22344 16.1746 5.96864 16.176H2.75984ZM2.40354 11.642L2.24887 11.7961V12.0145L2.24887 15.2244L2.24887 15.7504H2.77484H5.98479H6.20266L6.35671 15.5964L15.3551 6.59799C15.3554 6.59769 15.3557 6.59739 15.356 6.59709C15.4751 6.47866 15.5697 6.33786 15.6344 6.18277L15.1488 5.98049L15.6344 6.18276C15.6991 6.02728 15.7325 5.86051 15.7325 5.69206C15.7325 5.52362 15.6991 5.35684 15.6344 5.20136L15.16 5.399L15.6344 5.20136C15.5703 5.04755 15.4767 4.90779 15.3589 4.78997L13.2618 2.63296L13.2618 2.63294L13.2581 2.62921C13.1395 2.50962 12.9984 2.41469 12.8429 2.34991L12.6429 2.83002L12.8429 2.34991C12.6874 2.28514 12.5207 2.25178 12.3522 2.25178C12.1838 2.25178 12.017 2.28514 11.8615 2.34991C11.7065 2.41448 11.5658 2.509 11.4474 2.62804C11.4471 2.62843 11.4467 2.62882 11.4463 2.62921L2.40354 11.642Z" fill="black" stroke="black"/>
<path d="M13.4097 9.57661C13.2129 9.57578 13.0244 9.49767 12.8847 9.35911L8.63973 5.11417C8.50005 4.97365 8.42164 4.78356 8.42164 4.58543C8.42164 4.38729 8.50005 4.1972 8.63973 4.05668C8.70946 3.98639 8.7924 3.93059 8.8838 3.89252C8.97519 3.85444 9.07322 3.83484 9.17223 3.83484C9.27123 3.83484 9.36926 3.85444 9.46066 3.89252C9.55205 3.93059 9.635 3.98639 9.70472 4.05668L13.9422 8.29413C14.0479 8.39903 14.1201 8.53305 14.1494 8.67911C14.1787 8.82517 14.1638 8.97665 14.1067 9.11423C14.0496 9.25181 13.9528 9.36926 13.8286 9.45161C13.7045 9.53396 13.5586 9.57748 13.4097 9.57661Z" fill="black"/>
</svg>
