<svg width="72" height="71" viewBox="0 0 72 71" fill="none" xmlns="http://www.w3.org/2000/svg">
<g filter="url(#filter0_d_1633_639)">
<rect x="8" y="4" width="56" height="55" rx="8" fill="white"/>
</g>
<path fill-rule="evenodd" clip-rule="evenodd" d="M48.742 41.0619C48.8373 40.9047 49.0414 40.855 49.1985 40.9495C49.3557 41.0448 49.4054 41.2489 49.3109 41.4061C49.0968 41.7581 49.0179 42.066 49.0307 42.344C49.0442 42.6199 49.1509 42.8788 49.308 43.1291C49.4062 43.2848 49.3592 43.4903 49.2035 43.5885C49.0478 43.6866 48.8422 43.6397 48.7441 43.4839C48.715 43.437 48.6865 43.3901 48.6602 43.3424H23.3944C23.3681 43.3901 23.3397 43.437 23.3105 43.4839C23.2124 43.6397 23.0069 43.6866 22.8511 43.5885C22.6954 43.4903 22.6485 43.2848 22.7466 43.1291C22.9038 42.8795 23.0104 42.6199 23.0239 42.344C23.0374 42.066 22.9578 41.7581 22.7438 41.4061C22.6485 41.2489 22.699 41.0448 22.8561 40.9495C23.0133 40.8543 23.2174 40.9047 23.3126 41.0619C23.3262 41.0847 23.3397 41.1067 23.3525 41.1295H48.7014C48.715 41.1067 48.7278 41.0847 48.742 41.0619Z" fill="#304556"/>
<path fill-rule="evenodd" clip-rule="evenodd" d="M22.9691 17.3477H49.0861C49.7197 17.3477 50.295 17.6065 50.7117 18.0232C51.1284 18.4399 51.3873 19.0159 51.3873 19.6488V39.2662C51.3873 39.8998 51.1284 40.4751 50.7117 40.8918C50.295 41.3085 49.719 41.5674 49.0861 41.5674H22.9691C22.3355 41.5674 21.7602 41.3085 21.3435 40.8918C20.9268 40.4751 20.668 39.8991 20.668 39.2662V19.6488C20.668 19.0152 20.9268 18.4399 21.3435 18.0232C21.7602 17.6065 22.3355 17.3477 22.9691 17.3477Z" fill="#326B8B"/>
<path fill-rule="evenodd" clip-rule="evenodd" d="M22.9693 19.0642H49.0863C49.2477 19.0642 49.3935 19.1303 49.4994 19.2356C49.508 19.2441 49.5165 19.2534 49.5243 19.2633C49.6153 19.3664 49.6715 19.5015 49.6715 19.6487V35.8315C49.6715 35.9908 49.6054 36.1366 49.5001 36.2432L49.4994 36.2439L49.4987 36.2447L49.498 36.2454C49.3913 36.3506 49.2463 36.416 49.0877 36.416H22.9693C22.8086 36.416 22.6621 36.3506 22.5561 36.2447C22.4502 36.1387 22.3848 35.9929 22.3848 35.8315V19.6487C22.3848 19.488 22.4502 19.3415 22.5561 19.2356C22.5647 19.2271 22.5739 19.2185 22.5839 19.2107C22.6863 19.1204 22.8214 19.0642 22.9693 19.0642Z" fill="#DDEDFC"/>
<path fill-rule="evenodd" clip-rule="evenodd" d="M22.7148 42.9727H49.3381C49.8565 42.9727 50.3279 43.1846 50.6693 43.5259C51.0106 43.8672 51.2225 44.3387 51.2225 44.8571V45.8704C51.2225 46.1101 51.1244 46.3284 50.9672 46.4855C50.8094 46.6434 50.5918 46.7408 50.3521 46.7408H21.7015C21.4618 46.7408 21.2435 46.6427 21.0863 46.4855C20.9285 46.3277 20.8311 46.1101 20.8311 45.8704V44.8571C20.8311 44.3387 21.043 43.8672 21.3843 43.5259C21.7256 43.1846 22.1964 42.9727 22.7148 42.9727Z" fill="#326B8B"/>
<path fill-rule="evenodd" clip-rule="evenodd" d="M25.949 40.3749C25.4747 40.3749 25.0459 40.1829 24.7352 39.8721C24.4244 39.5614 24.2324 39.1326 24.2324 38.6583C24.2324 38.184 24.4244 37.7552 24.7352 37.4444C25.0459 37.1337 25.4747 36.9417 25.949 36.9417C26.4234 36.9417 26.8522 37.1337 27.1629 37.4444C27.4737 37.7552 27.6657 38.184 27.6657 38.6583C27.6657 39.1326 27.4737 39.5614 27.1629 39.8721C26.8522 40.1829 26.4226 40.3749 25.949 40.3749Z" fill="#98DB7C"/>
<path fill-rule="evenodd" clip-rule="evenodd" d="M32.1942 40.3749C31.7199 40.3749 31.2911 40.1829 30.9803 39.8721C30.6695 39.5614 30.4775 39.1326 30.4775 38.6583C30.4775 38.184 30.6695 37.7552 30.9803 37.4444C31.2911 37.1337 31.7199 36.9417 32.1942 36.9417C32.6685 36.9417 33.0973 37.1337 33.408 37.4444C33.7188 37.7552 33.9108 38.184 33.9108 38.6583C33.9108 39.1326 33.7188 39.5614 33.408 39.8721C33.0973 40.1829 32.6685 40.3749 32.1942 40.3749Z" fill="#F9EAB0"/>
<path fill-rule="evenodd" clip-rule="evenodd" d="M38.07 37.3704H46.4348C46.8167 37.3704 47.1637 37.5261 47.4147 37.7778C47.6657 38.0289 47.8222 38.3759 47.8222 38.7577C47.8222 39.1396 47.6664 39.4866 47.4147 39.7377C47.1637 39.9887 46.8167 40.1451 46.4348 40.1451H38.07C37.6881 40.1451 37.3411 39.9894 37.0901 39.7377C36.8391 39.4866 36.6826 39.1396 36.6826 38.7577C36.6826 38.3759 36.8384 38.0289 37.0901 37.7778C37.3418 37.5268 37.6888 37.3704 38.07 37.3704Z" fill="#B5D5F5"/>
<path fill-rule="evenodd" clip-rule="evenodd" d="M23.9973 31.018C23.8131 31.018 23.6631 30.8687 23.6631 30.6838C23.6631 30.4989 23.8124 30.3495 23.9973 30.3495H24.9708L26.093 26.5067C26.1442 26.3303 26.3283 26.2287 26.5054 26.2799C26.6199 26.3133 26.7031 26.4029 26.733 26.5095H26.7337L28.6494 33.2928L30.7479 27.1766C30.8076 27.0023 30.9975 26.9092 31.1717 26.9689C31.2762 27.0045 31.3516 27.0877 31.3822 27.1851L32.5456 30.2599H33.896C34.0538 30.2599 34.1861 30.3695 34.221 30.5159L34.8723 32.6934L35.8942 27.4887C35.9298 27.3081 36.1047 27.1901 36.2853 27.2249C36.4154 27.2505 36.5129 27.3479 36.5442 27.4674L37.4743 30.2294H40.0933L41.1066 28.0384C41.1834 27.8713 41.3818 27.7981 41.549 27.8756C41.6421 27.9183 41.7061 27.9993 41.731 28.0911L43.4654 33.4948L45.2069 28.0178C45.2624 27.8429 45.4494 27.7462 45.6243 27.8009C45.7068 27.8272 45.7722 27.8827 45.8121 27.9524L47.07 30.1312H48.0578C48.2419 30.1312 48.392 30.2806 48.392 30.4655C48.392 30.6496 48.2426 30.7997 48.0578 30.7997H46.8787V30.7983C46.7635 30.7983 46.6519 30.7385 46.5907 30.6311L45.6122 28.9366L43.7882 34.6724C43.7605 34.7783 43.6802 34.8687 43.5678 34.9049C43.3929 34.9611 43.2051 34.8644 43.149 34.6895L41.3527 29.093L40.6174 30.6831C40.569 30.8082 40.4482 30.8971 40.3059 30.8971H37.2354V30.8964C37.096 30.8964 36.9666 30.8082 36.9196 30.6688L36.3066 28.8491L35.267 34.1455C35.2442 34.2635 35.1582 34.3645 35.0352 34.4015C34.8588 34.4541 34.6732 34.3538 34.6206 34.1775L33.6485 30.9277H32.3166V30.927C32.1822 30.927 32.0549 30.8445 32.0051 30.7115L31.08 28.2674L28.9353 34.5188H28.9346C28.9004 34.6191 28.8186 34.7008 28.7091 34.7314C28.5321 34.7812 28.3479 34.6781 28.2981 34.5003L26.4073 27.8052L25.5475 30.7492C25.517 30.9021 25.3818 31.0173 25.2197 31.0173L23.9973 31.018Z" fill="#5C9CEE"/>
<path fill-rule="evenodd" clip-rule="evenodd" d="M36.0286 21.2936C36.1395 21.1372 36.259 21.0056 36.3948 20.8968C36.6779 20.67 37.0092 20.5569 37.443 20.5569C37.9259 20.5569 38.3639 20.7532 38.6804 21.0696C38.9968 21.386 39.1931 21.8241 39.1931 22.3069C39.1931 23.3594 38.5979 23.7092 37.7708 24.1964C37.3207 24.4609 36.7902 24.7738 36.2633 25.3007C36.1332 25.4308 35.9212 25.4308 35.7911 25.3007C35.2642 24.7738 34.733 24.4616 34.2836 24.1964C33.4558 23.7092 32.8613 23.3587 32.8613 22.3069C32.8613 21.8241 33.0576 21.386 33.374 21.0696C33.6905 20.7532 34.1285 20.5569 34.6114 20.5569C35.2812 20.5569 35.688 20.8029 36.0286 21.2936Z" fill="#EF5350"/>
<path fill-rule="evenodd" clip-rule="evenodd" d="M24.3059 21.7317C24.1217 21.7317 23.9717 21.5823 23.9717 21.3975C23.9717 21.2133 24.121 21.0632 24.3059 21.0632H29.1955C29.3797 21.0632 29.5297 21.2126 29.5297 21.3975C29.5297 21.5816 29.3804 21.7317 29.1955 21.7317H24.3059Z" fill="#5C9CEE"/>
<path fill-rule="evenodd" clip-rule="evenodd" d="M24.3059 23.3118C24.1217 23.3118 23.9717 23.1624 23.9717 22.9775C23.9717 22.7934 24.121 22.6433 24.3059 22.6433H31.8188C32.003 22.6433 32.153 22.7926 32.153 22.9775C32.153 23.1617 32.0037 23.3118 31.8188 23.3118H24.3059Z" fill="#5C9CEE"/>
<path fill-rule="evenodd" clip-rule="evenodd" d="M24.3059 24.8918C24.1217 24.8918 23.9717 24.7425 23.9717 24.5576C23.9717 24.3734 24.121 24.2234 24.3059 24.2234H32.4751C32.6593 24.2234 32.8094 24.3727 32.8094 24.5576C32.8094 24.7418 32.66 24.8918 32.4751 24.8918H24.3059Z" fill="#5C9CEE"/>
<path fill-rule="evenodd" clip-rule="evenodd" d="M47.7482 21.064C47.9324 21.064 48.0825 21.2133 48.0825 21.3982C48.0825 21.5824 47.9331 21.7324 47.7482 21.7324H42.8586C42.6745 21.7324 42.5244 21.5831 42.5244 21.3982C42.5244 21.214 42.6737 21.064 42.8586 21.064H47.7482Z" fill="#5C9CEE"/>
<path fill-rule="evenodd" clip-rule="evenodd" d="M47.7482 22.644C47.9324 22.644 48.0824 22.7934 48.0824 22.9783C48.0824 23.1624 47.9331 23.3125 47.7482 23.3125H40.2346C40.0504 23.3125 39.9004 23.1632 39.9004 22.9783C39.9004 22.7941 40.0497 22.644 40.2346 22.644H47.7482Z" fill="#5C9CEE"/>
<path fill-rule="evenodd" clip-rule="evenodd" d="M47.7486 24.2241C47.9328 24.2241 48.0828 24.3735 48.0828 24.5583C48.0828 24.7425 47.9335 24.8926 47.7486 24.8926H39.5793C39.3952 24.8926 39.2451 24.7432 39.2451 24.5583C39.2451 24.3742 39.3944 24.2241 39.5793 24.2241H47.7486Z" fill="#5C9CEE"/>
<defs>
<filter id="filter0_d_1633_639" x="0" y="0" width="72" height="71" filterUnits="userSpaceOnUse" color-interpolation-filters="sRGB">
<feFlood flood-opacity="0" result="BackgroundImageFix"/>
<feColorMatrix in="SourceAlpha" type="matrix" values="0 0 0 0 0 0 0 0 0 0 0 0 0 0 0 0 0 0 127 0" result="hardAlpha"/>
<feOffset dy="4"/>
<feGaussianBlur stdDeviation="4"/>
<feComposite in2="hardAlpha" operator="out"/>
<feColorMatrix type="matrix" values="0 0 0 0 0 0 0 0 0 0 0 0 0 0 0 0 0 0 0.12 0"/>
<feBlend mode="normal" in2="BackgroundImageFix" result="effect1_dropShadow_1633_639"/>
<feBlend mode="normal" in="SourceGraphic" in2="effect1_dropShadow_1633_639" result="shape"/>
</filter>
</defs>
</svg>
