<svg width="51" height="51" viewBox="0 0 51 51" fill="none" xmlns="http://www.w3.org/2000/svg">
<path d="M18.2142 20.0356C18.1875 19.3661 18.0312 18.7081 17.7538 18.0981C17.3196 17.9147 16.8343 17.8919 16.3848 18.0335C15.1638 18.3877 13.8482 17.9984 13.0168 17.0365C12.1478 16.1677 11.4622 15.4819 10.0179 15.4819C9.51494 15.4819 9.10714 15.0743 9.10714 14.5712C9.10714 14.0683 9.51484 13.6605 10.0179 13.6605C11.6852 13.6888 13.2546 14.4533 14.3045 15.7488C14.7088 16.2849 15.42 16.4872 16.0459 16.2442C16.2843 16.1959 16.525 16.1601 16.7671 16.137L16.7547 16.1144C16.0712 15.1089 15.635 13.956 15.482 12.7499C15.3875 11.9297 14.8915 11.21 14.1587 10.8298C13.713 10.6016 13.535 10.0563 13.7605 9.60911C13.9859 9.16187 14.5301 8.98058 14.9787 9.20321C15.559 9.51897 16.0704 9.94758 16.4827 10.4639C16.543 10.4015 16.6027 10.3415 16.6596 10.2847C17.106 9.83821 17.3035 9.61937 17.3035 9.10708C17.3035 8.60416 17.7112 8.19636 18.2142 8.19636C18.7171 8.19636 19.1249 8.60406 19.1249 9.10708C19.1141 10.062 18.6834 10.9638 17.9473 11.5724C17.5009 12.0188 17.3035 12.2377 17.3035 12.75C17.4898 13.638 17.8451 14.482 18.3502 15.2357C19.3021 16.6708 19.8813 18.3205 20.0356 20.0357C20.0356 22.1317 21.9631 24.8524 24.5442 26.61C24.4233 24.7591 24.1897 22.9174 23.8448 21.0949C23.1066 17.1421 22.7459 13.1282 22.7677 9.10718V8.93645C22.7684 8.68843 22.7687 8.41769 22.7589 8.13739L22.7584 8.11617C22.7535 7.9832 22.7456 7.84783 22.7347 7.71186L22.7322 7.67501C22.721 7.54183 22.7052 7.40805 22.686 7.27478L22.6797 7.22776C22.6598 7.09757 22.6343 6.96848 22.6045 6.84078C22.6002 6.82186 22.5963 6.80283 22.5917 6.78401C22.561 6.66009 22.5239 6.53857 22.4817 6.41944C22.4741 6.39782 22.4667 6.37621 22.4586 6.35489C22.4153 6.23994 22.3649 6.12778 22.3079 6.01901C22.2962 5.9967 22.2841 5.97458 22.2718 5.95257C22.213 5.84689 22.1465 5.74568 22.0731 5.64966C22.015 5.56748 21.9515 5.48929 21.883 5.41558C21.1136 4.77519 20.1221 4.46541 19.125 4.55376C16.6716 4.64889 14.3153 5.537 12.4095 7.08492C9.55089 9.22691 7.15142 11.9209 5.35328 15.0074L3.54697 18.6218C2.87979 19.7563 2.28792 20.9333 1.77533 22.1455C0.916003 24.7208 0 28.6544 0 42.8033C0 46.584 1.90771 50.9997 7.28569 50.9997C7.52764 50.9997 11.3928 50.997 11.6241 50.9926C16.0397 50.9234 20.0283 48.3387 21.8953 44.3365C23.3869 40.7225 24.2419 36.8778 24.4229 32.9724C22.2958 33.6399 19.9516 35.9788 18.8581 37.0723C18.5837 37.3467 18.3114 37.6003 18.0399 37.8438C18.0136 37.8931 17.9827 37.9398 17.9474 37.983C16.9804 39.4088 16.441 41.0812 16.3928 42.8034C16.5108 44.6067 15.6144 46.3255 14.0681 47.2609C13.6183 47.4844 13.0726 47.3017 12.848 46.8526C12.6235 46.4034 12.8048 45.8572 13.2535 45.6316C14.1707 44.9955 14.6743 43.9148 14.5715 42.8034C14.6022 41.8294 14.7621 40.8637 15.0474 39.9319C13.1068 40.9749 10.7803 41.0095 8.80961 40.0246C8.63629 39.992 8.46844 39.9349 8.31106 39.8552C7.49049 39.8305 6.69521 40.141 6.10831 40.7151C5.87901 40.9485 5.54194 41.0411 5.22558 40.9573C4.90922 40.8735 4.66209 40.6264 4.57832 40.3101C4.49455 39.9937 4.58709 39.6566 4.82057 39.4273C5.37479 38.9045 6.02793 38.4976 6.74153 38.2306C6.62409 38.0357 6.52836 37.8606 6.47119 37.7463C6.24767 37.2969 6.42995 36.7514 6.87879 36.5266C7.32763 36.3018 7.87358 36.4826 8.09959 36.9307C8.32212 37.3769 8.61617 37.7837 8.97018 38.1348C9.12875 38.1824 9.28374 38.2417 9.43366 38.3121C9.47569 38.3262 9.51653 38.3437 9.55578 38.3643C12.0771 39.6018 14.5498 38.8061 17.5705 35.7844C18.972 34.3829 21.7314 31.6308 24.5265 31.0715C24.529 31.011 24.5339 30.9539 24.5361 30.893C23.469 30.7153 22.4361 30.3728 21.4743 29.8777C21.3826 29.9463 21.2786 29.9969 21.1681 30.0266C21.0978 30.1245 20.9991 30.2952 20.9226 30.4278C20.2916 31.8626 18.8713 32.788 17.3039 32.7855C15.8595 32.7855 15.1738 33.4712 14.3049 34.3401C14.0756 34.5736 13.7385 34.6661 13.4222 34.5823C13.1058 34.4986 12.8587 34.2514 12.7749 33.9351C12.6912 33.6187 12.7837 33.2817 13.0172 33.0524C13.4322 32.6179 13.8856 32.2219 14.372 31.8692C14.2158 31.7541 14.071 31.6391 13.9403 31.5324C13.4574 31.1385 13.2244 30.9642 12.7503 30.9642C12.2474 30.9642 11.8396 30.5565 11.8396 30.0534C11.8396 29.5504 12.2473 29.1427 12.7503 29.1427C13.6269 29.1591 14.4643 29.509 15.092 30.121C15.6803 30.6968 16.4816 31.0022 17.3039 30.9641C18.5098 30.9641 18.9163 30.2614 19.3449 29.517C19.4596 29.3112 19.5865 29.1124 19.7249 28.9217C19.267 28.6476 18.8166 28.3683 18.3809 28.0949C17.383 27.4065 16.3148 26.8261 15.1943 26.3633C14.1135 25.9556 12.9323 25.8954 11.8156 26.1908C11.2377 26.322 10.648 26.3947 10.0554 26.4077L10.0475 26.4095C9.6014 26.7603 9.24579 27.2129 9.01062 27.7294C8.7846 28.1775 8.23855 28.3583 7.78981 28.1335C7.34107 27.9088 7.15869 27.3632 7.38221 26.9138C7.54039 26.6025 7.72088 26.303 7.92229 26.0177C7.45044 25.838 7.01635 25.5718 6.64232 25.2329C6.29219 24.8764 6.29478 24.3043 6.64809 23.9509C7.00141 23.5976 7.57346 23.595 7.93006 23.9451C8.52781 24.4005 9.26791 24.6287 10.0184 24.589C10.5037 24.5769 10.9865 24.515 11.4591 24.404C12.887 24.0464 14.3895 24.1273 15.7708 24.6361C17.0318 25.1388 18.2322 25.7817 19.3496 26.5527C20.9296 27.6877 22.6994 28.532 24.5758 29.0459C24.5769 28.9532 24.5798 28.8631 24.5805 28.7698C20.972 26.759 18.2142 23.0194 18.2142 20.0356Z" fill="#ED5A87"/>
<path d="M49.2253 22.1455C48.7184 20.9468 48.1331 19.7828 47.4733 18.661L45.6314 14.9789C43.8348 11.904 41.4408 9.21984 38.5903 7.08492C36.6844 5.5371 34.3281 4.64899 31.8747 4.55376C30.8776 4.46541 29.8862 4.77519 29.1169 5.41548C29.0483 5.48919 28.9848 5.56738 28.9267 5.64956C28.8533 5.74548 28.7869 5.84669 28.7281 5.95227C28.7157 5.97448 28.7035 5.9968 28.6918 6.01941C28.6349 6.12798 28.5847 6.23984 28.5414 6.35459C28.5333 6.37631 28.5257 6.39812 28.518 6.42003C28.4759 6.53897 28.4388 6.66029 28.4081 6.78411C28.4036 6.80293 28.3996 6.82196 28.3953 6.84088C28.3655 6.96858 28.34 7.09767 28.3201 7.22786L28.3138 7.27488C28.2946 7.40805 28.2788 7.54183 28.2676 7.67491L28.265 7.71405C28.2542 7.84882 28.2463 7.9832 28.2414 8.11508L28.2405 8.15243C28.2312 8.42735 28.2313 8.69321 28.232 8.93675V9.10748C28.2538 13.1285 27.8933 17.1425 27.155 21.0952C26.8099 22.9177 26.5763 24.7595 26.4555 26.6104C29.0368 24.8527 30.9641 22.132 30.9641 20.036C31.1184 18.3208 31.6976 16.6712 32.6495 15.236C33.1545 14.4822 33.5099 13.6383 33.6963 12.7503C33.6963 12.238 33.4988 12.0191 33.0524 11.5727C32.3164 10.9642 31.8856 10.0624 31.8748 9.10738C31.8748 8.60446 32.2825 8.19666 32.7856 8.19666C33.2886 8.19666 33.6963 8.60436 33.6963 9.10738C33.6963 9.61967 33.8937 9.83841 34.3401 10.2849C34.397 10.3417 34.4567 10.4017 34.5171 10.4641C34.9293 9.94778 35.4407 9.51916 36.021 9.2034C36.4708 8.97988 37.0165 9.16256 37.2411 9.6117C37.4656 10.0608 37.2843 10.6071 36.8356 10.8327C36.1054 11.2136 35.6116 11.9319 35.5176 12.7502C35.3646 13.9563 34.9285 15.1092 34.2449 16.1147L34.2326 16.1373C34.4747 16.1605 34.7154 16.1962 34.9538 16.2445C35.5798 16.4873 36.2908 16.285 36.6952 15.7491C37.7452 14.4536 39.3146 13.6891 40.9819 13.6608C41.4848 13.6608 41.8926 14.0685 41.8926 14.5715C41.8926 15.0745 41.4849 15.4822 40.9819 15.4822C39.5375 15.4822 38.8518 16.168 37.9829 17.0368C37.1519 17.9994 35.836 18.3889 34.615 18.0338C34.1654 17.8922 33.6801 17.915 33.2458 18.0984C32.9685 18.7083 32.8121 19.3663 32.7855 20.0358C32.7855 23.0197 30.0276 26.7592 26.4197 28.7701C26.4204 28.8634 26.4234 28.9533 26.4244 29.0462C28.3008 28.5323 30.0705 27.688 31.6506 26.553C32.7679 25.782 33.9684 25.1391 35.2295 24.6364C36.6107 24.1276 38.1132 24.0466 39.5411 24.4043C40.0138 24.5153 40.4966 24.5772 40.9819 24.5893C41.7374 24.6299 42.4823 24.3976 43.0807 23.9347C43.4442 23.593 44.0143 23.6049 44.3632 23.9614C44.7099 24.3153 44.7075 24.8821 44.3578 25.2332C43.9837 25.5721 43.5496 25.8384 43.0778 26.018C43.2791 26.3033 43.4596 26.6028 43.6179 26.9141C43.8414 27.3635 43.6591 27.9089 43.2103 28.1338C42.7616 28.3585 42.2155 28.1778 41.9895 27.7297C41.7554 27.2096 41.3963 26.7556 40.9441 26.408C40.3517 26.395 39.7623 26.3223 39.1844 26.1911C38.0677 25.8952 36.8864 25.9555 35.8057 26.3636C34.6852 26.8264 33.617 27.4068 32.6191 28.0952C32.1834 28.3686 31.733 28.648 31.2751 28.922C31.4135 29.1126 31.5404 29.3114 31.6551 29.5173C32.0838 30.2617 32.4902 30.9644 33.6962 30.9644C34.5185 31.0025 35.3197 30.6971 35.908 30.1213C36.5357 29.5093 37.3731 29.1594 38.2497 29.143C38.7526 29.143 39.1604 29.5507 39.1604 30.0537C39.1604 30.5568 38.7527 30.9645 38.2497 30.9645C37.7757 30.9645 37.5427 31.1388 37.0597 31.5328C36.9289 31.6395 36.7841 31.7544 36.628 31.8696C37.1143 32.2223 37.5678 32.6183 37.9828 33.0528C38.333 33.4093 38.3304 33.9813 37.9771 34.3347C37.6237 34.688 37.0517 34.6906 36.6951 34.3405C35.8262 33.4716 35.1405 32.7859 33.6962 32.7859C32.1287 32.7885 30.7083 31.8631 30.0773 30.4283C30.0008 30.2958 29.9021 30.1249 29.8318 30.0271C29.7213 29.9974 29.6173 29.9468 29.5256 29.8782C28.5638 30.3733 27.5308 30.7158 26.4638 30.8935C26.4661 30.9544 26.4709 31.0115 26.4734 31.072C29.2685 31.6313 32.0278 34.3833 33.4294 35.7849C36.4676 38.823 38.9515 39.6163 41.4853 38.3463C41.4944 38.3417 41.5033 38.3394 41.5125 38.3349L41.5293 38.3278C41.6911 38.25 41.8589 38.1853 42.031 38.1342C42.3842 37.7831 42.6777 37.3768 42.9003 36.9313C43.1263 36.4832 43.6724 36.3024 44.1211 36.5272C44.5699 36.7519 44.7523 37.2975 44.5287 37.7469C44.4718 37.8608 44.3764 38.0352 44.2595 38.2292C44.973 38.4967 45.6258 38.9042 46.1794 39.4278C46.5295 39.7843 46.5269 40.3564 46.1736 40.7098C45.8203 41.0631 45.2482 41.0657 44.8916 40.7156C44.3073 40.1408 43.5139 39.8293 42.6946 39.853C42.5356 39.9341 42.3657 39.9921 42.1902 40.0251C40.2195 41.01 37.893 40.9754 35.9524 39.9324C36.1863 40.7191 36.3373 41.5281 36.4029 42.3462C36.9758 42.6395 37.6089 42.7962 38.2525 42.8039C38.7554 42.8046 39.1626 43.213 39.1618 43.7159C39.161 44.2188 38.7526 44.6257 38.2497 44.625C37.7455 44.6142 37.244 44.5467 36.7548 44.424C36.9596 44.9202 37.3091 45.3433 37.7579 45.6379C38.1976 45.8739 38.3676 46.4184 38.1403 46.8626C37.9152 47.3049 37.3756 47.4828 36.9317 47.2611C35.3853 46.3257 34.4889 44.6069 34.6069 42.8036C34.5587 41.0814 34.0193 39.409 33.0523 37.9832C33.017 37.9399 32.9862 37.8932 32.9599 37.844C32.6883 37.6005 32.416 37.3469 32.1416 37.0725C31.0482 35.9791 28.7039 33.6401 26.5768 32.9726C26.7577 36.878 27.6129 40.7227 29.1044 44.3367C30.9719 48.3393 34.9611 50.9241 39.3775 50.9928C39.607 50.9973 43.4721 50.9999 43.714 50.9999C49.0919 51 50.9996 46.5843 50.9996 42.8036C50.9996 28.6547 50.0836 24.7211 49.2253 22.1455Z" fill="#ED5A87"/>
<path d="M26.44 7.72596C26.4481 7.59896 26.4587 7.47126 26.4722 7.34028C26.4794 7.27045 26.4884 7.20112 26.4974 7.1302C26.5143 7.00001 26.5355 6.86972 26.5596 6.73764C26.5735 6.66084 26.5878 6.58514 26.6045 6.50794C26.6314 6.38513 26.6651 6.26291 26.7 6.13999C26.7245 6.05323 26.7471 5.96697 26.776 5.88061C26.8098 5.7809 26.8527 5.68318 26.893 5.58457C27.0068 5.29401 27.1504 5.016 27.3212 4.75483V0.910724C27.3209 0.407898 26.9133 0.000298827 26.4105 0H24.589C24.0862 0.000298827 23.6786 0.407898 23.6783 0.910724V4.75503C23.8491 5.0162 23.9927 5.29421 24.1065 5.58477C24.1468 5.68338 24.1897 5.7811 24.2234 5.88081C24.2523 5.96717 24.2749 6.05343 24.2994 6.14019C24.3345 6.26301 24.3681 6.38523 24.395 6.50814C24.4118 6.58534 24.426 6.66104 24.4399 6.73784C24.464 6.86982 24.4853 7.00021 24.5021 7.1304C24.5112 7.20122 24.5201 7.27055 24.5273 7.34047C24.5408 7.47136 24.5514 7.59916 24.5594 7.72616C24.5638 7.79389 24.569 7.86073 24.5721 7.92687C24.5778 8.05049 24.5809 8.16862 24.5833 8.28646C24.5845 8.34842 24.587 8.41107 24.5876 8.47074C24.5891 8.62304 24.5891 8.76827 24.5888 8.90643L24.5889 8.92754V9.10724C24.5889 9.68676 24.5964 10.2366 24.6081 10.7691C24.6094 10.8295 24.6101 10.892 24.6116 10.9518C24.6238 11.4505 24.6416 11.9267 24.6628 12.3877C24.6665 12.4674 24.67 12.5481 24.6739 12.6268C24.6962 13.0698 24.722 13.497 24.7513 13.9084C24.757 13.9874 24.7627 14.0653 24.7686 14.1431C24.7991 14.5478 24.8324 14.94 24.8686 15.3169C24.875 15.384 24.8821 15.4489 24.8886 15.5153C24.9266 15.8947 24.9665 16.2642 25.0092 16.6187C25.0144 16.6624 25.02 16.7038 25.0253 16.7471C25.0657 17.077 25.1079 17.3967 25.1513 17.7082C25.1592 17.7644 25.1667 17.8225 25.1746 17.8784C25.2189 18.1906 25.2648 18.4926 25.3108 18.7893C25.3235 18.871 25.3362 18.9536 25.3489 19.0343C25.3921 19.3053 25.4354 19.5714 25.4788 19.8329L25.4999 19.9566L25.5207 19.8327C25.5643 19.5714 25.6076 19.3049 25.6507 19.0332C25.6633 18.9544 25.6755 18.8737 25.688 18.7939C25.7344 18.4957 25.7802 18.1921 25.8249 17.8782C25.8327 17.8224 25.8404 17.7643 25.8482 17.708C25.8915 17.3965 25.9337 17.0769 25.9741 16.7469C25.9794 16.7037 25.985 16.6623 25.9902 16.6185C26.0328 16.264 26.0728 15.8944 26.1107 15.5151C26.1173 15.4486 26.1243 15.3838 26.1308 15.3167C26.167 14.9398 26.2003 14.5476 26.2308 14.1429C26.2366 14.0651 26.2424 13.9871 26.2481 13.9082C26.2777 13.4964 26.3036 13.0683 26.3257 12.6236C26.3295 12.5466 26.333 12.4678 26.3365 12.3898C26.3579 11.9282 26.3756 11.4511 26.3878 10.9516C26.3893 10.8918 26.39 10.8293 26.3913 10.7689C26.403 10.2364 26.4106 9.68656 26.4106 9.10704V8.92734L26.4107 8.90623C26.4104 8.76797 26.4104 8.62284 26.4119 8.47054C26.4125 8.41077 26.4149 8.34822 26.4161 8.28626C26.4184 8.16852 26.4217 8.05029 26.4274 7.92667C26.4305 7.86053 26.4358 7.7937 26.44 7.72596Z" fill="#ED5A87"/>
</svg>
