<svg width="43" height="43" viewBox="0 0 43 43" fill="none" xmlns="http://www.w3.org/2000/svg">
<g clip-path="url(#clip0_0_134)">
<path d="M6.14333 21.0502L7.13617 22.0431C7.43746 22.3341 7.91637 22.3299 8.21256 22.0337C8.50875 21.7375 8.51291 21.2586 8.22192 20.9573L7.22908 19.9645C6.62938 19.365 5.65727 19.365 5.05758 19.9645L4.60761 20.4144L3.61477 19.4216C3.31348 19.1306 2.83457 19.1348 2.53838 19.431C2.24219 19.7271 2.23803 20.2061 2.52902 20.5074L3.52186 21.5002C4.12156 22.0997 5.09367 22.0997 5.69336 21.5002L6.14333 21.0502Z" fill="#5757D8"/>
<path d="M9.94557 25.8713C9.8831 25.6774 9.74613 25.5162 9.56482 25.4233C9.3835 25.3304 9.17271 25.3134 8.97884 25.376L7.64277 25.8068C6.83596 26.067 6.39259 26.9317 6.65223 27.7387L6.84727 28.3453L5.51043 28.7753C5.1503 28.8911 4.92816 29.2519 4.98693 29.6256C5.0457 29.9993 5.36788 30.2745 5.74616 30.2742C5.82624 30.2743 5.90583 30.2616 5.98189 30.2365L7.31796 29.8065C7.70578 29.6816 8.02804 29.4076 8.21382 29.045C8.3996 28.6824 8.43366 28.2608 8.3085 27.8731L8.11346 27.2672L9.4503 26.8372C9.8537 26.7071 10.0754 26.2748 9.94557 25.8713Z" fill="#5757D8"/>
<path d="M9.93738 16.6327L9.46054 15.3112C9.17189 14.5146 8.29261 14.1022 7.49559 14.3897L6.89666 14.6055L6.42059 13.284C6.27662 12.885 5.83641 12.6782 5.43735 12.8222C5.0383 12.9661 4.83151 13.4064 4.97548 13.8054L5.45232 15.1269C5.74097 15.9239 6.62079 16.3363 7.41804 16.0483L8.0162 15.8325L8.49227 17.1533C8.58527 17.4114 8.80892 17.6003 9.07898 17.6489C9.34903 17.6974 9.62447 17.5982 9.80153 17.3886C9.97859 17.1789 10.0304 16.8908 9.93738 16.6327Z" fill="#5757D8"/>
<path d="M39.4794 21.5002L40.4723 20.5074C40.7633 20.2061 40.7591 19.7271 40.4629 19.431C40.1667 19.1348 39.6878 19.1306 39.3865 19.4216L38.3937 20.4144L37.9437 19.9645C37.344 19.365 36.3719 19.365 35.7722 19.9645L34.7794 20.9573C34.5797 21.1501 34.4997 21.4356 34.57 21.7041C34.6402 21.9725 34.8499 22.1822 35.1184 22.2525C35.3868 22.3227 35.6723 22.2427 35.8651 22.0431L36.8579 21.0502L37.3079 21.5002C37.9076 22.0997 38.8797 22.0997 39.4794 21.5002Z" fill="#5757D8"/>
<path d="M34.7843 29.0457C34.969 29.4089 35.2914 29.683 35.6796 29.8067L37.0157 30.2367C37.0917 30.2618 37.1713 30.2745 37.2514 30.2743C37.6297 30.2747 37.9519 29.9994 38.0106 29.6258C38.0694 29.2521 37.8473 28.8913 37.4871 28.7755L36.1503 28.3447L36.3453 27.7396C36.6055 26.9324 36.162 26.0671 35.3548 25.8069L34.0187 25.3762C33.6249 25.2733 33.2192 25.4956 33.094 25.883C32.9688 26.2703 33.1677 26.688 33.5473 26.8351L34.8841 27.2651L34.6891 27.8709C34.5621 28.2595 34.5964 28.6827 34.7843 29.0457Z" fill="#5757D8"/>
<path d="M33.526 17.6157C33.9246 17.7597 34.3646 17.5534 34.5089 17.1549L34.985 15.8342L35.5831 16.05C36.3804 16.338 37.2602 15.9256 37.5488 15.1286L38.0257 13.8078C38.1696 13.4088 37.9629 12.9686 37.5638 12.8246C37.1647 12.6806 36.7245 12.8874 36.5806 13.2865L36.1045 14.608L35.5056 14.3914C34.7084 14.1061 33.8305 14.5177 33.5398 15.3128L33.0638 16.6343C32.9209 17.0329 33.1277 17.4719 33.526 17.6157Z" fill="#5757D8"/>
<path d="M15.1843 9.54139C16.6538 8.99072 17.6365 7.59676 17.6614 6.02768V0.767857C17.6614 0.343781 18.0052 0 18.4293 0H24.5721C24.9962 0 25.34 0.343781 25.34 0.767857V6.02768C25.3649 7.59676 26.3476 8.99072 27.8171 9.54139C29.7788 10.3248 30.9565 12.342 30.6743 14.4355C30.3921 16.5289 28.7223 18.1623 26.6232 18.3983C24.524 18.6343 22.5333 17.4125 21.7933 15.4339C21.6043 14.912 21.5054 14.3619 21.5007 13.8068C21.4891 13.3912 21.1487 13.0603 20.7328 13.0605H20.7282C20.5246 13.0617 20.3298 13.1438 20.1866 13.2886C20.0435 13.4335 19.9638 13.6293 19.965 13.8329C19.9735 14.7643 20.1933 15.6817 20.6077 16.5158C19.4591 18.101 17.4331 18.7857 15.5583 18.2222C13.6836 17.6587 12.3708 15.9705 12.2866 14.0147C12.2023 12.0589 13.365 10.2641 15.1843 9.54139ZM27.8171 33.4586C26.3475 34.0091 25.3647 35.4032 25.34 36.9723V42.2321C25.34 42.6562 24.9962 43 24.5721 43H18.4293C18.0052 43 17.6614 42.6562 17.6614 42.2321V36.9723C17.6367 35.4032 16.6539 34.0091 15.1843 33.4586C13.2679 32.6969 12.0911 30.7545 12.3033 28.7033C12.5154 26.652 14.0648 24.9916 16.0965 24.6382C16.3556 24.5945 16.6178 24.5721 16.8805 24.5714C18.3579 24.5703 19.7457 25.2798 20.61 26.478C20.1941 27.3134 19.9736 28.2324 19.965 29.1655C19.9638 29.3692 20.0435 29.565 20.1866 29.7098C20.3298 29.8547 20.5246 29.9368 20.7282 29.938H20.7328C21.1525 29.938 21.4944 29.6012 21.5007 29.1816C21.503 28.6311 21.6023 28.0852 21.794 27.5691C22.5333 25.59 24.524 24.3673 26.6236 24.6029C28.7231 24.8384 30.3934 26.4719 30.6757 28.5656C30.958 30.6594 29.78 32.6769 27.8179 33.4601L27.8171 33.4586ZM30.1391 24.5515C29.2962 23.8095 28.2641 23.3159 27.1575 23.1256C25.0531 22.7633 22.9115 23.5191 21.5007 25.122C20.0903 23.5185 17.9483 22.7625 15.8439 23.1256C14.7373 23.3159 13.7051 23.8095 12.8623 24.5515C12.0355 23.7471 11.5537 22.653 11.5186 21.5C11.5542 20.3478 12.036 19.2546 12.8623 18.4508C13.7051 19.1928 14.7373 19.6864 15.8439 19.8767C17.9487 20.2392 20.0908 19.4824 21.5007 17.878C22.666 19.207 24.3488 19.9676 26.1163 19.9643C26.4651 19.9638 26.8134 19.9348 27.1575 19.8775C28.2641 19.6871 29.2962 19.1935 30.1391 18.4516C30.9652 19.2552 31.447 20.3481 31.4828 21.5C31.4471 22.6522 30.9654 23.7454 30.1391 24.5492V24.5515Z" fill="#5757D8"/>
</g>
<defs>
<clipPath id="clip0_0_134">
<rect width="43" height="43" fill="white"/>
</clipPath>
</defs>
</svg>
