<svg width="37" height="37" viewBox="0 0 37 37" fill="none" xmlns="http://www.w3.org/2000/svg">
<g clip-path="url(#clip0_1713_4929)">
<path d="M5.49168 17.6328C7.05904 16.0654 9.00219 14.8931 11.3211 14.1159C13.64 13.3386 16.0328 12.95 18.4995 12.95C20.9662 12.95 23.359 13.3386 25.6779 14.1159C27.9968 14.8931 29.94 16.0654 31.5073 17.6328C31.7514 17.8769 31.8735 18.166 31.8735 18.5C31.8735 18.834 31.7514 19.1231 31.5073 19.3672L28.8094 22.0651C28.6295 22.245 28.4111 22.3413 28.1542 22.3542C27.8972 22.367 27.6467 22.2899 27.4026 22.1229L24.4542 20.2151C24.2486 20.0609 24.088 19.8939 23.9724 19.7141C23.8568 19.5342 23.799 19.3415 23.799 19.1359L23.7797 15.2625C21.8655 14.7872 20.0187 14.5527 18.2393 14.5591C16.46 14.5655 14.6967 14.8257 12.9495 15.3396L13.0073 19.0589C13.0202 19.3286 12.972 19.576 12.8628 19.8008C12.7536 20.0256 12.5962 20.2023 12.3906 20.3307L9.59637 22.1229C9.36512 22.2771 9.10818 22.3413 8.82554 22.3156C8.5429 22.2899 8.2988 22.1743 8.09324 21.9687L5.49168 19.3672C5.24758 19.1231 5.12553 18.834 5.12553 18.5C5.12553 18.166 5.24758 17.8769 5.49168 17.6328Z" fill="white"/>
</g>
<defs>
<clipPath id="clip0_1713_4929">
<rect width="26" height="26" fill="white" transform="translate(37 18.5) scale(1.00627) rotate(135)"/>
</clipPath>
</defs>
</svg>
