<svg width="125" height="126" viewBox="0 0 125 126" fill="none" xmlns="http://www.w3.org/2000/svg">
<path d="M58.882 51.4324C58.882 54.5935 58.7222 57.6607 58.9292 60.7025C59.1178 63.4722 58.3223 65.08 55.7229 66.5552C50.2437 69.6646 48.1533 76.0237 50.1075 81.6859C52.0547 87.3272 57.5111 91.1632 63.1152 90.8305C69.2615 90.4655 74.27 85.9186 75.4165 79.6639C76.3464 74.5905 73.9627 69.0564 68.9795 66.3639C66.58 65.0677 66.1093 63.5652 66.2054 61.2071C66.3363 58.0048 66.2377 54.7927 66.2377 52.2108C71.4959 49.4508 76.315 46.9198 81.1367 44.394C81.52 44.1931 81.9269 43.8526 82.312 43.8657C92.3003 44.2168 102.477 43.5384 112.217 45.2997C121.234 46.9303 126.077 56.9639 124.615 66.6974C123.275 75.6085 115.532 82.4003 105.985 82.6996C99.1547 82.9137 92.3116 82.8584 85.4781 82.7075C82.6368 82.6443 81.6327 83.6149 81.6955 86.482C81.8431 93.2036 81.8117 99.9313 81.713 106.655C81.5497 117.812 73.5802 125.926 62.8428 126C51.632 126.076 43.6399 118.281 43.412 106.875C43.2775 100.152 43.2635 93.4239 43.4146 86.7023C43.4836 83.6456 42.3973 82.6162 39.3622 82.7013C32.8221 82.8856 26.2724 82.8119 19.7279 82.7382C8.61759 82.6136 0.149514 74.3378 0.0019471 63.5521C-0.147366 52.5961 8.30761 44.0307 19.603 43.7701C23.383 43.6823 27.1682 43.8359 30.9473 43.7367C37.6202 43.5612 44.1367 43.3014 49.8848 48.0203C52.1009 49.8387 55.4932 50.2099 58.882 51.4324Z" fill="#1D718B"/>
<path d="M81.9859 20.719C81.9108 32.4253 73.413 40.9854 61.9831 40.8696C51.1714 40.7599 42.6606 31.5793 42.7915 20.1679C42.9225 8.81347 51.6316 -0.0836563 62.535 0.000593403C73.8068 0.0874759 82.0618 8.88016 81.9859 20.719Z" fill="#1D718B"/>
<path d="M62.4552 83.9625C58.8472 83.9599 56.0504 81.1875 56.0513 77.6148C56.0522 74.1474 59.0175 71.1706 62.47 71.1715C66.0309 71.1723 68.763 73.9693 68.7639 77.6139C68.7657 81.2735 66.0894 83.9651 62.4552 83.9625Z" fill="#1D718B"/>
</svg>
