<svg width="140" height="140" viewBox="0 0 140 140" fill="none" xmlns="http://www.w3.org/2000/svg">
<circle cx="70" cy="70" r="70" fill="#E9F5F9"/>
<mask id="mask0_1739_3377" style="mask-type:luminance" maskUnits="userSpaceOnUse" x="30" y="30" width="80" height="80">
<path d="M30 30H110V110H30V30Z" fill="white"/>
</mask>
<g mask="url(#mask0_1739_3377)">
<path d="M62.1807 101.147C62.1807 105.389 65.6814 108.828 69.9999 108.828C74.3185 108.828 77.8193 105.389 77.8193 101.147L69.9999 98.1558L62.1807 101.147Z" fill="#E9F5F9"/>
<path d="M71.5625 98.1556L71.5692 101.147C71.5692 104.298 69.6377 107.004 66.875 108.188C67.8323 108.599 68.8887 108.828 70 108.828C74.3184 108.828 77.8192 105.389 77.8192 101.147L71.5625 98.1556Z" fill="#E9F5F9"/>
<path d="M47.17 60.1692C48.6098 49.0428 58.2823 40.4407 70.0003 40.4407C81.7181 40.4407 91.3907 49.0428 92.8306 60.1692C93.3331 64.0528 98.2984 101.147 98.2984 101.147H41.7021C41.7021 101.147 46.6673 64.0528 47.17 60.1692Z" fill="#E9F5F9"/>
<path d="M92.8303 60.1692C91.3905 49.0428 81.7178 40.4407 70 40.4407C68.94 40.4407 67.8969 40.512 66.875 40.6484C77.1502 42.0187 85.2708 50.0493 86.5803 60.1692C87.0828 64.0528 92.0481 101.147 92.0481 101.147H98.2981C98.2981 101.147 93.3328 64.0528 92.8303 60.1692Z" fill="#E9F5F9"/>
<path d="M99.4038 42.7942C99.4038 49.2132 94.1063 54.417 87.5716 54.417C81.0368 54.417 75.7393 49.2132 75.7393 42.7942C75.7393 36.3751 81.0368 31.1714 87.5716 31.1714C94.1063 31.1714 99.4038 36.3751 99.4038 42.7942Z" fill="#1D718B"/>
<path d="M87.5713 31.1715C86.4891 31.1715 85.4421 31.317 84.4463 31.5843C89.4641 32.9311 93.1535 37.4381 93.1535 42.7943C93.1535 48.1504 89.4641 52.6575 84.4463 54.0043C85.4421 54.2715 86.4891 54.417 87.5713 54.417C94.106 54.417 99.4035 49.2134 99.4035 42.7943C99.4035 36.3753 94.106 31.1715 87.5713 31.1715Z" fill="#1D718B"/>
<path d="M99.0726 101.147H40.9281C39.2759 101.147 37.9365 99.8081 37.9365 98.1559C37.9365 96.5036 39.2759 95.1642 40.9281 95.1642H99.0726C100.725 95.1642 102.064 96.5036 102.064 98.1559C102.064 99.8081 100.725 101.147 99.0726 101.147Z" fill="#E9F5F9"/>
<path d="M62.1807 101.147C62.1807 105.389 65.6814 108.828 69.9999 108.828C74.3185 108.828 77.8193 105.389 77.8193 101.147" stroke="#060606" stroke-width="2" stroke-miterlimit="10" stroke-linecap="round" stroke-linejoin="round"/>
<path d="M42.5029 95.1641C43.9287 84.505 46.7946 63.0705 47.1701 60.1691C48.61 49.0427 58.2825 40.4408 70.0004 40.4408C72.0231 40.4408 73.985 40.6969 75.8539 41.1783" stroke="#060606" stroke-width="2" stroke-miterlimit="10" stroke-linecap="round" stroke-linejoin="round"/>
<path d="M91.0557 53.9044C91.938 55.862 92.5458 57.9659 92.8308 60.1688C93.2066 63.0719 96.0757 84.5317 97.5007 95.1836" stroke="#060606" stroke-width="2" stroke-miterlimit="10" stroke-linecap="round" stroke-linejoin="round"/>
<path d="M70.0008 47.7442C62.1752 47.7442 55.5314 53.4817 54.5469 61.0898" stroke="#060606" stroke-width="2" stroke-miterlimit="10" stroke-linecap="round" stroke-linejoin="round"/>
<path d="M98.9807 39.7031C99.2564 40.6875 99.4038 41.724 99.4038 42.7942C99.4038 49.2132 94.1063 54.417 87.5714 54.417C81.0368 54.417 75.7393 49.2132 75.7393 42.7942C75.7393 36.3751 81.0368 31.1714 87.5714 31.1714C90.8389 31.1714 93.7969 32.4725 95.9382 34.5757" stroke="#060606" stroke-width="2" stroke-miterlimit="10" stroke-linecap="round" stroke-linejoin="round"/>
<path d="M45.8976 101.147H40.9281C39.2759 101.147 37.9365 99.8081 37.9365 98.1559C37.9365 96.5036 39.2759 95.1642 40.9281 95.1642H99.0726C100.725 95.1642 102.064 96.5036 102.064 98.1559C102.064 99.8081 100.725 101.147 99.0726 101.147H53.609" stroke="#060606" stroke-width="2" stroke-miterlimit="10" stroke-linecap="round" stroke-linejoin="round"/>
</g>
</svg>
