<svg width="72" height="71" viewBox="0 0 72 71" fill="none" xmlns="http://www.w3.org/2000/svg">
<g filter="url(#filter0_d_1637_1284)">
<rect x="8" y="4" width="56" height="55" rx="8" fill="white"/>
</g>
<path d="M29.0312 44.3438L31.9335 38.5398C32.1788 38.0489 32.556 37.6361 33.0229 37.3475C33.4897 37.059 34.0276 36.9062 34.5764 36.9063C35.3601 36.9063 36.1117 37.2176 36.6658 37.7717C37.2199 38.3258 37.5312 39.0774 37.5312 39.8611V44.3438H29.0312Z" fill="#006FDB"/>
<path d="M34.875 40.625C35.4618 40.625 35.9375 40.1493 35.9375 39.5625C35.9375 38.9757 35.4618 38.5 34.875 38.5C34.2882 38.5 33.8125 38.9757 33.8125 39.5625C33.8125 40.1493 34.2882 40.625 34.875 40.625Z" fill="black"/>
<path d="M33.1379 28.9375C33.2549 29.1401 33.3017 29.3756 33.2712 29.6076C33.2406 29.8395 33.1343 30.0549 32.9689 30.2202C32.8034 30.3856 32.588 30.4918 32.3561 30.5222C32.1241 30.5527 31.8886 30.5057 31.6861 30.3886C31.4835 30.2716 31.3253 30.0909 31.2359 29.8747C31.1465 29.6585 31.131 29.4189 31.1917 29.193C31.2524 28.967 31.386 28.7675 31.5717 28.6252C31.7574 28.483 31.9849 28.406 32.2189 28.4063C32.4052 28.4062 32.5883 28.4552 32.7497 28.5485C32.9111 28.6418 33.045 28.776 33.1379 28.9375Z" fill="black"/>
<path d="M32.75 23.0938C33.1271 23.0932 33.4922 23.2266 33.78 23.4702C34.0679 23.7138 34.2599 24.0517 34.3218 24.4237C34.3837 24.7957 34.3114 25.1776 34.1179 25.5012C33.9245 25.8249 33.6223 26.0693 33.2653 26.1909C33.1002 26.251 32.9258 26.2815 32.75 26.2813C32.3273 26.2813 31.922 26.1133 31.6231 25.8145C31.3242 25.5156 31.1563 25.1102 31.1563 24.6875C31.1551 24.516 31.182 24.3456 31.236 24.1828C31.3578 23.8207 31.6045 23.5137 31.9319 23.3169C32.1803 23.1721 32.4625 23.0951 32.75 23.0938Z" fill="black"/>
<path d="M44.4375 37.9688L44.9688 39.5625L40.1875 41.6875L39.6562 40.0938L44.4375 37.9688Z" fill="#EDF4FA"/>
<path d="M33.2653 26.1909L34.5403 28.9375H33.1378C33.0206 28.7355 32.8401 28.5777 32.6243 28.4886C32.4084 28.3994 32.1692 28.3839 31.9436 28.4444C31.718 28.5048 31.5187 28.638 31.3763 28.8231C31.234 29.0083 31.1567 29.2352 31.1562 29.4688L30.4922 29.9681C30.0385 30.3082 29.6703 30.7494 29.4167 31.2565C29.1631 31.7637 29.0311 32.323 29.0312 32.89C29.0296 33.1109 29.0492 33.3315 29.0897 33.5487C29.2863 34.5847 30.0353 37.5331 32.2188 37.9688L32.2666 38.0166C32.138 38.1785 32.0258 38.3529 31.9319 38.5372L30.625 41.1562C30.625 41.1562 25.3125 38.5 25.3125 31.0625C25.3125 26.8125 28.5 24.1562 28.5 24.1562H31.1562L31.2359 24.1828C31.182 24.3456 31.1551 24.516 31.1562 24.6875C31.1562 25.1102 31.3242 25.5156 31.623 25.8145C31.9219 26.1133 32.3273 26.2812 32.75 26.2812C32.9257 26.2815 33.1002 26.251 33.2653 26.1909Z" fill="#EDF4FA"/>
<path d="M44.2568 34.9299C44.3129 35.0491 44.3198 35.1856 44.276 35.3099C44.2323 35.4341 44.1414 35.5362 44.023 35.594L41.3668 36.8583C41.3087 36.8862 41.2456 36.9021 41.1813 36.9051C41.1169 36.9081 41.0526 36.8982 40.9922 36.8759C40.9317 36.8536 40.8764 36.8194 40.8294 36.7753C40.7824 36.7312 40.7448 36.6782 40.7187 36.6193L40.3574 35.833L43.9168 34.1755L44.2568 34.9299Z" fill="#A8B7D4"/>
<path d="M43.9165 34.1755L40.3571 35.833L38.0621 36.9061L37.3662 35.2008L45.3987 31.583L46.0309 33.1874L43.9165 34.1755Z" fill="#006FDB"/>
<path d="M32.7659 13.5312L34.5934 17.4731L31.6556 18.8544L29.8281 14.9125L32.7659 13.5312Z" fill="#393D48"/>
<path d="M39.1566 27.333L40.9841 31.2749L38.0463 32.6561L36.2188 28.7143L39.1566 27.333Z" fill="#393D48"/>
<path d="M48.6875 46.4688H27.4375C27.4385 45.9053 27.6619 45.365 28.0591 44.9653C28.3334 44.6953 28.6743 44.5029 29.0472 44.4075C29.2156 44.3648 29.3887 44.3433 29.5625 44.3438H46.5625C47.1261 44.3438 47.6666 44.5676 48.0651 44.9662C48.4636 45.3647 48.6875 45.9052 48.6875 46.4688Z" fill="#393D48"/>
<path d="M33.2648 26.191C33.6218 26.0694 33.924 25.8249 34.1174 25.5013C34.3109 25.1776 34.3832 24.7957 34.3213 24.4237C34.2594 24.0518 34.0674 23.7138 33.7795 23.4703C33.4917 23.2267 33.1266 23.0933 32.7495 23.0938C32.462 23.0951 32.1798 23.1721 31.9314 23.3169L30.1836 19.545L31.6552 18.8544L34.593 17.4732L36.0592 16.7878L40.628 26.6425L39.1564 27.3332L36.2186 28.7144L34.7523 29.3997L34.5398 28.9375L33.2648 26.191Z" fill="#006FDB"/>
<path d="M33.1952 17.3626C32.9362 17.4736 32.6438 17.4772 32.3821 17.3726C32.1205 17.268 31.9112 17.0637 31.8001 16.8048L30.7945 14.4583L29.8281 14.9125L31.6556 18.8543L34.5934 17.4731L34.3188 16.8813L33.1952 17.3626Z" fill="black"/>
<path d="M38.4272 29.0208L39.6559 28.4061L39.1566 27.333L36.2188 28.7143L38.0463 32.6561L38.7544 32.323L37.9257 30.3893C37.819 30.1402 37.8116 29.8599 37.9048 29.6055C37.998 29.3511 38.1849 29.142 38.4272 29.0208Z" fill="black"/>
<path d="M38.8016 26.0422C38.0386 26.389 37.1697 26.4214 36.383 26.1322C35.5963 25.8431 34.9552 25.2557 34.5984 24.4973L31.889 18.7439L31.6542 18.8544L30.1826 19.545L31.9304 23.3169C32.1793 23.1718 32.4621 23.0949 32.7501 23.0938C33.1272 23.0932 33.4923 23.2267 33.7801 23.4703C34.068 23.7138 34.26 24.0517 34.3219 24.4237C34.3838 24.7957 34.3115 25.1776 34.1181 25.5013C33.9246 25.8249 33.6224 26.0694 33.2655 26.191L34.5405 28.9375L34.753 29.3997L36.2192 28.7144L39.157 27.3331L40.6286 26.6425L40.0814 25.4605L38.8016 26.0422Z" fill="#004080"/>
<path d="M36.4687 20.9687C36.3695 20.9693 36.2722 20.942 36.1877 20.8901C36.1032 20.8382 36.0349 20.7637 35.9906 20.6749L34.9281 18.5499C34.8651 18.4238 34.8548 18.2779 34.8994 18.1442C34.9441 18.0105 35.04 17.9 35.1661 17.837C35.2922 17.774 35.4381 17.7637 35.5718 17.8084C35.7055 17.853 35.816 17.9489 35.879 18.075L36.9415 20.2C36.9819 20.2808 37.001 20.3706 36.997 20.4609C36.9931 20.5511 36.9661 20.6389 36.9188 20.7158C36.8715 20.7928 36.8053 20.8564 36.7265 20.9006C36.6478 20.9449 36.559 20.9683 36.4687 20.9687Z" fill="#02B9F2"/>
<path d="M39.5852 35.1153C39.4607 35.1688 39.3203 35.1726 39.193 35.126C39.0657 35.0794 38.9611 34.9858 38.9005 34.8646L38.756 34.575L37.3662 35.2008L38.0621 36.9061L40.3571 35.833L43.9165 34.1755L46.0309 33.1874L45.7148 32.3857L39.5852 35.1153Z" fill="#004080"/>
<path d="M42.2662 35.3921L44.098 34.5777L43.9168 34.1755L40.3574 35.833L40.7187 36.6193C40.7448 36.6782 40.7824 36.7312 40.8294 36.7753C40.8764 36.8194 40.9317 36.8536 40.9922 36.8759C41.0526 36.8982 41.1169 36.9081 41.1813 36.9051C41.2456 36.9021 41.3087 36.8862 41.3668 36.8583L41.6956 36.7016C41.6101 36.4515 41.6212 36.1785 41.7268 35.9362C41.8324 35.6938 42.0248 35.4998 42.2662 35.3921Z" fill="#8698BA"/>
<path d="M41.785 40.3876C41.7172 40.4177 41.6439 40.4333 41.5697 40.4333C41.4955 40.4333 41.4222 40.4178 41.3544 40.3878C41.2866 40.3578 41.2258 40.3139 41.176 40.2589C41.1262 40.204 41.0884 40.1393 41.0651 40.0689L40.8903 39.5445L39.6562 40.0938L40.1875 41.6876L44.9688 39.5626L44.7972 39.0483L41.785 40.3876Z" fill="#C1CFE8"/>
<path d="M32.75 25.75C33.3368 25.75 33.8125 25.2743 33.8125 24.6875C33.8125 24.1007 33.3368 23.625 32.75 23.625C32.1632 23.625 31.6875 24.1007 31.6875 24.6875C31.6875 25.2743 32.1632 25.75 32.75 25.75Z" fill="#8394B2"/>
<path d="M32.2188 30C32.5122 30 32.75 29.7622 32.75 29.4688C32.75 29.1753 32.5122 28.9375 32.2188 28.9375C31.9253 28.9375 31.6875 29.1753 31.6875 29.4688C31.6875 29.7622 31.9253 30 32.2188 30Z" fill="#8394B2"/>
<path d="M34.875 40.0938C35.1684 40.0938 35.4062 39.8559 35.4062 39.5625C35.4062 39.2691 35.1684 39.0312 34.875 39.0312C34.5816 39.0312 34.3438 39.2691 34.3438 39.5625C34.3438 39.8559 34.5816 40.0938 34.875 40.0938Z" fill="#8394B2"/>
<path d="M36.3513 43.2812H34.5812C32.8972 43.2812 31.755 41.7406 32.4031 40.3392L33.5378 37.8869C33.6674 37.6257 33.86 37.401 34.0983 37.233C34.3366 37.065 34.6131 36.9591 34.9026 36.9248C34.7943 36.9127 34.6854 36.9065 34.5764 36.9063C34.0276 36.9062 33.4897 37.059 33.0229 37.3475C32.556 37.6361 32.1788 38.0489 31.9335 38.5398L29.0312 44.3438H37.5312V42.2188C37.5149 42.5158 37.3816 42.7944 37.1605 42.9935C36.9394 43.1926 36.6485 43.296 36.3513 43.2812Z" fill="#004080"/>
<path d="M47.9921 44.9058C47.8973 45.0587 47.765 45.1849 47.6078 45.2725C47.4506 45.3601 47.2737 45.4061 47.0938 45.4063H31.1562C31.0154 45.4063 30.8802 45.3503 30.7806 45.2507C30.681 45.151 30.625 45.0159 30.625 44.875C30.625 44.7341 30.681 44.599 30.7806 44.4994C30.8802 44.3997 31.0154 44.3438 31.1562 44.3438H29.5625C29.3887 44.3433 29.2156 44.3648 29.0472 44.4075C28.6743 44.5029 28.3334 44.6953 28.0591 44.9653C27.6619 45.365 27.4385 45.9053 27.4375 46.4688H48.6875C48.687 46.1741 48.6249 45.8829 48.5051 45.6137C48.3854 45.3445 48.2106 45.1034 47.9921 44.9058Z" fill="black"/>
<path d="M33.2656 26.1909C33.1004 26.251 32.926 26.2815 32.7503 26.2812C32.3276 26.2812 31.9222 26.1133 31.6233 25.8145C31.3244 25.5156 31.1565 25.1102 31.1565 24.6875C31.1553 24.516 31.1823 24.3456 31.2362 24.1828L31.1565 24.1562H28.5003L29.6626 26.4815C29.7713 26.7045 29.7989 26.9583 29.7408 27.1994C29.6826 27.4405 29.5423 27.6539 29.3439 27.8028C28.5598 28.4132 27.4378 29.7078 27.4378 32.125C27.4234 34.0178 28.0064 35.867 29.1038 37.4093C29.231 37.5876 29.3007 37.8005 29.3033 38.0195C29.306 38.2385 29.2415 38.4531 29.1186 38.6344L28.5295 39.5189C29.1414 40.1674 29.848 40.7195 30.6253 41.1562L31.9321 38.5372C32.0261 38.3529 32.1382 38.1785 32.2668 38.0166L32.219 37.9688C30.0356 37.5331 29.2865 34.5847 29.0899 33.5487C29.0494 33.3315 29.0299 33.1109 29.0315 32.89C29.0314 32.323 29.1633 31.7637 29.4169 31.2565C29.6705 30.7494 30.0387 30.3082 30.4924 29.9681L31.1565 29.4688C31.1569 29.2352 31.2343 29.0083 31.3766 28.8231C31.5189 28.638 31.7183 28.5048 31.9439 28.4444C32.1695 28.3839 32.4087 28.3994 32.6245 28.4886C32.8404 28.5777 33.0209 28.7355 33.1381 28.9375H34.5406L33.2656 26.1909Z" fill="#C1CFE8"/>
<path d="M46.5163 31.0828C46.4583 30.9545 46.3518 30.8544 46.2201 30.8046C46.0884 30.7548 45.9423 30.7593 45.814 30.8171L35.7202 35.3615C35.6271 35.4032 35.5479 35.4709 35.4923 35.5564C35.4366 35.642 35.4067 35.7418 35.4062 35.8438V37.0264C35.7843 37.1369 36.1366 37.3219 36.4422 37.5704C36.4568 37.5275 36.4657 37.4828 36.4688 37.4376V36.187L46.2485 31.7851C46.3122 31.7566 46.3697 31.7158 46.4177 31.665C46.4656 31.6143 46.5031 31.5546 46.5279 31.4894C46.5528 31.4242 46.5646 31.3547 46.5626 31.2849C46.5606 31.2152 46.5448 31.1465 46.5163 31.0828Z" fill="#C1CFE8"/>
<path d="M44.6532 38.4544C44.717 38.426 44.7745 38.3854 44.8226 38.3349C44.8707 38.2843 44.9083 38.2248 44.9334 38.1596C44.9584 38.0945 44.9704 38.0251 44.9686 37.9554C44.9669 37.8856 44.9514 37.8169 44.9231 37.7531C44.8947 37.6894 44.8541 37.6318 44.8036 37.5837C44.753 37.5357 44.6934 37.498 44.6283 37.473C44.5632 37.4479 44.4938 37.4359 44.424 37.4377C44.3543 37.4394 44.2856 37.4549 44.2218 37.4832L37.5312 40.4567V41.6196L44.6532 38.4544Z" fill="#8394B2"/>
<defs>
<filter id="filter0_d_1637_1284" x="0" y="0" width="72" height="71" filterUnits="userSpaceOnUse" color-interpolation-filters="sRGB">
<feFlood flood-opacity="0" result="BackgroundImageFix"/>
<feColorMatrix in="SourceAlpha" type="matrix" values="0 0 0 0 0 0 0 0 0 0 0 0 0 0 0 0 0 0 127 0" result="hardAlpha"/>
<feOffset dy="4"/>
<feGaussianBlur stdDeviation="4"/>
<feComposite in2="hardAlpha" operator="out"/>
<feColorMatrix type="matrix" values="0 0 0 0 0 0 0 0 0 0 0 0 0 0 0 0 0 0 0.12 0"/>
<feBlend mode="normal" in2="BackgroundImageFix" result="effect1_dropShadow_1637_1284"/>
<feBlend mode="normal" in="SourceGraphic" in2="effect1_dropShadow_1637_1284" result="shape"/>
</filter>
</defs>
</svg>
