<svg width="140" height="140" viewBox="0 0 140 140" fill="none" xmlns="http://www.w3.org/2000/svg">
<circle cx="70" cy="70" r="70" fill="#E9F5F9"/>
<g clip-path="url(#clip0_1748_3498)">
<path d="M88.682 102.728C87.1006 103.04 85.4656 103.206 83.7923 103.206C74.0003 103.206 65.524 97.5859 61.4111 89.398C59.7121 86.0209 58.7568 82.2066 58.7568 78.1704C58.7568 64.3446 69.964 53.1348 83.7925 53.1348C84.6356 53.1348 85.4684 53.1757 86.2884 53.2599C98.9415 54.5091 108.828 65.1876 108.828 78.1704C108.828 86.1741 105.073 93.3016 99.2253 97.8846C100.009 100.076 101.205 102.23 103.019 103.972C107.505 108.28 97.9375 107.922 88.682 102.728Z" fill="#E9F5F9"/>
<path d="M86.8631 59.1843C86.8631 74.3435 75.8628 86.9277 61.4111 89.398C59.7121 86.0209 58.7568 82.2066 58.7568 78.1704C58.7568 64.3446 69.964 53.1348 83.7925 53.1348C84.6356 53.1348 85.4684 53.1757 86.2884 53.2599C86.6664 55.176 86.8631 57.1584 86.8631 59.1843Z" fill="#E9F5F9"/>
<path d="M70.7845 80.0368C72.1131 80.0368 73.1902 78.9598 73.1902 77.6312C73.1902 76.3026 72.1131 75.2256 70.7845 75.2256C69.4559 75.2256 68.3789 76.3026 68.3789 77.6312C68.3789 78.9598 69.4559 80.0368 70.7845 80.0368Z" fill="#1D718B"/>
<path d="M83.7923 80.0368C85.1209 80.0368 86.198 78.9598 86.198 77.6312C86.198 76.3026 85.1209 75.2256 83.7923 75.2256C82.4638 75.2256 81.3867 76.3026 81.3867 77.6312C81.3867 78.9598 82.4638 80.0368 83.7923 80.0368Z" fill="#1D718B"/>
<path d="M96.8002 80.0368C98.1287 80.0368 99.2058 78.9598 99.2058 77.6312C99.2058 76.3026 98.1287 75.2256 96.8002 75.2256C95.4716 75.2256 94.3945 76.3026 94.3945 77.6312C94.3945 78.9598 95.4716 80.0368 96.8002 80.0368Z" fill="#1D718B"/>
<path d="M56.2075 34.0645C42.3806 34.0645 31.1719 45.2734 31.1719 59.1001C31.1719 67.104 34.928 74.2304 40.7736 78.8134C39.9912 81.0054 38.7959 83.1601 36.9812 84.9021C32.4961 89.2079 42.0617 88.8515 51.3173 83.6568C52.8991 83.9701 54.5339 84.1357 56.2075 84.1357C70.0342 84.1357 81.2431 72.927 81.2431 59.1001C81.2431 45.2732 70.0342 34.0645 56.2075 34.0645Z" fill="#E9F5F9"/>
<path d="M48.4362 78.8143C47.6545 81.0062 46.4589 83.1598 44.6452 84.9021C43.7255 85.786 43.3959 86.4732 43.5339 86.9612C37.6939 88.6651 33.7981 87.9574 36.9812 84.9021C38.795 83.1598 39.9906 81.0063 40.7723 78.8143C34.9272 74.2313 31.1719 67.1038 31.1719 59.1001C31.1719 45.2743 42.3817 34.0645 56.2075 34.0645C57.5103 34.0645 58.7903 34.1641 60.0395 34.3557C48.0325 36.2002 38.8358 46.5771 38.8358 59.1001C38.8358 67.1038 42.5911 74.2313 48.4362 78.8143Z" fill="#E9F5F9"/>
<path d="M43.1996 61.1872C44.5282 61.1872 45.6052 60.1102 45.6052 58.7816C45.6052 57.453 44.5282 56.376 43.1996 56.376C41.871 56.376 40.7939 57.453 40.7939 58.7816C40.7939 60.1102 41.871 61.1872 43.1996 61.1872Z" fill="#1D718B"/>
<path d="M56.2074 61.1872C57.536 61.1872 58.613 60.1102 58.613 58.7816C58.613 57.453 57.536 56.376 56.2074 56.376C54.8788 56.376 53.8018 57.453 53.8018 58.7816C53.8018 60.1102 54.8788 61.1872 56.2074 61.1872Z" fill="#1D718B"/>
<path d="M69.2132 61.1872C70.5418 61.1872 71.6189 60.1102 71.6189 58.7816C71.6189 57.453 70.5418 56.376 69.2132 56.376C67.8847 56.376 66.8076 57.453 66.8076 58.7816C66.8076 60.1102 67.8847 61.1872 69.2132 61.1872Z" fill="#1D718B"/>
<path d="M80.2148 77.6312C80.2148 79.6039 81.8197 81.2087 83.7923 81.2087C85.765 81.2087 87.3698 79.6039 87.3698 77.6312C87.3698 75.6586 85.765 74.0537 83.7923 74.0537C81.8197 74.0537 80.2148 75.6586 80.2148 77.6312ZM85.0261 77.6312C85.0261 78.3115 84.4727 78.865 83.7923 78.865C83.112 78.865 82.5586 78.3115 82.5586 77.6312C82.5586 76.9509 83.112 76.3975 83.7923 76.3975C84.4727 76.3975 85.0261 76.9509 85.0261 77.6312Z" fill="black"/>
<path d="M96.8002 74.0537C94.8275 74.0537 93.2227 75.6586 93.2227 77.6312C93.2227 79.6039 94.8275 81.2087 96.8002 81.2087C98.7728 81.2087 100.378 79.6039 100.378 77.6312C100.378 75.6586 98.7728 74.0537 96.8002 74.0537ZM96.8002 78.865C96.1198 78.865 95.5664 78.3115 95.5664 77.6312C95.5664 76.9509 96.1198 76.3975 96.8002 76.3975C97.4805 76.3975 98.0339 76.9509 98.0339 77.6312C98.0339 78.3115 97.4805 78.865 96.8002 78.865Z" fill="black"/>
<path d="M103.83 103.128C102.498 101.85 101.422 100.215 100.624 98.2605C106.594 93.2609 110 85.9883 110 78.1722C110 71.3181 107.372 64.8359 102.599 59.92C102.148 59.4556 101.406 59.4445 100.942 59.8955C100.477 60.3464 100.466 61.0883 100.917 61.5525C105.263 66.0287 107.656 71.9311 107.656 78.1722C107.656 85.5533 104.32 92.402 98.5034 96.9625C98.1069 97.2734 97.9534 97.8033 98.1226 98.2781C99.0647 100.922 100.439 103.122 102.207 104.819C102.61 105.206 102.807 105.477 102.902 105.64C102.363 105.808 100.906 105.892 98.4231 105.331C95.497 104.669 92.2415 103.382 89.2564 101.706C89.013 101.57 88.7292 101.524 88.4558 101.579C86.9234 101.881 85.3544 102.035 83.792 102.035C73.0872 102.035 63.8434 95.0461 60.8864 84.8889C73.1125 82.6764 82.4148 71.9545 82.4148 59.1003C82.4148 57.5009 82.2681 55.922 81.9872 54.3784C82.5892 54.3334 83.1926 54.308 83.7922 54.308C88.9106 54.308 93.7891 55.9037 97.9001 58.9228C98.1092 59.0762 98.3522 59.1503 98.593 59.1503C98.9533 59.1503 99.3087 58.9847 99.5384 58.672C99.9215 58.1503 99.8092 57.4169 99.2876 57.0339C94.7715 53.7173 89.4133 51.9644 83.7923 51.9644C83.0173 51.9644 82.2364 52.0012 81.459 52.0698C80.0381 46.9498 77.0767 42.3395 72.8694 38.8703C72.3703 38.4586 71.6315 38.5295 71.2195 39.029C70.8078 39.5284 70.8789 40.267 71.3783 40.6787C76.9028 45.2337 80.0714 51.9483 80.0714 59.1005C80.0714 72.2589 69.3661 82.9642 56.2076 82.9642C54.6436 82.9642 53.0748 82.8106 51.5451 82.5076C51.2715 82.4533 50.9872 82.4986 50.7439 82.6351C47.7586 84.3108 44.5028 85.598 41.5767 86.2595C39.0936 86.8209 37.6367 86.7372 37.098 86.5686C37.193 86.4053 37.3898 86.1348 37.793 85.7478C39.5597 84.0517 40.9339 81.8512 41.8773 79.2076C42.0469 78.7326 41.8936 78.2026 41.4967 77.8915C39.5675 76.3792 37.8878 74.5878 36.5042 72.5672C36.1383 72.0333 35.4089 71.8967 34.8751 72.2625C34.3411 72.6281 34.2047 73.3575 34.5703 73.8915C35.9258 75.8706 37.5398 77.6495 39.3761 79.189C38.5775 81.1442 37.5011 82.7792 36.1697 84.0572C34.2508 85.8994 34.5044 87.1711 35.055 87.9134C35.6336 88.6936 36.81 89.0367 38.3484 89.0365C41.8101 89.0362 47.1017 87.2973 51.515 84.8873C53.059 85.1665 54.6356 85.308 56.2075 85.308C56.9934 85.308 57.7708 85.2711 58.5394 85.203C60.0026 90.4555 63.1239 95.192 67.4076 98.627C72.0328 102.336 77.8515 104.378 83.7922 104.378C85.3625 104.378 86.939 104.237 88.485 103.958C92.8992 106.369 98.1897 108.108 101.652 108.108C103.189 108.108 104.366 107.764 104.945 106.985C105.495 106.242 105.749 104.971 103.83 103.128Z" fill="black"/>
<path d="M34.588 69.2171C33.0988 66.0405 32.3438 62.6368 32.3438 59.1001C32.3438 45.9416 43.0491 35.2363 56.2075 35.2363C60.3225 35.2363 64.3789 36.3004 67.9381 38.3135C68.5016 38.6323 69.2164 38.4338 69.5352 37.8704C69.8537 37.3071 69.6555 36.5921 69.092 36.2734C65.1816 34.0616 60.7261 32.8926 56.2075 32.8926C41.7566 32.8926 30 44.6493 30 59.1001C30 62.9832 30.8297 66.7218 32.4658 70.212C32.6652 70.6371 33.0872 70.8866 33.5277 70.8866C33.6942 70.8866 33.8634 70.8509 34.0244 70.7755C34.6103 70.5009 34.8627 69.8032 34.588 69.2171Z" fill="black"/>
<path d="M39.6221 58.7806C39.6221 60.7533 41.2269 62.3581 43.1996 62.3581C45.1722 62.3581 46.7771 60.7533 46.7771 58.7806C46.7771 56.808 45.1722 55.2031 43.1996 55.2031C41.2269 55.2031 39.6221 56.808 39.6221 58.7806ZM44.4333 58.7806C44.4333 59.4609 43.8799 60.0144 43.1996 60.0144C42.5193 60.0144 41.9658 59.4609 41.9658 58.7806C41.9658 58.1003 42.5193 57.5469 43.1996 57.5469C43.8799 57.5469 44.4333 58.1003 44.4333 58.7806Z" fill="black"/>
<path d="M52.6299 58.7806C52.6299 60.7533 54.2347 62.3581 56.2074 62.3581C58.18 62.3581 59.7849 60.7533 59.7849 58.7806C59.7849 56.808 58.18 55.2031 56.2074 55.2031C54.2347 55.2031 52.6299 56.808 52.6299 58.7806ZM57.4411 58.7806C57.4411 59.4609 56.8877 60.0144 56.2074 60.0144C55.5271 60.0144 54.9736 59.4609 54.9736 58.7806C54.9736 58.1003 55.5271 57.5469 56.2074 57.5469C56.8877 57.5469 57.4411 58.1003 57.4411 58.7806Z" fill="black"/>
<path d="M65.6377 58.7806C65.6377 60.7533 67.2425 62.3581 69.2152 62.3581C71.1879 62.3581 72.7927 60.7533 72.7927 58.7806C72.7927 56.808 71.1879 55.2031 69.2152 55.2031C67.2425 55.2031 65.6377 56.808 65.6377 58.7806ZM70.4489 58.7806C70.4489 59.4609 69.8955 60.0144 69.2152 60.0144C68.5349 60.0144 67.9814 59.4609 67.9814 58.7806C67.9814 58.1003 68.5349 57.5469 69.2152 57.5469C69.8955 57.5469 70.4489 58.1003 70.4489 58.7806Z" fill="black"/>
</g>
<defs>
<clipPath id="clip0_1748_3498">
<rect width="80" height="80" fill="white" transform="translate(30 30.5)"/>
</clipPath>
</defs>
</svg>
