<svg width="22" height="22" viewBox="0 0 22 22" fill="none" xmlns="http://www.w3.org/2000/svg">
<path d="M9.83158 13.7501H12.1691L11.5962 10.4272C11.9017 10.2897 12.1462 10.0873 12.3295 9.81992C12.5128 9.55256 12.6045 9.25846 12.6045 8.93763C12.6045 8.49457 12.4479 8.11645 12.1347 7.80326C11.8215 7.49006 11.4434 7.33346 11.0003 7.33346C10.5573 7.33346 10.1791 7.49006 9.86595 7.80326C9.55276 8.11645 9.39616 8.49457 9.39616 8.93763C9.39616 9.25846 9.48783 9.55256 9.67116 9.81992C9.85449 10.0873 10.0989 10.2897 10.4045 10.4272L9.83158 13.7501ZM11.0003 20.1439C8.86144 19.6092 7.10449 18.3678 5.72949 16.4199C4.35449 14.472 3.66699 12.3369 3.66699 10.0147V4.56055L11.0003 1.81055L18.3337 4.56055V10.0147C18.3337 12.3369 17.6462 14.472 16.2712 16.4199C14.8962 18.3678 13.1392 19.6092 11.0003 20.1439ZM11.0003 18.723C12.7573 18.1425 14.1896 17.0463 15.2972 15.4345C16.4048 13.8227 16.9587 12.0161 16.9587 10.0147V5.52305L11.0003 3.27721L5.04199 5.52305V10.0147C5.04199 12.0161 5.59581 13.8227 6.70345 15.4345C7.81109 17.0463 9.24338 18.1425 11.0003 18.723Z" fill="black"/>
</svg>
