<svg width="67" height="80" viewBox="0 0 67 80" fill="none" xmlns="http://www.w3.org/2000/svg">
<path d="M0.00786063 63.2211C0.00786063 65.0779 -0.012543 66.8076 0.0123948 68.5374C0.0962765 74.1779 3.5717 78.5964 8.87892 79.7436C9.82882 79.9476 10.8286 79.9861 11.8034 79.9884C26.1586 80.0043 40.5114 79.9997 54.8665 79.9975C61.6247 79.9975 66.4218 75.2729 66.5215 68.5102C66.5465 66.8144 66.5261 65.1187 66.5261 63.2211C66.5329 63.2211 66.4807 59.757 66.4807 59.757C66.4807 59.757 66.4807 58.662 66.4807 58.1814C66.4649 52.4389 66.5669 46.6941 66.3991 40.9539C66.254 35.9981 63.6197 32.6542 59.0175 30.8473C58.843 30.7793 58.6797 30.6818 58.4439 30.5662C58.4439 28.8228 58.4439 27.05 58.4439 25.2771C58.4394 12.9442 49.616 2.45674 37.4758 0.359701C24.1273 -1.94818 10.9646 7.09744 8.6046 20.3825C8.08091 23.3252 8.21013 26.3902 8.11492 29.4009C8.08771 30.2397 7.93128 30.6546 7.05846 31.0332C2.53565 32.9942 0.186959 36.5082 0.0645375 41.4504C0.0123948 43.527 0.0350655 45.606 0.0622704 47.6849C0.080407 49.0927 0.665312 49.7615 1.76711 49.7547C2.87798 49.7479 3.43568 49.0723 3.45608 47.6758C3.49009 45.2976 3.40394 42.9104 3.56036 40.539C3.81428 36.6692 7.16048 33.6335 11.0462 33.6313C25.857 33.6222 40.6678 33.6222 55.4809 33.6313C59.4301 33.6335 62.7673 36.6964 62.9826 40.6524C63.1368 43.4772 63.0665 46.3155 63.071 49.1494C63.0801 55.5357 63.0869 61.9198 63.0688 68.3062C63.0574 72.4458 60.8357 75.4588 57.1404 76.3475C56.4535 76.513 55.7212 76.5334 55.0071 76.5356C40.5363 76.5447 26.0656 76.5447 11.5926 76.5424C6.72293 76.5424 3.52182 73.398 3.46741 68.4943C3.42207 64.3388 3.45835 60.181 3.45608 56.0254C3.45608 55.7239 3.46515 55.4201 3.45155 55.1186C3.40167 53.9442 2.77822 53.2006 1.82379 53.1689C0.846678 53.1349 0.0940094 53.9216 0.0645375 55.1118C0.0259972 56.6126 0.0554692 58.1179 0.0554692 59.6777" fill="black"/>
<path d="M45.7551 30.1919H20.9329C19.8832 22.6244 21.6878 15.0592 30.9692 12.9168C38.0652 11.2777 45.4558 17.061 45.7437 24.3542C45.8185 26.2653 45.7551 28.1833 45.7551 30.1919Z" fill="black"/>
<path d="M49.194 30.165C49.194 28.4896 49.2099 26.8755 49.1918 25.2613C49.0829 16.1227 41.9983 9.19457 32.9006 9.32379C24.5464 9.44168 17.6681 16.1613 17.3779 24.5268C17.3144 26.3699 17.3689 28.2153 17.3689 30.1446H11.6173C10.9621 23.2618 11.8327 16.7575 16.5368 11.2803C21.445 5.56725 27.7203 3.00773 35.2175 3.50875C44.3788 4.12313 52.8871 11.5433 54.5126 20.5707C55.0748 23.688 55.0159 26.9186 55.2471 30.1673H49.194V30.165Z" fill="black"/>
<path d="M55.2471 30.165C53.0571 30.165 51.1913 30.165 49.1918 30.165C49.1918 28.4896 49.2076 26.8755 49.1895 25.2613C49.0807 16.1227 41.9961 9.19457 32.8983 9.32379C24.5441 9.44168 17.6658 16.1613 17.3757 24.5268C17.3122 26.3699 17.3666 28.2153 17.3666 30.1446C15.3806 30.1446 13.5171 30.1446 11.6173 30.1446C10.9621 23.2618 11.8327 16.7575 16.5368 11.2803C21.445 5.56725 27.7203 3.00773 35.2175 3.50875C44.3788 4.12313 52.8871 11.5433 54.5126 20.5707C55.0748 23.6857 55.0181 26.9163 55.2471 30.165Z" fill="#E9F5F9"/>
<path d="M45.7551 30.1919C37.3669 30.1919 29.1465 30.1919 20.9329 30.1919C19.8832 22.6244 21.6878 15.0592 30.9692 12.9168C38.0652 11.2777 45.4558 17.061 45.7437 24.3542C45.8185 26.2653 45.7551 28.1833 45.7551 30.1919Z" fill="#E9F5F9"/>
<path d="M32.0325 53.2436C34.2497 49.317 36.3921 45.5129 38.5436 41.7155C40.2325 38.7366 43.284 37.3106 46.4556 37.9998C49.4958 38.6595 51.8377 41.3097 51.951 44.6332C51.9941 45.9187 51.6155 47.3696 50.9921 48.5054C47.1131 55.5673 43.1502 62.5862 39.133 69.5688C36.5667 74.0281 30.6315 74.4861 27.3964 70.4711C24.2497 66.5649 21.1936 62.5862 18.1807 58.5757C15.8275 55.4449 16.5393 51.0241 19.6475 48.714C22.7942 46.3743 27.1039 46.9593 29.5387 50.0583C30.3481 51.0876 31.1529 52.1191 32.0325 53.2436ZM32.8849 69.7433C34.3948 69.7796 35.4649 69.1086 36.1903 67.8775C36.9181 66.6443 37.6073 65.3883 38.31 64.1437C41.5701 58.3694 44.8415 52.602 48.0766 46.8119C49.1603 44.8735 48.4892 42.6722 46.6075 41.6702C44.7145 40.6636 42.6334 41.3891 41.4522 43.477C38.9494 47.9046 36.4647 52.3436 33.9482 56.7643C33.0278 58.383 31.8104 58.4715 30.6655 57.0341C29.4662 55.5288 28.2964 54.0008 27.113 52.4818C25.585 50.5208 23.4698 50.1173 21.6879 51.4458C19.949 52.7426 19.7155 55.0255 21.1891 56.948C24.0819 60.7227 27.0019 64.4747 29.9219 68.2289C30.6791 69.1947 31.6562 69.7774 32.8849 69.7433Z" fill="black"/>
<path d="M32.8854 69.7433C31.6566 69.7773 30.6795 69.1947 29.9223 68.2221C27.0023 64.4678 24.0823 60.7136 21.1895 56.9412C19.7159 55.0187 19.9472 52.7357 21.6883 51.439C23.4725 50.1105 25.5877 50.514 27.1134 52.475C28.2968 53.994 29.4644 55.522 30.6659 57.0273C31.813 58.4646 33.0282 58.3762 33.9486 56.7575C36.4651 52.3367 38.9521 47.9001 41.4526 43.4702C42.6315 41.3822 44.715 40.6568 46.608 41.6633C48.4896 42.6654 49.1607 44.869 48.077 46.8051C44.8419 52.5929 41.5683 58.3603 38.3105 64.1368C37.6077 65.3837 36.9162 66.6397 36.1908 67.8707C35.4653 69.1085 34.3952 69.7796 32.8854 69.7433Z" fill="#1D718B"/>
<path d="M62.9804 40.4144C62.7787 36.4674 59.4257 33.4023 55.4742 33.4001C40.6634 33.391 25.8526 33.391 11.0418 33.4001C7.16056 33.4023 3.8121 36.447 3.56272 40.3146C3.41082 42.686 3.49471 45.071 3.4607 47.4514C3.45616 47.7053 3.43576 47.9343 3.39495 48.1406C3.4675 48.2993 3.50151 48.4716 3.47884 48.6529C3.38135 49.4192 3.51964 50.1809 3.42896 50.9518C3.34054 51.6931 3.34281 52.4752 3.48564 53.212C3.54911 53.5385 3.49924 53.8264 3.37682 54.0667C3.37682 54.0939 3.37455 54.1211 3.37455 54.1483C3.38589 54.2231 3.39042 54.2957 3.38815 54.3705C3.42443 54.5315 3.45163 54.7015 3.45843 54.8874C3.47203 55.1889 3.46297 55.4927 3.46297 55.7942C3.46297 59.9498 3.42896 64.1076 3.47203 68.2631C3.52418 73.1668 6.72528 76.3067 11.5995 76.3067C26.0702 76.309 40.541 76.3112 55.0117 76.2999C55.7235 76.2999 56.4581 76.2772 57.1427 76.1117C60.8403 75.2208 63.053 72.2124 63.0643 68.0682C63.0825 61.8722 63.0757 55.6763 63.0666 49.4782C63.0621 46.4561 63.1346 43.4273 62.9804 40.4144ZM50.9763 48.3015C47.1132 55.3317 43.1572 62.3098 39.1739 69.272C36.5849 73.7948 30.6338 74.2754 27.3715 70.2083C24.2566 66.327 21.2232 62.3733 18.2284 58.3991C15.8525 55.2456 16.5032 50.8724 19.5909 48.5283C22.7603 46.1206 27.0904 46.6965 29.5638 49.8522C30.3527 50.8588 31.1394 51.8677 32.0304 53.0103C34.268 49.0497 36.4103 45.2433 38.5641 41.4459C40.2462 38.4806 43.3294 37.0614 46.4943 37.7755C49.5412 38.4624 51.8763 41.1308 51.9579 44.4362C51.9919 45.7216 51.602 47.1657 50.9763 48.3015Z" fill="#E9F5F9"/>
</svg>
