<svg width="36" height="51" viewBox="0 0 36 51" fill="none" xmlns="http://www.w3.org/2000/svg">
<path d="M31.45 5.95001H27.2V5.0881C27.2 4.15733 26.4375 3.40004 25.5 3.40004H22.95V2.53813C22.95 1.13898 21.8058 0 20.4 0H15.3C13.894 0 12.75 1.13898 12.75 2.53813V3.40004H10.2C9.26245 3.40004 8.49999 4.15743 8.49999 5.0881V5.95001H4.24999C1.90651 5.95001 0 7.85652 0 10.2V46.7501C0 49.0936 1.90651 51.0001 4.24999 51.0001H31.4501C33.7936 51.0001 35.7001 49.0936 35.7001 46.7501V10.2C35.7001 7.85662 33.7935 5.95001 31.45 5.95001ZM8.49989 43.3502C7.56061 43.3502 6.79987 42.5895 6.79987 41.6502C6.79987 40.7109 7.56061 39.9502 8.49989 39.9502C9.43916 39.9502 10.1999 40.7109 10.1999 41.6502C10.1999 42.5894 9.43916 43.3502 8.49989 43.3502ZM8.49989 35.7002C7.56061 35.7002 6.79987 34.9394 6.79987 34.0002C6.79987 33.0609 7.56061 32.3001 8.49989 32.3001C9.43916 32.3001 10.1999 33.0609 10.1999 34.0002C10.1999 34.9393 9.43916 35.7002 8.49989 35.7002ZM8.49989 28.0501C7.56061 28.0501 6.79987 27.2894 6.79987 26.3501C6.79987 25.4108 7.56061 24.6501 8.49989 24.6501C9.43916 24.6501 10.1999 25.4108 10.1999 26.3501C10.1999 27.2893 9.43916 28.0501 8.49989 28.0501ZM8.49989 20.4001C7.56061 20.4001 6.79987 19.6394 6.79987 18.7001C6.79987 17.7608 7.56061 17.0001 8.49989 17.0001C9.43916 17.0001 10.1999 17.7608 10.1999 18.7001C10.1999 19.6393 9.43916 20.4001 8.49989 20.4001ZM10.1999 6.80007V5.10005H13.5999C14.0691 5.10005 14.4499 4.72009 14.4499 4.25009V2.53813C14.4499 2.06894 14.8231 1.70002 15.2999 1.70002H20.3999C20.8768 1.70002 21.2499 2.06894 21.2499 2.53813V4.24999C21.2499 4.72009 21.6306 5.09995 22.0998 5.09995L25.4999 5.0881L25.4871 11.0501H10.1999V6.80007ZM27.2 42.5001H12.75C12.2808 42.5001 11.9 42.1202 11.9 41.6502C11.9 41.1801 12.2808 40.8002 12.75 40.8002H27.2001C27.6693 40.8002 28.05 41.1802 28.05 41.6502C28.05 42.1202 27.6692 42.5001 27.2 42.5001ZM27.2 34.8501H12.75C12.2808 34.8501 11.9 34.4701 11.9 34.0002C11.9 33.5301 12.2808 33.1502 12.75 33.1502H27.2001C27.6693 33.1502 28.05 33.5302 28.05 34.0002C28.05 34.4701 27.6692 34.8501 27.2 34.8501ZM27.2 27.2001H12.75C12.2808 27.2001 11.9 26.8201 11.9 26.3501C11.9 25.8801 12.2808 25.5002 12.75 25.5002H27.2001C27.6693 25.5002 28.05 25.8801 28.05 26.3501C28.05 26.8201 27.6692 27.2001 27.2 27.2001ZM27.2 19.5501H12.75C12.2808 19.5501 11.9 19.1701 11.9 18.7001C11.9 18.23 12.2808 17.8501 12.75 17.8501H27.2001C27.6693 17.8501 28.05 18.2301 28.05 18.7001C28.05 19.1701 27.6692 19.5501 27.2 19.5501Z" fill="#FF5D80"/>
</svg>
