<svg width="39" height="27" viewBox="0 0 39 27" fill="none" xmlns="http://www.w3.org/2000/svg">
<path d="M24.25 0.5H34.5C36.7091 0.5 38.5 2.29086 38.5 4.5V9.88889V17.1111V22.5C38.5 24.7091 36.7091 26.5 34.5 26.5H24.25H14.75H4.5C2.29086 26.5 0.5 24.7091 0.5 22.5V17.1111V9.88889V4.5C0.5 2.29086 2.29086 0.5 4.5 0.5H14.75H24.25Z" fill="#F6C859"/>
<path d="M14.75 0.5L19.5 5.19444M14.75 0.5H24.25M14.75 0.5H4.5C2.29086 0.5 0.5 2.29086 0.5 4.5V9.88889M19.5 5.19444L24.25 0.5M19.5 5.19444V9.88889H15.8462M24.25 0.5H34.5C36.7091 0.5 38.5 2.29086 38.5 4.5V9.88889M14.75 26.5H4.5C2.29086 26.5 0.5 24.7091 0.5 22.5V17.1111M14.75 26.5L19.5 21.8056M14.75 26.5H24.25M19.5 21.8056L24.25 26.5M19.5 21.8056V17.1111M24.25 26.5H34.5C36.7091 26.5 38.5 24.7091 38.5 22.5V17.1111M19.5 17.1111H23.1538M19.5 17.1111H15.8462M0.5 17.1111V9.88889M0.5 17.1111H15.8462M38.5 17.1111H23.1538M38.5 17.1111V9.88889M0.5 9.88889H15.8462M15.8462 9.88889V17.1111M23.1538 17.1111V9.88889H38.5" stroke="#7D662D"/>
</svg>
