<svg width="51" height="51" viewBox="0 0 51 51" fill="none" xmlns="http://www.w3.org/2000/svg">
<path d="M50.9941 23.6772C51.0248 20.8418 50.7119 18.0132 50.0621 15.2531C49.2254 16.9375 47.8059 18.261 46.067 18.9778C45.9361 19.1233 45.8175 19.2729 45.6897 19.4425C44.8449 20.6319 43.596 21.4729 42.1762 21.8088C41.8675 21.9127 41.5268 21.8435 41.2829 21.6277C41.039 21.4119 40.9289 21.0821 40.9943 20.763C41.0598 20.4439 41.2907 20.1842 41.6 20.0818C42.1843 19.9049 42.742 19.6502 43.2584 19.3246C42.4562 19.2017 41.6713 18.9848 40.9197 18.6785C40.362 18.4263 39.7659 18.269 39.1564 18.2134C38.6535 18.2134 38.2458 17.8057 38.2458 17.3028C38.2458 16.7998 38.6534 16.3922 39.1564 16.3922C39.9842 16.4403 40.7967 16.6367 41.5552 16.972C42.6939 17.5541 44.0093 17.6888 45.2424 17.3499C48.2649 16.3424 49.188 12.5799 49.1968 12.5417L49.1972 12.5409C47.091 7.05309 43.1997 3.89929 37.9282 3.677C37.3776 4.69765 36.5787 5.56314 35.6052 6.19338C35.5668 6.22226 35.5324 6.25015 35.4945 6.27873C35.5028 6.3106 35.5094 6.34297 35.514 6.37564C35.5719 6.66038 35.7085 6.92322 35.9084 7.13416C36.7333 8.03052 36.9019 9.35036 36.3286 10.4253C36.103 10.8739 35.5568 11.0552 35.1077 10.8306C34.6587 10.6061 34.476 10.0604 34.6995 9.6108C35.0063 8.99729 34.8382 8.76334 34.4314 8.19953C34.3122 8.0342 34.1871 7.84706 34.0701 7.64668C33.8902 7.90483 33.7475 8.18708 33.6462 8.48497C32.5409 11.801 30.1519 11.8393 30.0505 11.8393C29.5476 11.8393 29.1399 11.4316 29.1399 10.9287C29.1399 10.4257 29.5475 10.018 30.0505 10.018C30.0754 10.0154 31.2465 9.92463 31.9183 7.90871C32.4082 6.59355 33.3205 5.47798 34.5123 4.73679C34.9038 4.45733 35.2736 4.14878 35.6186 3.81364C33.3491 4.24399 31.2585 5.33875 29.6122 6.95907C29.3906 7.17659 29.0734 7.26642 28.7708 7.1973C28.468 7.12818 28.2213 6.90977 28.116 6.61756C27.4775 4.76478 26.963 2.87147 26.5759 0.950367C26.5053 0.613335 26.251 0.344726 25.9183 0.255886C24.5457 -0.0583377 23.1229 -0.0834358 21.7401 0.182086C21.2791 0.275606 20.9611 0.699485 21.0002 1.16828C21.3844 5.38954 23.7013 10.4102 25.5771 13.8783C26.4313 15.4416 27.1155 17.092 27.618 18.8012C27.8165 19.479 27.9713 20.1689 28.0813 20.8666C28.4221 20.7711 28.7256 20.5739 28.9513 20.3014C29.6894 19.4772 30.7683 19.0423 31.8716 19.124C32.3744 19.124 32.7822 19.5316 32.7822 20.0346C32.7822 20.5374 32.3745 20.9452 31.8716 20.9452C31.2528 20.864 30.6358 21.1072 30.2389 21.589C29.7145 22.1759 29.0035 22.5638 28.2261 22.6871C28.2263 22.7134 28.2292 22.74 28.2292 22.7663C28.221 24.6501 27.8477 26.5146 27.1299 28.2563C28.0532 28.228 28.9337 28.6453 29.4963 29.3778C29.7514 29.7067 30.0809 29.9703 30.4576 30.147C30.8224 30.3276 31.1484 30.5779 31.417 30.8838C32.0601 30.6933 32.6854 30.4467 33.2854 30.147C33.7351 29.9235 34.2808 30.1062 34.5053 30.5553C34.7298 31.0043 34.5485 31.5505 34.0999 31.7761C33.4539 32.0969 32.7833 32.3654 32.0944 32.5793C32.114 33.1049 32.0044 33.6272 31.7754 34.1007C31.5498 34.5492 31.0036 34.7306 30.5545 34.506C30.1055 34.2814 29.9228 33.7357 30.1463 33.2862C30.2871 33.0149 30.3213 32.7007 30.2422 32.4055C30.1806 32.3242 30.1337 32.2329 30.1034 32.1355C29.9791 31.9825 29.8216 31.8596 29.6429 31.7762C29.0479 31.4906 28.5246 31.0752 28.1112 30.5605C27.813 30.2102 27.6764 30.051 26.4079 30.051C26.3605 30.0455 26.3135 30.0361 26.2676 30.0227C24.3932 33.2716 21.3927 35.5145 18.2125 35.5145C16.9124 35.5141 15.6299 35.2138 14.4649 34.6368C13.0787 33.9724 11.5538 33.649 10.0173 33.6933C6.34612 33.6266 2.80629 35.0587 0.214218 37.6593C0.0761787 37.8238 0.000685205 38.0316 0.000784801 38.2462V41.8885C-0.0134574 42.2043 0.167209 42.4966 0.456036 42.6249C0.808107 42.7828 1.22013 42.7187 1.50757 42.4612C3.91599 40.4751 6.89957 39.3166 10.0172 39.1567C14.1998 39.1567 15.7293 41.909 17.209 44.5714C18.595 47.0651 20.0283 49.6192 23.7866 50.5858C23.8258 50.4996 23.8785 50.4202 23.9429 50.3506C25.6382 48.6548 25.6275 47.8901 25.544 47.6402C25.2559 46.7683 24.7429 45.988 24.0567 45.378C23.266 44.7517 22.7932 43.8075 22.7655 42.7992C22.6709 41.9791 22.175 41.2595 21.4422 40.8792C20.9972 40.6507 20.8201 40.1059 21.0452 39.6592C21.2704 39.2125 21.8137 39.031 22.2622 39.2527C22.6593 39.4678 23.0248 39.7366 23.3483 40.0517C23.5133 39.7769 23.6246 39.4732 23.6762 39.1567C23.6762 38.6539 24.0838 38.2461 24.5868 38.2461C25.0896 38.2461 25.4974 38.6538 25.4974 39.1567C25.4558 39.783 25.2669 40.3905 24.946 40.9299C24.7675 41.2243 24.6457 41.5494 24.5868 41.8885C24.5836 41.9885 24.5637 42.0872 24.5278 42.1806C24.5655 42.3846 24.5853 42.5916 24.5868 42.799C24.5868 43.3068 24.7815 43.5274 25.3444 44.0903C25.8598 44.5769 26.3067 45.1313 26.6728 45.7381C26.7794 45.6632 26.8886 45.5879 27.0011 45.5112C28.1762 44.7082 29.0832 44.0022 29.137 42.903C29.0663 42.8417 28.9423 42.7536 28.8458 42.6851C27.9012 42.1524 27.3174 41.1516 27.3185 40.0671C27.3185 39.5643 27.7261 39.1565 28.2291 39.1565C28.732 39.1565 29.1397 39.5642 29.1397 40.0671C29.1397 40.6371 29.3856 40.8363 29.8973 41.1982C30.1055 41.3387 30.3001 41.4984 30.4783 41.6753C30.8355 41.2189 31.0077 40.6448 30.9608 40.0671C30.9608 39.5643 31.3684 39.1565 31.8714 39.1565C32.3742 39.1565 32.782 39.5642 32.782 40.0671C32.782 41.959 31.9191 43.1245 30.8876 43.5341C30.5509 45.286 29.0591 46.3107 28.0281 47.0148C27.8053 47.1669 27.5273 47.3583 27.3672 47.4944C27.5422 48.7931 26.6366 50.0917 25.8995 50.9315C26.3489 50.9687 26.8152 50.9942 27.3185 50.9942C30.8878 51.066 34.4386 50.4628 37.784 49.2165C37.0632 48.4223 36.878 47.2782 37.3114 46.2971C36.0421 46.1363 34.9932 45.23 34.6499 43.9976C34.4907 43.5204 34.7486 43.0047 35.2257 42.8456C35.7028 42.6864 36.2185 42.9443 36.3777 43.4213C36.5403 44.0934 37.1511 44.5599 37.8422 44.54C38.3947 44.5465 38.9067 44.8306 39.2046 45.2958C39.4036 45.8072 39.35 46.3825 39.0601 46.8484C38.9016 47.1105 38.8662 47.4291 38.9631 47.7196C39.06 48.0102 39.2794 48.2436 39.5634 48.3583C39.5798 48.3664 39.5891 48.3816 39.6048 48.3905C44.0929 46.0778 47.2556 42.243 49.0933 36.8862C48.5541 36.4747 48.0582 36.0096 47.613 35.498C46.7121 34.5296 45.9336 33.6928 44.6197 33.6928C43.7975 33.6548 42.9964 33.96 42.4082 34.5358C41.7805 35.1477 40.9432 35.4975 40.0668 35.5139C39.5639 35.5139 39.1562 35.1063 39.1562 34.6033C39.1562 34.1004 39.5638 33.6927 40.0668 33.6927C40.5408 33.6927 40.7742 33.5184 41.2562 33.1244C41.6138 32.8154 42.0072 32.5504 42.4281 32.3352C42.2613 32.1497 42.0659 31.9919 41.8494 31.8679C41.6101 31.8674 41.3811 31.771 41.2136 31.6001C41.046 31.4292 40.9541 31.1984 40.9584 30.9591C40.9674 30.4529 41.3818 30.0479 41.8881 30.0503C42.6878 30.1605 43.4107 30.584 43.8978 31.2277C44.1193 31.478 44.375 31.6958 44.6575 31.8744C46.7405 31.8908 47.9638 33.2013 48.9465 34.2573C49.1894 34.5184 49.426 34.7699 49.6636 34.9939C50.5998 31.2967 51.0471 27.4916 50.9941 23.6772Z" fill="#FF814E"/>
</svg>
