<svg width="51" height="51" viewBox="0 0 51 51" fill="none" xmlns="http://www.w3.org/2000/svg">
<path d="M35.6245 44.0012C35.2969 42.2071 34.6785 40.4785 33.794 38.8836C33.7279 38.7735 33.6643 38.6598 33.5947 38.5544C33.5314 38.4582 33.4643 38.3726 33.399 38.282C33.3042 38.1508 33.2091 38.02 33.1081 37.8982C33.0834 37.8683 33.0573 37.8424 33.0324 37.8133C33.0189 37.8158 33.0053 37.8165 32.9918 37.8188C32.88 37.8374 32.7648 37.8513 32.6488 37.8653C32.3326 37.908 32.0138 37.9306 31.6947 37.9328C31.3893 37.9328 31.1041 37.9227 30.8364 37.9032C30.8146 37.9016 30.7965 37.8978 30.7749 37.8961C30.5316 37.8766 30.2993 37.8512 30.0834 37.8159L30.0675 37.8124C28.8733 37.6254 27.7696 37.0636 26.9158 36.208C25.9107 36.9057 24.7421 37.3312 23.5237 37.4432C23.5061 37.4454 23.4906 37.4488 23.4728 37.4509C22.4363 38.4677 21.8835 39.8788 21.9534 41.3291C21.9534 43.5575 23.2683 44.6712 24.7913 45.9599C26.2361 47.1833 27.8538 48.552 28.1801 50.9842H36.3837C36.3347 48.6425 36.082 46.3095 35.6284 44.0115L35.6245 44.0012Z" fill="#F7B289"/>
<path d="M22.1629 35.7098C22.478 35.7098 22.7597 35.6893 23.0322 35.6643C23.2428 35.6447 23.4347 35.6156 23.6212 35.5842C23.6979 35.5712 23.7789 35.5604 23.8516 35.5457C24.0379 35.5083 24.209 35.4651 24.37 35.4188C24.424 35.4031 24.4797 35.3883 24.5309 35.372C24.6886 35.3219 24.834 35.2691 24.9671 35.2137C25.0054 35.1977 25.0435 35.1818 25.0798 35.1655C25.2083 35.1082 25.3274 35.0502 25.4317 34.9925C25.4579 34.9777 25.4824 34.9634 25.5071 34.9488C25.6073 34.8903 25.7 34.8325 25.7768 34.7783C25.793 34.7667 25.8064 34.7562 25.8215 34.7449C25.8954 34.6907 25.9631 34.6381 26.0142 34.5935L26.0301 34.5787C26.0924 34.5248 26.1505 34.4662 26.204 34.4036C26.261 34.3415 26.3261 34.2877 26.3977 34.2433C26.4297 34.2128 26.4637 34.1846 26.4997 34.1588C26.6049 34.1051 26.7195 34.0726 26.8371 34.0627C26.8483 34.0616 26.8578 34.0544 26.869 34.0537H26.8692L26.8708 34.0533L26.873 34.0536C26.8908 34.0525 26.9085 34.0519 26.9267 34.0519C27.0381 34.0729 27.1495 34.0939 27.2608 34.1148C27.3774 34.1572 27.4836 34.2241 27.5722 34.311C28.9063 35.6446 29.5633 36.1113 31.6944 36.1113C31.9313 36.1112 32.1679 36.0965 32.4029 36.0669C32.4202 36.0648 32.4359 36.0611 32.453 36.0589C32.6756 36.0293 32.8962 35.9869 33.1138 35.9317L33.1491 35.9221C33.9524 35.7115 34.6943 35.3133 35.3138 34.7604L35.3224 34.7528C35.7434 34.3774 36.1073 33.9425 36.4028 33.4621L36.4083 33.4531C36.471 33.3497 36.5178 33.2646 36.5498 33.2032L36.562 33.1791C36.5808 33.1419 36.5939 33.1149 36.5973 33.1076L36.6018 33.0979C36.6319 33.0292 36.6702 32.9646 36.7162 32.9052C36.7322 32.8844 36.7533 32.8687 36.7709 32.8495C36.8277 32.7759 36.9014 32.7169 36.9857 32.6778C37.0095 32.6641 37.0306 32.6462 37.0557 32.6347C37.1234 32.6033 37.1948 32.5805 37.2682 32.5667C37.2985 32.5633 37.329 32.5615 37.3594 32.5612C37.6262 32.5332 37.8913 32.6276 38.0804 32.8179C39.7496 34.4867 40.7263 34.5609 42.605 34.5609C44.3813 34.6366 45.9358 33.3774 46.2307 31.6243C46.2307 30.4489 45.6412 30.1697 45.6354 30.1679C45.2162 30.0215 44.9638 29.594 45.038 29.1561C45.1122 28.7183 45.4915 28.3978 45.9355 28.3977C46.1344 28.3948 46.3325 28.3698 46.5259 28.3229C46.5746 28.3119 46.6229 28.2969 46.6713 28.2833C46.8479 28.2339 47.0202 28.17 47.1865 28.0924C49.2532 27.1281 50.9998 24.0144 50.9998 21.5824C50.9998 19.0325 48.3859 18.0714 48.2748 18.0319C47.9803 17.9273 47.7597 17.6794 47.6904 17.3747C47.6211 17.0699 47.7126 16.751 47.9329 16.5293C48.6436 15.6365 48.971 14.4981 48.8434 13.3642C48.8434 10.8916 45.804 9.73135 45.7734 9.7198C45.4164 9.58697 45.1793 9.24671 45.1781 8.86582C45.1781 6.99834 44.3535 3.46641 41.2332 3.46641C40.6961 3.41273 40.1604 3.58013 39.7493 3.93004C39.4961 4.21713 39.0932 4.32039 38.7331 4.19054C38.3785 4.06368 38.1398 3.73009 38.1343 3.35349C38.1343 2.36129 36.2384 0.588904 32.4606 0.588904C31.166 0.523979 29.9051 1.0143 28.9945 1.93679C28.8005 2.17189 28.5022 2.29497 28.1989 2.2651C27.8955 2.23523 27.627 2.05628 27.4826 1.78792C27.4469 1.72608 26.4286 0 23.1068 0C21.3415 0 19.4789 1.83064 18.9099 2.53615C18.625 2.88806 18.1256 2.97838 17.7355 2.74865C16.7082 2.16313 15.5606 1.82009 14.3805 1.7458C12.3319 1.62661 10.5418 3.11649 10.2872 5.15276C10.2762 5.85 10.4214 6.54078 10.7122 7.17459C10.8639 7.45689 10.8567 7.79815 10.6931 8.07378C10.5294 8.34941 10.2334 8.51919 9.91286 8.52118C7.38876 8.52118 5.74523 9.03859 4.58455 10.1989C1.41498 13.3693 3.22601 15.6574 3.30467 15.7534C3.52793 16.0256 3.57433 16.402 3.42387 16.7201C3.27341 17.0383 2.95296 17.2412 2.60096 17.2413C1.033 17.2413 0.562696 17.7823 0.345317 18.1891C0.0680925 18.9008 -0.0446298 19.666 0.0159136 20.4274C-0.13186 21.9553 0.808952 23.3785 2.27275 23.8409C3.62741 24.0154 4.98844 23.5692 5.97685 22.6266C6.33234 22.2711 6.9087 22.2711 7.26429 22.6266C7.61988 22.9821 7.61978 23.5584 7.26429 23.914C6.07115 25.0776 4.46346 25.7176 2.79703 25.6927C2.56531 25.6927 2.37591 25.6806 2.22913 25.6672C2.00498 25.8677 1.87912 26.1557 1.88429 26.4565C1.88429 30.152 6.11327 30.3631 6.29331 30.3707C7.65434 30.441 9.01348 30.1997 10.2671 29.6652C10.5264 29.5209 10.8394 29.5111 11.1072 29.639C11.375 29.7668 11.5642 30.0165 11.6149 30.3088C11.6599 30.5733 12.1195 32.8961 14.3533 32.8961C15.5677 32.9205 16.7685 32.6378 17.8445 32.0744C17.7998 30.3022 18.6926 28.6377 20.1937 27.6946C20.299 27.149 20.4708 26.6185 20.7052 26.1147C18.4017 24.9574 17.0067 22.5414 17.1562 19.9679C17.1562 19.4651 17.5637 19.0574 18.0666 19.0574C18.5694 19.0574 18.977 19.465 18.977 19.9679C18.977 22.9637 20.7131 24.1246 21.6299 24.5289C22.554 23.0749 24.1183 22.1509 25.8378 22.0435C26.375 22.046 26.9109 22.0967 27.4391 22.1953C28.0607 20.3912 29.92 17.3923 33.1306 17.3923C33.3327 17.3923 33.5208 17.4036 33.7068 17.4165L33.7142 17.415C34.4499 17.415 36.1818 15.7168 36.1818 14.1684C36.1818 13.6657 36.5894 13.258 37.0923 13.258C37.5951 13.258 38.0027 13.6656 38.0027 14.1684C37.9024 15.6623 37.2284 17.0596 36.1216 18.0678C36.9885 18.5106 37.6511 19.2709 37.9711 20.1902C38.1022 20.6727 37.8196 21.1706 37.3381 21.3055C36.8567 21.4404 36.3566 21.1618 36.2179 20.6814C36.1885 20.593 35.6897 19.2131 33.1306 19.2131C30.9272 19.2131 29.6177 21.5235 29.1823 22.6978C29.7741 22.9341 30.3261 23.2596 30.8193 23.663C31.1891 24.0028 31.2139 24.5778 30.8748 24.9482C30.5357 25.3185 29.9608 25.3444 29.5898 25.006C28.5084 24.2037 27.1828 23.8004 25.8378 23.8644C24.1759 23.8644 22.8706 25.6479 22.2874 27.0235C22.6457 26.9731 23.007 26.9465 23.3688 26.9438C23.8716 26.9438 24.2793 27.3514 24.2793 27.8542C24.2793 28.357 23.8717 28.7647 23.3688 28.7647C20.7816 28.7647 19.628 29.9481 19.628 32.6011L19.6258 32.6121C19.6258 32.6173 19.6278 32.6221 19.6276 32.6274C19.6192 33.5204 19.9176 34.3893 20.4727 35.0889C20.9243 35.5231 21.5374 35.7486 22.1629 35.7098ZM38.4826 25.5292C38.7619 23.87 39.7336 22.4079 41.155 21.5078C40.3971 20.5156 39.982 19.3041 39.9723 18.0556C39.9401 16.5496 40.5731 15.1058 41.7026 14.1091C41.2141 13.5747 40.9095 12.8979 40.8333 12.1779C40.8228 11.6752 41.2215 11.2591 41.7241 11.2479C42.2153 11.2476 42.6222 11.6294 42.6532 12.1196C42.6621 12.2246 42.8594 13.8893 46.2802 13.8893C46.783 13.8893 47.1907 14.2969 47.1907 14.7998C47.1907 15.3025 46.7831 15.7102 46.2802 15.7102C45.2496 15.7377 44.2236 15.5607 43.2617 15.1894C42.3184 15.8345 41.7656 16.9131 41.7929 18.0556C41.8127 19.0358 42.1838 19.9763 42.8385 20.7061C43.9517 20.3567 45.1136 20.1878 46.2802 20.2059C46.783 20.2059 47.1907 20.6134 47.1907 21.1163C47.1907 21.6191 46.7831 22.0267 46.2802 22.0267C40.6887 22.0267 40.2993 25.6547 40.2962 25.6911C40.2543 26.1603 39.8613 26.5202 39.3902 26.5206C39.3631 26.5206 39.3359 26.5193 39.3085 26.517C38.8077 26.4723 38.4379 26.0301 38.4826 25.5292ZM24.3641 18.8969C24.2125 19.0848 23.9923 19.2046 23.7522 19.2301C23.5121 19.2559 23.2716 19.1852 23.0837 19.0335C22.8958 18.8819 22.776 18.6616 22.7506 18.4215C22.5097 16.0461 20.4518 14.2745 18.0669 14.3895C16.9634 14.2967 15.8821 14.7374 15.1578 15.5751C13.8206 17.2564 14.1839 20.4633 14.4363 21.5573C14.5097 21.8743 14.4084 22.2063 14.1705 22.4282C13.9327 22.6502 13.5945 22.7284 13.2834 22.6333C12.9723 22.5382 12.7356 22.2842 12.6625 21.9673C12.3948 20.6836 12.3161 19.3678 12.4286 18.0613C11.0491 18.0214 9.528 17.6929 7.27863 15.4435C7.0487 15.2136 6.95888 14.8783 7.04303 14.5643C7.12717 14.2502 7.37263 14.0047 7.6867 13.9206C8.00087 13.8365 8.33605 13.9263 8.56597 14.1562C10.5019 16.0921 11.533 16.2426 12.7954 16.2445C12.9973 15.5922 13.3148 14.9815 13.7329 14.4416C14.411 13.5934 15.3577 13.0014 16.4171 12.763C15.5526 10.9512 15.3236 8.90087 15.767 6.94297C15.8453 6.62711 16.0862 6.37717 16.3989 6.28715C16.7115 6.19713 17.0484 6.28098 17.2826 6.50682C17.5167 6.73276 17.6125 7.06645 17.5338 7.38211C17.5265 7.41328 16.7895 10.5761 18.4953 12.5901C21.6416 12.6907 24.2312 15.0979 24.5607 18.2286C24.5865 18.4686 24.5158 18.7091 24.3641 18.8969ZM34.9108 12.2267C33.257 12.2513 31.6383 11.7502 30.2878 10.7955C29.7908 11.4058 29.4763 12.144 29.3806 12.9251C29.2896 13.7048 29.5617 14.4831 30.1186 15.0363C30.3485 15.2662 30.4384 15.6015 30.3542 15.9155C30.2701 16.2297 30.0247 16.4751 29.7105 16.5592C29.3964 16.6434 29.0612 16.5535 28.8313 16.3236C27.8923 15.3875 27.4276 14.0764 27.5674 12.7579C27.7073 11.551 28.2063 10.414 28.9998 9.49386C28.1152 8.20881 27.6673 6.67341 27.7222 5.11442C27.7222 4.61165 28.1297 4.20398 28.6326 4.20398C29.1355 4.20398 29.5431 4.61155 29.5431 5.11442C29.4606 6.48661 29.9263 7.83539 30.8379 8.86443L30.846 8.8699C30.8509 8.87478 30.8521 8.88136 30.8569 8.88623C31.9598 9.89974 33.4137 10.4446 34.911 10.4058C35.4138 10.4058 35.8214 10.8134 35.8214 11.3162C35.8214 11.8191 35.4136 12.2267 34.9108 12.2267ZM29.5913 29.4275C30.428 28.7472 31.4358 28.3103 32.5044 28.1646C32.8131 25.6461 34.4786 24.9429 35.4033 24.9429C35.9019 24.943 36.3076 25.3442 36.3134 25.8428C36.319 26.3414 35.9227 26.7517 35.4242 26.7633C35.3104 26.7712 34.5605 26.8854 34.3375 28.2081C35.4366 28.443 36.4382 29.0066 37.2095 29.824C37.4214 30.0708 37.4854 30.4119 37.3777 30.7188C37.2698 31.0257 37.0065 31.2517 36.6869 31.3118C36.3672 31.3718 36.0397 31.2568 35.8279 31.0101C35.1779 30.3407 34.2929 29.9506 33.3603 29.9223C32.4366 29.9122 31.5367 30.2156 30.8077 30.7829C30.4329 31.1138 29.8613 31.0806 29.5274 30.7084C29.1933 30.3362 29.2219 29.7644 29.5913 29.4275Z" fill="#F7B289"/>
<path d="M47.8003 30.1328C47.8046 30.1442 47.8063 30.1589 47.8104 30.1704C47.8791 30.3624 47.9324 30.5596 47.9698 30.7602C47.9779 30.8034 47.9838 30.8484 47.9908 30.8929C48.0305 31.1347 48.0509 31.3793 48.0519 31.6243C47.7506 34.3856 45.3821 36.4544 42.6054 36.3818C41.961 36.3942 41.3167 36.3573 40.6779 36.2714L40.6689 36.2696C40.4694 36.2385 40.2721 36.1995 40.0759 36.1495L40.0729 36.1486C39.8722 36.0975 39.6743 36.0356 39.4804 35.9628C39.4596 35.9549 39.4385 35.9431 39.4178 35.935C39.2353 35.8651 39.0564 35.7858 38.8822 35.6974C38.8692 35.6909 38.8559 35.6811 38.8429 35.6744C38.6474 35.5728 38.4571 35.4612 38.2729 35.34C38.263 35.3336 38.2526 35.3246 38.2428 35.318C38.0475 35.1877 37.8499 35.0442 37.6474 34.8802C36.937 35.8771 35.9898 36.6817 34.8911 37.2214L34.9002 37.2359C36.0359 38.9626 36.835 40.8885 37.255 42.9121C39.6091 42.8112 41.9079 42.1669 43.9714 41.0295C48.2644 38.5512 50.3711 34.1347 48.6676 31.1842C48.4377 30.7887 48.1447 30.4336 47.8003 30.1328Z" fill="#F7B289"/>
</svg>
