<svg width="22" height="22" viewBox="0 0 22 22" fill="none" xmlns="http://www.w3.org/2000/svg">
<path d="M11.0003 10.9775C9.99199 10.9775 9.16699 10.6567 8.52533 10.015C7.88366 9.37337 7.56283 8.54837 7.56283 7.54004C7.56283 6.53171 7.88366 5.70671 8.52533 5.06504C9.16699 4.42337 9.99199 4.10254 11.0003 4.10254C12.0087 4.10254 12.8337 4.42337 13.4753 5.06504C14.117 5.70671 14.4378 6.53171 14.4378 7.54004C14.4378 8.54837 14.117 9.37337 13.4753 10.015C12.8337 10.6567 12.0087 10.9775 11.0003 10.9775ZM3.66699 18.3338V16.1796C3.66699 15.5991 3.81213 15.1025 4.10241 14.69C4.39269 14.2775 4.76699 13.9643 5.22533 13.7505C6.24894 13.2921 7.23053 12.9484 8.17012 12.7192C9.1097 12.49 10.0531 12.3755 11.0003 12.3755C11.9475 12.3755 12.8871 12.4939 13.8191 12.7307C14.751 12.9675 15.7282 13.3089 16.7506 13.7549C17.2288 13.9707 17.6122 14.2837 17.9008 14.6937C18.1894 15.1038 18.3337 15.5991 18.3337 16.1796V18.3338H3.66699ZM5.04199 16.9588H16.9587V16.1796C16.9587 15.9352 16.8861 15.7022 16.741 15.4807C16.5958 15.2591 16.4163 15.0949 16.2024 14.988C15.2246 14.5143 14.3309 14.1897 13.5212 14.014C12.7114 13.8383 11.8712 13.7505 11.0003 13.7505C10.1295 13.7505 9.28158 13.8383 8.45658 14.014C7.63158 14.1897 6.73783 14.5143 5.77533 14.988C5.56144 15.0949 5.38574 15.2591 5.24824 15.4807C5.11074 15.7022 5.04199 15.9352 5.04199 16.1796V16.9588ZM11.0003 9.60254C11.5962 9.60254 12.0889 9.40775 12.4785 9.01816C12.868 8.62858 13.0628 8.13587 13.0628 7.54004C13.0628 6.94421 12.868 6.4515 12.4785 6.06191C12.0889 5.67233 11.5962 5.47754 11.0003 5.47754C10.4045 5.47754 9.91178 5.67233 9.5222 6.06191C9.13262 6.4515 8.93783 6.94421 8.93783 7.54004C8.93783 8.13587 9.13262 8.62858 9.5222 9.01816C9.91178 9.40775 10.4045 9.60254 11.0003 9.60254Z" fill="black"/>
</svg>
