<svg width="24" height="24" viewBox="0 0 24 24" fill="none" xmlns="http://www.w3.org/2000/svg">
<path d="M17.5 10.875V11.9179V12.0821V13.125V18.5C17.5 18.7587 17.409 18.9839 17.1964 19.1964C16.9839 19.409 16.7587 19.5 16.5 19.5H3.5C3.24128 19.5 3.0161 19.409 2.80355 19.1964C2.59101 18.9839 2.5 18.7587 2.5 18.5L2.5 5.5C2.5 5.24128 2.59101 5.0161 2.80355 4.80355C3.0161 4.59101 3.24128 4.5 3.5 4.5L16.5 4.5C16.7587 4.5 16.9839 4.59101 17.1964 4.80355C17.409 5.0161 17.5 5.24128 17.5 5.5V10.875ZM18.3536 12.7714L17.5821 12L18.3536 11.2286L21.5 8.08211L21.5 15.9179L18.3536 12.7714ZM3 18.5V19H3.5H16.5H17V18.5V5.5V5H16.5L3.5 5H3V5.5L3 18.5Z" stroke="black"/>
</svg>
