<svg width="24" height="24" viewBox="0 0 24 24" fill="none" xmlns="http://www.w3.org/2000/svg">
<path d="M8.08356 3.96714L8.0834 3.96718L8.0861 3.97976L8.75726 7.11187C8.78124 7.29051 8.7749 7.43673 8.74891 7.55629C8.72675 7.65823 8.68417 7.73372 8.62145 7.79645L8.61969 7.79821L6.11969 10.3232L5.84598 10.5997L6.04666 10.9329C6.99899 12.5145 8.06967 13.8978 9.26023 15.0798C10.4528 16.2638 11.8035 17.2669 13.3106 18.0889L13.6444 18.271L13.909 17.998L16.284 15.548L16.2896 15.5423L16.295 15.5363C16.41 15.4098 16.5323 15.3304 16.6636 15.285C16.7943 15.2397 16.9154 15.234 17.0376 15.2622L17.0376 15.2622L17.0433 15.2635L20.0174 15.9133C20.0175 15.9133 20.0177 15.9134 20.0179 15.9134C20.1669 15.9463 20.2783 16.015 20.3698 16.1248L20.3698 16.1248C20.4557 16.2279 20.5 16.3452 20.5 16.5V19.875C20.5 20.0728 20.4394 20.2106 20.325 20.325C20.2106 20.4394 20.0728 20.5 19.875 20.5C17.9267 20.5 15.9817 20.0216 14.0354 19.0524C12.0758 18.0767 10.3157 16.8086 8.75355 15.2464C7.19142 13.6843 5.9233 11.9242 4.94758 9.96464C3.97844 8.01828 3.5 6.07327 3.5 4.125C3.5 3.92724 3.5606 3.78936 3.67498 3.67498C3.78936 3.5606 3.92724 3.5 4.125 3.5L7.625 3.5C7.72279 3.5 7.80875 3.52974 7.90058 3.6113C7.98468 3.68602 8.05103 3.79365 8.08356 3.96714ZM5.26346 9.49231L5.55253 10.1861L6.08072 9.65138L8.10572 7.60138L8.29435 7.41041L8.23942 7.14767L7.66442 4.39767L7.58127 4H7.175L4.5 4H4V4.5C4 5.20054 4.10765 5.95564 4.31586 6.76244C4.52344 7.56681 4.84063 8.47751 5.26346 9.49231ZM14.5878 18.0303L14.107 18.5354L14.7398 18.8287C15.4543 19.1598 16.226 19.4281 17.0537 19.6351C17.883 19.8424 18.6913 19.9646 19.4778 19.9995L20 20.0227V19.5V16.825V16.4167L19.5999 16.3351L17.0249 15.8101L16.7537 15.7548L16.5628 15.9553L14.5878 18.0303Z" stroke="black"/>
</svg>
