<svg width="324" height="336" viewBox="0 0 324 336" fill="none" xmlns="http://www.w3.org/2000/svg">
<path d="M9.44609 245.392C4.26135 231.212 1.12639 215.923 0.258244 199.79C-2.15326 155.828 12.3881 111.167 41.2056 74.0541C70.0232 36.9169 109.668 11.7407 152.834 3.15575C196.073 -5.42922 237.671 3.63805 269.985 28.6936C336.615 80.3963 342.403 184.863 282.887 261.573C254.069 298.71 214.424 323.886 171.258 332.471C128.02 341.056 86.4214 331.989 54.1072 306.933C33.6094 291.042 18.4169 269.917 9.44609 245.392ZM312.331 91.0552C303.674 67.4224 289.036 46.4423 268.563 30.5505C236.803 5.90487 195.88 -3.01771 153.292 5.44668C110.657 13.9111 71.4942 38.7978 43.0384 75.4769C14.5585 112.156 0.185906 156.262 2.5733 199.669C4.96069 243.004 23.7463 280.431 55.5059 305.076C87.2654 329.722 128.189 338.645 170.776 330.18C213.411 321.716 252.55 296.829 281.03 260.15C321.423 208.086 331.382 143.12 312.331 91.0552Z" fill="#0873BD"/>
</svg>
