<svg width="43" height="43" viewBox="0 0 43 43" fill="none" xmlns="http://www.w3.org/2000/svg">
<g clip-path="url(#clip0_0_70)">
<path d="M14.5647 24.9263C14.4477 25.7593 14.0211 26.5177 13.3701 27.0504C13.4606 27.2155 13.5382 27.3874 13.6018 27.5646C13.6164 27.6042 13.631 27.643 13.6444 27.6827C13.6997 27.8456 13.7452 28.0117 13.7805 28.1801L13.7847 28.1961C14.7951 26.4747 16.0514 24.9099 17.5137 23.5513C17.5131 23.4163 17.5105 23.2818 17.5097 23.147C16.4361 23.5727 15.4409 24.174 14.5647 24.9263Z" fill="#7E65C3"/>
<path d="M13.2198 31.2799C13.165 31.2129 13.114 31.1564 13.0612 31.0941C11.96 31.9298 10.5943 32.3402 9.21493 32.2502C7.31292 32.258 5.42006 31.986 3.59715 31.4429C3.19513 31.3086 2.97796 30.8741 3.11182 30.4719C3.24569 30.0698 3.68004 29.8522 4.08231 29.9856C5.7496 30.4725 7.47802 30.7179 9.21493 30.7145C11.3463 30.7145 12.1222 29.923 12.3189 29.6663C12.4247 28.9558 12.276 28.2307 11.899 27.6193C10.1573 27.6146 8.4722 27.0001 7.13639 25.8825C6.84052 25.582 6.84245 25.0992 7.14059 24.801C7.43872 24.5028 7.92162 24.5009 8.2221 24.7968C9.31974 25.6709 10.69 26.1309 12.0927 26.0963C12.6423 25.775 13.001 25.2062 13.0541 24.5718C12.9336 23.7024 12.5432 22.8927 11.9379 22.257C8.86036 22.1416 7.01957 20.4912 6.16682 17.0798C6.10022 16.8138 6.18068 16.5325 6.37778 16.3418C6.57489 16.1511 6.85874 16.0801 7.12236 16.1554C7.38606 16.2308 7.58947 16.4411 7.65607 16.7071C8.36563 19.5428 9.6943 20.71 12.2267 20.729C12.8988 20.5732 13.5389 20.3024 14.1189 19.9288C14.1245 19.9251 14.1315 19.9249 14.1373 19.9214C15.4256 19.0977 16.182 17.6538 16.1254 16.1256C16.1254 12.4274 14.4435 8.44727 10.7506 8.44727C4.02159 8.44727 0.000976562 16.2554 0.000976562 23.8039C0.000976562 31.8298 2.85039 39.9283 9.21493 39.9283C14.439 39.9283 14.5898 35.1035 14.5898 34.5535C14.5263 33.3371 14.0426 32.1805 13.2214 31.281L13.2198 31.2799Z" fill="#7E65C3"/>
<path d="M13.6182 21.918L13.6224 21.9244C13.8136 22.1987 13.9838 22.487 14.1316 22.787C14.1376 22.7992 14.1427 22.8123 14.1486 22.8245C14.1944 22.9202 14.239 23.0174 14.2799 23.1176C14.2864 23.1338 14.2914 23.1509 14.2979 23.1671C15.2582 22.4837 16.3082 21.9361 17.4182 21.54C17.4433 21.5355 17.4686 21.5325 17.494 21.5307C17.4929 21.4558 17.493 21.3805 17.4917 21.3057C16.5813 21.5427 15.6288 21.5688 14.7067 21.3818C14.3598 21.591 13.9957 21.7704 13.6182 21.918Z" fill="#7E65C3"/>
<path d="M21.2531 18.1393C21.1459 12.3553 20.584 6.58869 19.5728 0.892719C19.4858 0.471551 19.1647 0.137641 18.7471 0.0342593C18.3297 -0.069122 17.8899 0.0763341 17.6164 0.408313C17.4066 0.658158 17.3215 0.989634 17.3847 1.3096C19.1371 10.392 19.7759 29.6054 18.0086 41.7246C17.9612 42.0427 18.0563 42.3654 18.2688 42.6068C18.4846 42.8567 18.7986 43.0003 19.1288 43.0001C19.6854 43.0049 20.1612 42.6005 20.2461 42.0504C20.2825 41.8164 20.3161 41.5741 20.3504 41.3343C20.3768 41.1505 20.4038 40.9699 20.429 40.7817C20.4483 40.6389 20.466 40.4917 20.4846 40.3471C20.5202 40.0702 20.5558 39.7942 20.5891 39.5086C20.5947 39.4611 20.5998 39.412 20.6052 39.3643C21.3183 32.3139 21.5348 25.222 21.2531 18.1413L21.2531 18.1393Z" fill="#7E65C3"/>
<path d="M29.3826 18.0786C28.6945 17.8104 28.0533 17.4349 27.4829 16.9658C27.406 18.0246 27.324 19.1152 27.2383 20.2218C27.6463 20.0889 28.0694 20.0081 28.4975 19.9811C28.6701 19.2968 28.9704 18.6513 29.3826 18.0786Z" fill="#7E65C3"/>
<path d="M32.2498 4.6084C30.4225 4.63116 28.772 5.70503 28.0108 7.36644C27.8418 7.67826 27.6934 8.00083 27.5666 8.33197C27.5354 8.41377 27.5076 8.49792 27.4786 8.58123C27.3774 8.86719 27.2877 9.16238 27.2119 9.46774C27.1803 9.59539 27.1544 9.72523 27.1273 9.85473C27.0654 10.1519 27.0114 10.4542 26.9732 10.7659C26.9616 10.8581 26.9513 10.9501 26.9418 11.0426C26.9017 11.4483 26.875 11.8616 26.875 12.2867C26.8749 12.5142 26.8889 12.7415 26.9168 12.9673C26.9327 13.0948 26.9617 13.2153 26.9865 13.3379C27.0036 13.4213 27.0147 13.5104 27.0355 13.5901C27.1358 13.98 27.2927 14.353 27.5012 14.6974L27.5019 14.6992C28.2578 15.8325 29.4318 16.6204 30.7671 16.8905C33.304 16.8736 34.6344 15.7066 35.3445 12.8682C35.4111 12.6021 35.6145 12.3918 35.8782 12.3165C36.1419 12.2411 36.4256 12.3121 36.6227 12.5028C36.8198 12.6935 36.9002 12.9748 36.8337 13.2409C35.981 16.6523 34.1402 18.3027 31.0627 18.4181C30.4573 19.0537 30.0669 19.8634 29.9465 20.7329C29.9996 21.3673 30.3585 21.9361 30.9083 22.2573C32.313 22.2918 33.6848 21.8302 34.7829 20.9536C35.0845 20.6586 35.5676 20.6621 35.8647 20.9617C36.1619 21.2612 36.1616 21.7443 35.8641 22.0436C34.5283 23.1612 32.8432 23.7757 31.1015 23.7804C30.7244 24.3923 30.5758 25.1179 30.6821 25.8288C30.8824 26.0887 31.6626 26.8756 33.7856 26.8756C35.5223 26.8811 37.2508 26.6357 38.9175 26.1472C39.3198 26.0129 39.7547 26.2304 39.8889 26.6326C40.0231 27.035 39.8056 27.4699 39.4034 27.6041C37.5805 28.1471 35.6876 28.4191 33.7856 28.4113C32.4043 28.5019 31.0367 28.0901 29.9351 27.2516C29.0268 28.1849 28.4855 29.4145 28.4108 30.7147C28.4108 31.2647 28.5615 36.0896 33.7856 36.0896C40.1502 36.0896 42.9995 27.991 42.9995 19.9651C42.9995 12.4165 38.9788 4.6084 32.2498 4.6084Z" fill="#7E65C3"/>
<path d="M29.3707 23.8024C29.4395 23.5982 29.5262 23.4004 29.63 23.2114C29.0995 22.771 28.7121 22.1828 28.5168 21.5215C28.0245 21.5641 27.545 21.7008 27.1043 21.9242C27.0603 22.4738 27.0155 23.0247 26.9697 23.5769C27.7568 23.7568 28.5639 23.8327 29.3707 23.8024Z" fill="#7E65C3"/>
<path d="M25.3446 0.000769641C24.4988 -0.0257685 23.7912 0.637266 23.7627 1.48304C23.6442 5.29858 23.2806 11.5199 22.7894 18.1313C22.8927 21.2781 22.9149 24.3778 22.8638 27.3447C22.8627 27.415 22.8614 27.4853 22.8601 27.5556C22.8531 27.9342 22.8449 28.3105 22.8353 28.6846C22.8312 28.8509 22.8268 29.017 22.8222 29.1829C22.814 29.4784 22.8048 29.7723 22.7949 30.0645C22.7861 30.3197 22.7768 30.5744 22.7671 30.8286C22.7589 31.0397 22.7507 31.2507 22.7416 31.4599C22.7271 31.7995 22.711 32.1364 22.6941 32.4727C22.6876 32.6038 22.6814 32.7358 22.6745 32.8661C22.6526 33.2766 22.6291 33.6843 22.6039 34.0893C22.6003 34.1478 22.597 34.2071 22.5932 34.2653C22.5636 34.7321 22.5317 35.1943 22.4973 35.6517L22.4971 35.6544C22.3945 37.0193 22.2708 38.3392 22.1243 39.5991C22.1205 39.6315 22.1171 39.665 22.1133 39.6973C22.0732 40.0391 22.0308 40.374 21.9872 40.7063C21.9763 40.7904 21.966 40.877 21.9548 40.9601C21.9177 41.2367 21.8782 41.5065 21.8386 41.7759C21.8231 41.8818 21.8088 41.9929 21.7928 42.0973C21.7568 42.3245 21.8229 42.5559 21.9736 42.7298C22.121 42.9029 22.3377 43.0019 22.5652 43C22.9408 43.0013 23.2645 42.7363 23.3375 42.3679C24.2966 37.4092 25.401 24.734 26.0639 15.2778C26.0385 15.2316 26.0211 15.181 25.9971 15.134C25.9323 15.0079 25.8721 14.8773 25.8155 14.7426C25.7867 14.6738 25.7551 14.6065 25.7291 14.5364C25.656 14.3399 25.5936 14.1395 25.5419 13.9363C25.525 13.8695 25.512 13.8007 25.4971 13.7328C25.461 13.569 25.4311 13.4002 25.4075 13.2264C25.3981 13.1563 25.3876 13.0869 25.3803 13.0158C25.3541 12.7736 25.3404 12.5302 25.3394 12.2866C25.3394 11.8003 25.3699 11.3325 25.4145 10.874C25.4208 10.8105 25.4265 10.7471 25.4338 10.684C25.5688 9.30055 25.9644 7.95517 26.5997 6.71879C26.7076 4.70508 26.7852 2.97615 26.83 1.57929C26.8551 0.733593 26.1904 0.0273918 25.3446 0.000769641Z" fill="#7E65C3"/>
</g>
<defs>
<clipPath id="clip0_0_70">
<rect width="43" height="43" fill="white"/>
</clipPath>
</defs>
</svg>
