<svg width="22" height="22" viewBox="0 0 22 22" fill="none" xmlns="http://www.w3.org/2000/svg">
<path d="M3.66699 17.4163V16.0413H5.59199V9.02884C5.59199 7.74551 5.97012 6.60349 6.72637 5.6028C7.48262 4.6021 8.47949 3.9719 9.71699 3.71217V3.04759C9.71699 2.6962 9.84303 2.40592 10.0951 2.17676C10.3472 1.94759 10.6489 1.83301 11.0003 1.83301C11.3517 1.83301 11.6535 1.94759 11.9055 2.17676C12.1576 2.40592 12.2837 2.6962 12.2837 3.04759V3.71217C13.5212 3.9719 14.5219 4.6021 15.2857 5.6028C16.0496 6.60349 16.4316 7.74551 16.4316 9.02884V16.0413H18.3337V17.4163H3.66699ZM11.0003 20.1663C10.5114 20.1663 10.0837 19.9868 9.71699 19.6278C9.35033 19.2688 9.16699 18.8372 9.16699 18.333H12.8337C12.8337 18.8372 12.6541 19.2688 12.2951 19.6278C11.9361 19.9868 11.5045 20.1663 11.0003 20.1663ZM6.96699 16.0413H15.0566V9.02884C15.0566 7.89829 14.667 6.93579 13.8878 6.14134C13.1087 5.3469 12.1538 4.94967 11.0232 4.94967C9.89269 4.94967 8.93401 5.3469 8.1472 6.14134C7.3604 6.93579 6.96699 7.89829 6.96699 9.02884V16.0413Z" fill="black"/>
</svg>
