<svg width="40" height="40" viewBox="0 0 40 40" fill="none" xmlns="http://www.w3.org/2000/svg">
<path fill-rule="evenodd" clip-rule="evenodd" d="M20.2978 27.9988C17.868 25.9506 16.3272 22.9029 16.3272 19.4997C16.3272 16.0964 17.868 13.0487 20.2978 11.0006C18.3244 9.33717 15.7646 8.33301 12.9674 8.33301C6.72592 8.33301 1.66623 13.3325 1.66623 19.4997C1.66623 25.6669 6.72592 30.6663 12.9674 30.6663C15.7646 30.6663 18.3244 29.6622 20.2978 27.9988Z" fill="white"/>
<path opacity="0.7" fill-rule="evenodd" clip-rule="evenodd" d="M20.2988 27.9991C22.7286 25.9509 24.2694 22.9032 24.2694 19.5C24.2694 16.0968 22.7286 13.0491 20.2988 11.0009C17.8689 13.0491 16.3281 16.0968 16.3281 19.5C16.3281 22.9032 17.8689 25.9509 20.2988 27.9991Z" fill="white"/>
<path opacity="0.3" fill-rule="evenodd" clip-rule="evenodd" d="M20.2979 27.9988C22.7278 25.9506 24.2685 22.9029 24.2685 19.4997C24.2685 16.0964 22.7278 13.0487 20.2979 11.0006C22.2713 9.33717 24.8311 8.33301 27.6283 8.33301C33.8698 8.33301 38.9295 13.3325 38.9295 19.4997C38.9295 25.6669 33.8698 30.6663 27.6283 30.6663C24.8311 30.6663 22.2713 29.6622 20.2979 27.9988Z" fill="white"/>
</svg>
