<svg width="24" height="24" viewBox="0 0 24 24" fill="none" xmlns="http://www.w3.org/2000/svg">
<path d="M4.5 21C4.1 21 3.75 20.85 3.45 20.55C3.15 20.25 3 19.9 3 19.5V4.5C3 4.1 3.15 3.75 3.45 3.45C3.75 3.15 4.1 3 4.5 3H19.5C19.9 3 20.25 3.15 20.55 3.45C20.85 3.75 21 4.1 21 4.5V19.5C21 19.9 20.85 20.25 20.55 20.55C20.25 20.85 19.9 21 19.5 21H4.5ZM4.5 19.5H19.5V16.1H15.85C15.4167 16.7667 14.8542 17.2792 14.1625 17.6375C13.4708 17.9958 12.75 18.175 12 18.175C11.25 18.175 10.5292 17.9958 9.8375 17.6375C9.14583 17.2792 8.58333 16.7667 8.15 16.1H4.5V19.5ZM12.0062 16.675C12.6854 16.675 13.3 16.4792 13.85 16.0875C14.4 15.6958 14.8667 15.2 15.25 14.6H19.5V4.5H4.5V14.6H8.75C9.13333 15.2 9.60205 15.6958 10.1562 16.0875C10.7103 16.4792 11.3269 16.675 12.0062 16.675Z" fill="black"/>
</svg>
