<svg width="470" height="470" viewBox="0 0 470 470" fill="none" xmlns="http://www.w3.org/2000/svg">
<rect x="0.333984" y="0.333008" width="469.333" height="469.333" rx="64" fill="#F7843A"/>
<mask id="mask0_3_98" style="mask-type:alpha" maskUnits="userSpaceOnUse" x="135" y="135" width="200" height="200">
<rect x="135" y="135" width="200" height="200" fill="#D9D9D9"/>
</mask>
<g mask="url(#mask0_3_98)">
<path d="M243.334 326.666C239.323 326.666 235.89 325.238 233.034 322.382C230.178 319.527 228.75 316.094 228.75 312.083V292.916C214.028 291.389 201.667 285.139 191.667 274.166C181.667 263.194 176.667 250.139 176.667 235V155.833C176.667 152.396 177.891 149.453 180.339 147.005C182.787 144.557 185.729 143.333 189.167 143.333H280.834C284.271 143.333 287.214 144.557 289.662 147.005C292.11 149.453 293.334 152.396 293.334 155.833V235C293.334 250.139 288.334 263.194 278.334 274.166C268.334 285.139 255.973 291.389 241.25 292.916V314.166H293.334V326.666H243.334ZM251.667 245.416H279.584C280 243.75 280.313 242.048 280.521 240.312C280.729 238.576 280.834 236.805 280.834 235V224.583H243.334V212.083H280.834V191.25H235V178.75H280.834V155.833H189.167V228.75H212.084C216.528 228.75 220.66 229.444 224.479 230.833C228.299 232.222 231.598 234.236 234.375 236.875C237.431 239.791 240.382 241.944 243.229 243.333C246.077 244.722 248.889 245.416 251.667 245.416ZM235 280.833C243.473 280.833 251.216 278.75 258.229 274.583C265.243 270.416 270.764 264.861 274.792 257.916H251.667C247.639 257.916 243.75 257.222 240 255.833C236.25 254.444 232.917 252.43 230 249.791C226.806 246.875 223.716 244.722 220.729 243.333C217.743 241.944 214.861 241.25 212.084 241.25H189.584C191.111 252.5 196.146 261.909 204.688 269.479C213.229 277.048 223.334 280.833 235 280.833Z" fill="white"/>
</g>
</svg>
