<svg width="38" height="38" viewBox="0 0 38 38" fill="none" xmlns="http://www.w3.org/2000/svg">
<rect x="0.344647" y="0.733643" width="37.2008" height="37.2008" rx="5.07283" fill="#F7843A"/>
<path d="M18.4334 25.6667C17.5572 25.6667 16.8104 25.358 16.1929 24.7405C15.5754 24.123 15.2667 23.3762 15.2667 22.5V16.8C14.9183 16.8 14.6201 16.676 14.3721 16.4279C14.124 16.1799 14 15.8817 14 15.5333V14.2667C14 13.9183 14.124 13.6201 14.3721 13.3721C14.6201 13.124 14.9183 13 15.2667 13H21.6C21.9484 13 22.2466 13.124 22.4946 13.3721C22.7427 13.6201 22.8667 13.9183 22.8667 14.2667V15.5333C22.8667 15.8817 22.7427 16.1799 22.4946 16.4279C22.2466 16.676 21.9484 16.8 21.6 16.8V19.2859C21.3045 19.5075 21.0511 19.7714 20.84 20.0775C20.6289 20.3836 20.4653 20.7161 20.3492 21.075H18.4334V20.125H20.65V19.175H18.4334V18.225H20.65V16.8H16.2167V22.5C16.2167 23.1158 16.4322 23.6392 16.8632 24.0702C17.2942 24.5012 17.8176 24.7167 18.4334 24.7167C18.8767 24.7167 19.2725 24.6059 19.6209 24.3842C19.9692 24.1626 20.2331 23.867 20.4125 23.4976C20.4759 23.6664 20.5524 23.8274 20.6421 23.9805C20.7318 24.1335 20.8348 24.2839 20.9509 24.4317C20.6553 24.8117 20.2911 25.1126 19.8584 25.3342C19.4256 25.5559 18.9506 25.6667 18.4334 25.6667ZM18.4334 22.975V22.025H20.175C20.1645 22.1834 20.1671 22.3417 20.1829 22.5C20.1988 22.6584 20.2225 22.8167 20.2542 22.975H18.4334ZM14.95 15.85H21.9167V13.95H14.95V15.85ZM23.8145 23.9251C24.3015 23.9251 24.7139 23.7569 25.0517 23.4206C25.3895 23.0843 25.5584 22.6727 25.5584 22.1856C25.5584 21.6986 25.3902 21.2862 25.054 20.9484C24.7177 20.6106 24.306 20.4417 23.8189 20.4417C23.3319 20.4417 22.9195 20.6098 22.5817 20.9461C22.2439 21.2824 22.075 21.6941 22.075 22.1811C22.075 22.6682 22.2432 23.0806 22.5795 23.4184C22.9158 23.7562 23.3274 23.9251 23.8145 23.9251ZM27.0467 26.0784L25.3526 24.3842C25.1203 24.5426 24.8758 24.6639 24.6191 24.7484C24.3623 24.8328 24.0949 24.8751 23.8167 24.8751C23.069 24.8751 22.4335 24.6132 21.9101 24.0894C21.3867 23.5657 21.125 22.9297 21.125 22.1815C21.125 21.4333 21.3869 20.798 21.9107 20.2755C22.4344 19.753 23.0704 19.4917 23.8186 19.4917C24.5668 19.4917 25.2021 19.7534 25.7246 20.2768C26.2471 20.8002 26.5084 21.4357 26.5084 22.1834C26.5084 22.4615 26.4662 22.729 26.3817 22.9858C26.2973 23.2425 26.1759 23.487 26.0176 23.7192L27.7117 25.4134L27.0467 26.0784Z" fill="white"/>
</svg>
