<svg width="52" height="52" viewBox="0 0 52 52" fill="none" xmlns="http://www.w3.org/2000/svg">
<g clip-path="url(#clip0_2148_1550)">
<path d="M19.4634 27.3575L36.9851 20.9788C36.3246 20.303 35.5199 19.7856 34.6306 19.4652L22.7899 15.1548L18.4775 27.0009L19.4634 27.3575Z" fill="#84A2FF"/>
<path d="M19.7732 29.1619H19.7679L17.3703 30.0343C15.2544 30.8044 13.71 32.6445 13.3188 34.862C12.9272 37.0792 13.7488 39.3371 15.4736 40.7845C17.198 42.232 19.564 42.6497 21.68 41.8796L33.5246 37.5692L29.2157 25.7266L19.7732 29.1619ZM18.7993 33.2584C18.302 33.2584 17.8988 32.8553 17.8988 32.358C17.8988 31.861 18.302 31.4579 18.7993 31.4579C19.2963 31.4579 19.6994 31.861 19.6994 32.358C19.6994 32.8553 19.2963 33.2584 18.7993 33.2584ZM26.7805 30.5028L23.6086 31.6575C23.5101 31.6941 23.4059 31.7129 23.3005 31.7125C22.8635 31.7129 22.4893 31.399 22.4131 30.9686C22.3373 30.5382 22.5816 30.1151 22.9928 29.9662L26.1654 28.8119C26.4712 28.6865 26.8208 28.7384 27.0766 28.9473C27.3328 29.1565 27.4536 29.4888 27.3917 29.8131C27.3297 30.1377 27.0951 30.4024 26.7805 30.5028Z" fill="#84A2FF"/>
<path d="M21.0984 14.5393L9.25572 10.2277C5.98426 9.04452 2.37161 10.7266 1.17111 13.9919C0.918781 14.6812 0.790691 15.4097 0.792999 16.1437C0.796461 18.7931 2.45354 21.1584 4.94262 22.0665L16.7887 26.38L21.0984 14.5393ZM3.49402 16.1525C2.99667 16.1525 2.59355 15.7494 2.59355 15.2524C2.59355 14.7551 2.99667 14.3519 3.49402 14.3519C3.99099 14.3519 4.39411 14.7551 4.39411 15.2524C4.39411 15.7494 3.99099 16.1525 3.49402 16.1525ZM9.17841 13.0707C9.00916 13.538 8.49335 13.78 8.02599 13.6111L7.10052 13.4515C6.8228 13.4522 6.54662 13.4957 6.28237 13.5803C5.82155 13.6977 5.34882 13.4365 5.20303 12.9841C5.05725 12.5314 5.28843 12.0433 5.73116 11.8698C5.95041 11.8002 6.17466 11.7467 6.40199 11.7105C6.63278 11.6725 6.86665 11.6525 7.10052 11.6509L8.26178 11.8052L8.63644 11.9229C9.10186 12.0913 9.34419 12.6041 9.17841 13.0707ZM16.1479 16.5695L13.4396 15.579C13.1292 15.4755 12.8991 15.2116 12.8391 14.8897C12.7795 14.5677 12.8991 14.2389 13.1515 14.0304C13.4042 13.8223 13.75 13.7673 14.0546 13.8873L16.7626 14.8731C17.0734 14.9766 17.303 15.2409 17.363 15.5628C17.4227 15.8844 17.3034 16.2137 17.0507 16.4218C16.798 16.6302 16.4522 16.6849 16.1479 16.5648V16.5695Z" fill="#84A2FF"/>
<path d="M50.8283 24.5641C50.2567 22.9925 49.0839 21.7127 47.568 21.0061C46.0524 20.2995 44.3181 20.2245 42.7471 20.7972L38.7902 22.2378C38.7841 22.2378 38.7802 22.2458 38.7741 22.2478L30.9033 25.1115L35.2168 36.9495L47.0622 32.638C50.3275 31.444 52.0115 27.8333 50.8283 24.5641ZM37.637 26.4916L34.464 27.646C33.9967 27.8156 33.4801 27.5744 33.3105 27.1071C33.1408 26.6397 33.382 26.1231 33.8494 25.9535L37.0212 24.7957C37.4886 24.6257 38.0051 24.8665 38.1752 25.3338C38.3452 25.8012 38.1044 26.3182 37.637 26.4882V26.4916ZM47.7061 24.288C47.4203 24.6942 46.8594 24.7926 46.4525 24.5076C46.2282 24.3518 45.9821 24.2303 45.7216 24.1472C45.5913 24.106 45.4578 24.0745 45.3228 24.0529C45.1854 24.0302 45.047 24.0179 44.9077 24.0168L43.9823 24.1826L40.8085 25.3357C40.3458 25.49 39.8446 25.2477 39.6776 24.7892C39.5111 24.3307 39.7399 23.8229 40.1938 23.6441L44.51 22.2324L44.9077 22.2162C45.1416 22.2162 45.3747 22.2347 45.6055 22.2712C45.8328 22.3066 46.0571 22.3601 46.2763 22.4305C46.4921 22.5001 46.7029 22.5851 46.9064 22.6851C47.1095 22.7867 47.3049 22.9032 47.4907 23.0336C47.8961 23.3206 47.9926 23.8822 47.7061 24.288Z" fill="#84A2FF"/>
</g>
<defs>
<clipPath id="clip0_2148_1550">
<rect width="50.4138" height="50.4138" fill="white" transform="translate(0.792969 0.792969)"/>
</clipPath>
</defs>
</svg>
