<svg width="470" height="470" viewBox="0 0 470 470" fill="none" xmlns="http://www.w3.org/2000/svg">
<rect x="0.333984" y="0.333008" width="469.333" height="469.333" rx="64" fill="#F7843A"/>
<mask id="mask0_3_89" style="mask-type:alpha" maskUnits="userSpaceOnUse" x="135" y="135" width="200" height="200">
<rect x="135" y="135" width="200" height="200" fill="#D9D9D9"/>
</mask>
<g mask="url(#mask0_3_89)">
<path d="M235 318.334C223.473 318.334 212.639 316.146 202.5 311.771C192.361 307.396 183.542 301.459 176.042 293.959C168.542 286.459 162.604 277.639 158.229 267.5C153.854 257.361 151.667 246.528 151.667 235C151.667 223.473 153.854 212.639 158.229 202.5C162.604 192.361 168.542 183.542 176.042 176.042C183.542 168.542 192.361 162.604 202.5 158.229C212.639 153.854 223.473 151.667 235 151.667C246.528 151.667 257.361 153.854 267.5 158.229C277.639 162.604 286.459 168.542 293.959 176.042C301.459 183.542 307.396 192.361 311.771 202.5C316.146 212.639 318.334 223.473 318.334 235C318.334 246.528 316.146 257.361 311.771 267.5C307.396 277.639 301.459 286.459 293.959 293.959C286.459 301.459 277.639 307.396 267.5 311.771C257.361 316.146 246.528 318.334 235 318.334ZM239.167 305.834C258.195 304.445 274.063 297.084 286.771 283.75C299.48 270.417 305.834 254.167 305.834 235C305.834 215.834 299.48 199.584 286.771 186.25C274.063 172.917 258.195 165.556 239.167 164.167V305.834Z" fill="white"/>
</g>
</svg>
