<svg width="470" height="470" viewBox="0 0 470 470" fill="none" xmlns="http://www.w3.org/2000/svg">
<rect x="0.333984" y="0.333496" width="469.333" height="469.333" rx="64" fill="#F7843A"/>
<mask id="mask0_3_72" style="mask-type:alpha" maskUnits="userSpaceOnUse" x="135" y="135" width="200" height="200">
<rect x="135" y="135" width="200" height="200" fill="#D9D9D9"/>
</mask>
<g mask="url(#mask0_3_72)">
<path d="M153.541 310.875L149.583 299C155.139 296.639 159.652 292.958 163.125 287.958C166.597 282.958 168.333 277.333 168.333 271.083V177.958C165.694 174.764 163.264 171.465 161.041 168.063C158.819 164.66 156.805 161.014 155 157.125L166.666 152.125C172.777 165.875 181.944 176.708 194.166 184.625C206.389 192.542 220 196.5 235 196.5C250 196.5 263.611 192.542 275.833 184.625C288.055 176.708 297.222 165.875 303.333 152.125L315 157.125C313.194 160.875 311.18 164.486 308.958 167.958C306.736 171.431 304.305 174.764 301.666 177.958V271.083C301.666 277.333 303.402 282.958 306.875 287.958C310.347 292.958 314.861 296.639 320.416 299L316.458 310.875C308.264 307.681 301.666 302.472 296.666 295.25C291.666 288.028 289.166 279.972 289.166 271.083V190.042C281.527 196.153 273.09 200.84 263.854 204.104C254.618 207.368 245 209 235 209C225 209 215.382 207.368 206.146 204.104C196.909 200.84 188.472 196.153 180.833 190.042V271.083C180.833 279.972 178.333 288.028 173.333 295.25C168.333 302.472 161.736 307.681 153.541 310.875Z" fill="white"/>
</g>
</svg>
