<svg width="52" height="52" viewBox="0 0 52 52" fill="none" xmlns="http://www.w3.org/2000/svg">
<g clip-path="url(#clip0_2148_481)">
<path d="M17.8693 30.0172C17.7321 30.9939 17.232 31.8831 16.4688 32.5075C16.5749 32.7011 16.6658 32.9027 16.7404 33.1104C16.7575 33.1569 16.7747 33.2024 16.7903 33.2488C16.8552 33.4399 16.9085 33.6346 16.9498 33.832L16.9549 33.8508C18.1394 31.8326 19.6123 29.998 21.3267 28.4051C21.326 28.2469 21.323 28.0893 21.322 27.9312C20.0634 28.4303 18.8965 29.1352 17.8693 30.0172Z" fill="#7E65C3"/>
<path d="M16.2918 37.4661C16.2276 37.3875 16.1679 37.3213 16.1059 37.2482C14.8149 38.228 13.2137 38.7092 11.5965 38.6036C9.36656 38.6128 7.14735 38.294 5.01015 37.6572C4.53882 37.4998 4.2842 36.9903 4.44114 36.5188C4.59809 36.0474 5.10733 35.7922 5.57896 35.9486C7.53371 36.5195 9.56014 36.8072 11.5965 36.8032C14.0954 36.8032 15.005 35.8752 15.2356 35.5743C15.3597 34.7413 15.1853 33.8912 14.7433 33.1743C12.7013 33.1689 10.7257 32.4484 9.1596 31.1381C8.81272 30.7858 8.81499 30.2198 9.16452 29.8701C9.51406 29.5205 10.0802 29.5183 10.4325 29.8652C11.7194 30.89 13.3259 31.4294 14.9705 31.3888C15.6148 31.0121 16.0353 30.3452 16.0976 29.6014C15.9564 28.5821 15.4986 27.6328 14.7889 26.8875C11.1808 26.7522 9.02264 24.8173 8.02286 20.8177C7.94479 20.5058 8.03911 20.176 8.2702 19.9524C8.50129 19.7289 8.83409 19.6456 9.14316 19.7339C9.45232 19.8223 9.6908 20.0688 9.76888 20.3807C10.6008 23.7054 12.1585 25.0738 15.1275 25.096C15.9155 24.9134 16.666 24.5959 17.346 24.1579C17.3526 24.1536 17.3608 24.1534 17.3675 24.1492C18.878 23.1835 19.7648 21.4907 19.6985 19.699C19.6985 15.3631 17.7266 10.6968 13.397 10.6968C5.50777 10.6968 0.793945 19.8511 0.793945 28.7011C0.793945 38.1107 4.13463 47.6056 11.5965 47.6056C17.7213 47.6056 17.898 41.9489 17.898 41.3041C17.8236 39.878 17.2566 38.5219 16.2937 37.4674L16.2918 37.4661Z" fill="#7E65C3"/>
<path d="M16.7588 26.4899L16.7637 26.4973C16.9879 26.819 17.1875 27.157 17.3608 27.5087C17.3678 27.523 17.3738 27.5384 17.3807 27.5526C17.4344 27.6649 17.4867 27.7788 17.5346 27.8964C17.5422 27.9153 17.5482 27.9354 17.5557 27.9544C18.6815 27.1531 19.9126 26.5111 21.2141 26.0467C21.2434 26.0415 21.273 26.0379 21.3029 26.0358C21.3016 25.948 21.3017 25.8597 21.3002 25.772C20.2328 26.0499 19.116 26.0805 18.035 25.8612C17.6283 26.1065 17.2014 26.3169 16.7588 26.4899Z" fill="#7E65C3"/>
<path d="M25.7108 22.0594C25.585 15.2782 24.9262 8.51738 23.7406 1.83935C23.6386 1.34557 23.2622 0.954088 22.7727 0.832882C22.2832 0.711677 21.7676 0.882211 21.447 1.27143C21.201 1.56435 21.1012 1.95298 21.1753 2.32811C23.2298 12.9764 23.9788 35.5025 21.9068 49.7113C21.8512 50.0841 21.9627 50.4625 22.2118 50.7455C22.4649 51.0385 22.833 51.2069 23.2202 51.2066C23.8727 51.2122 24.4306 50.7381 24.5301 50.0932C24.5727 49.8189 24.6121 49.5347 24.6524 49.2536C24.6833 49.0381 24.7149 48.8264 24.7446 48.6058C24.7671 48.4384 24.7879 48.2658 24.8097 48.0962C24.8514 47.7716 24.8931 47.4479 24.9322 47.1132C24.9388 47.0575 24.9447 46.9999 24.9511 46.944C25.7872 38.678 26.041 30.3634 25.7107 22.0618L25.7108 22.0594Z" fill="#7E65C3"/>
<path d="M35.2415 21.9887C34.4349 21.6743 33.6831 21.234 33.0144 20.6841C32.9242 21.9254 32.8281 23.204 32.7275 24.5014C33.2059 24.3457 33.7019 24.2508 34.2039 24.2192C34.4062 23.417 34.7583 22.6602 35.2415 21.9887Z" fill="#7E65C3"/>
<path d="M38.6033 6.1958C36.4609 6.22248 34.5258 7.48151 33.6333 9.42936C33.4352 9.79495 33.2613 10.1731 33.1126 10.5614C33.0761 10.6573 33.0435 10.7559 33.0094 10.8536C32.8908 11.1889 32.7856 11.535 32.6967 11.893C32.6597 12.0426 32.6293 12.1948 32.5975 12.3467C32.525 12.6951 32.4617 13.0495 32.4169 13.415C32.4033 13.5231 32.3912 13.6309 32.38 13.7393C32.3331 14.215 32.3018 14.6995 32.3018 15.1979C32.3017 15.4646 32.318 15.7312 32.3508 15.9959C32.3694 16.1454 32.4034 16.2867 32.4325 16.4303C32.4525 16.5281 32.4655 16.6327 32.4899 16.7261C32.6076 17.1832 32.7915 17.6205 33.0359 18.0243L33.0368 18.0264C33.923 19.3551 35.2994 20.2788 36.8649 20.5955C39.8393 20.5757 41.399 19.2074 42.2315 15.8797C42.3095 15.5677 42.548 15.3212 42.8572 15.2329C43.1664 15.1445 43.4991 15.2277 43.7301 15.4513C43.9612 15.6749 44.0555 16.0047 43.9775 16.3166C42.9777 20.3162 40.8195 22.2512 37.2114 22.3865C36.5017 23.1317 36.044 24.081 35.9028 25.1003C35.9651 25.8442 36.3858 26.5111 37.0305 26.8876C38.6773 26.9281 40.2857 26.3869 41.5731 25.3592C41.9266 25.0133 42.4931 25.0174 42.8414 25.3687C43.1898 25.7198 43.1895 26.2862 42.8407 26.637C41.2746 27.9474 39.299 28.6678 37.257 28.6733C36.8148 29.3907 36.6406 30.2414 36.7652 31.0749C37.0001 31.3796 37.9148 32.3022 40.4038 32.3022C42.44 32.3086 44.4665 32.0209 46.4205 31.4481C46.8922 31.2908 47.4021 31.5457 47.5594 32.0173C47.7167 32.4891 47.4618 32.9989 46.9902 33.1562C44.853 33.7929 42.6338 34.1118 40.4038 34.1027C38.7843 34.2089 37.181 33.726 35.8895 32.743C34.8245 33.8372 34.1899 35.2789 34.1023 36.8032C34.1023 37.4481 34.2791 43.1048 40.4038 43.1048C47.8658 43.1048 51.2064 33.6099 51.2064 24.2002C51.2063 15.3501 46.4925 6.1958 38.6033 6.1958Z" fill="#7E65C3"/>
<path d="M35.227 28.6991C35.3077 28.4596 35.4094 28.2278 35.5311 28.0062C34.9091 27.4899 34.4549 26.8002 34.226 26.0249C33.6488 26.0749 33.0866 26.2351 32.5698 26.497C32.5183 27.1414 32.4658 27.7873 32.4121 28.4347C33.3349 28.6456 34.2812 28.7346 35.227 28.6991Z" fill="#7E65C3"/>
<path d="M30.5065 0.793871C29.5149 0.762757 28.6852 1.54011 28.6519 2.53171C28.5129 7.0051 28.0866 14.2991 27.5108 22.0504C27.6318 25.7397 27.6579 29.3738 27.5979 32.8522C27.5966 32.9347 27.5952 33.0172 27.5936 33.0996C27.5854 33.5434 27.5758 33.9845 27.5645 34.4232C27.5597 34.6181 27.5546 34.8129 27.5492 35.0074C27.5395 35.3538 27.5288 35.6985 27.5172 36.041C27.5068 36.3402 27.4959 36.6389 27.4846 36.9368C27.4749 37.1843 27.4654 37.4318 27.4547 37.677C27.4377 38.0751 27.4188 38.4701 27.399 38.8644C27.3914 39.0182 27.3841 39.1729 27.376 39.3257C27.3504 39.8069 27.3228 40.2849 27.2933 40.7597C27.2891 40.8283 27.2851 40.8978 27.2807 40.9661C27.246 41.5134 27.2086 42.0552 27.1682 42.5915L27.168 42.5947C27.0477 44.1949 26.9027 45.7424 26.731 47.2195C26.7265 47.2575 26.7225 47.2968 26.7181 47.3347C26.671 47.7353 26.6213 48.128 26.5703 48.5176C26.5575 48.6162 26.5454 48.7177 26.5323 48.8152C26.4888 49.1395 26.4425 49.4557 26.396 49.7716C26.3778 49.8958 26.3611 50.026 26.3423 50.1484C26.3001 50.4148 26.3776 50.6861 26.5542 50.8899C26.7271 51.093 26.9812 51.209 27.2479 51.2068C27.6882 51.2083 28.0678 50.8976 28.1533 50.4657C29.2778 44.652 30.5726 29.7915 31.3498 18.7048C31.3201 18.6507 31.2997 18.5914 31.2715 18.5363C31.1955 18.3884 31.1249 18.2353 31.0585 18.0774C31.0248 17.9967 30.9877 17.9178 30.9572 17.8356C30.8716 17.6052 30.7984 17.3703 30.7379 17.132C30.718 17.0537 30.7027 16.9731 30.6853 16.8935C30.6429 16.7015 30.6079 16.5035 30.5802 16.2997C30.5692 16.2176 30.5569 16.1362 30.5483 16.0529C30.5176 15.7689 30.5015 15.4836 30.5004 15.198C30.5004 14.6279 30.5362 14.0793 30.5884 13.5418C30.5959 13.4673 30.6026 13.393 30.611 13.319C30.7694 11.6971 31.2331 10.1197 31.978 8.67017C32.1045 6.30927 32.1955 4.28225 32.248 2.64455C32.2774 1.65304 31.4981 0.825083 30.5065 0.793871Z" fill="#7E65C3"/>
</g>
<defs>
<clipPath id="clip0_2148_481">
<rect width="50.4138" height="50.4138" fill="white" transform="translate(0.792969 0.792969)"/>
</clipPath>
</defs>
</svg>
