<svg width="52" height="52" viewBox="0 0 52 52" fill="none" xmlns="http://www.w3.org/2000/svg">
<g clip-path="url(#clip0_2148_685)">
<path d="M36.0082 44.2964C35.6844 42.5229 35.0731 40.8142 34.1987 39.2377C34.1333 39.1288 34.0705 39.0164 34.0017 38.9123C33.9391 38.8172 33.8728 38.7325 33.8082 38.643C33.7145 38.5132 33.6205 38.384 33.5207 38.2636C33.4963 38.2341 33.4705 38.2084 33.4459 38.1796C33.4325 38.1821 33.4191 38.1828 33.4057 38.185C33.2952 38.2034 33.1814 38.2172 33.0667 38.231C32.7541 38.2732 32.439 38.2956 32.1235 38.2977C31.8216 38.2977 31.5397 38.2878 31.2751 38.2685C31.2536 38.2669 31.2356 38.2632 31.2143 38.2615C30.9738 38.2422 30.7442 38.2171 30.5308 38.1822L30.515 38.1787C29.3346 37.9939 28.2435 37.4385 27.3996 36.5928C26.406 37.2825 25.2508 37.7031 24.0464 37.8138C24.029 37.816 24.0136 37.8194 23.9961 37.8214C22.9715 38.8265 22.425 40.2214 22.4941 41.655C22.4941 43.8579 23.7939 44.9588 25.2995 46.2326C26.7277 47.442 28.3267 48.7949 28.6493 51.1992H36.7587C36.7102 48.8844 36.4604 46.5782 36.012 44.3066L36.0082 44.2964Z" fill="#F7B289"/>
<path d="M22.7013 36.1004C23.0127 36.1004 23.2912 36.0801 23.5605 36.0554C23.7687 36.036 23.9585 36.0072 24.1427 35.9761C24.2186 35.9633 24.2987 35.9526 24.3705 35.9381C24.5547 35.9011 24.7238 35.8584 24.883 35.8126C24.9363 35.7972 24.9914 35.7825 25.042 35.7664C25.198 35.7169 25.3417 35.6647 25.4732 35.61C25.5111 35.5941 25.5488 35.5784 25.5846 35.5622C25.7117 35.5056 25.8294 35.4483 25.9325 35.3912C25.9584 35.3767 25.9826 35.3625 26.007 35.348C26.1061 35.2902 26.1977 35.2331 26.2736 35.1795C26.2896 35.1681 26.3029 35.1577 26.3178 35.1465C26.3909 35.0929 26.4578 35.0409 26.5083 34.9968L26.5241 34.9822C26.5856 34.9289 26.6431 34.871 26.6959 34.8091C26.7522 34.7478 26.8166 34.6945 26.8874 34.6506C26.919 34.6205 26.9526 34.5926 26.9882 34.5671C27.0922 34.5141 27.2055 34.4819 27.3218 34.4722C27.3328 34.4711 27.3422 34.4639 27.3533 34.4632H27.3535L27.355 34.4628L27.3572 34.4631C27.3748 34.462 27.3923 34.4614 27.4104 34.4614C27.5204 34.4822 27.6306 34.503 27.7406 34.5236C27.8559 34.5656 27.9608 34.6317 28.0484 34.7176C29.3671 36.0359 30.0166 36.4972 32.1233 36.4972C32.3574 36.4971 32.5913 36.4826 32.8236 36.4533C32.8407 36.4513 32.8562 36.4475 32.8731 36.4454C33.0931 36.4161 33.3113 36.3742 33.5263 36.3197L33.5612 36.3102C34.3553 36.102 35.0887 35.7084 35.701 35.1618L35.7095 35.1543C36.1257 34.7832 36.4855 34.3533 36.7775 33.8784L36.7829 33.8695C36.8449 33.7674 36.8912 33.6832 36.9228 33.6225L36.9349 33.5987C36.9535 33.5619 36.9664 33.5353 36.9698 33.528L36.9743 33.5184C37.004 33.4505 37.0419 33.3866 37.0873 33.328C37.1031 33.3074 37.124 33.2918 37.1414 33.2728C37.1975 33.2001 37.2704 33.1418 37.3538 33.1031C37.3773 33.0896 37.3981 33.0719 37.423 33.0605C37.4899 33.0295 37.5605 33.007 37.633 32.9933C37.6629 32.9899 37.6931 32.9882 37.7232 32.9879C37.9869 32.9602 38.2489 33.0535 38.4358 33.2416C40.0859 34.8913 41.0513 34.9646 42.9085 34.9646C44.6643 35.0394 46.201 33.7947 46.4926 32.0617C46.4926 30.8999 45.9098 30.6239 45.9041 30.6221C45.4897 30.4773 45.2402 30.0547 45.3135 29.6219C45.3868 29.1891 45.7618 28.8724 46.2007 28.8723C46.3974 28.8694 46.5931 28.8446 46.7843 28.7982C46.8324 28.7874 46.8802 28.7725 46.928 28.7592C47.1026 28.7103 47.2729 28.6471 47.4373 28.5705C49.4803 27.6172 51.2068 24.5393 51.2068 22.1352C51.2068 19.6146 48.623 18.6646 48.5131 18.6255C48.222 18.5221 48.004 18.277 47.9355 17.9758C47.867 17.6746 47.9574 17.3593 48.1752 17.1402C48.8777 16.2577 49.2014 15.1324 49.0752 14.0114C49.0752 11.5673 46.0708 10.4203 46.0404 10.4089C45.6876 10.2776 45.4532 9.94125 45.452 9.56474C45.452 7.71871 44.6369 4.22736 41.5524 4.22736C41.0215 4.17431 40.4919 4.33977 40.0856 4.68567C39.8353 4.96946 39.437 5.07153 39.0811 4.94317C38.7305 4.81777 38.4946 4.48802 38.4892 4.11574C38.4892 3.13494 36.615 1.38292 32.8806 1.38292C31.6009 1.31874 30.3545 1.80343 29.4543 2.71532C29.2626 2.94772 28.9677 3.06939 28.6678 3.03986C28.368 3.01033 28.1025 2.83344 27.9598 2.56816C27.9246 2.50703 26.9179 0.800781 23.6343 0.800781C21.8893 0.800781 20.0481 2.61039 19.4856 3.30779C19.204 3.65566 18.7103 3.74494 18.3247 3.51785C17.3092 2.93906 16.1748 2.59996 15.0083 2.52652C12.9832 2.4087 11.2137 3.88147 10.962 5.89434C10.9511 6.58357 11.0946 7.26641 11.3821 7.89294C11.5321 8.172 11.5249 8.50934 11.3632 8.7818C11.2014 9.05427 10.9088 9.22209 10.5919 9.22406C8.09684 9.22406 6.47219 9.73553 5.32485 10.8825C2.1917 14.0165 3.98191 16.2783 4.05967 16.3732C4.28036 16.6422 4.32623 17.0143 4.1775 17.3288C4.02877 17.6433 3.71201 17.8439 3.36404 17.844C1.8141 17.844 1.3492 18.3788 1.13432 18.7809C0.860279 19.4844 0.748852 20.2409 0.8087 20.9935C0.662624 22.5039 1.59263 23.9107 3.0396 24.3678C4.3787 24.5403 5.72409 24.0992 6.70115 23.1674C7.05256 22.816 7.62229 22.816 7.9738 23.1674C8.32531 23.5188 8.32521 24.0886 7.9738 24.4401C6.79436 25.5903 5.20515 26.2229 3.55786 26.1983C3.3288 26.1983 3.14158 26.1863 2.99649 26.1731C2.77492 26.3712 2.6505 26.656 2.65561 26.9533C2.65561 30.6064 6.836 30.815 7.01397 30.8225C8.35937 30.892 9.70289 30.6535 10.9421 30.1251C11.1984 29.9825 11.5079 29.9728 11.7726 30.0992C12.0372 30.2256 12.2243 30.4724 12.2745 30.7614C12.3189 31.0228 12.7732 33.3189 14.9814 33.3189C16.1818 33.343 17.3688 33.0636 18.4325 32.5066C18.3883 30.7548 19.2709 29.1095 20.7546 28.1772C20.8588 27.6379 21.0286 27.1134 21.2603 26.6155C18.9832 25.4715 17.6043 23.0832 17.752 20.5392C17.752 20.0422 18.1549 19.6393 18.652 19.6393C19.149 19.6393 19.552 20.0421 19.552 20.5392C19.552 23.5006 21.2681 24.6483 22.1744 25.0479C23.0878 23.6106 24.6341 22.6972 26.3339 22.591C26.8649 22.5935 27.3947 22.6437 27.9168 22.7411C28.5313 20.9577 30.3692 17.9932 33.5429 17.9932C33.7427 17.9932 33.9286 18.0045 34.1125 18.0172L34.1198 18.0157C34.847 18.0157 36.5591 16.337 36.5591 14.8064C36.5591 14.3095 36.962 13.9065 37.4591 13.9065C37.9562 13.9065 38.3591 14.3094 38.3591 14.8064C38.2599 16.2832 37.5936 17.6644 36.4995 18.661C37.3565 19.0988 38.0115 19.8503 38.3279 20.759C38.4574 21.236 38.178 21.7281 37.7021 21.8615C37.2262 21.9949 36.7318 21.7195 36.5947 21.2446C36.5657 21.1572 36.0726 19.7931 33.5429 19.7931C31.3648 19.7931 30.0704 22.077 29.64 23.2378C30.225 23.4714 30.7707 23.7932 31.2582 24.1919C31.6237 24.5278 31.6482 25.0962 31.3131 25.4623C30.9779 25.8284 30.4095 25.854 30.0428 25.5195C28.9739 24.7264 27.6634 24.3278 26.3339 24.3911C24.6911 24.3911 23.4008 26.154 22.8243 27.5138C23.1785 27.464 23.5356 27.4377 23.8933 27.435C24.3903 27.435 24.7933 27.8379 24.7933 28.335C24.7933 28.832 24.3904 29.235 23.8933 29.235C21.3358 29.235 20.1954 30.4048 20.1954 33.0273L20.1933 33.0382C20.1933 33.0433 20.1953 33.0481 20.1951 33.0533C20.1868 33.9361 20.4817 34.795 21.0305 35.4865C21.4769 35.9158 22.0829 36.1386 22.7013 36.1004ZM38.8334 26.0367C39.1095 24.3966 40.07 22.9513 41.4752 22.0615C40.7259 21.0807 40.3156 19.8831 40.306 18.6489C40.2742 17.1602 40.8999 15.733 42.0165 14.7478C41.5335 14.2195 41.2324 13.5505 41.1571 12.8388C41.1468 12.3419 41.5408 11.9305 42.0377 11.9195C42.5233 11.9192 42.9255 12.2966 42.9561 12.7812C42.9649 12.8849 43.16 14.5305 46.5415 14.5305C47.0385 14.5305 47.4415 14.9334 47.4415 15.4305C47.4415 15.9275 47.0386 16.3305 46.5415 16.3305C45.5227 16.3577 44.5085 16.1827 43.5576 15.8157C42.6252 16.4533 42.0788 17.5196 42.1057 18.6489C42.1253 19.6179 42.4921 20.5476 43.1393 21.269C44.2397 20.9236 45.3882 20.7567 46.5415 20.7745C47.0385 20.7745 47.4415 21.1774 47.4415 21.6745C47.4415 22.1715 47.0386 22.5745 46.5415 22.5745C41.0142 22.5745 40.6292 26.1607 40.6262 26.1967C40.5847 26.6605 40.1963 27.0163 39.7306 27.0167C39.7039 27.0167 39.677 27.0154 39.6498 27.0131C39.1548 26.9689 38.7892 26.5318 38.8334 26.0367ZM24.8772 19.4806C24.7272 19.6663 24.5096 19.7847 24.2723 19.8099C24.035 19.8354 23.7972 19.7655 23.6115 19.6156C23.4258 19.4657 23.3073 19.248 23.2822 19.0107C23.044 16.6625 21.0098 14.9113 18.6523 15.025C17.5615 14.9332 16.4926 15.3689 15.7767 16.1969C14.4548 17.8589 14.8139 21.0289 15.0634 22.1104C15.1359 22.4238 15.0358 22.7519 14.8007 22.9713C14.5656 23.1907 14.2312 23.268 13.9237 23.174C13.6162 23.08 13.3822 22.829 13.31 22.5157C13.0454 21.2468 12.9675 19.9461 13.0788 18.6546C11.7152 18.6151 10.2115 18.2904 7.98797 16.0669C7.76069 15.8396 7.6719 15.5082 7.75508 15.1977C7.83826 14.8873 8.0809 14.6446 8.39136 14.5614C8.70192 14.4783 9.03324 14.5671 9.26053 14.7943C11.1742 16.708 12.1935 16.8567 13.4414 16.8587C13.6409 16.2139 13.9548 15.6102 14.3681 15.0765C15.0384 14.238 15.9742 13.6528 17.0214 13.4172C16.1668 11.6261 15.9405 9.59939 16.3789 7.66399C16.4562 7.35175 16.6944 7.10468 17.0034 7.0157C17.3125 6.92672 17.6455 7.0096 17.877 7.23285C18.1085 7.45619 18.2031 7.78604 18.1253 8.09808C18.1181 8.12889 17.3896 11.2553 19.0758 13.2463C22.186 13.3457 24.7458 15.7252 25.0715 18.82C25.097 19.0572 25.0271 19.2949 24.8772 19.4806ZM35.3027 12.887C33.6679 12.9113 32.0678 12.416 30.7328 11.4723C30.2415 12.0755 29.9307 12.8053 29.8361 13.5774C29.7461 14.3481 30.015 15.1175 30.5656 15.6643C30.7928 15.8916 30.8816 16.223 30.7984 16.5335C30.7153 16.844 30.4727 17.0866 30.1622 17.1697C29.8516 17.2529 29.5203 17.1641 29.293 16.9369C28.3648 16.0115 27.9055 14.7155 28.0437 13.4121C28.182 12.2191 28.6752 11.0951 29.4596 10.1856C28.5852 8.91528 28.1424 7.39752 28.1966 5.85644C28.1966 5.35945 28.5995 4.95646 29.0966 4.95646C29.5937 4.95646 29.9966 5.35935 29.9966 5.85644C29.9151 7.21286 30.3755 8.54615 31.2765 9.56337L31.2846 9.56878C31.2894 9.5736 31.2906 9.5801 31.2953 9.58492C32.3856 10.5868 33.8227 11.1254 35.3029 11.087C35.7999 11.087 36.2029 11.4899 36.2029 11.987C36.2029 12.4841 35.7997 12.887 35.3027 12.887ZM30.0442 29.8902C30.8714 29.2177 31.8676 28.7858 32.9239 28.6418C33.2291 26.1522 34.8755 25.4571 35.7895 25.4571C36.2824 25.4572 36.6834 25.8538 36.6891 26.3466C36.6947 26.8395 36.303 27.2451 35.8102 27.2566C35.6977 27.2644 34.9564 27.3773 34.736 28.6848C35.8224 28.917 36.8126 29.4741 37.5749 30.2821C37.7844 30.5261 37.8477 30.8633 37.7412 31.1667C37.6346 31.47 37.3743 31.6935 37.0584 31.7528C36.7424 31.8122 36.4186 31.6985 36.2093 31.4546C35.5667 30.7929 34.6919 30.4072 33.77 30.3793C32.8569 30.3693 31.9674 30.6693 31.2467 31.23C30.8762 31.5571 30.3112 31.5243 29.9812 31.1564C29.6509 30.7885 29.6792 30.2233 30.0442 29.8902Z" fill="#F7B289"/>
<path d="M48.0441 30.5874C48.0483 30.5986 48.05 30.6132 48.0541 30.6245C48.122 30.8144 48.1747 31.0093 48.2116 31.2075C48.2197 31.2503 48.2255 31.2947 48.2324 31.3387C48.2716 31.5777 48.2918 31.8196 48.2928 32.0617C47.995 34.7913 45.6537 36.8364 42.9089 36.7646C42.2719 36.7768 41.6349 36.7404 41.0035 36.6555L40.9946 36.6537C40.7974 36.623 40.6024 36.5844 40.4085 36.535L40.4055 36.5341C40.2071 36.4836 40.0115 36.4224 39.8198 36.3504C39.7993 36.3426 39.7784 36.3309 39.7579 36.3229C39.5775 36.2538 39.4007 36.1754 39.2284 36.0881C39.2156 36.0816 39.2024 36.0719 39.1896 36.0653C38.9963 35.9648 38.8082 35.8546 38.6261 35.7348C38.6164 35.7284 38.6061 35.7195 38.5964 35.713C38.4034 35.5842 38.208 35.4424 38.0079 35.2802C37.3056 36.2657 36.3693 37.061 35.2832 37.5945L35.2922 37.6089C36.4149 39.3157 37.2047 41.2195 37.6199 43.2199C39.947 43.1201 42.2193 42.4832 44.2592 41.3589C48.5029 38.9091 50.5853 34.5433 48.9014 31.6267C48.6741 31.2358 48.3846 30.8848 48.0441 30.5874Z" fill="#F7B289"/>
</g>
<defs>
<clipPath id="clip0_2148_685">
<rect width="50.4138" height="50.4138" fill="white" transform="translate(0.792969 0.792969)"/>
</clipPath>
</defs>
</svg>
