<svg width="52" height="52" viewBox="0 0 52 52" fill="none" xmlns="http://www.w3.org/2000/svg">
<g clip-path="url(#clip0_2148_1829)">
<path d="M50.5908 24.5146L41.8189 15.7428C33.0976 7.01933 18.9021 7.01933 10.1807 15.7428L1.40892 24.5146C0.58765 25.3359 0.58765 26.6635 1.40892 27.4847L10.1807 36.2565C14.5414 40.6172 20.2696 42.7997 25.9998 42.7997C31.73 42.7997 37.4582 40.6172 41.8189 36.2565L50.5907 27.4847C51.412 26.6635 51.412 25.3359 50.5908 24.5146ZM25.9998 36.5023C20.2086 36.5023 15.4971 31.7908 15.4971 25.9996C15.4971 20.2085 20.2086 15.4969 25.9998 15.4969C31.791 15.4969 36.5025 20.2085 36.5025 25.9996C36.5025 31.7908 31.791 36.5023 25.9998 36.5023Z" fill="#50C8E6"/>
<path d="M25.9998 19.6982C22.5256 19.6982 19.6982 22.5256 19.6982 25.9998C19.6982 29.4741 22.5256 32.3014 25.9998 32.3014C29.4741 32.3014 32.3014 29.4741 32.3014 25.9998C32.3014 22.5256 29.4742 19.6982 25.9998 19.6982Z" fill="#50C8E6"/>
</g>
<defs>
<clipPath id="clip0_2148_1829">
<rect width="50.4138" height="50.4138" fill="white" transform="translate(0.792969 0.792969)"/>
</clipPath>
</defs>
</svg>
