<svg width="52" height="52" viewBox="0 0 52 52" fill="none" xmlns="http://www.w3.org/2000/svg">
<g clip-path="url(#clip0_2148_822)">
<path d="M51.2017 24.1974C51.232 21.3946 50.9227 18.5985 50.2804 15.8702C49.4533 17.5352 48.0501 18.8435 46.3313 19.552C46.2018 19.6959 46.0846 19.8437 45.9583 20.0114C45.1232 21.1871 43.8886 22.0185 42.4852 22.3505C42.18 22.4532 41.8432 22.3848 41.6021 22.1715C41.361 21.9582 41.2522 21.6322 41.3169 21.3168C41.3816 21.0013 41.6099 20.7446 41.9156 20.6434C42.4932 20.4685 43.0445 20.2168 43.555 19.8948C42.762 19.7733 41.9861 19.559 41.2432 19.2562C40.6918 19.0069 40.1026 18.8515 39.5001 18.7964C39.003 18.7964 38.6 18.3935 38.6 17.8963C38.6 17.3991 39.0029 16.9962 39.5001 16.9962C40.3184 17.0437 41.1216 17.2379 41.8713 17.5693C42.997 18.1447 44.2972 18.2779 45.5161 17.9429C48.5039 16.9469 49.4163 13.2278 49.4251 13.19L49.4255 13.1892C47.3435 7.76447 43.4969 4.64694 38.286 4.4272C37.7418 5.43612 36.952 6.29165 35.9898 6.91464C35.9518 6.94319 35.9178 6.97076 35.8803 6.99902C35.8886 7.03052 35.895 7.06252 35.8996 7.09481C35.9568 7.37628 36.0919 7.63609 36.2894 7.84461C37.1049 8.73066 37.2715 10.0353 36.7048 11.0979C36.4818 11.5413 35.9419 11.7206 35.498 11.4986C35.0541 11.2766 34.8735 10.7372 35.0945 10.2928C35.3977 9.68632 35.2316 9.45506 34.8294 8.89773C34.7116 8.7343 34.5879 8.54932 34.4722 8.35123C34.2944 8.60642 34.1534 8.88542 34.0532 9.17989C32.9606 12.4578 30.5991 12.4956 30.4989 12.4956C30.0018 12.4956 29.5988 12.0926 29.5988 11.5955C29.5988 11.0983 30.0017 10.6953 30.4989 10.6953C30.5235 10.6927 31.6812 10.603 32.3452 8.61026C32.8295 7.31022 33.7313 6.20747 34.9094 5.47481C35.2964 5.19855 35.6619 4.89356 36.003 4.56227C33.7596 4.98767 31.693 6.06984 30.0656 7.67153C29.8466 7.88655 29.5331 7.97535 29.2339 7.90702C28.9346 7.8387 28.6907 7.6228 28.5867 7.33394C27.9555 5.50247 27.4469 3.63093 27.0642 1.73192C26.9944 1.39876 26.7431 1.13324 26.4142 1.04542C25.0574 0.734814 23.651 0.710004 22.2841 0.972473C21.8284 1.06492 21.514 1.48392 21.5527 1.94733C21.9324 6.12005 24.2227 11.0829 26.077 14.5112C26.9213 16.0566 27.5976 17.688 28.0943 19.3775C28.2906 20.0475 28.4436 20.7295 28.5523 21.4191C28.8892 21.3247 29.1892 21.1298 29.4124 20.8604C30.142 20.0458 31.2084 19.6158 32.299 19.6966C32.7961 19.6966 33.1992 20.0995 33.1992 20.5967C33.1992 21.0938 32.7962 21.4968 32.299 21.4968C31.6874 21.4166 31.0775 21.657 30.6852 22.1332C30.1668 22.7134 29.464 23.0968 28.6955 23.2187C28.6957 23.2447 28.6985 23.271 28.6985 23.297C28.6904 25.1592 28.3215 27.0022 27.6119 28.7239C28.5246 28.6959 29.395 29.1084 29.9511 29.8325C30.2032 30.1576 30.5289 30.4182 30.9013 30.5929C31.262 30.7713 31.5842 31.0187 31.8497 31.3212C32.4854 31.1329 33.1035 30.8891 33.6967 30.5929C34.1412 30.3719 34.6806 30.5525 34.9025 30.9964C35.1244 31.4403 34.9452 31.9802 34.5018 32.2032C33.8631 32.5203 33.2003 32.7857 32.5193 32.9972C32.5387 33.5167 32.4304 34.033 32.2039 34.501C31.981 34.9445 31.4411 35.1237 30.9971 34.9017C30.5532 34.6797 30.3727 34.1403 30.5936 33.6959C30.7328 33.4277 30.7666 33.1171 30.6884 32.8253C30.6276 32.745 30.5812 32.6547 30.5512 32.5585C30.4283 32.4072 30.2726 32.2857 30.096 32.2033C29.5079 31.921 28.9905 31.5103 28.582 31.0016C28.2871 30.6553 28.1521 30.4979 26.8982 30.4979C26.8513 30.4925 26.8049 30.4832 26.7595 30.47C24.9067 33.6815 21.9407 35.8986 18.7971 35.8986C17.5119 35.8982 16.2441 35.6014 15.0925 35.031C13.7222 34.3742 12.2149 34.0546 10.6961 34.0984C7.06709 34.0324 3.56797 35.448 1.0057 38.0188C0.869248 38.1813 0.794623 38.3868 0.794721 38.5989V42.1994C0.780643 42.5115 0.959232 42.8004 1.24474 42.9272C1.59276 43.0834 2.00005 43.02 2.28418 42.7655C4.6649 40.8022 7.61418 39.657 10.696 39.499C14.8305 39.499 16.3424 42.2196 17.8051 44.8513C19.1751 47.3164 20.5919 49.8411 24.307 50.7966C24.3458 50.7114 24.3979 50.6329 24.4615 50.5641C26.1373 48.8878 26.1268 48.1319 26.0442 47.8849C25.7595 47.023 25.2524 46.2517 24.574 45.6487C23.7924 45.0296 23.3251 44.0962 23.2976 43.0995C23.2042 42.2889 22.714 41.5776 21.9896 41.2017C21.5497 40.9757 21.3746 40.4372 21.5972 39.9957C21.8198 39.5541 22.3568 39.3747 22.8002 39.5939C23.1927 39.8064 23.554 40.0722 23.8738 40.3837C24.0369 40.112 24.1469 39.8117 24.1979 39.499C24.1979 39.0019 24.6008 38.5988 25.098 38.5988C25.5951 38.5988 25.9981 39.0018 25.9981 39.499C25.9571 40.118 25.7703 40.7186 25.4531 41.2518C25.2767 41.5428 25.1563 41.8641 25.098 42.1994C25.0948 42.2982 25.0752 42.3958 25.0397 42.488C25.077 42.6898 25.0965 42.8943 25.098 43.0994C25.098 43.6013 25.2905 43.8194 25.8469 44.3758C26.3564 44.8568 26.7981 45.4048 27.16 46.0047C27.2654 45.9306 27.3734 45.8562 27.4845 45.7804C28.6461 44.9866 29.5427 44.2887 29.5959 43.2022C29.526 43.1415 29.4034 43.0545 29.308 42.9868C28.3743 42.4602 27.7972 41.4709 27.7983 40.3989C27.7983 39.9018 28.2012 39.4988 28.6984 39.4988C29.1956 39.4988 29.5986 39.9017 29.5986 40.3989C29.5986 40.9623 29.8416 41.1592 30.3475 41.517C30.5532 41.6558 30.7456 41.8137 30.9218 41.9886C31.2749 41.5374 31.4451 40.9699 31.3987 40.3989C31.3987 39.9018 31.8017 39.4988 32.2989 39.4988C32.7959 39.4988 33.199 39.9017 33.199 40.3989C33.199 42.269 32.346 43.4211 31.3264 43.826C30.9936 45.5577 29.5189 46.5707 28.4997 47.2667C28.2795 47.417 28.0047 47.6063 27.8464 47.7407C28.0194 49.0245 27.1243 50.3082 26.3957 51.1384C26.8399 51.1751 27.3008 51.2003 27.7983 51.2003C31.3266 51.2713 34.8365 50.6751 38.1435 49.4431C37.431 48.658 37.2479 47.527 37.6763 46.5573C36.4217 46.3983 35.3848 45.5024 35.0454 44.2842C34.8881 43.8125 35.143 43.3027 35.6146 43.1454C36.0862 42.9881 36.596 43.2429 36.7533 43.7145C36.9141 44.3789 37.5179 44.84 38.2011 44.8203C38.7472 44.8267 39.2533 45.1076 39.5478 45.5675C39.7445 46.073 39.6915 46.6416 39.4049 47.1022C39.2483 47.3613 39.2132 47.6762 39.309 47.9633C39.4048 48.2506 39.6217 48.4814 39.9025 48.5947C39.9186 48.6028 39.9279 48.6177 39.9433 48.6266C44.3798 46.3405 47.5062 42.5498 49.3227 37.2545C48.7898 36.8478 48.2995 36.388 47.8594 35.8823C46.9689 34.9251 46.1994 34.0979 44.9006 34.0979C44.0878 34.0603 43.296 34.362 42.7145 34.9312C42.0941 35.536 41.2664 35.8818 40.4 35.8981C39.903 35.8981 39.4999 35.4951 39.4999 34.9979C39.4999 34.5007 39.9029 34.0978 40.4 34.0978C40.8686 34.0978 41.0993 33.9255 41.5757 33.536C41.9293 33.2305 42.3181 32.9686 42.7342 32.7559C42.5693 32.5725 42.3761 32.4165 42.1621 32.294C41.9256 32.2935 41.6992 32.1982 41.5336 32.0292C41.368 31.8603 41.2771 31.6321 41.2814 31.3956C41.2903 30.8952 41.6999 30.4949 42.2004 30.4973C42.9909 30.6061 43.7055 31.0249 44.1869 31.6611C44.4059 31.9085 44.6587 32.1239 44.9379 32.3004C46.997 32.3166 48.2063 33.612 49.1776 34.6559C49.4177 34.9139 49.6516 35.1626 49.8865 35.384C50.812 31.7293 51.2541 27.968 51.2017 24.1974Z" fill="#FF814E"/>
</g>
<defs>
<clipPath id="clip0_2148_822">
<rect width="50.4138" height="50.4138" fill="white" transform="translate(0.792969 0.792969)"/>
</clipPath>
</defs>
</svg>
