<svg width="52" height="52" viewBox="0 0 52 52" fill="none" xmlns="http://www.w3.org/2000/svg">
<g clip-path="url(#clip0_2148_790)">
<path d="M7.99505 25.4722L9.15907 26.6362C9.51231 26.9774 10.0738 26.9725 10.4211 26.6252C10.7683 26.278 10.7732 25.7165 10.432 25.3633L9.268 24.1992C8.56491 23.4964 7.4252 23.4964 6.7221 24.1992L6.19456 24.7268L5.03054 23.5628C4.6773 23.2216 4.11581 23.2265 3.76856 23.5737C3.4213 23.921 3.41642 24.4825 3.75759 24.8357L4.92161 25.9997C5.6247 26.7026 6.76442 26.7026 7.46751 25.9997L7.99505 25.4722Z" fill="#5757D8"/>
<path d="M12.4535 31.1252C12.3803 30.8978 12.2197 30.7089 12.0071 30.6C11.7945 30.4911 11.5474 30.4711 11.3201 30.5445L9.75365 31.0495C8.80774 31.3546 8.28794 32.3684 8.59234 33.3146L8.821 34.0258L7.25367 34.5299C6.83146 34.6656 6.57101 35.0887 6.63992 35.5268C6.70882 35.9649 7.08654 36.2876 7.53005 36.2872C7.62394 36.2873 7.71725 36.2725 7.80642 36.2431L9.37285 35.7389C9.82753 35.5924 10.2054 35.2713 10.4232 34.8461C10.641 34.421 10.6809 33.9267 10.5342 33.4721L10.3055 32.7618L11.8728 32.2577C12.3458 32.1051 12.6057 31.5982 12.4535 31.1252Z" fill="#5757D8"/>
<path d="M12.4434 20.2931L11.8843 18.7438C11.5459 17.8099 10.515 17.3265 9.58057 17.6635L8.87838 17.9165L8.32022 16.3672C8.15143 15.8993 7.63532 15.6569 7.16746 15.8257C6.6996 15.9945 6.45716 16.5106 6.62596 16.9784L7.18501 18.5278C7.52342 19.4622 8.55494 19.9457 9.48964 19.6081L10.1909 19.3551L10.7491 20.9035C10.8581 21.2062 11.1203 21.4277 11.437 21.4846C11.7536 21.5415 12.0765 21.4251 12.2841 21.1794C12.4917 20.9336 12.5524 20.5958 12.4434 20.2931Z" fill="#5757D8"/>
<path d="M47.0782 25.9997L48.2423 24.8357C48.5834 24.4825 48.5785 23.921 48.2313 23.5737C47.884 23.2265 47.3225 23.2216 46.9693 23.5628L45.8053 24.7268L45.2777 24.1992C44.5747 23.4964 43.4349 23.4964 42.7318 24.1992L41.5678 25.3633C41.3338 25.5893 41.2399 25.924 41.3223 26.2388C41.4047 26.5535 41.6505 26.7993 41.9653 26.8817C42.28 26.9641 42.6147 26.8702 42.8408 26.6362L44.0048 25.4722L44.5323 25.9997C45.2354 26.7026 46.3751 26.7026 47.0782 25.9997Z" fill="#5757D8"/>
<path d="M41.5743 34.8468C41.7909 35.2726 42.1689 35.5939 42.624 35.739L44.1905 36.2431C44.2796 36.2726 44.3729 36.2875 44.4668 36.2872C44.9103 36.2876 45.2881 35.965 45.357 35.5268C45.4259 35.0887 45.1654 34.6657 44.7432 34.5299L43.1759 34.0249L43.4045 33.3155C43.7095 32.3691 43.1896 31.3546 42.2432 31.0496L40.6768 30.5445C40.215 30.4239 39.7394 30.6846 39.5926 31.1387C39.4459 31.5929 39.679 32.0826 40.1241 32.255L41.6914 32.7592L41.4627 33.4694C41.3138 33.925 41.354 34.4212 41.5743 34.8468Z" fill="#5757D8"/>
<path d="M40.0989 21.4457C40.5662 21.6145 41.082 21.3728 41.2512 20.9055L41.8093 19.3571L42.5106 19.6101C43.4453 19.9477 44.4769 19.4642 44.8153 18.5298L45.3743 16.9814C45.5431 16.5135 45.3007 15.9974 44.8328 15.8286C44.365 15.6598 43.8489 15.9022 43.6801 16.3701L43.1219 17.9194L42.4197 17.6655C41.4852 17.3311 40.4559 17.8136 40.1151 18.7458L39.5569 20.2952C39.3895 20.7625 39.6319 21.2772 40.0989 21.4457Z" fill="#5757D8"/>
<path d="M18.5947 11.9794C20.3175 11.3338 21.4696 9.69952 21.4988 7.8599V1.69322C21.4988 1.19602 21.9019 0.792969 22.3991 0.792969H29.6011C30.0983 0.792969 30.5013 1.19602 30.5013 1.69322V7.8599C30.5305 9.69952 31.6827 11.3338 33.4055 11.9794C35.7055 12.8979 37.0862 15.2629 36.7553 17.7173C36.4245 20.1717 34.4668 22.0867 32.0057 22.3634C29.5446 22.6401 27.2107 21.2076 26.3431 18.8879C26.1216 18.276 26.0056 17.631 26.0001 16.9803C25.9864 16.493 25.5873 16.1051 25.0998 16.1053H25.0944C24.8557 16.1067 24.6273 16.2029 24.4594 16.3727C24.2916 16.5426 24.1981 16.7721 24.1996 17.0109C24.2096 18.1029 24.4672 19.1784 24.9531 20.1564C23.6065 22.0149 21.2311 22.8176 19.0332 22.1569C16.8352 21.4963 15.2961 19.517 15.1973 17.224C15.0985 14.931 16.4617 12.8267 18.5947 11.9794ZM33.4055 40.0203C31.6825 40.6657 30.5303 42.3001 30.5013 44.1398V50.3065C30.5013 50.8037 30.0983 51.2068 29.6011 51.2068H22.3991C21.9019 51.2068 21.4988 50.8037 21.4988 50.3065V44.1398C21.4699 42.3001 20.3177 40.6657 18.5947 40.0203C16.3479 39.1273 14.9682 36.85 15.2169 34.4451C15.4656 32.0402 17.2822 30.0935 19.6641 29.6792C19.9679 29.6278 20.2753 29.6016 20.5833 29.6009C22.3154 29.5995 23.9425 30.4313 24.9558 31.8362C24.4682 32.8156 24.2097 33.893 24.1996 34.987C24.1981 35.2258 24.2916 35.4553 24.4594 35.6252C24.6273 35.795 24.8557 35.8912 25.0944 35.8927H25.0998C25.5918 35.8927 25.9927 35.4978 26.0001 35.0059C26.0028 34.3605 26.1192 33.7205 26.344 33.1154C27.2107 30.795 29.5447 29.3615 32.0062 29.6377C34.4678 29.9139 36.426 31.8289 36.757 34.2837C37.088 36.7385 35.7069 39.1038 33.4064 40.0221L33.4055 40.0203ZM36.1278 29.5774C35.1397 28.7076 33.9296 28.1289 32.6322 27.9057C30.165 27.481 27.6541 28.3671 26.0001 30.2463C24.3465 28.3663 21.8352 27.4801 19.368 27.9057C18.0705 28.1289 16.8605 28.7076 15.8723 29.5774C14.9029 28.6344 14.338 27.3516 14.2969 25.9999C14.3387 24.6491 14.9036 23.3673 15.8723 22.425C16.8605 23.2948 18.0705 23.8736 19.368 24.0967C21.8357 24.5217 24.3471 23.6344 26.0001 21.7534C27.3663 23.3115 29.3392 24.2032 31.4115 24.1994C31.8205 24.1988 32.2287 24.1648 32.6322 24.0976C33.9296 23.8745 35.1397 23.2957 36.1278 22.4259C37.0964 23.368 37.6612 24.6494 37.7033 25.9999C37.6614 27.3507 37.0966 28.6324 36.1278 29.5747V29.5774Z" fill="#5757D8"/>
</g>
<defs>
<clipPath id="clip0_2148_790">
<rect width="50.4138" height="50.4138" fill="white" transform="translate(0.792969 0.792969)"/>
</clipPath>
</defs>
</svg>
