<svg width="38" height="38" viewBox="0 0 38 38" fill="none" xmlns="http://www.w3.org/2000/svg">
<rect x="0.146069" y="0.213745" width="37.2008" height="37.2008" rx="5.07283" fill="#F7843A"/>
<path d="M15.6297 24.8696L15.6298 24.8692C15.4729 24.8095 15.3411 24.7076 15.235 24.5673C15.1265 24.4239 15.0707 24.263 15.0707 24.0876V23.6491H14.5828C14.4079 23.6491 14.2561 23.5918 14.1366 23.4736C14.017 23.3554 13.9586 23.2048 13.9586 23.0308V22.1074C13.9586 21.9282 14.016 21.7739 14.1371 21.6557C14.2567 21.5389 14.4083 21.4825 14.5828 21.4825H15.0707V19.6189H14.5828C14.4079 19.6189 14.2561 19.5617 14.1366 19.4435L14.2146 19.3646L14.1366 19.4435C14.017 19.3253 13.9586 19.1747 13.9586 19.0007V18.0772C13.9586 17.8981 14.016 17.7438 14.1371 17.6256C14.2567 17.5088 14.4083 17.4524 14.5828 17.4524H15.0707V15.7297H14.5828C14.4079 15.7297 14.2561 15.6725 14.1366 15.5543C14.017 15.4361 13.9586 15.2855 13.9586 15.1115V14.188C13.9586 14.0089 14.016 13.8546 14.1371 13.7364C14.2567 13.6196 14.4083 13.5632 14.5828 13.5632H15.0707V12.7864C15.0707 12.5859 15.1453 12.4215 15.3023 12.3126L15.6297 24.8696ZM15.6297 24.8696L15.6389 24.8722C15.9234 24.953 16.3211 25.0647 16.8321 25.207C17.3557 25.3529 17.9945 25.4246 18.746 25.4246C19.4976 25.4246 20.1363 25.3529 20.66 25.207C21.1709 25.0647 21.5687 24.953 21.8532 24.8722L21.8533 24.8726L21.8623 24.8692C22.0192 24.8095 22.151 24.7076 22.2571 24.5673C22.3656 24.4239 22.4214 24.263 22.4214 24.0876V23.6491H22.9093C23.0838 23.6491 23.2354 23.5926 23.355 23.4759C23.4761 23.3576 23.5335 23.2034 23.5335 23.0242V22.1008C23.5335 21.9268 23.4751 21.7762 23.3555 21.6579C23.236 21.5398 23.0842 21.4825 22.9093 21.4825H22.4214V19.6189H22.9093C23.0838 19.6189 23.2354 19.5625 23.355 19.4458C23.4761 19.3275 23.5335 19.1733 23.5335 18.9941V18.0707C23.5335 17.8966 23.4751 17.7461 23.3555 17.6278C23.236 17.5097 23.0842 17.4524 22.9093 17.4524H22.4214V15.7297H22.9093C23.0838 15.7297 23.2354 15.6733 23.355 15.5566C23.4761 15.4383 23.5335 15.2841 23.5335 15.1049V14.1815C23.5335 14.0074 23.4751 13.8569 23.3555 13.7386C23.236 13.6205 23.0842 13.5632 22.9093 13.5632H22.4214V12.7723C22.4214 12.5686 22.3476 12.4017 22.1886 12.2944C22.0318 12.1886 21.852 12.1782 21.6642 12.2474C21.3144 12.3585 20.884 12.4697 20.3721 12.5807C19.8655 12.6907 19.3235 12.7459 18.746 12.7459C18.1682 12.7459 17.626 12.693 17.119 12.5876L17.119 12.5876C16.6074 12.4812 16.1773 12.3725 15.8279 12.2615M15.6297 24.8696L15.8279 12.2615M15.8279 12.2615C15.6394 12.1921 15.459 12.204 15.3023 12.3126L15.8279 12.2615ZM15.8629 13.0703C16.2836 13.1886 16.7234 13.2923 17.1822 13.3815C17.6967 13.4815 18.2157 13.5315 18.739 13.5315C19.2716 13.5315 19.7952 13.4815 20.3099 13.3815C20.7687 13.2923 21.2084 13.1886 21.6292 13.0703V16.0918C21.2477 16.22 20.8215 16.3317 20.3502 16.4266C19.8521 16.5269 19.3175 16.5773 18.746 16.5773C18.1775 16.5773 17.6436 16.527 17.144 16.4266C16.6714 16.3317 16.2445 16.22 15.8629 16.0918V13.0703ZM20.3692 17.2122C20.8217 17.1234 21.2417 17.0303 21.6292 16.9327V20.3037C21.2472 20.4325 20.8206 20.5473 20.349 20.6479C19.8513 20.7542 19.3171 20.8075 18.746 20.8075C18.175 20.8075 17.6408 20.7542 17.1431 20.6479C16.6715 20.5473 16.2449 20.4325 15.8629 20.3037V16.9375C16.267 17.0522 16.6924 17.1492 17.139 17.2287C17.6418 17.3183 18.1776 17.3629 18.746 17.3629C19.3153 17.3629 19.8564 17.3128 20.3692 17.2122ZM15.8629 21.1677C16.2672 21.2824 16.6933 21.3794 17.1412 21.459C17.6453 21.5485 18.178 21.5931 18.739 21.5931C19.3093 21.5931 19.8467 21.5485 20.3509 21.459C20.7988 21.3794 21.2249 21.2824 21.6292 21.1677V24.1225C21.2466 24.2515 20.816 24.3685 20.337 24.4731C19.8316 24.5836 19.3013 24.639 18.746 24.639C18.1936 24.639 17.6641 24.5836 17.1571 24.4731C16.6768 24.3685 16.2455 24.2515 15.8629 24.1225V21.1677Z" fill="white" stroke="white" stroke-width="0.221936"/>
</svg>
