<svg width="14" height="18" viewBox="0 0 14 18" fill="none" xmlns="http://www.w3.org/2000/svg">
<path d="M2.90381 17.1008L2.90397 17.1004C2.70894 17.0254 2.54508 16.8973 2.41269 16.7202C2.278 16.54 2.20915 16.3388 2.20915 16.1196V15.5194H1.55419C1.33734 15.5194 1.15122 15.4478 1.00478 15.3013C0.858339 15.1549 0.786722 14.9688 0.786722 14.7519V13.5569C0.786722 13.3329 0.857353 13.1423 1.00526 12.9962C1.15179 12.8514 1.33776 12.7809 1.55419 12.7809H2.20915V10.3038H1.55419C1.33734 10.3038 1.15122 10.2322 1.00478 10.0858C0.858339 9.93934 0.786722 9.75322 0.786722 9.53638V8.3413C0.786722 8.11731 0.857353 7.9267 1.00526 7.7806C1.15179 7.63587 1.33776 7.5653 1.55419 7.5653H2.20915V5.27063H1.55419C1.33734 5.27063 1.15122 5.19901 1.00478 5.05258C0.858339 4.90614 0.786722 4.72002 0.786722 4.50317V3.30809C0.786722 3.0841 0.857353 2.89349 1.00526 2.74739C1.15179 2.60266 1.33776 2.53209 1.55419 2.53209H2.20915V1.49419C2.20915 1.24416 2.30045 1.04234 2.49163 0.908221M2.90381 17.1008L2.32012 2.53209V1.49419C2.32012 1.27412 2.39853 1.10908 2.55536 0.999066C2.71219 0.889033 2.89395 0.87292 3.10063 0.950727M2.90381 17.1008L2.91313 17.1035C3.27692 17.2081 3.78563 17.3525 4.43916 17.5367C5.10547 17.7245 5.91961 17.8172 6.87918 17.8172C7.83875 17.8172 8.65289 17.7245 9.31921 17.5367C9.97274 17.3525 10.4814 17.2081 10.8452 17.1035L10.8454 17.1039L10.8544 17.1004C11.0494 17.0254 11.2133 16.8973 11.3457 16.7202C11.4804 16.54 11.5492 16.3388 11.5492 16.1196V15.5194M2.90381 17.1008L11.5492 15.5194M2.49163 0.908221L2.55535 0.999046L2.49163 0.908225C2.49163 0.908224 2.49163 0.908222 2.49163 0.908221ZM2.49163 0.908221C2.68272 0.774158 2.90315 0.758548 3.13711 0.845894M3.13711 0.845894C3.13627 0.845626 3.13544 0.845359 3.13461 0.845091L3.10063 0.950727M3.13711 0.845894C3.13798 0.846219 3.13885 0.846546 3.13972 0.846874L3.10063 0.950727M3.13711 0.845894C3.58532 0.98996 4.13672 1.13102 4.79209 1.26886L4.79209 1.26886C5.44274 1.40573 6.13834 1.4744 6.87918 1.4744C7.61972 1.4744 8.31499 1.40275 8.96532 1.25997C9.6209 1.11603 10.1726 0.971871 10.6213 0.827664M3.10063 0.950727C3.55409 1.09662 4.1103 1.23886 4.76925 1.37745C5.42818 1.51606 6.13149 1.58537 6.87918 1.58537C7.62687 1.58537 8.33018 1.51303 8.98912 1.36835C9.64806 1.22368 10.2043 1.07839 10.6577 0.932496M10.6577 0.932496L10.6186 0.828644C10.6195 0.828316 10.6204 0.827989 10.6213 0.827664M10.6577 0.932496C10.8644 0.85469 11.0462 0.869348 11.203 0.976473C11.3598 1.0836 11.4382 1.25008 11.4382 1.47593V2.53209H11.5492M10.6577 0.932496L10.6238 0.826861C10.6229 0.827128 10.6221 0.827396 10.6213 0.827664M10.6213 0.827664C10.8545 0.740575 11.0744 0.754255 11.2656 0.884841C11.4587 1.01676 11.5492 1.22138 11.5492 1.47593V2.53209M11.5492 2.53209V2.64306M11.5492 2.53209V2.64306M11.5492 2.64306H12.2042C12.3944 2.64306 12.5514 2.70491 12.6751 2.82861C12.7988 2.95232 12.8607 3.10931 12.8607 3.29958V4.49463C12.8607 4.69363 12.7988 4.85421 12.6751 4.97638M11.5492 2.64306L2.9438 16.9968C3.30731 17.1014 3.8158 17.2457 4.46926 17.4299C5.12272 17.6141 5.92603 17.7062 6.87918 17.7062C7.83233 17.7062 8.63564 17.6141 9.2891 17.4299C9.94257 17.2457 10.4511 17.1014 10.8146 16.9968C10.9884 16.9299 11.1358 16.8156 11.2568 16.6537C11.3778 16.4919 11.4382 16.3139 11.4382 16.1196V15.5194H11.5492M12.6751 4.97638C12.5514 5.09857 12.3944 5.15966 12.2042 5.15966H11.5492V5.27063M12.6751 4.97638L12.7531 5.05533C12.6066 5.20007 12.4206 5.27063 12.2042 5.27063H11.5492M12.6751 4.97638L11.5492 15.5194M11.5492 5.27063H11.4382V7.5653H11.5492M11.5492 5.27063V7.5653M11.5492 7.5653V7.67627H12.2042C12.3944 7.67627 12.5514 7.73812 12.6751 7.86182C12.7988 7.98553 12.8607 8.14251 12.8607 8.33277V9.52784C12.8607 9.72682 12.7988 9.88741 12.6751 10.0096C12.5514 10.1318 12.3944 10.1929 12.2042 10.1929H11.5492V10.3038M11.5492 7.5653H12.2042C12.421 7.5653 12.6071 7.63692 12.7536 7.78336C12.9 7.9298 12.9716 8.11592 12.9716 8.33277V9.52784C12.9716 9.75183 12.901 9.94244 12.7531 10.0885C12.6066 10.2333 12.4206 10.3038 12.2042 10.3038H11.5492M11.5492 10.3038H11.4382V12.7809H11.5492M11.5492 10.3038V12.7809M11.5492 12.7809V12.8918H12.2042C12.3944 12.8918 12.5514 12.9537 12.6751 13.0774C12.7988 13.2011 12.8607 13.3581 12.8607 13.5483V14.7434C12.8607 14.9424 12.7988 15.103 12.6751 15.2252C12.5514 15.3473 12.3944 15.4084 12.2042 15.4084H11.5492V15.5194M11.5492 12.7809H12.2042C12.421 12.7809 12.6071 12.8525 12.7536 12.9989C12.9 13.1454 12.9716 13.3315 12.9716 13.5483V14.7434C12.9716 14.9674 12.901 15.158 12.7531 15.3041C12.6066 15.4488 12.4206 15.5194 12.2042 15.5194H11.5492M3.16053 1.81895C3.70967 1.97645 4.28437 2.11419 4.88461 2.23221C5.54086 2.36125 6.20274 2.42578 6.87017 2.42578C7.54948 2.42578 8.21738 2.36128 8.87376 2.23221C9.47399 2.11419 10.0487 1.97645 10.5978 1.81895V5.79557C10.103 5.96508 9.54944 6.11238 8.93688 6.23721C8.29757 6.36747 7.61178 6.43284 6.87918 6.43284C6.15027 6.43284 5.46536 6.36747 4.82418 6.2372C4.20987 6.11237 3.65543 5.96507 3.16053 5.79556V1.81895ZM10.5978 6.81856V11.2464C10.1025 11.4165 9.54855 11.5678 8.93561 11.7001C8.29674 11.8381 7.61137 11.9074 6.87918 11.9074C6.14699 11.9074 5.46163 11.8381 4.82276 11.7001C4.20982 11.5678 3.65584 11.4165 3.16053 11.2464V6.82359C3.68804 6.97653 4.24418 7.10565 4.82889 7.21103C5.4701 7.32661 6.15361 7.38422 6.87918 7.38422C7.60551 7.38422 8.29573 7.3195 8.94963 7.18971L8.92802 7.08086L8.94963 7.18971C9.54278 7.07196 10.0922 6.94826 10.5978 6.81856ZM3.16053 12.2981C3.68821 12.4511 4.24528 12.5802 4.83167 12.6856C5.47459 12.8011 6.15416 12.8587 6.87017 12.8587C7.59809 12.8587 8.28367 12.8011 8.92669 12.6856C9.51308 12.5802 10.0702 12.4511 10.5978 12.2981V16.1884C10.1019 16.3588 9.54292 16.5129 8.92047 16.6505C8.27176 16.7939 7.59141 16.8658 6.87918 16.8658C6.17065 16.8658 5.49118 16.7939 4.84056 16.6505C4.21638 16.5128 3.65648 16.3588 3.16053 16.1884V12.2981Z" fill="#FF950D" stroke="#FF950D" stroke-width="0.221936"/>
</svg>
