<svg width="470" height="470" viewBox="0 0 470 470" fill="none" xmlns="http://www.w3.org/2000/svg">
<rect x="0.333984" y="0.333008" width="469.333" height="469.333" rx="64" fill="#F7843A"/>
<mask id="mask0_3_78" style="mask-type:alpha" maskUnits="userSpaceOnUse" x="135" y="135" width="200" height="200">
<rect x="135" y="135" width="200" height="200" fill="#D9D9D9"/>
</mask>
<g mask="url(#mask0_3_78)">
<path d="M224.375 260H245.625L240.416 229.791C243.194 228.541 245.416 226.701 247.083 224.271C248.75 221.84 249.583 219.166 249.583 216.25C249.583 212.222 248.159 208.784 245.312 205.937C242.465 203.09 239.027 201.666 235 201.666C230.972 201.666 227.534 203.09 224.687 205.937C221.84 208.784 220.416 212.222 220.416 216.25C220.416 219.166 221.25 221.84 222.916 224.271C224.583 226.701 226.805 228.541 229.583 229.791L224.375 260ZM235 318.125C215.555 313.264 199.583 301.979 187.083 284.271C174.583 266.562 168.333 247.152 168.333 226.041V176.458L235 151.458L301.666 176.458V226.041C301.666 247.152 295.416 266.562 282.916 284.271C270.416 301.979 254.444 313.264 235 318.125ZM235 305.208C250.972 299.93 263.993 289.965 274.062 275.312C284.132 260.659 289.166 244.236 289.166 226.041V185.208L235 164.791L180.833 185.208V226.041C180.833 244.236 185.868 260.659 195.937 275.312C206.007 289.965 219.027 299.93 235 305.208Z" fill="white"/>
</g>
</svg>
