<svg width="25" height="24" viewBox="0 0 25 24" fill="none" xmlns="http://www.w3.org/2000/svg">
<path d="M12.5 11.9746C11.4 11.9746 10.5 11.6246 9.8 10.9246C9.1 10.2246 8.75 9.32461 8.75 8.22461C8.75 7.12461 9.1 6.22461 9.8 5.52461C10.5 4.82461 11.4 4.47461 12.5 4.47461C13.6 4.47461 14.5 4.82461 15.2 5.52461C15.9 6.22461 16.25 7.12461 16.25 8.22461C16.25 9.32461 15.9 10.2246 15.2 10.9246C14.5 11.6246 13.6 11.9746 12.5 11.9746ZM4.5 19.9996V17.6496C4.5 17.0163 4.65833 16.4746 4.975 16.0246C5.29167 15.5746 5.7 15.2329 6.2 14.9996C7.31667 14.4996 8.3875 14.1246 9.4125 13.8746C10.4375 13.6246 11.4667 13.4996 12.5 13.4996C13.5333 13.4996 14.5583 13.6288 15.575 13.8871C16.5917 14.1454 17.6583 14.5163 18.775 14.9996C19.2917 15.2329 19.7083 15.5746 20.025 16.0246C20.3417 16.4746 20.5 17.0163 20.5 17.6496V19.9996H4.5Z" fill="#1D718B"/>
</svg>
