<svg width="52" height="52" viewBox="0 0 52 52" fill="none" xmlns="http://www.w3.org/2000/svg">
<g clip-path="url(#clip0_2148_811)">
<path d="M18.7979 20.5983C18.7715 19.9366 18.617 19.2861 18.3428 18.6831C17.9136 18.5018 17.4339 18.4793 16.9895 18.6193C15.7825 18.9695 14.4821 18.5846 13.6602 17.6338C12.8012 16.7749 12.1235 16.097 10.6957 16.097C10.1986 16.097 9.79547 15.694 9.79547 15.1968C9.79547 14.6996 10.1985 14.2965 10.6957 14.2965C12.3439 14.3245 13.8952 15.0802 14.9332 16.3608C15.3328 16.8908 16.0359 17.0908 16.6545 16.8505C16.8901 16.8028 17.1281 16.7674 17.3674 16.7445L17.3552 16.7222C16.6795 15.7283 16.2483 14.5887 16.0971 13.3964C16.0037 12.5856 15.5134 11.8742 14.789 11.4984C14.3484 11.2728 14.1725 10.7337 14.3953 10.2917C14.6182 9.84958 15.1562 9.67037 15.5996 9.89044C16.1732 10.2026 16.6787 10.6263 17.0863 11.1366C17.1459 11.075 17.2049 11.0157 17.2611 10.9595C17.7025 10.5181 17.8976 10.3018 17.8976 9.79542C17.8976 9.29827 18.3006 8.89516 18.7979 8.89516C19.295 8.89516 19.6981 9.29818 19.6981 9.79542C19.6875 10.7394 19.2617 11.6308 18.5341 12.2324C18.0928 12.6737 17.8976 12.8901 17.8976 13.3965C18.0818 14.2743 18.4331 15.1086 18.9324 15.8536C19.8733 17.2722 20.4459 18.903 20.5984 20.5984C20.5984 22.6704 22.5037 25.3598 25.0552 27.0973C24.9357 25.2676 24.7048 23.447 24.3638 21.6455C23.6341 17.7382 23.2775 13.7703 23.2991 9.79552V9.62675C23.2998 9.38158 23.3001 9.11395 23.2904 8.83687L23.2899 8.8159C23.2851 8.68445 23.2772 8.55063 23.2665 8.41623L23.264 8.3798C23.2529 8.24815 23.2373 8.11591 23.2183 7.98417L23.2121 7.93769C23.1924 7.809 23.1672 7.68139 23.1378 7.55516C23.1335 7.53645 23.1296 7.51764 23.1251 7.49903C23.0948 7.37654 23.058 7.25642 23.0164 7.13865C23.0089 7.11729 23.0015 7.09592 22.9936 7.07485C22.9507 6.96122 22.9009 6.85035 22.8446 6.74283C22.8331 6.72077 22.821 6.69891 22.8089 6.67715C22.7507 6.57268 22.6851 6.47264 22.6125 6.37772C22.5551 6.29649 22.4923 6.21919 22.4245 6.14633C21.664 5.5133 20.6839 5.20708 19.6982 5.29441C17.2731 5.38845 14.9438 6.26636 13.0599 7.79649C10.2341 9.91387 7.86222 12.5769 6.08474 15.628L4.29919 19.2008C3.63967 20.3223 3.0546 21.4858 2.5479 22.684C1.69845 25.2297 0.792969 29.1182 0.792969 43.1045C0.792969 46.8418 2.67876 51.2067 7.99495 51.2067C8.23412 51.2067 12.0548 51.2041 12.2835 51.1997C16.6484 51.1313 20.5911 48.5763 22.4367 44.6201C23.9111 41.0476 24.7564 37.2471 24.9353 33.3865C22.8327 34.0464 20.5153 36.3584 19.4345 37.4393C19.1632 37.7106 18.894 37.9613 18.6256 38.202C18.5996 38.2508 18.5691 38.2968 18.5342 38.3396C17.5783 39.749 17.0451 41.4022 16.9975 43.1046C17.114 44.8872 16.228 46.5863 14.6994 47.5108C14.2548 47.7318 13.7153 47.5512 13.4934 47.1072C13.2715 46.6633 13.4507 46.1233 13.8942 45.9003C14.8008 45.2715 15.2987 44.2032 15.197 43.1046C15.2274 42.1418 15.3855 41.1872 15.6675 40.2661C13.7492 41.2972 11.4494 41.3313 9.50136 40.3577C9.33003 40.3255 9.16412 40.2691 9.00855 40.1903C8.1974 40.1659 7.41126 40.4728 6.8311 41.0403C6.60444 41.2711 6.27123 41.3625 5.95851 41.2797C5.64579 41.1969 5.4015 40.9526 5.31869 40.6399C5.23588 40.3272 5.32735 39.994 5.55816 39.7673C6.10601 39.2505 6.75164 38.8482 7.45704 38.5844C7.34095 38.3917 7.24633 38.2186 7.18981 38.1056C6.96886 37.6614 7.14905 37.1222 7.59273 36.8999C8.03641 36.6777 8.57609 36.8564 8.79951 37.2994C9.01948 37.7404 9.31014 38.1425 9.66009 38.4896C9.81684 38.5367 9.97005 38.5953 10.1182 38.6649C10.1598 38.6789 10.2002 38.6961 10.239 38.7165C12.7313 39.9398 15.1756 39.1532 18.1616 36.1663C19.547 34.7809 22.2747 32.0604 25.0377 31.5075C25.0401 31.4477 25.045 31.3912 25.0472 31.3311C23.9924 31.1554 22.9713 30.8168 22.0205 30.3274C21.9299 30.3953 21.8271 30.4452 21.7178 30.4746C21.6484 30.5713 21.5508 30.7401 21.4752 30.8711C20.8515 32.2895 19.4475 33.2043 17.898 33.2018C16.4703 33.2018 15.7925 33.8796 14.9335 34.7385C14.7069 34.9693 14.3737 35.0608 14.061 34.978C13.7482 34.8952 13.5039 34.6509 13.4211 34.3382C13.3383 34.0255 13.4298 33.6922 13.6606 33.4656C14.0708 33.0361 14.519 32.6447 14.9998 32.296C14.8454 32.1822 14.7024 32.0686 14.5731 31.9631C14.0957 31.5737 13.8654 31.4014 13.3968 31.4014C12.8997 31.4014 12.4966 30.9984 12.4966 30.5011C12.4966 30.0039 12.8996 29.6009 13.3968 29.6009C14.2633 29.6171 15.0911 29.9629 15.7116 30.5679C16.2931 31.1371 17.0852 31.439 17.898 31.4013C19.0901 31.4013 19.492 30.7067 19.9156 29.9709C20.029 29.7675 20.1544 29.5709 20.2913 29.3824C19.8387 29.1115 19.3934 28.8354 18.9627 28.5651C17.9763 27.8846 16.9204 27.3109 15.8127 26.8534C14.7443 26.4504 13.5767 26.3908 12.4728 26.6829C11.9015 26.8125 11.3186 26.8844 10.7329 26.8973L10.7251 26.8991C10.2841 27.2458 9.93254 27.6932 9.70006 28.2037C9.47665 28.6467 8.93686 28.8254 8.49328 28.6032C8.0497 28.3811 7.86941 27.8418 8.09037 27.3975C8.24673 27.0898 8.42514 26.7937 8.62424 26.5117C8.15781 26.3341 7.72871 26.071 7.35897 25.7359C7.01287 25.3835 7.01543 24.818 7.36468 24.4687C7.71394 24.1194 8.27942 24.1169 8.63192 24.463C9.22281 24.9132 9.9544 25.1387 10.6962 25.0995C11.1759 25.0875 11.6532 25.0263 12.1204 24.9166C13.5319 24.5631 15.0171 24.6431 16.3825 25.146C17.6291 25.643 18.8157 26.2785 19.9203 27.0406C21.4821 28.1626 23.2315 28.9972 25.0864 29.5051C25.0875 29.4135 25.0904 29.3245 25.091 29.2322C21.5241 27.2445 18.7979 23.5479 18.7979 20.5983Z" fill="#ED5A87"/>
<path d="M49.4527 22.684C48.9516 21.4991 48.373 20.3484 47.7208 19.2395L45.9001 15.5998C44.1241 12.5602 41.7576 9.90688 38.9399 7.79649C37.0559 6.26646 34.7267 5.38855 32.3015 5.29441C31.3159 5.20708 30.3358 5.5133 29.5753 6.14623C29.5076 6.21909 29.4447 6.29639 29.3873 6.37762C29.3148 6.47244 29.2491 6.57248 29.191 6.67686C29.1788 6.69881 29.1667 6.72087 29.1552 6.74322C29.0989 6.85055 29.0493 6.96112 29.0065 7.07455C28.9985 7.09602 28.9909 7.11758 28.9833 7.13924C28.9417 7.25681 28.9051 7.37674 28.8747 7.49913C28.8702 7.51774 28.8663 7.53655 28.862 7.55526C28.8326 7.68149 28.8074 7.8091 28.7877 7.93779L28.7815 7.98427C28.7625 8.11591 28.7469 8.24815 28.7358 8.3797L28.7332 8.4184C28.7226 8.55162 28.7147 8.68445 28.7099 8.81481L28.709 8.85174C28.6999 9.1235 28.7 9.3863 28.7006 9.62705V9.79581C28.7222 13.7706 28.3658 17.7385 27.6359 21.6458C27.2949 23.4473 27.064 25.268 26.9445 27.0976C29.4961 25.3601 31.4013 22.6707 31.4013 20.5987C31.5538 18.9033 32.1264 17.2726 33.0673 15.8539C33.5666 15.1088 33.9179 14.2746 34.1021 13.3968C34.1021 12.8904 33.9069 12.674 33.4656 12.2327C32.7381 11.6312 32.3122 10.7398 32.3016 9.79572C32.3016 9.29857 32.7046 8.89546 33.2018 8.89546C33.6991 8.89546 34.1021 9.29847 34.1021 9.79572C34.1021 10.3021 34.2973 10.5183 34.7386 10.9597C34.7948 11.0159 34.8538 11.0752 34.9135 11.1368C35.321 10.6265 35.8265 10.2028 36.4002 9.89064C36.8447 9.66968 37.3842 9.85027 37.6062 10.2942C37.8281 10.7382 37.6489 11.2782 37.2054 11.5012C36.4836 11.8777 35.9954 12.5878 35.9025 13.3967C35.7513 14.589 35.3202 15.7286 34.6444 16.7225L34.6322 16.7448C34.8716 16.7678 35.1095 16.8031 35.3452 16.8508C35.964 17.0908 36.6668 16.8909 37.0666 16.3611C38.1045 15.0805 39.6559 14.3248 41.304 14.2968C41.8011 14.2968 42.2043 14.6998 42.2043 15.1971C42.2043 15.6942 41.8012 16.0973 41.304 16.0973C39.8763 16.0973 39.1984 16.7752 38.3395 17.6341C37.518 18.5855 36.2172 18.9706 35.0102 18.6196C34.5659 18.4796 34.0862 18.5021 33.6569 18.6834C33.3827 19.2863 33.2281 19.9368 33.2017 20.5985C33.2017 23.5481 30.4756 27.2447 26.9092 29.2325C26.9099 29.3248 26.9128 29.4137 26.9138 29.5054C28.7686 28.9975 30.518 28.1629 32.0799 27.0409C33.1844 26.2788 34.3711 25.6433 35.6177 25.1463C36.9831 24.6434 38.4683 24.5633 39.8798 24.9169C40.347 25.0266 40.8243 25.0878 41.304 25.0997C42.0508 25.1399 42.7872 24.9103 43.3787 24.4526C43.738 24.1149 44.3015 24.1266 44.6465 24.479C44.9892 24.8289 44.9869 25.3892 44.6411 25.7362C44.2713 26.0713 43.8422 26.3345 43.3759 26.512C43.5749 26.794 43.7533 27.0901 43.9098 27.3978C44.1307 27.8421 43.9505 28.3813 43.5068 28.6035C43.0633 28.8256 42.5235 28.647 42.3001 28.204C42.0687 27.69 41.7137 27.2412 41.2667 26.8976C40.6811 26.8847 40.0984 26.8128 39.5272 26.6832C38.4233 26.3906 37.2556 26.4503 36.1873 26.8537C35.0797 27.3112 34.0237 27.8849 33.0373 28.5654C32.6066 28.8357 32.1614 29.1119 31.7087 29.3827C31.8456 29.5711 31.971 29.7677 32.0844 29.9712C32.5082 30.707 32.9099 31.4016 34.102 31.4016C34.9149 31.4393 35.7069 31.1374 36.2884 30.5682C36.9089 29.9632 37.7367 29.6174 38.6032 29.6011C39.1004 29.6011 39.5035 30.0042 39.5035 30.5014C39.5035 30.9987 39.1005 31.4017 38.6032 31.4017C38.1346 31.4017 37.9043 31.574 37.4269 31.9635C37.2976 32.069 37.1545 32.1826 37.0001 32.2964C37.4809 32.6451 37.9291 33.0365 38.3394 33.466C38.6855 33.8184 38.683 34.3839 38.3337 34.7332C37.9845 35.0825 37.419 35.085 37.0665 34.7389C36.2076 33.88 35.5297 33.2022 34.102 33.2022C32.5526 33.2048 31.1485 32.29 30.5247 30.8716C30.4491 30.7407 30.3515 30.5718 30.2821 30.4751C30.1728 30.4458 30.07 30.3958 29.9794 30.3279C29.0286 30.8173 28.0075 31.1559 26.9527 31.3316C26.955 31.3917 26.9598 31.4481 26.9623 31.508C29.7252 32.0609 32.4528 34.7813 33.8383 36.1668C36.8416 39.1699 39.297 39.9541 41.8016 38.6987C41.8106 38.6941 41.8195 38.6919 41.8285 38.6874L41.8452 38.6805C42.0051 38.6036 42.171 38.5396 42.3411 38.489C42.6902 38.142 42.9803 37.7403 43.2004 37.3C43.4238 36.857 43.9636 36.6783 44.4072 36.9005C44.8508 37.1227 45.0311 37.6619 44.8101 38.1062C44.7538 38.2188 44.6596 38.3912 44.544 38.583C45.2493 38.8474 45.8946 39.2502 46.4418 39.7678C46.7879 40.1202 46.7853 40.6857 46.4361 41.035C46.0868 41.3843 45.5213 41.3869 45.1688 41.0408C44.5912 40.4726 43.807 40.1647 42.9971 40.1881C42.8398 40.2683 42.672 40.3256 42.4985 40.3582C40.5503 41.3318 38.2506 41.2976 36.3323 40.2666C36.5635 41.0443 36.7128 41.8439 36.7777 42.6526C37.3439 42.9426 37.9698 43.0975 38.606 43.1051C39.1031 43.1057 39.5056 43.5094 39.5049 44.0066C39.5041 44.5037 39.1004 44.906 38.6032 44.9053C38.1048 44.8945 37.6091 44.8279 37.1255 44.7066C37.3279 45.1971 37.6734 45.6153 38.1171 45.9066C38.5517 46.1398 38.7198 46.678 38.4951 47.1172C38.2726 47.5544 37.7392 47.7302 37.3003 47.511C35.7718 46.5865 34.8856 44.8874 35.0023 43.1048C34.9546 41.4024 34.4214 39.7492 33.4655 38.3398C33.4307 38.2969 33.4002 38.2509 33.3742 38.2022C33.1057 37.9615 32.8365 37.7108 32.5653 37.4395C31.4844 36.3587 29.1671 34.0466 27.0645 33.3867C27.2433 37.2473 28.0886 41.0478 29.563 44.6203C31.409 48.5769 35.3524 51.132 39.718 51.1999C39.9449 51.2043 43.7656 51.2069 44.0048 51.2069C49.3209 51.207 51.2067 46.8421 51.2067 43.1048C51.2067 29.1185 50.3012 25.23 49.4527 22.684Z" fill="#ED5A87"/>
<path d="M26.9292 8.43017C26.9372 8.30462 26.9477 8.17839 26.961 8.04891C26.9681 7.97989 26.977 7.91136 26.986 7.84125C27.0026 7.71256 27.0236 7.58377 27.0474 7.4532C27.0612 7.37729 27.0753 7.30245 27.0918 7.22614C27.1184 7.10474 27.1517 6.98392 27.1862 6.86242C27.2105 6.77665 27.2328 6.69138 27.2614 6.60601C27.2947 6.50745 27.3372 6.41086 27.377 6.31338C27.4895 6.02616 27.6314 5.75134 27.8003 5.49317V1.69323C27.8 1.19618 27.397 0.793264 26.9 0.792969H25.0995C24.6024 0.793264 24.1995 1.19618 24.1992 1.69323V5.49337C24.3681 5.75154 24.51 6.02635 24.6225 6.31357C24.6624 6.41105 24.7047 6.50765 24.7381 6.60621C24.7667 6.69158 24.789 6.77685 24.8132 6.86261C24.8479 6.98402 24.8811 7.10483 24.9077 7.22634C24.9243 7.30265 24.9383 7.37748 24.9521 7.4534C24.9759 7.58386 24.997 7.71275 25.0135 7.84145C25.0226 7.91146 25.0313 7.97999 25.0384 8.04911C25.0518 8.17849 25.0623 8.30482 25.0702 8.43036C25.0746 8.49732 25.0797 8.56339 25.0827 8.62877C25.0884 8.75096 25.0915 8.86774 25.0939 8.98423C25.095 9.04547 25.0975 9.1074 25.0981 9.16639C25.0996 9.31694 25.0996 9.4605 25.0993 9.59707L25.0994 9.61794V9.79557C25.0994 10.3684 25.1068 10.912 25.1184 11.4384C25.1197 11.498 25.1204 11.5599 25.1218 11.6189C25.1338 12.1119 25.1515 12.5826 25.1724 13.0383C25.1761 13.1172 25.1795 13.1969 25.1834 13.2747C25.2054 13.7126 25.2309 14.1349 25.2599 14.5416C25.2655 14.6196 25.2712 14.6966 25.277 14.7735C25.3071 15.1736 25.34 15.5614 25.3759 15.9338C25.3822 16.0002 25.3892 16.0644 25.3957 16.13C25.4332 16.505 25.4727 16.8703 25.5148 17.2208C25.52 17.2639 25.5255 17.3049 25.5308 17.3477C25.5707 17.6738 25.6124 17.9898 25.6553 18.2977C25.6631 18.3533 25.6706 18.4107 25.6784 18.466C25.7222 18.7745 25.7675 19.0731 25.813 19.3664C25.8256 19.4472 25.8381 19.5288 25.8507 19.6085C25.8933 19.8765 25.9361 20.1396 25.9791 20.398L25.9999 20.5203L26.0204 20.3978C26.0635 20.1396 26.1064 19.8761 26.149 19.6075C26.1614 19.5296 26.1735 19.4498 26.1858 19.3709C26.2317 19.0761 26.277 18.776 26.3211 18.4658C26.3289 18.4106 26.3365 18.3532 26.3442 18.2975C26.387 17.9896 26.4288 17.6737 26.4686 17.3475C26.4738 17.3048 26.4795 17.2638 26.4846 17.2206C26.5267 16.8701 26.5662 16.5047 26.6037 16.1298C26.6102 16.0641 26.6171 16 26.6235 15.9336C26.6594 15.5612 26.6922 15.1734 26.7224 14.7733C26.7282 14.6964 26.7339 14.6193 26.7395 14.5414C26.7687 14.1343 26.7943 13.7111 26.8162 13.2716C26.8199 13.1955 26.8234 13.1176 26.8269 13.0405C26.848 12.5841 26.8655 12.1125 26.8776 11.6187C26.8791 11.5597 26.8798 11.4978 26.8811 11.4382C26.8926 10.9118 26.9001 10.3682 26.9001 9.79538V9.61775L26.9002 9.59687C26.8999 9.4602 26.8999 9.31674 26.9014 9.16619C26.902 9.10711 26.9044 9.04527 26.9056 8.98403C26.9079 8.86764 26.9111 8.75077 26.9167 8.62857C26.9198 8.56319 26.925 8.49712 26.9292 8.43017Z" fill="#ED5A87"/>
</g>
<defs>
<clipPath id="clip0_2148_811">
<rect width="50.4138" height="50.4138" fill="white" transform="translate(0.792969 0.792969)"/>
</clipPath>
</defs>
</svg>
