<svg width="470" height="470" viewBox="0 0 470 470" fill="none" xmlns="http://www.w3.org/2000/svg">
<rect x="0.333984" y="0.333008" width="469.333" height="469.333" rx="64" fill="#F7843A"/>
<mask id="mask0_3_80" style="mask-type:alpha" maskUnits="userSpaceOnUse" x="135" y="135" width="200" height="200">
<rect x="135" y="135" width="200" height="200" fill="#D9D9D9"/>
</mask>
<g mask="url(#mask0_3_80)">
<path d="M235 318.334C223.611 318.334 212.848 316.146 202.709 311.771C192.57 307.396 183.716 301.424 176.146 293.855C168.577 286.285 162.604 277.431 158.229 267.292C153.854 257.153 151.667 246.389 151.667 235C151.667 223.473 153.854 212.639 158.229 202.5C162.604 192.361 168.577 183.542 176.146 176.042C183.716 168.542 192.57 162.604 202.709 158.229C212.848 153.854 223.611 151.667 235 151.667C246.528 151.667 257.361 153.854 267.5 158.229C277.639 162.604 286.459 168.542 293.959 176.042C301.459 183.542 307.396 192.361 311.771 202.5C316.146 212.639 318.334 223.473 318.334 235C318.334 246.389 316.146 257.153 311.771 267.292C307.396 277.431 301.459 286.285 293.959 293.855C286.459 301.424 277.639 307.396 267.5 311.771C257.361 316.146 246.528 318.334 235 318.334ZM235 305.834C254.723 305.834 271.459 298.924 285.209 285.105C298.959 271.285 305.834 254.584 305.834 235C305.834 215.278 298.959 198.542 285.209 184.792C271.459 171.042 254.723 164.167 235 164.167C215.417 164.167 198.716 171.042 184.896 184.792C171.077 198.542 164.167 215.278 164.167 235C164.167 254.584 171.077 271.285 184.896 285.105C198.716 298.924 215.417 305.834 235 305.834Z" fill="white"/>
</g>
</svg>
