<svg width="470" height="470" viewBox="0 0 470 470" fill="none" xmlns="http://www.w3.org/2000/svg">
<rect x="0.333984" y="0.333008" width="469.333" height="469.333" rx="64" fill="#F7843A"/>
<mask id="mask0_3_81" style="mask-type:alpha" maskUnits="userSpaceOnUse" x="135" y="135" width="200" height="200">
<rect x="135" y="135" width="200" height="200" fill="#D9D9D9"/>
</mask>
<g mask="url(#mask0_3_81)">
<path d="M284.166 310H191.666V203.333L249.583 143.333L257.708 149.791C258.541 150.486 259.166 151.458 259.583 152.708C260 153.958 260.208 155.486 260.208 157.291V159.375L250.833 203.333H313.125C316.458 203.333 319.375 204.583 321.875 207.083C324.375 209.583 325.625 212.5 325.625 215.833V232.883C325.625 233.877 325.729 234.896 325.937 235.937C326.146 236.979 326.041 237.986 325.625 238.958L299.375 299.375C298.142 302.326 296.086 304.835 293.209 306.901C290.332 308.967 287.318 310 284.166 310ZM204.166 297.5H286.875L313.125 235.208V215.833H235.416L246.458 163.958L204.166 208.541V297.5ZM191.666 203.333V215.833H163.958V297.5H191.666V310H151.458V203.333H191.666Z" fill="white"/>
</g>
</svg>
