<svg width="470" height="470" viewBox="0 0 470 470" fill="none" xmlns="http://www.w3.org/2000/svg">
<rect x="0.333984" y="0.333008" width="469.333" height="469.333" rx="64" fill="#F7843A"/>
<mask id="mask0_3_84" style="mask-type:alpha" maskUnits="userSpaceOnUse" x="135" y="135" width="200" height="200">
<rect x="135" y="135" width="200" height="200" fill="#D9D9D9"/>
</mask>
<g mask="url(#mask0_3_84)">
<path d="M286.458 318.334C279.861 318.334 274.253 316.018 269.635 311.387C265.017 306.755 262.708 301.131 262.708 294.515C262.708 293.588 262.812 292.456 263.021 291.116C263.229 289.777 263.542 288.572 263.958 287.5L200.833 250.834C198.75 253.195 196.181 255.105 193.125 256.563C190.069 258.021 186.944 258.75 183.75 258.75C177.153 258.75 171.545 256.441 166.927 251.823C162.309 247.205 160 241.598 160 235C160 228.403 162.309 222.795 166.927 218.177C171.545 213.559 177.153 211.25 183.75 211.25C186.944 211.25 190 211.875 192.917 213.125C195.833 214.375 198.472 216.181 200.833 218.542L263.958 182.292C263.542 181.31 263.229 180.205 263.021 178.977C262.812 177.75 262.708 176.563 262.708 175.417C262.708 168.82 265.017 163.212 269.635 158.594C274.253 153.976 279.861 151.667 286.458 151.667C293.056 151.667 298.663 153.976 303.281 158.594C307.899 163.212 310.208 168.82 310.208 175.417C310.208 182.014 307.899 187.622 303.281 192.24C298.663 196.858 293.056 199.167 286.458 199.167C283.215 199.167 280.112 198.646 277.151 197.604C274.189 196.563 271.667 194.861 269.583 192.5L206.458 227.5C206.736 228.611 206.979 229.896 207.187 231.354C207.396 232.813 207.5 234.045 207.5 235.051C207.5 236.056 207.396 237.098 207.187 238.176C206.979 239.253 206.736 240.348 206.458 241.459L269.583 277.292C271.667 275.348 274.097 273.785 276.875 272.604C279.653 271.424 282.847 270.834 286.458 270.834C293.056 270.834 298.663 273.143 303.281 277.761C307.899 282.379 310.208 287.986 310.208 294.584C310.208 301.181 307.899 306.789 303.281 311.407C298.663 316.025 293.056 318.334 286.458 318.334ZM286.466 186.667C289.655 186.667 292.326 185.588 294.479 183.431C296.632 181.273 297.708 178.599 297.708 175.41C297.708 172.22 296.63 169.549 294.472 167.396C292.314 165.243 289.641 164.167 286.451 164.167C283.261 164.167 280.59 165.246 278.438 167.403C276.285 169.561 275.208 172.235 275.208 175.424C275.208 178.614 276.287 181.285 278.445 183.438C280.602 185.591 283.276 186.667 286.466 186.667ZM183.757 246.25C186.947 246.25 189.618 245.172 191.771 243.014C193.924 240.856 195 238.183 195 234.993C195 231.803 193.921 229.132 191.764 226.979C189.606 224.827 186.932 223.75 183.743 223.75C180.553 223.75 177.882 224.829 175.729 226.987C173.576 229.144 172.5 231.818 172.5 235.008C172.5 238.197 173.579 240.868 175.736 243.021C177.894 245.174 180.568 246.25 183.757 246.25ZM286.466 305.834C289.655 305.834 292.326 304.755 294.479 302.597C296.632 300.44 297.708 297.766 297.708 294.576C297.708 291.387 296.63 288.716 294.472 286.563C292.314 284.41 289.641 283.334 286.451 283.334C283.261 283.334 280.59 284.412 278.438 286.57C276.285 288.728 275.208 291.401 275.208 294.591C275.208 297.781 276.287 300.452 278.445 302.605C280.602 304.757 283.276 305.834 286.466 305.834Z" fill="white"/>
</g>
</svg>
