<svg width="470" height="470" viewBox="0 0 470 470" fill="none" xmlns="http://www.w3.org/2000/svg">
<rect x="0.333984" y="0.333008" width="469.333" height="469.333" rx="64" fill="#F7843A"/>
<mask id="mask0_3_97" style="mask-type:alpha" maskUnits="userSpaceOnUse" x="135" y="135" width="200" height="200">
<rect x="135" y="135" width="200" height="200" fill="#D9D9D9"/>
</mask>
<g mask="url(#mask0_3_97)">
<path d="M247.5 318.125C231.945 318.125 219.028 312.674 208.75 301.771C198.473 290.868 193.334 277.848 193.334 262.709V255.417C181.528 253.889 171.632 248.632 163.646 239.644C155.66 230.656 151.667 220.081 151.667 207.917V160H176.667V151.667H189.167V180.834H176.667V172.5H164.167V207.85C164.167 217.756 167.604 226.146 174.479 233.021C181.354 239.896 189.723 243.334 199.584 243.334C209.445 243.334 217.813 239.896 224.688 233.021C231.563 226.146 235 217.756 235 207.85V172.5H222.5V180.834H210V151.667H222.5V160H247.5V207.917C247.5 220.081 243.507 230.656 235.521 239.644C227.535 248.632 217.639 253.889 205.834 255.417V262.709C205.834 274.514 209.757 284.618 217.604 293.021C225.452 301.424 235.417 305.625 247.5 305.625C258.75 305.625 268.507 301.448 276.771 293.094C285.035 284.739 289.167 274.595 289.167 262.66V246.667C284.306 245.278 280.313 242.57 277.188 238.542C274.063 234.514 272.5 229.861 272.5 224.584C272.5 218.218 274.731 212.807 279.192 208.351C283.652 203.895 289.069 201.667 295.442 201.667C301.814 201.667 307.223 203.895 311.667 208.351C316.111 212.807 318.334 218.218 318.334 224.584C318.334 229.861 316.771 234.514 313.646 238.542C310.521 242.57 306.528 245.278 301.667 246.667V262.709C301.667 278.125 296.355 291.216 285.729 301.98C275.104 312.743 262.361 318.125 247.5 318.125ZM295.381 235C298.322 235 300.799 234.006 302.813 232.016C304.827 230.027 305.834 227.561 305.834 224.62C305.834 221.679 304.839 219.202 302.849 217.188C300.86 215.174 298.395 214.167 295.453 214.167C292.512 214.167 290.035 215.162 288.021 217.151C286.007 219.141 285 221.606 285 224.547C285 227.488 285.995 229.966 287.985 231.979C289.974 233.993 292.439 235 295.381 235Z" fill="white"/>
</g>
</svg>
