<svg width="470" height="470" viewBox="0 0 470 470" fill="none" xmlns="http://www.w3.org/2000/svg">
<rect x="0.333984" y="0.333008" width="469.333" height="469.333" rx="64" fill="#F7843A"/>
<mask id="mask0_3_85" style="mask-type:alpha" maskUnits="userSpaceOnUse" x="135" y="135" width="200" height="200">
<rect x="135" y="135" width="200" height="200" fill="#D9D9D9"/>
</mask>
<g mask="url(#mask0_3_85)">
<path d="M284.583 266.875L263.958 246.25L272.708 237.5L284.583 249.167L313.958 219.792L322.708 228.542L284.583 266.875ZM226.666 309.792L206.041 290.833C193.958 279.722 183.923 270.208 175.937 262.292C167.951 254.375 161.527 247.222 156.666 240.833C151.805 234.444 148.368 228.438 146.354 222.812C144.34 217.187 143.333 211.181 143.333 204.792C143.333 192.292 147.534 181.701 155.937 173.021C164.34 164.34 174.722 160 187.083 160C195 160 202.326 161.84 209.062 165.521C215.798 169.201 221.666 174.583 226.666 181.667C232.5 174.167 238.68 168.681 245.208 165.208C251.736 161.736 258.75 160 266.25 160C277.5 160 286.909 163.819 294.479 171.458C302.048 179.097 306.666 188.333 308.333 199.167H296.041C294.791 191.528 291.562 185.174 286.354 180.104C281.146 175.035 274.444 172.5 266.25 172.5C259.166 172.5 252.569 174.653 246.458 178.958C240.347 183.264 235.416 189.375 231.666 197.292H221.458C217.847 189.514 212.986 183.438 206.875 179.062C200.764 174.688 194.166 172.5 187.083 172.5C177.916 172.5 170.416 175.59 164.583 181.771C158.75 187.951 155.833 195.625 155.833 204.792C155.833 210.208 156.909 215.486 159.062 220.625C161.215 225.764 164.965 231.597 170.312 238.125C175.659 244.653 182.916 252.292 192.083 261.042C201.25 269.792 212.777 280.556 226.666 293.333C231.111 289.306 235.312 285.556 239.271 282.083C243.229 278.611 247.152 275.208 251.041 271.875L252.396 273.229C253.298 274.132 254.305 275.104 255.416 276.146C256.527 277.187 257.534 278.16 258.437 279.062L259.791 280.417C256.041 283.75 252.152 287.153 248.125 290.625C244.097 294.097 239.791 297.917 235.208 302.083L226.666 309.792Z" fill="white"/>
</g>
</svg>
