<svg width="470" height="470" viewBox="0 0 470 470" fill="none" xmlns="http://www.w3.org/2000/svg">
<rect x="0.333984" y="0.333008" width="469.333" height="469.333" rx="64" fill="#F7843A"/>
<mask id="mask0_3_86" style="mask-type:alpha" maskUnits="userSpaceOnUse" x="135" y="135" width="200" height="200">
<rect x="135" y="135" width="200" height="200" fill="#D9D9D9"/>
</mask>
<g mask="url(#mask0_3_86)">
<path d="M235 310C214.167 310 196.458 302.708 181.875 288.125C167.292 273.542 160 255.833 160 235C160 214.167 167.292 196.458 181.875 181.875C196.458 167.292 214.167 160 235 160C236.111 160 237.292 160.035 238.542 160.104C239.792 160.174 241.389 160.278 243.333 160.417C238.333 164.861 234.444 170.347 231.667 176.875C228.889 183.403 227.5 190.278 227.5 197.5C227.5 210 231.875 220.625 240.625 229.375C249.375 238.125 260 242.5 272.5 242.5C279.722 242.5 286.597 241.215 293.125 238.646C299.653 236.076 305.139 232.5 309.583 227.917C309.722 229.583 309.826 230.937 309.896 231.979C309.965 233.021 310 234.028 310 235C310 255.833 302.708 273.542 288.125 288.125C273.542 302.708 255.833 310 235 310ZM235 297.5C250.139 297.5 263.333 292.812 274.583 283.437C285.833 274.062 292.847 263.056 295.625 250.417C292.153 251.944 288.426 253.09 284.444 253.854C280.463 254.618 276.482 255 272.5 255C256.571 255 243.005 249.399 231.803 238.197C220.601 226.995 215 213.429 215 197.5C215 194.167 215.347 190.59 216.042 186.771C216.736 182.951 217.986 178.611 219.792 173.75C206.181 177.5 194.896 185.104 185.937 196.562C176.979 208.021 172.5 220.833 172.5 235C172.5 252.361 178.576 267.118 190.729 279.271C202.882 291.424 217.639 297.5 235 297.5Z" fill="white"/>
</g>
</svg>
