<svg width="26" height="26" viewBox="0 0 26 26" fill="none" xmlns="http://www.w3.org/2000/svg">
<path d="M23.8337 18.552L19.5004 14.2186V17.2249L17.8754 15.5999V5.9582H8.23372L6.60872 4.3332H17.8754C18.3087 4.3332 18.6879 4.4957 19.0129 4.8207C19.3379 5.1457 19.5004 5.52487 19.5004 5.9582V11.7811L23.8337 7.44779V18.552ZM22.9671 25.2686L1.05664 3.3582L2.19414 2.2207L24.1046 24.1311L22.9671 25.2686ZM4.30664 4.3332L5.93164 5.9582H3.79206V20.0415H17.8754V17.902L19.5004 19.527V20.0415C19.5004 20.4749 19.3379 20.854 19.0129 21.179C18.6879 21.504 18.3087 21.6665 17.8754 21.6665H3.79206C3.35872 21.6665 2.97956 21.504 2.65456 21.179C2.32956 20.854 2.16706 20.4749 2.16706 20.0415V5.9582C2.16706 5.52487 2.32956 5.1457 2.65456 4.8207C2.97956 4.4957 3.35872 4.3332 3.79206 4.3332H4.30664Z" fill="black"/>
</svg>
