<svg width="470" height="470" viewBox="0 0 470 470" fill="none" xmlns="http://www.w3.org/2000/svg">
<rect x="0.333984" y="0.333008" width="469.333" height="469.333" rx="64" fill="#F7843A"/>
<mask id="mask0_3_91" style="mask-type:alpha" maskUnits="userSpaceOnUse" x="135" y="135" width="200" height="200">
<rect x="135" y="135" width="200" height="200" fill="#D9D9D9"/>
</mask>
<g mask="url(#mask0_3_91)">
<path d="M151.667 318.334C151.667 303.473 153.82 290.625 158.125 279.792C162.431 268.959 167.917 259.966 174.584 252.813C181.25 245.66 188.646 240.104 196.771 236.146C204.896 232.188 212.778 229.653 220.417 228.542V199.584C201.389 197.223 185.174 191.702 171.771 183.021C158.368 174.341 151.667 163.889 151.667 151.667H318.334C318.334 163.889 311.632 174.341 298.23 183.021C284.827 191.702 268.611 197.223 249.584 199.584V228.542C257.223 229.653 265.105 232.188 273.23 236.146C281.355 240.104 288.75 245.66 295.417 252.813C302.084 259.966 307.57 268.959 311.875 279.792C316.181 290.625 318.334 303.473 318.334 318.334H268.334V305.834H305.209C302.709 284.723 295 268.438 282.084 256.979C269.167 245.521 253.473 239.792 235 239.792C216.528 239.792 200.834 245.521 187.917 256.979C175 268.438 167.292 284.723 164.792 305.834H201.667V318.334H151.667ZM235 188.125C249.723 188.125 263.334 185.591 275.834 180.521C288.334 175.452 296.598 170 300.625 164.167H169.375C173.403 170 181.667 175.452 194.167 180.521C206.667 185.591 220.278 188.125 235 188.125ZM235 318.334C230.417 318.334 226.493 316.702 223.229 313.438C219.966 310.174 218.334 306.25 218.334 301.667C218.334 299.306 218.785 297.153 219.688 295.209C220.591 293.264 221.806 291.528 223.334 290C226.667 286.667 232.396 283.195 240.521 279.584C248.646 275.973 257.917 272.223 268.334 268.334C264.306 278.75 260.521 288.021 256.979 296.146C253.438 304.271 250 310 246.667 313.334C245.139 314.861 243.403 316.077 241.459 316.98C239.514 317.882 237.361 318.334 235 318.334Z" fill="white"/>
</g>
</svg>
