<svg width="470" height="470" viewBox="0 0 470 470" fill="none" xmlns="http://www.w3.org/2000/svg">
<rect x="0.333984" y="0.333496" width="469.333" height="469.333" rx="64" fill="#F7843A"/>
<mask id="mask0_3_69" style="mask-type:alpha" maskUnits="userSpaceOnUse" x="135" y="135" width="200" height="201">
<rect x="135" y="135" width="200" height="200" fill="#D9D9D9"/>
</mask>
<g mask="url(#mask0_3_69)">
<path d="M235 318.334C223.334 318.334 212.431 316.181 202.292 311.875C192.153 307.57 183.334 301.667 175.834 294.167C168.334 286.667 162.431 277.848 158.125 267.709C153.82 257.57 151.667 246.667 151.667 235C151.667 223.371 153.82 212.478 158.125 202.32C162.431 192.163 168.334 183.334 175.834 175.834C183.334 168.334 192.153 162.431 202.292 158.125C212.431 153.82 223.334 151.667 235 151.667C246.629 151.667 257.523 153.82 267.68 158.125C277.838 162.431 286.667 168.334 294.167 175.834C301.667 183.334 307.57 192.163 311.875 202.32C316.181 212.478 318.334 223.371 318.334 235C318.334 246.667 316.181 257.57 311.875 267.709C307.57 277.848 301.667 286.667 294.167 294.167C286.667 301.667 277.838 307.57 267.68 311.875C257.523 316.181 246.629 318.334 235 318.334ZM235.043 273.125C243.626 273.125 251.979 274.306 260.104 276.667C268.229 279.028 275.903 282.57 283.125 287.292C290.348 280.486 295.938 272.575 299.896 263.557C303.855 254.539 305.834 245.02 305.834 235C305.834 215.226 298.972 198.477 285.248 184.753C271.524 171.029 254.775 164.167 235 164.167C215.226 164.167 198.477 171.029 184.753 184.753C171.029 198.477 164.167 215.226 164.167 235C164.167 245.015 166.146 254.567 170.104 263.657C174.063 272.747 179.723 280.625 187.084 287.292C194.167 282.57 201.785 279.028 209.939 276.667C218.092 274.306 226.46 273.125 235.043 273.125ZM235 285.625C228.75 285.625 222.535 286.493 216.354 288.23C210.174 289.966 204.167 292.5 198.334 295.834C204.167 299.028 210.174 301.493 216.354 303.23C222.535 304.966 228.75 305.834 235 305.834C241.25 305.834 247.466 304.966 253.646 303.23C259.827 301.493 265.834 299.028 271.667 295.834C265.834 292.5 259.827 289.966 253.646 288.23C247.466 286.493 241.25 285.625 235 285.625ZM190.662 222.917C192.443 222.917 193.924 222.315 195.104 221.11C196.285 219.905 196.875 218.412 196.875 216.631C196.875 214.849 196.273 213.368 195.068 212.188C193.863 211.007 192.37 210.417 190.589 210.417C188.808 210.417 187.327 211.019 186.146 212.224C184.966 213.429 184.375 214.922 184.375 216.703C184.375 218.485 184.978 219.966 186.183 221.146C187.388 222.327 188.881 222.917 190.662 222.917ZM217.953 196.667C219.735 196.667 221.216 196.065 222.396 194.86C223.577 193.655 224.167 192.162 224.167 190.381C224.167 188.599 223.565 187.118 222.36 185.938C221.155 184.757 219.662 184.167 217.881 184.167C216.099 184.167 214.618 184.769 213.438 185.974C212.257 187.179 211.667 188.672 211.667 190.453C211.667 192.235 212.269 193.716 213.474 194.896C214.679 196.077 216.172 196.667 217.953 196.667ZM279.62 222.917C281.401 222.917 282.882 222.315 284.063 221.11C285.243 219.905 285.834 218.412 285.834 216.631C285.834 214.849 285.231 213.368 284.026 212.188C282.821 211.007 281.328 210.417 279.547 210.417C277.766 210.417 276.285 211.019 275.104 212.224C273.924 213.429 273.334 214.922 273.334 216.703C273.334 218.485 273.936 219.966 275.141 221.146C276.346 222.327 277.839 222.917 279.62 222.917ZM234.984 250.209C239.161 250.209 242.743 248.72 245.729 245.741C248.716 242.763 250.209 239.183 250.209 235C250.209 232.91 249.792 230.859 248.959 228.849C248.125 226.839 246.945 225.139 245.417 223.75L259.375 191.25C260.07 189.723 260.174 188.195 259.688 186.667C259.202 185.139 258.17 184.028 256.593 183.334C255.115 182.639 253.532 182.634 251.844 183.319C250.157 184.004 248.987 185.189 248.334 186.875L233.959 219.792C229.931 220.07 226.563 221.667 223.854 224.584C221.146 227.5 219.792 230.973 219.792 235C219.792 239.183 221.28 242.763 224.255 245.741C227.23 248.72 230.806 250.209 234.984 250.209Z" fill="white"/>
</g>
</svg>
