<svg width="60" height="60" viewBox="0 0 60 60" fill="none" xmlns="http://www.w3.org/2000/svg">
<path d="M40.3671 2.23985C38.697 -0.744534 34.396 -0.747784 32.7261 2.2371C31.8339 3.83167 30.7716 5.49098 29.7554 7.01805C29.7481 7.00555 29.2895 6.21708 29.2895 6.20458C27.4969 3.00132 22.8792 2.99582 21.0858 6.20145C13.9183 19.0116 -2.46344 34.6184 7.28669 50.2262C15.4348 63.2693 34.9532 63.2462 43.087 50.2262C52.1638 35.6965 38.5858 21.1609 30.8986 8.90485C32.086 7.14204 33.3925 5.14199 34.4714 3.21344C35.378 1.59313 37.716 1.59763 38.6218 3.21632C45.2023 14.9761 59.405 28.4231 51.264 41.4549C50.3422 42.9306 49.2156 44.2428 47.9158 45.355C47.4962 45.7141 47.4471 46.3453 47.8062 46.7649C48.1657 47.1852 48.797 47.233 49.216 46.8745C50.6707 45.6298 51.9304 44.1629 52.9602 42.5145C61.8989 28.2056 46.8957 13.9069 40.3671 2.23985ZM41.3908 49.1666C34.0379 60.9366 16.3441 60.9503 8.983 49.1666C0.0262136 34.8294 15.6445 20.0222 22.8311 7.17779C23.8606 5.33761 26.5156 5.34274 27.5442 7.18092C34.7314 20.0252 50.3466 34.8306 41.3908 49.1666Z" fill="black"/>
<path d="M24.6456 51.2086C24.2024 50.8791 23.5759 50.9709 23.2465 51.4143C23.0296 51.7058 22.4105 52.3471 21.3468 52.0083C15.0841 50.0134 11.6994 44.0545 12.2933 36.0684C12.3772 34.9423 13.2316 34.5349 13.9379 34.5284C14.8111 34.5192 15.5266 35.063 15.619 36.057C16.0953 41.1669 18.4302 45.5538 22.1943 48.4092C22.634 48.7429 23.2614 48.6568 23.5953 48.2168C23.9291 47.7768 23.843 47.1496 23.403 46.8159C20.0431 44.2668 18.0401 40.4823 17.6105 35.8715C17.1917 31.3754 10.6311 31.4523 10.299 35.92C9.68915 44.1195 13.0258 51.4567 20.7399 53.9138C22.3188 54.4169 23.8894 53.901 24.8512 52.6076C25.1807 52.1647 25.0887 51.5382 24.6456 51.2086Z" fill="black"/>
</svg>
