<svg width="470" height="470" viewBox="0 0 470 470" fill="none" xmlns="http://www.w3.org/2000/svg">
<rect x="0.333984" y="0.333374" width="469.333" height="469.333" rx="64" fill="#F7843A"/>
<mask id="mask0_3_39" style="mask-type:alpha" maskUnits="userSpaceOnUse" x="135" y="135" width="200" height="200">
<rect x="135" y="135" width="200" height="200" fill="#D9D9D9"/>
</mask>
<g mask="url(#mask0_3_39)">
<path d="M243.333 326.667C233.194 326.667 225.104 322.431 219.062 313.958C213.021 305.486 210 295.833 210 285C210 274.167 213.021 264.514 219.062 256.042C225.104 247.569 233.194 243.333 243.333 243.333C253.472 243.333 261.562 247.569 267.604 256.042C273.646 264.514 276.667 274.167 276.667 285C276.667 295.833 273.646 305.486 267.604 313.958C261.562 322.431 253.472 326.667 243.333 326.667ZM168.75 319.583L156.875 315.625C160.764 302.431 163.646 289.132 165.521 275.729C167.396 262.326 168.333 248.75 168.333 235C168.333 221.25 167.396 207.639 165.521 194.167C163.646 180.694 160.764 167.361 156.875 154.167L168.75 150.208C172.778 164.097 175.799 178.09 177.812 192.187C179.826 206.285 180.833 220.556 180.833 235C180.833 249.306 179.826 263.507 177.812 277.604C175.799 291.701 172.778 305.694 168.75 319.583ZM301.25 319.583C297.222 305.694 294.201 291.701 292.188 277.604C290.174 263.507 289.167 249.306 289.167 235C289.167 220.556 290.174 206.285 292.188 192.187C294.201 178.09 297.222 164.097 301.25 150.208L313.125 154.167C309.236 167.361 306.354 180.694 304.479 194.167C302.604 207.639 301.667 221.25 301.667 235C301.667 248.75 302.604 262.326 304.479 275.729C306.354 289.132 309.236 302.431 313.125 315.625L301.25 319.583ZM243.333 314.167C250 314.167 255.139 311.181 258.75 305.208C262.361 299.236 264.167 292.5 264.167 285C264.167 277.5 262.361 270.764 258.75 264.792C255.139 258.819 250 255.833 243.333 255.833C236.667 255.833 231.528 258.819 227.917 264.792C224.306 270.764 222.5 277.5 222.5 285C222.5 292.5 224.306 299.236 227.917 305.208C231.528 311.181 236.667 314.167 243.333 314.167ZM236.875 300C238.125 301.111 239.583 301.667 241.25 301.667C242.917 301.667 244.375 301.042 245.625 299.792C247.569 297.847 249.062 295.59 250.104 293.021C251.146 290.451 251.667 287.778 251.667 285C251.667 282.222 251.181 279.549 250.208 276.979C249.236 274.41 247.778 272.153 245.833 270.208C244.722 268.958 243.299 268.333 241.562 268.333C239.826 268.333 238.333 268.889 237.083 270C235.833 271.111 235.174 272.569 235.104 274.375C235.035 276.181 235.556 277.708 236.667 278.958L237.917 280.729C238.75 281.91 239.167 283.333 239.167 285C239.167 286.667 238.75 288.09 237.917 289.271L236.667 291.042C235.417 292.292 234.826 293.819 234.896 295.625C234.965 297.431 235.625 298.889 236.875 300ZM226.667 226.667C216.528 226.667 208.438 222.431 202.396 213.958C196.354 205.486 193.333 195.833 193.333 185C193.333 174.167 196.354 164.514 202.396 156.042C208.438 147.569 216.528 143.333 226.667 143.333C236.806 143.333 244.896 147.569 250.938 156.042C256.979 164.514 260 174.167 260 185C260 195.833 256.979 205.486 250.938 213.958C244.896 222.431 236.806 226.667 226.667 226.667ZM226.667 214.167C233.333 214.167 238.472 211.181 242.083 205.208C245.694 199.236 247.5 192.5 247.5 185C247.5 177.5 245.694 170.764 242.083 164.792C238.472 158.819 233.333 155.833 226.667 155.833C220 155.833 214.861 158.819 211.25 164.792C207.639 170.764 205.833 177.5 205.833 185C205.833 192.5 207.639 199.236 211.25 205.208C214.861 211.181 220 214.167 226.667 214.167ZM232.917 200C234.167 198.889 234.826 197.431 234.896 195.625C234.965 193.819 234.444 192.292 233.333 191.042C232.639 190.208 232.049 189.271 231.562 188.229C231.076 187.187 230.833 186.111 230.833 185C230.833 183.889 231.076 182.812 231.562 181.771C232.049 180.729 232.639 179.792 233.333 178.958C234.444 177.708 235 176.215 235 174.479C235 172.743 234.375 171.25 233.125 170C231.875 168.889 230.417 168.333 228.75 168.333C227.083 168.333 225.625 168.958 224.375 170.208C222.431 172.153 220.938 174.41 219.896 176.979C218.854 179.549 218.333 182.222 218.333 185C218.333 187.778 218.819 190.451 219.792 193.021C220.764 195.59 222.222 197.847 224.167 199.792C225.417 201.042 226.875 201.667 228.542 201.667C230.208 201.667 231.667 201.111 232.917 200Z" fill="white"/>
</g>
</svg>
