<svg width="60" height="60" viewBox="0 0 60 60" fill="none" xmlns="http://www.w3.org/2000/svg">
<path d="M50.9454 22.7593C47.8001 15.7044 41.9657 10.8911 35.065 9.52851C35.1946 7.67464 35.0782 5.81227 34.7158 3.97927C34.5092 2.93448 35.1368 2.32385 35.7931 2.10077C36.416 1.88907 37.3057 1.9693 37.7628 2.89224C38.4597 4.29845 38.9786 5.78977 39.3052 7.32458C39.4202 7.86472 39.9517 8.20965 40.4913 8.0943C41.0314 7.97932 41.3759 7.44831 41.261 6.90829C40.8994 5.21026 40.3253 3.56035 39.5544 2.00454C38.7321 0.344633 36.921 -0.394217 35.1496 0.20766C33.3741 0.811162 32.3892 2.52169 32.7541 4.36731C33.0723 5.97636 33.1809 7.61015 33.0803 9.23744C22.6746 8.21115 14.8439 15.2636 19.5198 25.1357C18.3005 26.7952 17.3605 28.5088 16.7021 30.2584C14.5529 27.6884 13.3808 24.8426 13.2149 21.7783C13.1941 21.3916 12.9516 21.0518 12.5928 20.9061L10.3549 19.9971C8.17648 19.1124 8.82322 15.8293 11.2025 15.8836L13.3387 15.9276C13.7621 15.9363 14.1441 15.6779 14.2941 15.2825C14.7458 14.0915 15.3359 12.9059 16.0481 11.7588C16.2578 11.421 16.2475 10.9911 16.0218 10.6638L14.2244 8.05768C12.8894 6.12208 15.2284 3.73681 17.1913 5.08491L19.2872 6.52437C19.6696 6.78694 20.1823 6.7522 20.5256 6.44014C21.4768 5.57581 22.5112 4.75698 23.6002 4.00626C24.3097 3.51711 25.0703 3.38301 25.7995 3.61884C26.5995 3.87729 27.2797 4.55252 27.5748 5.38098C27.7601 5.90125 28.332 6.17244 28.852 5.98736C29.3722 5.80214 29.6436 5.23026 29.4584 4.71012C28.9594 3.3089 27.7928 2.16164 26.4144 1.7161C25.0904 1.28856 23.6882 1.51702 22.4653 2.35997C21.526 3.00746 20.6241 3.7032 19.7757 4.43392L18.3234 3.43663C14.5409 0.838782 9.98436 5.43172 12.5785 9.19295L14.0098 11.2683C13.5041 12.1354 13.0615 13.0209 12.6876 13.914L11.2437 13.8842C6.65529 13.794 5.3698 20.1305 9.60256 21.8496L11.2663 22.5254C11.6144 26.1342 13.2471 29.5592 16.019 32.4962C15.3013 35.5391 15.4155 38.6653 16.3786 41.7845L15.897 42.6186C15.621 43.0969 15.7848 43.7083 16.263 43.9843C16.741 44.2604 17.3526 44.0966 17.6287 43.6184L18.2179 42.5978C18.6033 41.9303 19.5649 41.9314 19.9496 42.5978L27.9713 56.4918C28.3567 57.1593 27.875 57.9915 27.1055 57.9915H11.0621C10.2929 57.9915 9.81077 57.1594 10.1963 56.4918L14.8009 48.5165C15.0769 48.0384 14.9131 47.4269 14.435 47.1508C13.9568 46.8748 13.3453 47.0386 13.0692 47.5168L8.46467 55.492C7.31078 57.4908 8.75111 59.9911 11.0623 59.9911H27.1057C29.4141 59.9911 30.8588 57.4932 29.7033 55.492L21.6816 41.598C20.913 40.2667 19.3549 39.7991 18.037 40.2845C16.8231 35.3965 17.9575 30.4964 21.3549 26.0231C24.5763 24.3079 27.7617 24.0313 30.8666 23.9639C31.0818 26.6359 34.188 27.0033 36.4 27.6924C35.8565 28.8979 34.7156 29.4863 33.2632 29.25C32.7187 29.162 32.2046 29.5314 32.116 30.0764C32.0274 30.6215 32.3973 31.1351 32.9424 31.2237C35.3139 31.6092 37.2979 30.5613 38.211 28.5535C38.4176 28.7296 38.577 28.9292 38.6704 29.1614C38.8763 29.6738 39.4587 29.9221 39.9709 29.7161C40.4833 29.5103 40.7316 28.9279 40.5256 28.4157C39.7714 26.539 37.7134 25.9618 35.7912 25.4404C33.804 24.9012 33.0295 24.5533 32.8811 23.9363C34.6006 23.9166 36.2369 23.879 37.8356 23.607C38.3798 23.5144 38.7461 22.998 38.6534 22.4536C38.5608 21.9094 38.0444 21.5432 37.5 21.6358C32.8748 22.4229 27.1207 21.0579 21.1486 23.8892C14.7284 9.36792 40.6977 4.68387 49.1192 23.5734C50.7487 27.2281 51.0796 31.1676 50.9422 34.9168C48.0148 38.4359 45.3025 38.8294 42.4236 38.3476C42.3745 38.3353 42.3243 38.3264 42.2728 38.3216C38.7282 37.6929 34.9821 35.8128 31.1363 37.1345C30.5893 36.6813 30.0504 35.9659 29.961 34.878C29.9159 34.3277 29.434 33.9193 28.8828 33.9634C28.3325 34.0085 27.9229 34.4913 27.9682 35.0417C28.0628 36.1936 28.5031 37.2302 29.2366 38.0681C28.1851 38.7518 27.1361 39.7312 26.0993 41.0994C25.7659 41.5395 25.8522 42.1667 26.2923 42.5001C26.7342 42.8348 27.3607 42.7455 27.693 42.3071C31.9957 36.629 36.0647 39.0255 41.0595 40.1153C40.4015 41.7261 37.6045 43.5431 36.2437 45.6291C35.7207 45.5606 35.2068 45.4351 34.7099 45.2522C34.1915 45.0618 33.6172 45.3273 33.4265 45.8455C33.2359 46.3637 33.5016 46.9384 34.0197 47.129C34.4924 47.3028 34.9773 47.4354 35.4698 47.5287C35.3925 48.0444 35.4222 48.584 35.5953 49.1517C35.7266 49.5827 36.1229 49.8601 36.5512 49.8601C37.2223 49.8601 37.7036 49.2107 37.5079 48.5687C37.3668 48.1059 37.4338 47.6468 37.6636 47.1657C37.6785 47.139 37.6922 47.1115 37.7046 47.0832C38.7885 44.9714 42.3394 42.9939 43.0602 40.4441C45.5306 40.6919 48.1172 40.2717 50.737 37.9929C50.2696 43.033 49.3308 47.5028 50.0967 50.6542C51.8466 57.8545 42.9319 59.3143 35.2393 56.9113C34.7123 56.7467 34.1516 57.0406 33.987 57.5676C33.8224 58.0946 34.1162 58.6554 34.6432 58.8199C45.1322 62.0966 54.0209 58.3342 52.0398 50.182C50.7197 44.7503 55.5313 33.0456 50.9454 22.7593Z" fill="black"/>
<path d="M19.0857 51.9367C19.6379 51.9367 20.0855 51.489 20.0855 50.9369V46.9578C20.0855 46.4057 19.6379 45.958 19.0857 45.958C18.5336 45.958 18.0859 46.4057 18.0859 46.9578V50.9369C18.0859 51.489 18.5335 51.9367 19.0857 51.9367Z" fill="black"/>
<path d="M18.0859 55.2302C18.0859 55.7823 18.5336 56.23 19.0857 56.23C19.6379 56.23 20.0855 55.7823 20.0855 55.2302V54.7303C20.0855 54.1781 19.6379 53.7305 19.0857 53.7305C18.5336 53.7305 18.0859 54.1781 18.0859 54.7303V55.2302Z" fill="black"/>
</svg>
