<svg width="470" height="470" viewBox="0 0 470 470" fill="none" xmlns="http://www.w3.org/2000/svg">
<rect x="0.333984" y="0.333374" width="469.333" height="469.333" rx="64" fill="#F7843A"/>
<mask id="mask0_3_40" style="mask-type:alpha" maskUnits="userSpaceOnUse" x="135" y="135" width="200" height="200">
<rect x="135" y="135" width="200" height="200" fill="#D9D9D9"/>
</mask>
<g mask="url(#mask0_3_40)">
<path d="M201.667 310V297.5H228.75V258.958C215 257.014 204.271 251.479 196.562 242.354C188.854 233.228 185 222.444 185 210V160H285V210C285 222.5 281.146 233.299 273.438 242.396C265.729 251.493 255 257.014 241.25 258.958V297.5H268.333V310H201.667ZM234.97 247.5C244.573 247.5 252.951 244.201 260.104 237.604C267.257 231.007 271.25 223.889 272.083 216.25H197.917C198.611 223.889 202.56 231.007 209.762 237.604C216.964 244.201 225.367 247.5 234.97 247.5ZM197.5 203.75H272.5V172.5H197.5V203.75Z" fill="white"/>
</g>
</svg>
