<svg width="60" height="60" viewBox="0 0 60 60" fill="none" xmlns="http://www.w3.org/2000/svg">
<path d="M13.9609 35.409C14.0841 35.4091 14.206 35.3848 14.3197 35.3377C14.4335 35.2906 14.5369 35.2216 14.6239 35.1345C14.711 35.0475 14.78 34.9441 14.8271 34.8303C14.8742 34.7166 14.8985 34.5947 14.8984 34.4715V12.8065C14.8992 12.1976 15.1413 11.6138 15.5719 11.1832C16.0024 10.7526 16.5861 10.5103 17.195 10.5094H20.9838L22.0382 13.5948C22.2778 14.3731 22.7544 15.0572 23.4014 15.5517C24.0485 16.0462 24.8337 16.3264 25.6476 16.3532H34.3552C35.1691 16.3264 35.9544 16.0462 36.6014 15.5517C37.2485 15.0572 37.725 14.3731 37.9646 13.5948L39.235 9.8777C39.2799 9.73625 39.2913 9.58625 39.2681 9.43964C39.2449 9.29303 39.1879 9.15385 39.1015 9.03315C39.0151 8.91246 38.9017 8.81357 38.7704 8.74437C38.6391 8.67516 38.4935 8.63753 38.3451 8.63448H34.0714C34.9109 2.25465 25.082 2.16621 25.9315 8.63464L17.195 8.63448C16.089 8.63574 15.0286 9.07572 14.2465 9.85787C13.4644 10.64 13.0246 11.7005 13.0234 12.8065V34.4715C13.0234 34.5947 13.0476 34.7166 13.0947 34.8303C13.1418 34.9441 13.2109 35.0475 13.298 35.1345C13.385 35.2216 13.4884 35.2906 13.6021 35.3377C13.7159 35.3848 13.8378 35.4091 13.9609 35.409ZM36.1904 12.9887C36.0798 13.3983 35.8429 13.7627 35.5135 14.03C35.1841 14.2974 34.7788 14.4542 34.3552 14.4783H25.6477C25.2241 14.4542 24.8188 14.2974 24.4894 14.03C24.16 13.7626 23.9231 13.3983 23.8125 12.9887L22.9661 10.5122H37.0368L36.1904 12.9887ZM27.7318 7.89469C27.734 7.56752 27.8072 7.2447 27.9463 6.94858C28.0854 6.65245 28.2872 6.39008 28.5377 6.17959C28.7882 5.9691 29.0814 5.81553 29.3971 5.72948C29.7128 5.64343 30.0434 5.62697 30.366 5.68122C30.6887 5.73548 30.9957 5.85916 31.2659 6.04371C31.536 6.22826 31.7629 6.46929 31.9308 6.75012C32.0987 7.03096 32.2036 7.3449 32.2382 7.67025C32.2728 7.9956 32.2364 8.32459 32.1314 8.63448H27.8714C27.7834 8.39756 27.7362 8.14741 27.7318 7.89469Z" fill="black"/>
<path d="M42.8078 8.63477H42.1047C41.859 8.63917 41.6248 8.73988 41.4526 8.91522C41.2803 9.09056 41.1838 9.32651 41.1838 9.57229C41.1839 9.81806 41.2804 10.054 41.4526 10.2293C41.6248 10.4047 41.859 10.5054 42.1048 10.5098H42.8078C43.4167 10.5106 44.0005 10.7529 44.431 11.1835C44.8615 11.6141 45.1037 12.1979 45.1044 12.8068V52.0875C45.1026 52.6952 44.8597 53.2774 44.4292 53.7063C43.9986 54.1352 43.4156 54.3758 42.8078 54.3754H17.195C16.5873 54.3758 16.0042 54.1352 15.5737 53.7063C15.1431 53.2774 14.9003 52.6952 14.8984 52.0875V38.2219C14.8984 37.9732 14.7997 37.7348 14.6239 37.559C14.448 37.3831 14.2096 37.2844 13.9609 37.2844C13.7123 37.2844 13.4738 37.3831 13.298 37.559C13.1222 37.7348 13.0234 37.9732 13.0234 38.2219V52.0875C13.0259 53.1923 13.4664 54.2511 14.2485 55.0315C15.0305 55.8119 16.0902 56.2503 17.195 56.2504H42.8078C43.9127 56.2503 44.9723 55.8119 45.7544 55.0315C46.5364 54.2511 46.977 53.1923 46.9794 52.0875V12.8068C46.9783 11.7007 46.5384 10.6403 45.7563 9.85815C44.9743 9.076 43.9139 8.63603 42.8078 8.63477Z" fill="black"/>
<path d="M41.3876 44.2588C41.634 44.2553 41.869 44.155 42.042 43.9796C42.215 43.8041 42.312 43.5677 42.312 43.3213C42.312 43.0749 42.215 42.8385 42.042 42.663C41.869 42.4876 41.634 42.3873 41.3876 42.3838H38.9258C38.8027 42.3838 38.6807 42.408 38.567 42.4551C38.4532 42.5022 38.3499 42.5712 38.2628 42.6583C38.1757 42.7454 38.1067 42.8487 38.0596 42.9625C38.0125 43.0762 37.9882 43.1982 37.9883 43.3213V49.5963C37.9882 49.7194 38.0125 49.8414 38.0596 49.9551C38.1067 50.0689 38.1757 50.1722 38.2628 50.2593C38.3499 50.3464 38.4532 50.4154 38.567 50.4625C38.6807 50.5096 38.8027 50.5338 38.9258 50.5338H41.3877C41.6363 50.5338 41.8748 50.435 42.0506 50.2592C42.2264 50.0834 42.3252 49.845 42.3252 49.5963C42.3252 49.3477 42.2264 49.1092 42.0506 48.9334C41.8748 48.7576 41.6363 48.6588 41.3877 48.6588H39.8633V47.3963H40.3481C40.5967 47.3963 40.8351 47.2975 41.011 47.1217C41.1868 46.9459 41.2856 46.7074 41.2856 46.4588C41.2856 46.2101 41.1868 45.9717 41.011 45.7959C40.8351 45.6201 40.5967 45.5213 40.3481 45.5213H39.8633V44.2588H41.3876Z" fill="black"/>
<path d="M20.6716 50.5338C20.7947 50.5338 20.9166 50.5096 21.0304 50.4625C21.1442 50.4154 21.2475 50.3463 21.3346 50.2593C21.4216 50.1722 21.4907 50.0689 21.5378 49.9551C21.5849 49.8413 21.6091 49.7194 21.6091 49.5963V44.2588H22.7334C22.982 44.2588 23.2205 44.16 23.3963 43.9842C23.5721 43.8084 23.6709 43.5699 23.6709 43.3213C23.6709 43.0726 23.5721 42.8342 23.3963 42.6584C23.2205 42.4826 22.982 42.3838 22.7334 42.3838H18.6094C18.3607 42.3838 18.1223 42.4826 17.9465 42.6584C17.7706 42.8342 17.6719 43.0726 17.6719 43.3213C17.6719 43.5699 17.7706 43.8084 17.9465 43.9842C18.1223 44.16 18.3607 44.2588 18.6094 44.2588H19.7341V49.5963C19.7341 49.7194 19.7583 49.8414 19.8054 49.9551C19.8525 50.0689 19.9216 50.1722 20.0086 50.2593C20.0957 50.3463 20.199 50.4154 20.3128 50.4625C20.4266 50.5096 20.5485 50.5338 20.6716 50.5338Z" fill="black"/>
<path d="M32.3242 42.3832C32.2011 42.3831 32.0792 42.4074 31.9654 42.4545C31.8517 42.5016 31.7483 42.5706 31.6612 42.6577C31.5742 42.7448 31.5051 42.8481 31.458 42.9619C31.4109 43.0756 31.3867 43.1976 31.3867 43.3207V49.5957C31.3902 49.842 31.4905 50.0771 31.6659 50.2501C31.8414 50.4231 32.0778 50.52 32.3242 50.52C32.5706 50.52 32.8071 50.4231 32.9825 50.2501C33.1579 50.0771 33.2582 49.842 33.2617 49.5957V47.7921H34.4162C34.775 47.7978 35.1314 47.7321 35.4645 47.5988C35.7977 47.4655 36.101 47.2672 36.3567 47.0155C36.6125 46.7638 36.8156 46.4637 36.9543 46.1327C37.0929 45.8017 37.1643 45.4465 37.1643 45.0876C37.1643 44.7288 37.0929 44.3735 36.9543 44.0425C36.8156 43.7116 36.6125 43.4115 36.3567 43.1598C36.101 42.9081 35.7977 42.7098 35.4645 42.5765C35.1314 42.4431 34.775 42.3774 34.4162 42.3832L32.3242 42.3832ZM35.2892 45.0876C35.2831 45.3133 35.1878 45.5273 35.0241 45.6828C34.8605 45.8383 34.6419 45.9226 34.4162 45.9171H33.2617V44.2582H34.4162C34.6419 44.2527 34.8605 44.337 35.0241 44.4925C35.1878 44.6479 35.2831 44.862 35.2892 45.0876Z" fill="black"/>
<path d="M26.7472 48.6588H25.9608C25.7146 48.6624 25.4797 48.7628 25.3068 48.9382C25.134 49.1137 25.0371 49.35 25.0371 49.5963C25.0371 49.8426 25.134 50.0789 25.3068 50.2543C25.4797 50.4298 25.7146 50.5301 25.9608 50.5338H26.7472C27.6191 50.5328 28.455 50.1861 29.0715 49.5695C29.6881 48.953 30.0348 48.1171 30.0358 47.2452V43.3213C30.0358 43.0726 29.937 42.8342 29.7612 42.6584C29.5854 42.4826 29.3469 42.3838 29.0983 42.3838C28.8496 42.3838 28.6112 42.4826 28.4354 42.6584C28.2596 42.8342 28.1608 43.0726 28.1608 43.3213V45.5213C27.7226 45.4931 27.1356 45.6104 27.1642 45.3996V43.3213C27.1607 43.0749 27.0604 42.8399 26.885 42.6669C26.7095 42.4939 26.4731 42.397 26.2267 42.397C25.9803 42.397 25.7439 42.494 25.5684 42.6669C25.393 42.8399 25.2927 43.075 25.2892 43.3213V45.3995C25.2898 45.9289 25.5003 46.4365 25.8747 46.8109C26.249 47.1852 26.7566 47.3957 27.286 47.3963H28.1525C28.1149 47.7429 27.9506 48.0633 27.6913 48.2963C27.432 48.5292 27.0958 48.6583 26.7472 48.6588Z" fill="black"/>
<path d="M30.6444 20.4521C30.47 20.2872 30.239 20.1953 29.999 20.1953C29.7589 20.1953 29.5279 20.2872 29.3535 20.4521C29.077 20.7149 22.5781 26.9469 22.5781 32.5774C22.5781 34.5455 23.36 36.433 24.7516 37.8247C26.1433 39.2164 28.0308 39.9982 29.9989 39.9982C31.9671 39.9982 33.8546 39.2164 35.2462 37.8247C36.6379 36.433 37.4197 34.5455 37.4197 32.5774C37.4198 26.9469 30.9209 20.7149 30.6444 20.4521ZM29.999 38.1236C28.5286 38.1218 27.119 37.5369 26.0793 36.4971C25.0397 35.4574 24.4548 34.0477 24.4532 32.5774C24.4532 28.7001 28.4124 24.1389 29.999 22.4681C31.5856 24.1389 35.5448 28.7001 35.5448 32.5774C35.5431 34.0477 34.9583 35.4574 33.9186 36.4971C32.879 37.5369 31.4693 38.1218 29.999 38.1236Z" fill="black"/>
<path d="M30.9503 27.284C30.8069 27.2018 30.6442 27.1591 30.4789 27.1602C30.3136 27.1613 30.1515 27.2062 30.0092 27.2904L28.169 28.3735C27.9586 28.5015 27.807 28.7072 27.747 28.9461C27.687 29.185 27.7234 29.4379 27.8484 29.6502C27.9733 29.8624 28.1768 30.017 28.4148 30.0805C28.6528 30.1439 28.9062 30.1112 29.1202 29.9894L29.5473 29.7376V34.3674C29.5508 34.6138 29.6511 34.8489 29.8265 35.0218C30.002 35.1948 30.2385 35.2918 30.4848 35.2918C30.7312 35.2917 30.9677 35.1948 31.1431 35.0218C31.3185 34.8488 31.4188 34.6137 31.4223 34.3674V28.0979C31.4223 27.9327 31.3786 27.7704 31.2957 27.6275C31.2128 27.4846 31.0937 27.3661 30.9503 27.284Z" fill="black"/>
</svg>
