<svg width="470" height="470" viewBox="0 0 470 470" fill="none" xmlns="http://www.w3.org/2000/svg">
<rect x="0.333984" y="0.333374" width="469.333" height="469.333" rx="64" fill="#F7843A"/>
<mask id="mask0_3_43" style="mask-type:alpha" maskUnits="userSpaceOnUse" x="135" y="135" width="200" height="200">
<rect x="135" y="135" width="200" height="200" fill="#D9D9D9"/>
</mask>
<g mask="url(#mask0_3_43)">
<path d="M151.667 216.25V180.833C151.667 177.5 152.917 174.583 155.417 172.083C157.917 169.583 160.834 168.333 164.167 168.333H305.834C309.167 168.333 312.084 169.583 314.584 172.083C317.084 174.583 318.334 177.5 318.334 180.833V235H305.834V180.833H164.167V216.25H151.667ZM193.334 274.583C192.084 274.583 190.973 274.306 190 273.75C189.028 273.194 188.195 272.361 187.5 271.25L172.709 241.25H151.667V228.75H176.667C177.751 228.75 178.786 229.063 179.772 229.688C180.757 230.313 181.528 231.181 182.084 232.292L193.334 254.375L221.042 198.958C221.598 197.847 222.388 197.049 223.413 196.563C224.438 196.076 225.515 195.833 226.642 195.833C227.77 195.833 228.854 196.076 229.896 196.563C230.938 197.049 231.736 197.847 232.292 198.958L248.959 232.5C247.153 233.611 245.417 234.896 243.75 236.354C242.084 237.813 240.486 239.306 238.959 240.833L226.667 215.833L198.75 271.25C198.249 272.361 197.497 273.194 196.493 273.75C195.49 274.306 194.437 274.583 193.334 274.583ZM231.042 301.667H164.167C160.834 301.667 157.917 300.417 155.417 297.917C152.917 295.417 151.667 292.5 151.667 289.167V253.75H164.167V289.167H226.042C226.598 291.389 227.292 293.542 228.125 295.625C228.959 297.708 229.931 299.722 231.042 301.667ZM276.645 316.25C265.687 316.25 256.354 312.389 248.646 304.665C240.938 296.942 237.084 287.602 237.084 276.645C237.084 265.687 240.945 256.354 248.668 248.646C256.391 240.938 265.732 237.083 276.689 237.083C287.647 237.083 296.98 240.945 304.688 248.668C312.396 256.391 316.25 265.731 316.25 276.689C316.25 287.646 312.389 296.979 304.666 304.688C296.943 312.396 287.602 316.25 276.645 316.25ZM278.334 280.833L297.292 261.875L291.459 256.042L272.5 275L278.334 280.833Z" fill="white"/>
</g>
</svg>
