<svg width="470" height="470" viewBox="0 0 470 470" fill="none" xmlns="http://www.w3.org/2000/svg">
<rect x="0.333984" y="0.333374" width="469.333" height="469.333" rx="64" fill="#F7843A"/>
<mask id="mask0_3_45" style="mask-type:alpha" maskUnits="userSpaceOnUse" x="135" y="135" width="200" height="200">
<rect x="135" y="135" width="200" height="200" fill="#D9D9D9"/>
</mask>
<g mask="url(#mask0_3_45)">
<path d="M193.334 318.333V276.667H151.667V193.333H193.334V151.667H276.667V193.333H318.334V276.667H276.667V318.333H193.334ZM164.167 228.75H210C211.053 228.75 212.052 229.001 212.999 229.502C213.946 230.004 214.683 230.656 215.209 231.458L224.792 246.042L237.292 208.125C237.72 206.875 238.496 205.833 239.621 205C240.745 204.167 242.003 203.75 243.395 203.75C244.465 203.75 245.417 204.028 246.25 204.583C247.084 205.139 247.848 205.833 248.542 206.667L263.334 228.75H305.834V205.833H264.167V164.167H205.834V205.833H164.167V228.75ZM205.834 305.833H264.167V264.167H305.834V241.25H260C258.889 241.25 257.917 240.972 257.084 240.417C256.25 239.861 255.486 239.167 254.792 238.333L245.209 223.958L232.5 261.875C232.087 263.125 231.313 264.167 230.177 265C229.041 265.833 227.801 266.25 226.459 266.25C225.348 266.25 224.375 265.972 223.542 265.417C222.709 264.861 222.014 264.167 221.459 263.333L206.667 241.25H164.167V264.167H205.834V305.833Z" fill="white"/>
</g>
</svg>
