<svg width="470" height="470" viewBox="0 0 470 470" fill="none" xmlns="http://www.w3.org/2000/svg">
<rect x="0.333984" y="0.333496" width="469.333" height="469.333" rx="64" fill="#F7843A"/>
<mask id="mask0_3_49" style="mask-type:alpha" maskUnits="userSpaceOnUse" x="135" y="135" width="200" height="200">
<rect x="135" y="135" width="200" height="200" fill="#D9D9D9"/>
</mask>
<g mask="url(#mask0_3_49)">
<path d="M196.459 310.208C191.459 310.069 186.702 308.785 182.188 306.354C177.674 303.924 173.403 300.347 169.375 295.625C163.82 288.958 159.479 281.007 156.354 271.771C153.229 262.535 151.667 253.056 151.667 243.333C151.667 231.806 153.854 220.972 158.229 210.833C162.604 200.694 168.542 191.875 176.042 184.375C183.542 176.875 192.361 170.938 202.5 166.563C212.639 162.188 223.473 160 235 160C246.528 160 257.361 162.188 267.5 166.563C277.639 170.938 286.459 176.944 293.959 184.583C301.459 192.222 307.396 201.181 311.771 211.458C316.146 221.736 318.334 232.778 318.334 244.583C318.334 255 316.667 264.861 313.334 274.167C310 283.472 305.209 291.319 298.959 297.708C294.931 301.875 290.73 305 286.355 307.083C281.98 309.167 277.5 310.208 272.917 310.208C270.417 310.208 267.917 309.896 265.417 309.271C262.917 308.646 260.417 307.708 257.917 306.458L246.25 300.625C244.445 299.653 242.604 298.958 240.729 298.542C238.854 298.125 236.945 297.917 235 297.917C233.056 297.917 231.146 298.125 229.271 298.542C227.396 298.958 225.556 299.653 223.75 300.625L212.084 306.458C209.445 307.847 206.841 308.854 204.271 309.479C201.702 310.104 199.098 310.347 196.459 310.208ZM197.084 297.708C198.611 297.708 200.174 297.5 201.771 297.083C203.368 296.667 204.931 296.111 206.459 295.417L218.125 289.583C220.764 288.333 223.473 287.361 226.25 286.667C229.028 285.972 231.875 285.625 234.792 285.625C237.709 285.625 240.556 285.938 243.334 286.562C246.111 287.188 248.889 288.194 251.667 289.583L263.542 295.417C265.07 296.111 266.598 296.667 268.125 297.083C269.653 297.5 271.181 297.708 272.709 297.708C275.903 297.708 278.993 296.944 281.98 295.417C284.966 293.889 287.848 291.597 290.625 288.542C295.486 283.264 299.236 276.771 301.875 269.063C304.514 261.354 305.834 253.194 305.834 244.583C305.834 224.306 298.993 207.222 285.313 193.333C271.632 179.444 254.861 172.5 235 172.5C215.139 172.5 198.368 179.514 184.688 193.542C171.007 207.569 164.167 224.722 164.167 245C164.167 253.75 165.486 261.91 168.125 269.479C170.764 277.049 174.514 283.472 179.375 288.75C182.153 291.806 185 294.062 187.917 295.521C190.834 296.979 193.889 297.708 197.084 297.708ZM235 257.917C239.028 257.917 242.466 256.493 245.313 253.646C248.16 250.799 249.584 247.361 249.584 243.333C249.584 242.222 249.48 241.111 249.271 240C249.063 238.889 248.681 237.847 248.125 236.875L261.459 219.792C263.125 221.736 264.584 223.785 265.834 225.938C267.084 228.09 268.056 230.417 268.75 232.917H281.667C279.167 221.944 273.577 212.951 264.896 205.938C256.216 198.924 246.25 195.417 235 195.417C223.75 195.417 213.75 198.924 205 205.938C196.25 212.951 190.695 221.944 188.334 232.917H201.25C203.611 225.417 207.882 219.375 214.063 214.792C220.243 210.208 227.223 207.917 235 207.917C237.917 207.917 240.799 208.264 243.646 208.958C246.493 209.653 249.167 210.694 251.667 212.083L238.334 229.167C237.778 229.028 237.223 228.924 236.667 228.854C236.111 228.785 235.556 228.75 235 228.75C230.973 228.75 227.535 230.174 224.688 233.021C221.841 235.868 220.417 239.306 220.417 243.333C220.417 247.361 221.841 250.799 224.688 253.646C227.535 256.493 230.973 257.917 235 257.917Z" fill="white"/>
</g>
</svg>
