<svg width="470" height="470" viewBox="0 0 470 470" fill="none" xmlns="http://www.w3.org/2000/svg">
<rect x="0.333984" y="0.333374" width="469.333" height="469.333" rx="64" fill="#F7843A"/>
<mask id="mask0_3_47" style="mask-type:alpha" maskUnits="userSpaceOnUse" x="135" y="135" width="200" height="200">
<rect x="135" y="135" width="200" height="200" fill="#D9D9D9"/>
</mask>
<g mask="url(#mask0_3_47)">
<path d="M235.017 182.083C230.839 182.083 227.257 180.596 224.271 177.621C221.285 174.646 219.792 171.069 219.792 166.892C219.792 162.714 221.279 159.132 224.254 156.146C227.229 153.16 230.806 151.667 234.983 151.667C239.161 151.667 242.743 153.154 245.729 156.129C248.715 159.104 250.208 162.681 250.208 166.858C250.208 171.036 248.721 174.618 245.746 177.604C242.771 180.59 239.194 182.083 235.017 182.083ZM212.5 318.333L208.465 277.599C207.491 267.766 207.491 257.859 208.465 248.026L212.5 207.292H160V194.792H310V207.292H257.5L261.288 249.358C262.094 258.31 262.094 267.315 261.288 276.267L257.5 318.333H245V264.167H225V318.333H212.5Z" fill="white"/>
</g>
</svg>
