<svg width="60" height="60" viewBox="0 0 60 60" fill="none" xmlns="http://www.w3.org/2000/svg">
<path d="M34.3821 7.65286C34.3922 7.78047 34.4283 7.90467 34.4882 8.01782C34.548 8.13098 34.6304 8.2307 34.7302 8.31086C34.83 8.39102 34.9451 8.44993 35.0685 8.48397C35.1919 8.51801 35.3209 8.52646 35.4477 8.50879C35.5745 8.49113 35.6963 8.44773 35.8057 8.38126C35.9151 8.31479 36.0098 8.22665 36.0839 8.12226C36.158 8.01788 36.2099 7.89944 36.2366 7.77424C36.2632 7.64903 36.264 7.5197 36.2388 7.39419C35.9995 6.35941 35.417 5.43606 34.5862 4.7744C33.7554 4.11273 32.7252 3.75168 31.6631 3.75H28.3452C27.307 3.75519 26.2993 4.10135 25.477 4.73522C24.6547 5.36909 24.0635 6.25556 23.7942 7.25827C22.9605 10.8544 20.7023 13.1446 23.6973 16.4208L23.5836 17.9433L20.675 19.6938C20.5289 19.7742 20.3639 19.814 20.1971 19.8091C14.0888 19.718 11.616 23.8003 11.0685 26.3862C9.72611 27.2403 8.52725 28.3014 7.5163 29.5301C6.31399 31.5153 5.44727 33.6852 4.95101 35.9524C4.13102 38.1602 6.76248 42.2411 6.891 42.2769C8.64331 43.7952 10.3956 45.3131 12.1909 46.8759C12.4608 47.1655 12.6936 47.4875 12.884 47.8345C13.346 48.8054 15.3242 50.6127 16.0416 51.4032C16.4884 51.857 17.0551 52.1742 17.6756 52.3176C18.2961 52.461 18.9446 52.4247 19.5451 52.2129L18.6948 55.0424C18.628 55.2791 18.6569 55.5327 18.7753 55.7484C18.8936 55.964 19.092 56.1246 19.3276 56.1954C19.5632 56.2661 19.8172 56.2415 20.0349 56.1268C20.2525 56.0121 20.4163 55.8164 20.4911 55.582L21.7287 51.4642C22.4792 50.6697 22.9369 49.6434 23.0266 48.5542C23.1163 47.465 22.8326 46.3777 22.2222 45.4712L22.6608 39.1174C22.7142 38.3377 22.5657 37.5574 22.2296 36.8519L19.5343 31.1968C19.4517 31.0301 19.3216 30.8917 19.1605 30.7988C18.9994 30.7058 18.8145 30.6626 18.6289 30.6745C18.4433 30.6864 18.2654 30.7529 18.1174 30.8656C17.9695 30.9783 17.8582 31.1322 17.7975 31.308C17.5641 32.018 16.6385 34.1758 15.5573 34.7274L14.1336 35.3225C13.7685 34.8739 13.3081 34.5121 12.7859 34.2634C12.2637 34.0148 11.6927 33.8854 11.1142 33.8847C10.8688 33.9043 10.6408 34.0196 10.4797 34.2058C10.3186 34.3921 10.2371 34.6342 10.253 34.8799C10.2689 35.1257 10.3808 35.3553 10.5646 35.5192C10.7484 35.6832 10.9892 35.7682 11.2352 35.756C11.9646 35.7028 12.6886 36.4646 12.9892 36.8682L14.1556 41.1823C14.6472 42.8683 15.9518 43.8768 17.1109 44.8915C17.464 45.1482 17.8984 45.2678 18.3331 45.228C19.1692 45.4209 19.9447 45.8175 20.5905 46.3825C20.9922 46.9176 21.2013 47.5727 21.1838 48.2416C21.1662 48.9104 20.923 49.5537 20.4938 50.067C19.7172 50.1081 18.957 50.5492 18.2682 50.5266C17.9353 50.4946 17.6248 50.3445 17.3929 50.1036L15.0785 47.715C14.5816 46.9034 14.0132 46.1377 13.3802 45.4271C11.6499 43.9193 9.91953 42.4174 8.1892 40.9214C7.63623 40.0833 6.37555 37.3367 6.69782 36.6345C7.16488 34.552 7.93672 32.5499 8.98838 30.6928C9.65874 29.9036 10.4037 29.181 11.213 28.535C11.4407 29.1451 12.0783 31.0422 13.1677 31.1287C13.3452 31.1261 13.5183 31.0736 13.6673 30.977C13.8162 30.8804 13.9349 30.7438 14.0097 30.5828C14.0845 30.4218 14.1123 30.243 14.09 30.0669C14.0677 29.8908 13.9962 29.7246 13.8837 29.5873C13.2614 28.9064 12.8942 28.0309 12.8446 27.1099C12.9007 26.7034 13.7111 21.5599 20.1532 21.6836C20.6784 21.7043 21.1981 21.5697 21.6473 21.2968L24.966 19.3001C25.0946 19.2229 25.2027 19.1159 25.2812 18.9882C25.3598 18.8605 25.4065 18.7158 25.4174 18.5663C25.4193 17.6363 25.8974 15.963 25.0997 15.183C24.7713 14.865 24.5115 14.483 24.3364 14.0607C24.1613 13.6384 24.0746 13.1847 24.0817 12.7275C24.0868 12.3916 24.1471 12.0588 24.2602 11.7424C25.5867 9.29364 25.0807 5.78307 28.3451 5.6249L31.6631 5.625C32.2743 5.62477 32.8693 5.82207 33.3593 6.1875C33.8492 6.55293 34.208 7.06692 34.3821 7.65286ZM20.4415 44.0278C19.7708 43.5881 18.9876 43.3511 18.1857 43.3453C17.2176 42.6743 16.4492 41.7539 15.9619 40.6816L14.9677 37.0053L16.3428 36.4286C17.3663 35.812 18.1909 34.9143 18.7185 33.8422L20.5368 37.6581C20.7343 38.0721 20.8213 38.5302 20.7894 38.9879L20.4415 44.0278Z" fill="black"/>
<path d="M55.0749 36.0305C54.5779 33.7365 53.705 31.5404 52.4913 29.5313C51.4804 28.3026 50.2815 27.2416 48.9392 26.3874C48.3999 23.8386 46.0232 19.808 40.0614 19.808C39.8105 19.8412 39.5553 19.8007 39.3271 19.6913L36.4185 17.9413L36.2921 16.4494C36.8162 15.9283 37.2205 15.2993 37.4771 14.6062C37.7337 13.9132 37.8364 13.1725 37.778 12.4358C37.7171 11.8999 37.5983 11.3723 37.4237 10.862C37.3475 10.628 37.1824 10.4333 36.9639 10.32C36.7454 10.2067 36.4911 10.184 36.256 10.2566C36.0208 10.3292 35.8237 10.4914 35.7071 10.7082C35.5905 10.9249 35.5639 11.1788 35.633 11.415C35.779 11.8407 35.8772 12.2813 35.9259 12.7288C36.1467 14.6148 34.3036 15.0439 34.4409 16.5611L34.5901 18.5675C34.601 18.717 34.6477 18.8617 34.7263 18.9894C34.8048 19.1171 34.9129 19.2241 35.0415 19.3013L38.3547 21.2943C38.8736 21.5976 39.4734 21.7333 40.0722 21.683C46.2332 21.6853 47.0909 26.6166 47.163 27.109C47.1143 28.0309 46.747 28.9073 46.1238 29.5885C46.0445 29.6826 45.9844 29.7914 45.9471 29.9087C45.9098 30.026 45.896 30.1495 45.9065 30.2721C45.9169 30.3948 45.9515 30.5142 46.0081 30.6235C46.0647 30.7328 46.1423 30.8298 46.2364 30.9091C47.5998 31.88 48.5433 29.2478 48.7944 28.5369C49.6033 29.1832 50.3483 29.9057 51.0191 30.6944C52.0529 32.4984 52.8068 34.4488 53.2548 36.4791C53.681 37.8869 52.0192 40.5307 51.7863 40.9501C50.067 42.4396 48.3476 43.9292 46.6649 45.3972C46.0207 46.1121 45.4434 46.8846 44.9401 47.7048L42.6092 50.1098C41.7419 51.0254 40.6011 50.1246 39.5139 50.0682C39.0839 49.5541 38.8406 48.9095 38.8237 48.2396C38.8067 47.5696 39.0171 46.9136 39.4206 46.3784C40.055 45.8286 40.8083 45.4336 41.6214 45.2246C42.0822 45.1887 42.5296 45.0522 42.932 44.8247C43.3343 44.5972 43.682 44.2843 43.9504 43.908C44.8484 43.2109 45.5127 42.2567 45.8547 41.1726L47.018 36.8712C47.2402 36.5774 47.9709 35.7027 48.7725 35.7573C49.0183 35.7693 49.2591 35.6841 49.4427 35.5202C49.6263 35.3563 49.7381 35.1267 49.754 34.8811C49.7699 34.6354 49.6885 34.3934 49.5275 34.2072C49.3664 34.021 49.1386 33.9056 48.8933 33.8859C48.3147 33.8866 47.7434 34.016 47.2211 34.2648C46.6987 34.5136 46.2382 34.8755 45.873 35.3244L44.5126 34.758C43.3691 34.1771 42.4435 32.0192 42.2101 31.3092C42.1494 31.1334 42.0381 30.9795 41.8902 30.8667C41.7423 30.754 41.5643 30.6875 41.3787 30.6756C41.1931 30.6638 41.0081 30.707 40.847 30.8C40.686 30.8929 40.5559 31.0314 40.4733 31.198L37.7771 36.8536C37.4418 37.559 37.2936 38.3389 37.3468 39.1181L37.7855 45.4724C37.175 46.3789 36.8913 47.4662 36.981 48.5555C37.0707 49.6447 37.5284 50.6709 38.2789 51.4654L39.5166 55.5833C39.5882 55.8215 39.7514 56.0215 39.9705 56.1393C40.1895 56.2571 40.4464 56.2831 40.6846 56.2116C40.9228 56.14 41.1228 55.9767 41.2406 55.7577C41.3584 55.5386 41.3844 55.2818 41.3128 55.0436L40.4625 52.2141C40.9354 52.3685 41.4338 52.4292 41.9299 52.3927C42.7022 52.3168 43.4221 51.9682 43.9606 51.4094L46.2924 49.003C46.8529 48.4554 47.3159 47.341 47.8597 46.8419C49.6532 45.2378 51.5352 43.728 53.2833 42.0895C54.0379 40.9077 54.6274 39.6283 55.0356 38.2868C55.2496 37.5517 55.2632 36.7727 55.0749 36.0305ZM39.4699 37.6597L41.2918 33.8384C41.8353 34.9274 42.6807 35.8371 43.727 36.459L45.039 37.0074L44.0374 40.7134C43.7668 41.4424 43.2907 42.0774 42.6669 42.5417C42.4537 42.744 42.0184 43.1625 41.8795 43.3025C41.7708 43.3336 41.5181 43.3417 41.387 43.3643C40.7413 43.4583 40.1214 43.6827 39.5651 44.0239L39.2181 38.9886C39.1864 38.5314 39.2731 38.0737 39.4699 37.6597Z" fill="black"/>
<path d="M26.9294 28.6366C26.5365 28.793 26.1257 28.9002 25.7064 28.9557L21.9357 27.6247C20.8736 26.6854 20.9912 25.7365 19.7517 26.2168C19.5381 26.3438 19.3835 26.5504 19.3221 26.7913C19.2606 27.0321 19.2973 27.2875 19.424 27.5014C20.0186 28.4946 20.8518 29.3236 21.848 29.9132C22.8442 30.5028 23.9718 30.8344 25.1286 30.8778C26.0108 30.8136 28.6191 30.725 28.1453 29.164C28.0538 28.933 27.8744 28.7477 27.6465 28.6488C27.4185 28.5499 27.1606 28.5455 26.9294 28.6366Z" fill="black"/>
<path d="M40.5637 27.5003C40.6854 27.2869 40.7185 27.0342 40.6559 26.7967C40.5933 26.5591 40.44 26.3555 40.229 26.2298C40.0179 26.1041 39.7659 26.0662 39.5272 26.1242C39.2885 26.1823 39.0821 26.3318 38.9524 26.5404C38.6973 26.9371 38.3946 27.301 38.051 27.624L34.28 28.955C33.4878 28.9122 32.3195 28.043 31.8425 29.1629C31.3672 30.7253 33.9788 30.8113 34.859 30.8768C36.0158 30.8334 37.1435 30.5018 38.1396 29.9122C39.1358 29.3225 39.969 28.4935 40.5637 27.5003Z" fill="black"/>
</svg>
