<svg width="60" height="60" viewBox="0 0 60 60" fill="none" xmlns="http://www.w3.org/2000/svg">
<g clip-path="url(#clip0_2710_3912)">
<path d="M45.8622 29.916C46.9375 27.2047 47.1088 24.0168 44.7021 22.3245C44.8241 21.3259 46.6327 18.7611 44.8073 15.7591C44.3838 15.0625 43.7888 12.8008 43.7925 9.9537C43.7953 7.6319 44.1889 4.27308 46.0474 1.45672C46.3332 1.02368 46.2138 0.441063 45.7808 0.15527C45.3478 -0.13017 44.7653 -0.0109921 44.4795 0.421924C42.3648 3.62646 41.9171 7.37277 41.9139 9.95124C41.9105 12.6923 42.4402 15.482 43.2022 16.7351C44.514 18.8926 43.0224 20.5916 42.8437 22.127C42.3998 22.361 41.5606 22.6798 39.7391 22.6798C39.2204 22.6798 38.7998 23.1004 38.7998 23.6191C38.7998 24.1379 39.2204 24.5585 39.7391 24.5585C41.8557 24.5585 42.9718 24.1675 43.6038 23.8506C45.9069 25.4479 43.9816 29.5428 43.9625 29.5827C43.5081 30.5234 44.6374 30.6879 45.8565 34.446C45.3764 34.4984 38.9537 35.6918 29.9995 35.6848C20.8308 35.6776 14.4963 34.4741 14.1432 34.446C14.531 33.2505 15.0381 32.1083 15.6653 31.0253C17.7947 31.3699 20.1189 31.582 20.3406 31.582C20.8249 31.582 21.2359 31.2099 21.2758 30.7186C21.3177 30.2015 20.9326 29.7483 20.4155 29.7064C18.3727 29.5406 16.6617 29.2844 15.857 29.1526C15.4294 28.0476 14.5281 25.1113 16.4211 23.8318C17.605 23.0318 17.125 21.7165 16.7746 20.7562C16.349 19.5893 15.8664 18.2669 16.7976 16.7352C17.5597 15.482 18.0893 12.6923 18.0859 9.95136C18.0828 7.37288 17.635 3.62658 15.5204 0.422041C15.2346 -0.0109921 14.6519 -0.130053 14.219 0.155388C13.786 0.44118 13.6666 1.0238 13.9524 1.45684C15.8109 4.2732 16.2044 7.63202 16.2074 9.95382C16.211 12.8009 15.6161 15.0627 15.1925 15.7593C13.3671 18.7616 15.1757 21.3255 15.2977 22.3246C12.9024 24.0072 13.0538 27.183 14.1377 29.9161C10.5584 35.957 10.7348 42.9689 12.815 49.6164C14.6087 55.3483 17.3694 59.4205 17.4862 59.591C17.6612 59.8469 17.9514 59.9999 18.2615 59.9999H41.7384C42.0485 59.9999 42.3386 59.8468 42.5137 59.591C42.6304 59.4205 45.391 55.3483 47.1849 49.6164C49.2837 42.909 49.416 35.9141 45.8622 29.916ZM29.0605 58.1213H18.7722C15.8502 53.4753 13.5142 47.3349 13.2398 41.7144C17.3768 42.791 25.0418 45.324 29.0605 50.0451V58.1213ZM41.2275 58.1213H30.9392V50.0451C34.9579 45.324 42.6229 42.791 46.7599 41.7144C46.4856 47.3315 44.1518 53.4717 41.2275 58.1213ZM29.9999 48.2766C25.9428 43.9306 19.0098 41.2163 13.2264 39.7717C13.2718 38.5078 13.4171 37.3756 13.6539 36.2714C14.4182 36.3326 20.666 37.6023 29.9995 37.5962C39.0943 37.5903 45.715 36.3416 46.3459 36.2714C46.5849 37.3853 46.7283 38.5188 46.7734 39.7717C40.9868 41.2171 34.0558 43.9319 29.9999 48.2766Z" fill="black"/>
<path d="M6.96088 14.3698L9.42698 15.8299L8.52557 16.3286C7.68064 16.7958 8.01211 18.0901 8.98103 18.0901C9.40221 18.0901 9.44612 17.9236 11.75 16.6919C12.0705 16.5146 12.2981 16.1267 12.235 15.7108L12.2411 13.2249C12.2424 12.7061 11.8229 12.2845 11.3041 12.2832C10.7857 12.2819 10.3637 12.7012 10.3624 13.2202L10.3601 14.1991L7.91806 12.7533C7.47152 12.4889 6.89548 12.6366 6.63129 13.0832C6.36686 13.5295 6.51446 14.1055 6.96088 14.3698Z" fill="black"/>
<path d="M10.7656 25.7458L8.45051 24.4653C7.99669 24.2139 7.42511 24.3788 7.17383 24.8326C6.92268 25.2865 7.08718 25.8581 7.54111 26.1091L8.44252 26.6078L5.97654 28.0678C5.53012 28.3321 5.38252 28.9081 5.64683 29.3545C5.91196 29.8024 6.48847 29.9478 6.9336 29.6844L9.37564 28.2386L9.37798 29.2175C9.37927 29.7356 9.79951 30.1545 10.3173 30.1545C10.8367 30.1545 11.2579 29.733 11.2567 29.2128L11.2505 26.7269C11.3138 26.3109 11.0866 25.9234 10.7656 25.7458Z" fill="black"/>
<path d="M48.2454 16.692L50.5605 17.9725C51.0143 18.2239 51.5859 18.0592 51.8372 17.6052C52.0884 17.1513 51.9239 16.5797 51.4699 16.3287L50.5685 15.83L53.0346 14.3699C53.481 14.1056 53.6286 13.5296 53.3643 13.0832C53.1001 12.6366 52.5237 12.4889 52.0776 12.7533L49.6355 14.1991L49.6332 13.2202C49.6319 12.7021 49.2116 12.2832 48.6938 12.2832C48.1745 12.2832 47.7532 12.7047 47.7545 13.2249L47.7606 15.7108C47.6973 16.1265 47.9245 16.5146 48.2454 16.692Z" fill="black"/>
<path d="M54.0189 28.0676L51.5529 26.6076L52.4543 26.109C52.9083 25.8579 53.0728 25.2863 52.8216 24.8324C52.5705 24.3785 51.9991 24.2142 51.5449 24.4651L49.2298 25.7457C48.9146 25.92 48.6815 26.309 48.7448 26.7266L48.7387 29.2125C48.7374 29.7313 49.1569 30.1529 49.6757 30.1542C50.2043 30.1542 50.6161 29.7275 50.6174 29.2172L50.6197 28.2383L53.0617 29.6841C53.5063 29.9472 54.0831 29.8028 54.3485 29.3542C54.6129 28.9079 54.4652 28.3319 54.0189 28.0676Z" fill="black"/>
<path d="M29.9978 31.952C30.7437 31.952 31.1994 31.1146 30.7787 30.4915C30.5016 30.0707 29.9108 29.9388 29.4765 30.232C28.7099 30.7368 29.065 31.952 29.9978 31.952Z" fill="black"/>
</g>
<defs>
<clipPath id="clip0_2710_3912">
<rect width="60" height="60" fill="white"/>
</clipPath>
</defs>
</svg>
