<svg width="470" height="470" viewBox="0 0 470 470" fill="none" xmlns="http://www.w3.org/2000/svg">
<rect x="0.333984" y="0.333374" width="469.333" height="469.333" rx="64" fill="#F7843A"/>
<mask id="mask0_3_46" style="mask-type:alpha" maskUnits="userSpaceOnUse" x="135" y="135" width="200" height="200">
<rect x="135" y="135" width="200" height="200" fill="#D9D9D9"/>
</mask>
<g mask="url(#mask0_3_46)">
<path d="M310 264.375H301.666V300.208C301.666 302.618 301.146 304.714 300.104 306.495C299.062 308.276 297.639 309.722 295.833 310.833C294.027 311.944 292.048 312.604 289.896 312.812C287.743 313.021 285.625 312.569 283.541 311.458L153.333 246.458C150.937 245.312 149.192 243.724 148.099 241.693C147.005 239.661 146.458 237.552 146.458 235.364C146.458 233.177 147.005 231.048 148.099 228.979C149.192 226.909 150.937 225.305 153.333 224.167L283.541 159.167C285.636 158.055 287.757 157.604 289.904 157.812C292.051 158.021 294.027 158.68 295.833 159.792C297.639 160.903 299.062 162.349 300.104 164.13C301.146 165.911 301.666 168.007 301.666 170.417V205.833H310V218.333H280.833V205.833H289.166V170.833L243.541 193.333C247.986 199.444 251.493 206.037 254.062 213.112C256.632 220.187 257.916 227.483 257.916 235C257.916 242.778 256.597 250.208 253.958 257.292C251.319 264.375 247.708 271.042 243.125 277.292L288.958 300V264.375H280.833V251.667H310V264.375ZM231.666 271.458C235.694 266.18 238.993 260.436 241.562 254.224C244.132 248.013 245.416 241.605 245.416 235C245.416 228.333 244.166 222.014 241.666 216.042C239.166 210.069 235.902 204.444 231.875 199.167L158.958 235.208L231.666 271.458Z" fill="white"/>
</g>
</svg>
