<svg width="470" height="470" viewBox="0 0 470 470" fill="none" xmlns="http://www.w3.org/2000/svg">
<rect width="469.333" height="469.333" rx="64" fill="#F7843A"/>
<path d="M201.333 168.667H213.833V223.417C213.833 227.444 212.409 230.882 209.562 233.729C206.715 236.576 203.277 238 199.249 238H192.999C187.166 238 182.235 240.014 178.208 244.042C174.18 248.069 172.166 253 172.166 258.833C172.166 264.389 174.18 269.042 178.208 272.792C182.235 276.542 187.166 278.764 192.999 279.458V292.167C183.833 291.472 175.985 288 169.458 281.75C162.93 275.5 159.666 267.861 159.666 258.833C159.666 249.667 162.93 241.819 169.458 235.292C175.985 228.764 183.833 225.5 192.999 225.5H201.333V168.667ZM255.499 168.667H267.999V225.5H276.333C285.499 225.5 293.347 228.764 299.874 235.292C306.402 241.819 309.666 249.667 309.666 258.833C309.666 267.861 306.402 275.5 299.874 281.75C293.347 288 285.499 291.472 276.333 292.167V279.458C282.166 278.764 287.097 276.542 291.124 272.792C295.152 269.042 297.166 264.389 297.166 258.833C297.166 253 295.152 248.069 291.124 244.042C287.097 240.014 282.166 238 276.333 238H270.083C266.055 238 262.617 236.576 259.77 233.729C256.923 230.882 255.499 227.444 255.499 223.417V168.667ZM232.374 300.5C226.68 300.5 221.576 298.833 217.062 295.5C212.548 292.167 209.388 287.861 207.583 282.583C206.888 280.5 205.604 278.798 203.729 277.479C201.854 276.16 199.805 275.5 197.583 275.5H192.999V263H197.583C202.444 263 206.888 264.423 210.916 267.271C214.944 270.118 217.722 273.903 219.249 278.625C220.222 281.403 221.923 283.66 224.354 285.396C226.784 287.132 229.458 288 232.374 288H236.958C239.874 288 242.548 287.132 244.979 285.396C247.409 283.66 249.11 281.403 250.083 278.625C251.61 273.903 254.388 270.118 258.416 267.271C262.444 264.423 266.888 263 271.749 263H276.333V275.5H271.749C269.388 275.5 267.305 276.16 265.499 277.479C263.694 278.798 262.444 280.5 261.749 282.583C259.944 287.861 256.784 292.167 252.27 295.5C247.756 298.833 242.652 300.5 236.958 300.5H232.374Z" fill="white"/>
</svg>
