<svg width="60" height="60" viewBox="0 0 60 60" fill="none" xmlns="http://www.w3.org/2000/svg">
<path d="M39.875 28.4382C44.4618 27.476 44.1963 21.3419 44.1478 20.6049C45.0676 6.65108 14.9361 6.64878 15.8525 20.6049C15.8035 21.341 15.5367 27.4751 20.0777 28.4272C20.2763 28.4812 22.0712 28.8831 24.1751 26.9835C26.1675 25.1263 28.2543 24.8303 30.6278 24.9539C31.5853 24.9321 32.5376 25.1002 33.4298 25.4486C34.322 25.7969 35.1363 26.3186 35.8257 26.9835C37.5689 28.4549 38.6801 28.6063 39.875 28.4382ZM37.0818 25.5918C35.1076 23.9054 32.5964 22.9789 30 22.9788C27.4035 22.9788 24.8923 23.9053 22.9181 25.5917C22.6211 25.9336 22.2494 26.2027 21.8318 26.3781C21.4143 26.5535 20.962 26.6307 20.5098 26.6035C17.349 25.9398 17.7216 20.746 17.7257 20.6938C16.5572 9.42044 42.981 8.7579 42.2739 20.6954C42.2783 20.7478 42.6665 25.937 39.4677 26.6081C39.0189 26.6307 38.571 26.551 38.1576 26.3749C37.7443 26.1988 37.3764 25.931 37.0818 25.5918Z" fill="black"/>
<path d="M30.0017 29.416C28.1288 29.4181 26.3332 30.163 25.0089 31.4874C23.6845 32.8117 22.9396 34.6073 22.9375 36.4802C23.3083 45.8438 36.6969 45.8412 37.0659 36.4801C37.0639 34.6072 36.319 32.8116 34.9946 31.4872C33.6702 30.1629 31.8746 29.418 30.0017 29.416ZM30.0017 41.6685C28.626 41.6671 27.3071 41.1201 26.3342 40.1474C25.3614 39.1748 24.8141 37.8559 24.8125 36.4802C25.0563 29.6123 34.9478 29.6141 35.1909 36.4803C35.1892 37.856 34.6419 39.1747 33.6691 40.1474C32.6962 41.12 31.3773 41.6671 30.0017 41.6685Z" fill="black"/>
<path d="M54.5045 38.9642C54.4812 38.9252 49.9767 36.404 49.951 36.3646C48.8214 35.7198 47.3677 35.8766 45.8178 36.7861L45.6711 36.7028C47.1648 33.0976 48.5982 28.6703 48.7644 24.8903C48.7727 24.7669 48.7564 24.6431 48.7166 24.5261C48.6768 24.409 48.6142 24.301 48.5324 24.2083C48.4507 24.1155 48.3514 24.0398 48.2403 23.9856C48.1292 23.9314 48.0085 23.8997 47.885 23.8923C47.7616 23.8849 47.638 23.9021 47.5212 23.9427C47.4044 23.9833 47.2968 24.0466 47.2047 24.129C47.1125 24.2114 47.0375 24.3112 46.984 24.4227C46.9306 24.5342 46.8997 24.6551 46.8932 24.7786C46.535 28.5737 45.566 32.286 44.0235 35.7719C42.0382 34.5936 38.8901 37.8852 37.7563 40.1056C36.0689 43.0727 35.3704 46.6515 37.3003 47.7492L37.6144 47.9278C33.9887 51.9012 25.9726 51.8516 22.3819 47.9273L22.6954 47.7491C25.8821 45.4884 21.8808 38.4255 19.3053 36.5376C17.6507 35.2461 16.5296 35.483 15.9725 35.7719C14.423 32.035 13.0131 27.4352 13.0481 23.56C12.1414 2.16935 44.9579 0.327837 46.8492 21.1735C46.8756 21.4187 46.9975 21.6436 47.1886 21.7995C47.3797 21.9554 47.6245 22.0297 47.87 22.0063C48.1155 21.9829 48.3419 21.8637 48.5001 21.6745C48.6583 21.4853 48.7355 21.2413 48.715 20.9956C45.3837 -6.01096 -0.92342 0.760918 14.1786 36.7861C12.6274 35.8763 11.1762 35.7189 10.0445 36.3645C10.0336 36.387 5.5255 38.9347 5.50666 38.951C3.68448 40.0157 3.23984 42.7652 4.34582 46.2147C4.42521 46.4472 4.5927 46.6393 4.81225 46.7496C5.03181 46.8599 5.28588 46.8796 5.51983 46.8045C5.75377 46.7294 5.94888 46.5655 6.0632 46.348C6.17751 46.1305 6.20188 45.8768 6.13108 45.6415C3.79244 37.2263 10.1082 40.4646 12.7768 45.4925C14.8576 49.1636 15.0344 52.6962 13.7538 53.4529C12.546 54.1467 9.7342 52.4182 7.60875 48.8688C7.5458 48.7628 7.46255 48.6702 7.36377 48.5964C7.265 48.5226 7.15263 48.469 7.0331 48.4387C6.91358 48.4084 6.78925 48.402 6.66724 48.4198C6.54524 48.4377 6.42794 48.4794 6.32208 48.5426C6.21622 48.6058 6.12387 48.6893 6.05033 48.7883C5.97679 48.8873 5.9235 48.9998 5.89351 49.1194C5.86352 49.239 5.85743 49.3633 5.87557 49.4853C5.89372 49.6072 5.93575 49.7244 5.99926 49.8301C8.41562 53.6896 11.7193 56.5329 14.7318 55.0534L19.2199 52.5007C19.7688 52.1333 20.2157 51.6328 20.519 51.046C20.8222 50.4592 20.972 49.8052 20.9543 49.1449C25.291 53.9245 34.6365 53.9921 39.0268 49.1606C39.0148 49.8194 39.1688 50.4707 39.4745 51.0544C39.7803 51.6381 40.228 52.1355 40.7765 52.5007L45.2717 55.0575C51.5093 57.9061 59.9244 42.6728 54.5045 38.9642ZM16.8299 37.4348C19.2116 37.5502 22.8895 44.0108 21.7689 46.1195L20.7635 46.6911C20.4076 45.0349 19.7936 43.445 18.9439 41.9795C18.114 40.5029 17.0614 39.1631 15.8233 38.0072L16.8299 37.4348ZM14.4065 44.5649C13.2018 42.2564 11.3505 40.3489 9.079 39.0759L10.9728 37.9988C14.9454 36.6996 21.4368 48.107 18.2925 50.8684C18.2862 50.8814 16.4207 51.9329 16.4098 51.9424C16.4853 49.3394 15.7882 46.7723 14.4065 44.5649ZM39.3858 41.0319C40.2476 39.5554 41.805 37.4713 43.166 37.4347L44.1726 38.0071C41.7027 40.3486 39.9812 43.3689 39.2252 46.6872L38.2267 46.1195C37.8899 45.9281 37.7653 43.881 39.3858 41.0319ZM54.3555 43.2319C53.8612 47.0023 51.9117 50.4298 48.9237 52.7818C47.815 53.538 46.8238 53.8023 46.2186 53.4395C44.9796 52.6827 45.1383 49.1472 47.2254 45.4805C47.6219 44.9385 47.881 44.1946 47.2016 43.7519C46.9925 43.6176 46.7386 43.5717 46.4957 43.6245C46.2528 43.6772 46.0408 43.8241 45.9062 44.033C44.2576 46.6509 43.343 49.833 43.5866 51.9424C43.5774 51.9345 41.7082 50.8792 41.703 50.8684C39.1299 48.9936 42.9921 40.6412 46.3403 38.67C47.4352 37.9172 48.4325 37.6572 49.0235 37.9988L50.9112 39.0725C50.2109 39.4845 47.2004 40.9863 48.3505 42.244C48.4367 42.332 48.5393 42.4022 48.6526 42.4505C48.7659 42.4988 48.8876 42.5243 49.0107 42.5255C49.1339 42.5267 49.2561 42.5036 49.3703 42.4575C49.4845 42.4114 49.5885 42.3432 49.6763 42.2569C52.2189 39.8008 54.6029 39.5748 54.3555 43.2319Z" fill="black"/>
<path d="M30.0008 33.2139C29.7422 33.2182 29.4956 33.324 29.3143 33.5085C29.1329 33.693 29.0312 33.9413 29.0312 34.2C29.0312 34.4587 29.1329 34.707 29.3143 34.8914C29.4956 35.0759 29.7422 35.1817 30.0008 35.1861C30.2595 35.1817 30.5061 35.0759 30.6874 34.8914C30.8688 34.707 30.9704 34.4587 30.9704 34.2C30.9704 33.9413 30.8688 33.693 30.6874 33.5085C30.5061 33.324 30.2595 33.2182 30.0008 33.2139Z" fill="black"/>
<path d="M30.0008 37.7734C29.7422 37.7778 29.4956 37.8836 29.3143 38.0681C29.1329 38.2525 29.0313 38.5009 29.0312 38.7595C29.0313 39.0182 29.1329 39.2666 29.3143 39.451C29.4956 39.6355 29.7422 39.7413 30.0008 39.7457C30.2595 39.7413 30.5061 39.6355 30.6874 39.451C30.8688 39.2666 30.9704 39.0182 30.9704 38.7595C30.9704 38.5009 30.8688 38.2525 30.6874 38.0681C30.5061 37.8836 30.2595 37.7778 30.0008 37.7734Z" fill="black"/>
<path d="M27.5673 35.4932C27.3086 35.4975 27.062 35.6033 26.8807 35.7878C26.6993 35.9723 26.5977 36.2206 26.5977 36.4793C26.5977 36.738 26.6993 36.9863 26.8807 37.1707C27.062 37.3552 27.3086 37.461 27.5673 37.4654C27.8259 37.461 28.0725 37.3552 28.2538 37.1707C28.4352 36.9863 28.5368 36.738 28.5368 36.4793C28.5368 36.2206 28.4352 35.9723 28.2538 35.7878C28.0725 35.6033 27.8259 35.4975 27.5673 35.4932Z" fill="black"/>
<path d="M32.4305 35.4932C32.1719 35.4975 31.9253 35.6033 31.7439 35.7878C31.5626 35.9723 31.4609 36.2206 31.4609 36.4793C31.4609 36.738 31.5626 36.9863 31.7439 37.1707C31.9253 37.3552 32.1719 37.461 32.4305 37.4654C32.6892 37.461 32.9358 37.3552 33.1171 37.1707C33.2985 36.9863 33.4001 36.738 33.4001 36.4793C33.4001 36.2206 33.2985 35.9723 33.1171 35.7878C32.9358 35.6033 32.6892 35.4975 32.4305 35.4932Z" fill="black"/>
</svg>
