<svg width="60" height="60" viewBox="0 0 60 60" fill="none" xmlns="http://www.w3.org/2000/svg">
<path d="M35.625 8.4375C35.6251 8.31437 35.6009 8.19243 35.5538 8.07865C35.5067 7.96488 35.4376 7.8615 35.3506 7.77443C35.2635 7.68736 35.1601 7.61831 35.0463 7.57122C34.9326 7.52413 34.8106 7.49993 34.6875 7.5H10.3125C10.1894 7.49993 10.0674 7.52413 9.95365 7.57122C9.83988 7.61831 9.7365 7.68736 9.64943 7.77443C9.56236 7.8615 9.49331 7.96488 9.44622 8.07865C9.39913 8.19243 9.37493 8.31437 9.375 8.4375V15.9375C9.37493 16.0606 9.39913 16.1826 9.44622 16.2964C9.49331 16.4101 9.56236 16.5135 9.64943 16.6006C9.7365 16.6876 9.83988 16.7567 9.95365 16.8038C10.0674 16.8509 10.1894 16.8751 10.3125 16.875H34.6875C34.8106 16.8751 34.9326 16.8509 35.0463 16.8038C35.1601 16.7567 35.2635 16.6876 35.3506 16.6006C35.4376 16.5135 35.5067 16.4101 35.5538 16.2964C35.6009 16.1826 35.6251 16.0606 35.625 15.9375V8.4375ZM33.75 15H11.25V9.375H33.75V15ZM16.875 21.5625C16.8751 21.4394 16.8509 21.3174 16.8038 21.2037C16.7567 21.0899 16.6876 20.9865 16.6006 20.8994C16.5135 20.8124 16.4101 20.7433 16.2963 20.6962C16.1826 20.6491 16.0606 20.6249 15.9375 20.625H10.3125C10.1894 20.6249 10.0674 20.6491 9.95365 20.6962C9.83988 20.7433 9.7365 20.8124 9.64943 20.8994C9.56236 20.9865 9.49331 21.0899 9.44622 21.2037C9.39913 21.3174 9.37493 21.4394 9.375 21.5625V27.1875C9.37493 27.3106 9.39913 27.4326 9.44622 27.5464C9.49331 27.6601 9.56236 27.7635 9.64943 27.8506C9.7365 27.9376 9.83988 28.0067 9.95365 28.0538C10.0674 28.1009 10.1894 28.1251 10.3125 28.125H15.9375C16.0606 28.1251 16.1826 28.1009 16.2963 28.0538C16.4101 28.0067 16.5135 27.9376 16.6006 27.8506C16.6876 27.7635 16.7567 27.6601 16.8038 27.5464C16.8509 27.4326 16.8751 27.3106 16.875 27.1875V21.5625ZM15 26.25H11.25V22.5H15V26.25ZM35.625 21.5625C35.6251 21.4394 35.6009 21.3174 35.5538 21.2037C35.5067 21.0899 35.4376 20.9865 35.3506 20.8994C35.2635 20.8124 35.1601 20.7433 35.0463 20.6962C34.9326 20.6491 34.8106 20.6249 34.6875 20.625H29.0625C28.9394 20.6249 28.8174 20.6491 28.7036 20.6962C28.5899 20.7433 28.4865 20.8124 28.3994 20.8994C28.3124 20.9865 28.2433 21.0899 28.1962 21.2037C28.1491 21.3174 28.1249 21.4394 28.125 21.5625V27.1875C28.1249 27.3106 28.1491 27.4326 28.1962 27.5464C28.2433 27.6601 28.3124 27.7635 28.3994 27.8506C28.4865 27.9376 28.5899 28.0067 28.7036 28.0538C28.8174 28.1009 28.9394 28.1251 29.0625 28.125H34.6875C34.8106 28.1251 34.9326 28.1009 35.0463 28.0538C35.1601 28.0067 35.2635 27.9376 35.3506 27.8506C35.4376 27.7635 35.5067 27.6601 35.5538 27.5464C35.6009 27.4326 35.6251 27.3106 35.625 27.1875V21.5625ZM33.75 26.25H30V22.5H33.75V26.25ZM25.3125 20.625H19.6875C19.5644 20.6249 19.4424 20.6491 19.3286 20.6962C19.2149 20.7433 19.1115 20.8124 19.0244 20.8994C18.9374 20.9865 18.8683 21.0899 18.8212 21.2037C18.7741 21.3174 18.7499 21.4394 18.75 21.5625V27.1875C18.7499 27.3106 18.7741 27.4326 18.8212 27.5464C18.8683 27.6601 18.9374 27.7635 19.0244 27.8506C19.1115 27.9376 19.2149 28.0067 19.3286 28.0538C19.4424 28.1009 19.5644 28.1251 19.6875 28.125H25.3125C25.4356 28.1251 25.5576 28.1009 25.6713 28.0538C25.7851 28.0067 25.8885 27.9376 25.9756 27.8506C26.0626 27.7635 26.1317 27.6601 26.1788 27.5464C26.2259 27.4326 26.2501 27.3106 26.25 27.1875V21.5625C26.2501 21.4394 26.2259 21.3174 26.1788 21.2037C26.1317 21.0899 26.0626 20.9865 25.9756 20.8994C25.8885 20.8124 25.7851 20.7433 25.6713 20.6962C25.5576 20.6491 25.4356 20.6249 25.3125 20.625ZM24.375 26.25H20.625V22.5H24.375V26.25ZM16.875 30.9375C16.8751 30.8144 16.8509 30.6924 16.8038 30.5787C16.7567 30.4649 16.6876 30.3615 16.6006 30.2744C16.5135 30.1874 16.4101 30.1183 16.2963 30.0712C16.1826 30.0241 16.0606 29.9999 15.9375 30H10.3125C10.1894 29.9999 10.0674 30.0241 9.95365 30.0712C9.83988 30.1183 9.7365 30.1874 9.64943 30.2744C9.56236 30.3615 9.49331 30.4649 9.44622 30.5787C9.39913 30.6924 9.37493 30.8144 9.375 30.9375V36.5625C9.37493 36.6856 9.39913 36.8076 9.44622 36.9213C9.49331 37.0351 9.56236 37.1385 9.64943 37.2256C9.7365 37.3126 9.83988 37.3817 9.95365 37.4288C10.0674 37.4759 10.1894 37.5001 10.3125 37.5H15.9375C16.0606 37.5001 16.1826 37.4759 16.2963 37.4288C16.4101 37.3817 16.5135 37.3126 16.6006 37.2256C16.6876 37.1385 16.7567 37.0351 16.8038 36.9213C16.8509 36.8076 16.8751 36.6856 16.875 36.5625V30.9375ZM15 35.625H11.25V31.875H15V35.625ZM25.3125 30H19.6875C19.5644 29.9999 19.4424 30.0241 19.3286 30.0712C19.2149 30.1183 19.1115 30.1874 19.0244 30.2744C18.9374 30.3615 18.8683 30.4649 18.8212 30.5787C18.7741 30.6924 18.7499 30.8144 18.75 30.9375V36.5625C18.7499 36.6856 18.7741 36.8076 18.8212 36.9213C18.8683 37.0351 18.9374 37.1385 19.0244 37.2256C19.1115 37.3126 19.2149 37.3817 19.3286 37.4288C19.4424 37.4759 19.5644 37.5001 19.6875 37.5H25.3125C25.4356 37.5001 25.5576 37.4759 25.6713 37.4288C25.7851 37.3817 25.8885 37.3126 25.9756 37.2256C26.0626 37.1385 26.1317 37.0351 26.1788 36.9213C26.2259 36.8076 26.2501 36.6856 26.25 36.5625V30.9375C26.2501 30.8144 26.2259 30.6924 26.1788 30.5787C26.1317 30.4649 26.0626 30.3615 25.9756 30.2744C25.8885 30.1874 25.7851 30.1183 25.6713 30.0712C25.5576 30.0241 25.4356 29.9999 25.3125 30ZM24.375 35.625H20.625V31.875H24.375V35.625ZM34.6875 30H29.0625C28.9394 29.9999 28.8174 30.0241 28.7036 30.0712C28.5899 30.1183 28.4865 30.1874 28.3994 30.2744C28.3124 30.3615 28.2433 30.4649 28.1962 30.5787C28.1491 30.6924 28.1249 30.8144 28.125 30.9375V36.5625C28.1249 36.6856 28.1491 36.8076 28.1962 36.9213C28.2433 37.0351 28.3124 37.1385 28.3994 37.2256C28.4865 37.3126 28.5899 37.3817 28.7036 37.4288C28.8174 37.4759 28.9394 37.5001 29.0625 37.5H34.6875C34.8106 37.5001 34.9326 37.4759 35.0463 37.4288C35.1601 37.3817 35.2635 37.3126 35.3506 37.2256C35.4376 37.1385 35.5067 37.0351 35.5538 36.9213C35.6009 36.8076 35.6251 36.6856 35.625 36.5625V30.9375C35.6251 30.8144 35.6009 30.6924 35.5538 30.5787C35.5067 30.4649 35.4376 30.3615 35.3506 30.2744C35.2635 30.1874 35.1601 30.1183 35.0463 30.0712C34.9326 30.0241 34.8106 29.9999 34.6875 30ZM33.75 35.625H30V31.875H33.75V35.625ZM15.9375 39.375H10.3125C10.1894 39.3749 10.0674 39.3991 9.95365 39.4462C9.83988 39.4933 9.7365 39.5624 9.64943 39.6494C9.56236 39.7365 9.49331 39.8399 9.44622 39.9537C9.39913 40.0674 9.37493 40.1894 9.375 40.3125V45.9375C9.37493 46.0606 9.39913 46.1826 9.44622 46.2963C9.49331 46.4101 9.56236 46.5135 9.64943 46.6006C9.7365 46.6876 9.83988 46.7567 9.95365 46.8038C10.0674 46.8509 10.1894 46.8751 10.3125 46.875H15.9375C16.0606 46.8751 16.1826 46.8509 16.2963 46.8038C16.4101 46.7567 16.5135 46.6876 16.6006 46.6006C16.6876 46.5135 16.7567 46.4101 16.8038 46.2963C16.8509 46.1826 16.8751 46.0606 16.875 45.9375V40.3125C16.8751 40.1894 16.8509 40.0674 16.8038 39.9537C16.7567 39.8399 16.6876 39.7365 16.6006 39.6494C16.5135 39.5624 16.4101 39.4933 16.2963 39.4462C16.1826 39.3991 16.0606 39.3749 15.9375 39.375ZM15 45H11.25V41.25H15V45ZM25.3125 39.375H19.6875C19.5644 39.3749 19.4424 39.3991 19.3286 39.4462C19.2149 39.4933 19.1115 39.5624 19.0244 39.6494C18.9374 39.7365 18.8683 39.8399 18.8212 39.9537C18.7741 40.0674 18.7499 40.1894 18.75 40.3125V45.9375C18.7499 46.0606 18.7741 46.1826 18.8212 46.2963C18.8683 46.4101 18.9374 46.5135 19.0244 46.6006C19.1115 46.6876 19.2149 46.7567 19.3286 46.8038C19.4424 46.8509 19.5644 46.8751 19.6875 46.875H25.3125C25.4356 46.8751 25.5576 46.8509 25.6713 46.8038C25.7851 46.7567 25.8885 46.6876 25.9756 46.6006C26.0626 46.5135 26.1317 46.4101 26.1788 46.2963C26.2259 46.1826 26.2501 46.0606 26.25 45.9375V40.3125C26.2501 40.1894 26.2259 40.0674 26.1788 39.9537C26.1317 39.8399 26.0626 39.7365 25.9756 39.6494C25.8885 39.5624 25.7851 39.4933 25.6713 39.4462C25.5576 39.3991 25.4356 39.3749 25.3125 39.375ZM24.375 45H20.625V41.25H24.375V45ZM26.25 51.5625C26.2501 51.6856 26.2259 51.8076 26.1788 51.9214C26.1317 52.0351 26.0626 52.1385 25.9756 52.2256C25.8885 52.3126 25.7851 52.3817 25.6713 52.4288C25.5576 52.4759 25.4356 52.5001 25.3125 52.5H8.4375C7.19475 52.4985 6.00331 52.0042 5.12455 51.1255C4.24579 50.2467 3.75146 49.0553 3.75 47.8125V6.5625C3.75146 5.31975 4.24579 4.12831 5.12455 3.24955C6.00331 2.37079 7.19475 1.87646 8.4375 1.875H36.5625C37.8053 1.87646 38.9967 2.37079 39.8754 3.24955C40.7542 4.12831 41.2485 5.31975 41.25 6.5625V27.1875C41.25 27.4361 41.1512 27.6746 40.9754 27.8504C40.7996 28.0262 40.5611 28.125 40.3125 28.125C40.0639 28.125 39.8254 28.0262 39.6496 27.8504C39.4738 27.6746 39.375 27.4361 39.375 27.1875V6.5625C39.3742 5.81683 39.0776 5.10193 38.5503 4.57466C38.0231 4.04739 37.3082 3.75081 36.5625 3.75H8.4375C7.69183 3.75081 6.97693 4.04739 6.44966 4.57466C5.92239 5.10193 5.62581 5.81683 5.625 6.5625V47.8125C5.62581 48.5582 5.92239 49.2731 6.44966 49.8003C6.97693 50.3276 7.69183 50.6242 8.4375 50.625H25.3125C25.4356 50.6249 25.5576 50.6491 25.6713 50.6962C25.7851 50.7433 25.8885 50.8124 25.9756 50.8994C26.0626 50.9865 26.1317 51.0899 26.1788 51.2037C26.2259 51.3174 26.2501 51.4394 26.25 51.5625ZM56.25 48.75C56.25 53.768 52.3901 57.6865 52.2253 57.8503C52.0491 58.0236 51.8116 58.1203 51.5644 58.1194C51.3173 58.1184 51.0805 58.0199 50.9056 57.8453C50.7308 57.6707 50.6319 57.434 50.6306 57.1869C50.6293 56.9397 50.7257 56.7021 50.8987 56.5256C50.9335 56.4908 54.375 52.9797 54.375 48.75C54.3644 46.2378 53.7794 43.7614 52.6648 41.51C51.9507 43.0818 50.6536 44.3145 49.0475 44.9478C48.9066 44.9949 48.7564 45.0079 48.6095 44.9856C48.4626 44.9633 48.323 44.9064 48.2024 44.8196C48.0818 44.7327 47.9835 44.6185 47.9157 44.4862C47.8479 44.3539 47.8125 44.2075 47.8125 44.0588C47.8106 35.6735 42.2168 33.0322 39.2331 32.2192C42.3386 39.419 36.3116 44.7171 36.2457 44.7739C36.123 44.8794 35.9749 44.9513 35.8161 44.9826C35.6572 45.0139 35.493 45.0035 35.3393 44.9524C33.7275 44.3213 32.4255 43.0863 31.7102 41.51C30.5954 43.7613 30.0105 46.2378 30 48.75C30 52.9797 33.4415 56.4908 33.4762 56.5256C33.6493 56.7021 33.7457 56.9397 33.7444 57.1869C33.7431 57.434 33.6442 57.6707 33.4694 57.8453C33.2945 58.0199 33.0577 58.1184 32.8106 58.1194C32.5634 58.1203 32.3259 58.0236 32.1497 57.8503C31.9849 57.6865 28.125 53.768 28.125 48.75C28.1063 45.2118 29.1516 41.7496 31.1252 38.8129C31.2313 38.6709 31.3756 38.562 31.5412 38.4988C31.7068 38.4356 31.8869 38.4207 32.0606 38.4558C32.2344 38.4909 32.3946 38.5745 32.5226 38.6971C32.6507 38.8196 32.7414 38.9759 32.7841 39.1479C32.7914 39.1763 33.5156 41.9376 35.4318 42.9584C36.962 41.4919 37.9279 39.5343 38.1607 37.4277C38.3935 35.3212 37.8783 33.1998 36.7053 31.4346C36.6131 31.2872 36.5637 31.1169 36.5627 30.943C36.5617 30.769 36.6091 30.5982 36.6997 30.4497C36.7903 30.3012 36.9204 30.1808 37.0754 30.102C37.2305 30.0233 37.4045 29.9892 37.5778 30.0037C37.6941 30.0128 48.6905 31.0675 49.6243 42.4832C50.5567 41.5598 51.2342 40.4108 51.5909 39.1479C51.6336 38.9759 51.7243 38.8196 51.8524 38.6971C51.9804 38.5745 52.1406 38.4909 52.3144 38.4558C52.4881 38.4207 52.6682 38.4356 52.8338 38.4988C52.9994 38.562 53.1437 38.6709 53.2498 38.8129C55.2234 41.7496 56.2687 45.2118 56.25 48.75ZM48.2474 48.5779C49.4513 51.1423 49.2764 54.169 47.7283 57.5757C47.625 57.8015 47.4364 57.9772 47.2038 58.0641C46.9711 58.1511 46.7135 58.1421 46.4875 58.0393C46.2615 57.9364 46.0855 57.7481 45.9981 57.5156C45.9108 57.2832 45.9193 57.0255 46.0217 56.7993C47.3318 53.9163 47.5104 51.4188 46.5509 49.3753C45.7046 47.7486 44.3493 46.4436 42.692 45.6591C42.8821 46.7909 42.8355 47.9499 42.555 49.0627C42.2745 50.1756 41.7662 51.2182 41.0623 52.1246C40.9308 52.3005 40.7417 52.4245 40.5279 52.4751C40.3142 52.5256 40.0895 52.4994 39.8932 52.4011C39.0463 51.9429 38.2865 51.3395 37.6483 50.6185C37.2629 51.9223 37.1576 54.0875 39.1699 56.6015C39.2471 56.6977 39.3046 56.8081 39.3391 56.9265C39.3736 57.0449 39.3844 57.169 39.3709 57.2915C39.3574 57.4141 39.3199 57.5328 39.2604 57.6409C39.201 57.749 39.1208 57.8442 39.0245 57.9213C38.9282 57.9983 38.8177 58.0556 38.6992 58.0899C38.5807 58.1242 38.4567 58.1347 38.3341 58.121C38.2115 58.1072 38.0929 58.0695 37.985 58.0098C37.877 57.9502 37.7819 57.8698 37.705 57.7734C34.3798 53.6169 35.6268 49.6856 36.7501 48.1878C36.8453 48.0592 36.9721 47.9574 37.1183 47.8923C37.2644 47.8272 37.4249 47.8009 37.5842 47.8161C37.7433 47.8307 37.8961 47.8856 38.0281 47.9756C38.1601 48.0656 38.2669 48.1878 38.3386 48.3306C38.7497 49.1015 39.3323 49.7677 40.0415 50.278C40.5531 49.4077 40.8529 48.4294 40.9169 47.4219C40.9808 46.4144 40.807 45.4061 40.4095 44.4781C40.33 44.3162 40.2989 44.1348 40.3198 43.9556C40.3407 43.7764 40.4128 43.6071 40.5274 43.4678C40.6421 43.3285 40.7944 43.2252 40.9662 43.1703C41.138 43.1153 41.322 43.111 41.4962 43.1579C41.694 43.212 46.3422 44.5203 48.2474 48.5779Z" fill="black"/>
</svg>
