<svg width="470" height="470" viewBox="0 0 470 470" fill="none" xmlns="http://www.w3.org/2000/svg">
<rect x="0.333984" y="0.333496" width="469.333" height="469.333" rx="64" fill="#F7843A"/>
<mask id="mask0_3_53" style="mask-type:alpha" maskUnits="userSpaceOnUse" x="135" y="135" width="200" height="200">
<rect x="135" y="135" width="200" height="200" fill="#D9D9D9"/>
</mask>
<g mask="url(#mask0_3_53)">
<path d="M235 309.999C218.75 309.999 204.966 304.34 193.646 293.02C182.327 281.701 176.667 267.916 176.667 251.666C176.667 237.777 180.938 225.52 189.479 214.895C198.021 204.27 209.028 197.499 222.5 194.583C218.889 193.888 215.417 192.881 212.084 191.562C208.75 190.243 205.764 188.263 203.125 185.624C199.236 181.597 196.632 176.944 195.313 171.666C193.993 166.388 193.334 160.972 193.334 155.416V151.666C205.278 151.388 215.556 155.312 224.167 163.437C232.778 171.562 237.014 181.527 236.875 193.333C238.82 187.361 241.563 181.805 245.104 176.666C248.646 171.527 252.639 166.736 257.084 162.291C258.334 161.041 259.792 160.416 261.459 160.416C263.125 160.416 264.584 161.041 265.834 162.291C267.084 163.541 267.709 164.999 267.709 166.666C267.709 168.333 267.084 169.791 265.834 171.041C262.361 174.513 259.236 178.263 256.459 182.291C253.681 186.319 251.32 190.555 249.375 194.999C262.431 198.333 273.021 205.243 281.146 215.729C289.271 226.215 293.334 238.194 293.334 251.666C293.334 267.916 287.674 281.701 276.354 293.02C265.035 304.34 251.25 309.999 235 309.999ZM235 297.499C247.778 297.499 258.611 293.055 267.5 284.166C276.389 275.277 280.834 264.444 280.834 251.666C280.834 238.888 276.389 228.055 267.5 219.166C258.611 210.277 247.778 205.833 235 205.833C222.223 205.833 211.389 210.277 202.5 219.166C193.611 228.055 189.167 238.888 189.167 251.666C189.167 264.444 193.611 275.277 202.5 284.166C211.389 293.055 222.223 297.499 235 297.499Z" fill="white"/>
</g>
</svg>
