<svg width="470" height="470" viewBox="0 0 470 470" fill="none" xmlns="http://www.w3.org/2000/svg">
<rect x="0.333984" y="0.333496" width="469.333" height="469.333" rx="64" fill="#F7843A"/>
<mask id="mask0_3_52" style="mask-type:alpha" maskUnits="userSpaceOnUse" x="135" y="135" width="200" height="200">
<rect x="135" y="135" width="200" height="200" fill="#D9D9D9"/>
</mask>
<g mask="url(#mask0_3_52)">
<path d="M178.957 247.5C179.929 245.833 180.658 244.028 181.144 242.083C181.63 240.139 181.873 237.778 181.873 235C181.873 230.139 180.484 224.896 177.707 219.271C174.929 213.646 173.54 208.82 173.54 204.792C173.54 203.264 173.679 201.493 173.957 199.479C174.234 197.465 175.068 195.417 176.457 193.333H186.873C185.762 195.278 184.998 197.292 184.582 199.375C184.165 201.458 183.957 203.264 183.957 204.792C183.957 209.514 185.346 214.514 188.123 219.792C190.901 225.07 192.29 230.139 192.29 235C192.29 237.778 192.047 240.139 191.561 242.083C191.075 244.028 190.346 245.833 189.373 247.5H178.957ZM233.123 247.5C234.096 245.833 234.825 244.028 235.311 242.083C235.797 240.139 236.04 237.778 236.04 235C236.04 230.139 234.651 224.896 231.873 219.271C229.096 213.646 227.707 208.82 227.707 204.792C227.707 203.264 227.846 201.493 228.123 199.479C228.401 197.465 229.234 195.417 230.623 193.333H241.04C239.929 195.278 239.165 197.292 238.748 199.375C238.332 201.458 238.123 203.264 238.123 204.792C238.123 209.514 239.512 214.514 242.29 219.792C245.068 225.07 246.457 230.139 246.457 235C246.457 237.778 246.214 240.139 245.727 242.083C245.241 244.028 244.512 245.833 243.54 247.5H233.123ZM206.04 247.5C207.012 245.833 207.741 244.028 208.227 242.083C208.714 240.139 208.957 237.778 208.957 235C208.957 230.139 207.568 224.896 204.79 219.271C202.012 213.646 200.623 208.82 200.623 204.792C200.623 203.264 200.762 201.493 201.04 199.479C201.318 197.465 202.151 195.417 203.54 193.333H213.957C212.846 195.278 212.082 197.292 211.665 199.375C211.248 201.458 211.04 203.264 211.04 204.792C211.04 209.514 212.429 214.514 215.207 219.792C217.984 225.07 219.373 230.139 219.373 235C219.373 237.778 219.13 240.139 218.644 242.083C218.158 244.028 217.429 245.833 216.457 247.5H206.04ZM216.248 318.333C202.359 318.333 189.998 313.576 179.165 304.063C168.332 294.549 161.943 282.917 159.998 269.167C159.721 267.222 160.172 265.556 161.352 264.167C162.533 262.778 164.165 262.083 166.248 262.083H259.998L269.373 171.875C270.068 166.181 272.568 161.389 276.873 157.5C281.179 153.611 286.248 151.667 292.082 151.667C298.471 151.667 303.887 153.889 308.332 158.333C312.776 162.778 314.998 168.195 314.998 174.583C314.998 175.833 314.929 177.465 314.79 179.479C314.651 181.493 314.443 183.264 314.165 184.792L301.873 183.125L302.186 179.583C302.394 177.222 302.498 175.556 302.498 174.583C302.498 171.667 301.491 169.201 299.477 167.188C297.464 165.174 294.998 164.167 292.082 164.167C289.304 164.167 286.943 165.07 284.998 166.875C283.054 168.681 281.943 170.903 281.665 173.542L272.082 266.25C270.554 280.972 264.477 293.333 253.852 303.333C243.227 313.333 230.693 318.333 216.248 318.333ZM216.248 305.833C225.276 305.833 233.54 303.125 241.04 297.708C248.54 292.292 254.096 284.583 257.707 274.583H174.165C177.776 284.583 183.436 292.292 191.144 297.708C198.852 303.125 207.221 305.833 216.248 305.833Z" fill="white"/>
</g>
</svg>
