<svg width="470" height="470" viewBox="0 0 470 470" fill="none" xmlns="http://www.w3.org/2000/svg">
<rect x="0.333984" y="0.333496" width="469.333" height="469.333" rx="64" fill="#F7843A"/>
<mask id="mask0_3_56" style="mask-type:alpha" maskUnits="userSpaceOnUse" x="135" y="135" width="200" height="200">
<rect x="135" y="135" width="200" height="200" fill="#D9D9D9"/>
</mask>
<g mask="url(#mask0_3_56)">
<path d="M258.334 272.083L228.75 242.5V201.667H241.25V237.292L267.084 263.125L258.334 272.083ZM228.75 182.917V164.167H241.25V182.917H228.75ZM287.084 241.25V228.75H305.834V241.25H287.084ZM228.75 305.833V287.083H241.25V305.833H228.75ZM164.167 241.25V228.75H182.917V241.25H164.167ZM235.056 318.333C223.565 318.333 212.766 316.146 202.66 311.771C192.554 307.396 183.716 301.424 176.146 293.854C168.577 286.285 162.604 277.442 158.229 267.325C153.854 257.208 151.667 246.399 151.667 234.896C151.667 223.393 153.854 212.584 158.229 202.467C162.604 192.35 168.577 183.542 176.146 176.042C183.716 168.542 192.559 162.604 202.676 158.229C212.792 153.854 223.602 151.667 235.104 151.667C246.607 151.667 257.417 153.854 267.533 158.229C277.65 162.604 286.459 168.542 293.959 176.042C301.459 183.542 307.396 192.361 311.771 202.5C316.146 212.639 318.334 223.454 318.334 234.945C318.334 246.436 316.146 257.234 311.771 267.341C307.396 277.447 301.459 286.272 293.959 293.816C286.459 301.36 277.639 307.332 267.5 311.733C257.361 316.133 246.547 318.333 235.056 318.333ZM235.104 305.833C254.757 305.833 271.459 298.924 285.209 285.104C298.959 271.285 305.834 254.549 305.834 234.896C305.834 215.243 298.972 198.542 285.248 184.792C271.524 171.042 254.775 164.167 235 164.167C215.417 164.167 198.716 171.029 184.896 184.753C171.077 198.477 164.167 215.226 164.167 235C164.167 254.583 171.077 271.285 184.896 285.104C198.716 298.924 215.452 305.833 235.104 305.833Z" fill="white"/>
</g>
</svg>
