<svg width="470" height="470" viewBox="0 0 470 470" fill="none" xmlns="http://www.w3.org/2000/svg">
<rect x="0.333984" y="0.333496" width="469.333" height="469.333" rx="64" fill="#F7843A"/>
<mask id="mask0_3_59" style="mask-type:alpha" maskUnits="userSpaceOnUse" x="135" y="135" width="200" height="200">
<rect x="135" y="135" width="200" height="200" fill="#D9D9D9"/>
</mask>
<g mask="url(#mask0_3_59)">
<path d="M193.542 285C191.598 285 189.688 284.028 187.813 282.083C185.938 280.139 185 278.194 185 276.25V255.833H289.167V185H310C311.945 185 313.82 185.972 315.625 187.917C317.431 189.861 318.334 191.875 318.334 193.958V318.125L285.209 285H193.542ZM151.667 276.667V160.417C151.667 158.472 152.57 156.528 154.375 154.583C156.181 152.639 158.056 151.667 160 151.667H268.125C270.209 151.667 272.153 152.604 273.959 154.479C275.764 156.354 276.667 158.333 276.667 160.417V234.583C276.667 236.528 275.764 238.472 273.959 240.417C272.153 242.361 270.209 243.333 268.125 243.333H185L151.667 276.667ZM264.167 230.833V164.167H164.167V247.5L179.584 230.833H264.167Z" fill="white"/>
</g>
</svg>
