<svg width="470" height="470" viewBox="0 0 470 470" fill="none" xmlns="http://www.w3.org/2000/svg">
<rect x="0.333984" y="0.333496" width="469.333" height="469.333" rx="64" fill="#F7843A"/>
<mask id="mask0_3_60" style="mask-type:alpha" maskUnits="userSpaceOnUse" x="135" y="135" width="200" height="201">
<rect x="135" y="135" width="200" height="200" fill="#D9D9D9"/>
</mask>
<g mask="url(#mask0_3_60)">
<path d="M234.945 289.167C254.704 289.167 271.458 282.268 285.208 268.47C298.958 254.673 305.833 237.96 305.833 218.334C305.833 212.903 305.243 207.691 304.062 202.698C302.882 197.705 301.25 192.917 299.167 188.334C295.278 191.25 291.069 193.507 286.54 195.105C282.011 196.702 277.331 197.5 272.5 197.5C264.861 197.5 257.812 195.556 251.354 191.667C244.896 187.778 239.444 182.709 235 176.459C230.555 182.709 225.104 187.778 218.646 191.667C212.187 195.556 205.139 197.5 197.5 197.5C192.669 197.5 187.989 196.702 183.46 195.105C178.931 193.507 174.722 191.25 170.833 188.334C168.75 192.917 167.118 197.744 165.937 202.813C164.757 207.882 164.166 213.056 164.166 218.334C164.166 237.96 171.06 254.673 184.847 268.47C198.634 282.268 215.333 289.167 234.945 289.167ZM208.797 238.542C211.96 238.542 214.618 237.45 216.771 235.266C218.923 233.082 220 230.408 220 227.245C220 224.082 218.908 221.424 216.724 219.271C214.54 217.119 211.866 216.042 208.703 216.042C205.54 216.042 202.882 217.134 200.729 219.318C198.576 221.502 197.5 224.176 197.5 227.339C197.5 230.502 198.592 233.16 200.776 235.313C202.96 237.466 205.634 238.542 208.797 238.542ZM261.505 238.542C264.668 238.542 267.326 237.45 269.479 235.266C271.632 233.082 272.708 230.408 272.708 227.245C272.708 224.082 271.616 221.424 269.432 219.271C267.248 217.119 264.574 216.042 261.411 216.042C258.248 216.042 255.59 217.134 253.437 219.318C251.285 221.502 250.208 224.176 250.208 227.339C250.208 230.502 251.3 233.16 253.484 235.313C255.668 237.466 258.342 238.542 261.505 238.542ZM197.5 185C206.25 185 213.646 181.98 219.687 175.938C225.729 169.896 228.75 162.5 228.75 153.75V147.709C218.055 148.681 208.264 151.771 199.375 156.98C190.486 162.188 183.125 168.959 177.291 177.292C180.069 179.653 183.183 181.528 186.633 182.917C190.083 184.306 193.705 185 197.5 185ZM272.5 185C276.295 185 279.917 184.306 283.367 182.917C286.817 181.528 289.93 179.653 292.708 177.292C286.875 168.959 279.514 162.188 270.625 156.98C261.736 151.771 251.944 148.681 241.25 147.709V153.75C241.25 162.5 244.271 169.896 250.312 175.938C256.354 181.98 263.75 185 272.5 185ZM148.75 318.334C145.119 318.334 142.058 316.98 139.568 314.271C137.078 311.563 135.972 308.403 136.25 304.792L144.166 217.917C145.278 206.25 148.437 195.348 153.646 185.209C158.854 175.07 165.521 166.285 173.646 158.855C181.771 151.424 191.076 145.591 201.562 141.355C212.048 137.119 223.194 135 235 135C246.805 135 257.951 137.119 268.437 141.355C278.923 145.591 288.229 151.424 296.354 158.855C304.479 166.285 311.146 175.07 316.354 185.209C321.562 195.348 324.722 206.25 325.833 217.917L333.75 304.792C334.028 308.403 332.922 311.563 330.432 314.271C327.942 316.98 324.881 318.334 321.25 318.334H148.75ZM234.989 301.667C215.83 301.667 198.854 295.903 184.062 284.375C169.271 272.848 159.444 258.195 154.583 240.417L148.75 305.834H321.25L315.417 240.417C310.555 258.195 300.764 272.848 286.042 284.375C271.319 295.903 254.302 301.667 234.989 301.667Z" fill="white"/>
</g>
</svg>
