<svg width="144" height="144" viewBox="0 0 144 144" fill="none" xmlns="http://www.w3.org/2000/svg">
<g clip-path="url(#clip0_2803_1540)">
<path d="M118.458 108.27L95.472 102.522L94.1459 97.2121C110.004 94.5422 118.164 89.7902 118.524 89.5801C119.376 89.082 119.904 88.1761 119.976 87.192C120.042 86.2079 119.604 85.2421 118.83 84.6239C118.722 84.5401 108 75.6841 108 45C108 19.1219 101.946 5.99991 90 5.99991H88.2301C83.9219 1.836 80.6881 0 72 0C60.7261 0 36 11.3341 36 45C36 75.6841 25.2779 84.5401 25.2 84.6C24.4021 85.1999 23.9521 86.1539 23.9999 87.1501C24.0539 88.1522 24.5939 89.0522 25.452 89.568C25.812 89.784 33.894 94.5599 49.8479 97.2239L48.5218 102.522L25.5361 108.27C10.4999 112.032 0 125.484 0 141C0 142.656 1.34409 144 3.00009 144H141C142.656 144 144 142.644 144 140.988C144 125.484 133.5 112.032 118.458 108.27Z" fill="#7B6FF2"/>
</g>
<defs>
<clipPath id="clip0_2803_1540">
<rect width="144" height="144" fill="white"/>
</clipPath>
</defs>
</svg>
