<svg width="470" height="471" viewBox="0 0 470 471" fill="none" xmlns="http://www.w3.org/2000/svg">
<rect x="0.333374" y="0.951904" width="469.333" height="469.333" rx="64" fill="#F7843A"/>
<path d="M165.65 317.619V318.969H167H173.723H175.073V317.619V269.856C175.073 266.233 176.295 263.253 178.739 260.824C181.184 258.395 184.187 257.177 187.84 257.177H205.319C217.696 257.177 227.498 253.543 234.534 246.126C241.498 238.786 244.989 229.971 244.989 219.754C244.989 212.853 242.742 207.069 238.209 202.511C233.697 197.975 228.199 195.692 221.79 195.692C220.802 195.692 220.256 195.391 219.907 194.951C219.431 194.349 219.095 193.581 218.938 192.597V152.619V151.269H217.588H210.697H209.347V152.619V192.7C209.347 196.09 210.582 199.027 213.008 201.438L213.008 201.438C215.434 203.848 218.386 205.072 221.79 205.072C225.704 205.072 228.94 206.442 231.584 209.199L232.559 208.264L231.584 209.199C234.222 211.949 235.566 215.432 235.566 219.754C235.566 227.456 232.989 234.033 227.821 239.557C222.74 244.988 215.314 247.797 205.319 247.797H187.84C181.71 247.797 176.448 249.944 172.135 254.217C167.82 258.492 165.65 263.732 165.65 269.856V317.619ZM202.126 318.969H203.476V317.619V304.592C203.476 300.97 204.698 297.99 207.143 295.561C209.588 293.132 212.591 291.914 216.244 291.914H251.202C266.974 291.914 280.471 286.363 291.615 275.289C302.761 264.214 308.35 250.799 308.35 235.119V226.434C308.35 211.105 303.082 197.788 292.574 186.55C282.05 175.295 269.186 169.639 254.059 169.639C252.183 169.639 250.59 168.979 249.212 167.61C247.834 166.241 247.174 164.662 247.174 162.806V152.619V151.269H245.824H239.101H237.751V152.619V162.806C237.751 167.106 239.391 170.895 242.579 174.123C245.781 177.365 249.629 179.019 254.059 179.019C266.723 179.019 277.328 183.665 285.958 192.998C294.609 202.353 298.927 213.475 298.927 226.434V235.119C298.927 248.394 294.315 259.581 285.074 268.764C275.832 277.948 264.569 282.534 251.202 282.534H216.244C210.113 282.534 204.852 284.681 200.539 288.954C196.223 293.229 194.053 298.469 194.053 304.592V317.619V318.969H195.403H202.126Z" fill="white" stroke="white" stroke-width="2.7"/>
</svg>
