<svg width="470" height="470" viewBox="0 0 470 470" fill="none" xmlns="http://www.w3.org/2000/svg">
<rect x="0.333374" y="0.333374" width="469.333" height="469.333" rx="64" fill="#F7843A"/>
<path d="M151.943 313.07L152.86 312.15L151.943 313.07C154.764 315.883 158.218 317.3 162.231 317.3H307.769C311.782 317.3 315.236 315.883 318.057 313.07L317.139 312.149L318.057 313.07C320.877 310.257 322.3 306.81 322.3 302.806V195.783C322.3 191.778 320.877 188.331 318.057 185.518L317.139 186.439L318.057 185.518C315.236 182.706 311.782 181.288 307.769 181.288H264.967V167.194C264.967 163.19 263.544 159.743 260.723 156.93L259.805 157.851L260.723 156.93C257.903 154.117 254.448 152.7 250.436 152.7H219.564C215.552 152.7 212.097 154.117 209.277 156.93L209.277 156.93C206.456 159.743 205.033 163.19 205.033 167.194V181.288H162.231C158.218 181.288 154.764 182.706 151.943 185.518L151.943 185.518C149.122 188.331 147.7 191.778 147.7 195.783V302.806C147.7 306.81 149.122 310.257 151.943 313.07ZM202.658 254.259H230.025V281.548V282.848H231.325H238.675H239.975V281.548V254.259H267.342H268.642V252.959V245.629V244.329H267.342H239.975V217.041V215.741H238.675H231.325H230.025V217.041V244.329H202.658H201.358V245.629V252.959V254.259H202.658ZM307.769 307.37H162.231C161.165 307.37 160.134 306.942 159.106 305.917C158.078 304.892 157.65 303.864 157.65 302.806V195.783C157.65 194.724 158.078 193.697 159.106 192.671C160.134 191.647 161.165 191.218 162.231 191.218H307.769C308.835 191.218 309.866 191.647 310.894 192.672C311.922 193.697 312.35 194.724 312.35 195.783V302.806C312.35 303.864 311.922 304.891 310.894 305.917C309.866 306.942 308.835 307.37 307.769 307.37ZM255.016 181.288H214.984V167.194C214.984 166.135 215.411 165.108 216.439 164.083C217.467 163.058 218.499 162.63 219.564 162.63H250.436C251.501 162.63 252.533 163.058 253.561 164.083C254.589 165.108 255.016 166.135 255.016 167.194V181.288Z" fill="white" stroke="white" stroke-width="2.6"/>
</svg>
