<svg width="38" height="38" viewBox="0 0 38 38" fill="none" xmlns="http://www.w3.org/2000/svg">
<rect x="0.0805054" y="0.694733" width="37.2008" height="37.2008" rx="5.07283" fill="white"/>
<mask id="path-2-outside-1_4_2" maskUnits="userSpaceOnUse" x="9.43205" y="9.9967" width="18" height="18" fill="black">
<rect fill="white" x="9.43205" y="9.9967" width="18" height="18"/>
<path d="M16.3447 27.689C15.5851 27.689 14.9371 27.416 14.4009 26.87C13.8647 26.324 13.5803 25.6836 13.5477 24.9487C12.7176 24.8249 12.0234 24.4349 11.4651 23.7788C10.9067 23.1227 10.6275 22.3438 10.6275 21.4421C10.6275 21.1269 10.6676 20.8174 10.7477 20.5135C10.8279 20.2097 10.9481 19.9224 11.1084 19.6517C10.8829 19.3468 10.7138 19.0198 10.6011 18.6707C10.4884 18.3216 10.4321 17.943 10.4321 17.5349C10.4321 16.635 10.738 15.8569 11.3498 15.2005C11.9615 14.5441 12.7111 14.1697 13.5985 14.0772C13.5985 14.025 13.5953 13.9729 13.5887 13.9208C13.5822 13.8687 13.579 13.81 13.579 13.7449C13.5868 12.9722 13.8575 12.321 14.3911 11.7912C14.9247 11.2616 15.5779 10.9967 16.3506 10.9967C16.8679 10.9967 17.2976 11.0954 17.6396 11.2928C17.9817 11.4902 18.3287 11.7909 18.6805 12.1949C19.0453 11.7909 19.3913 11.4902 19.7184 11.2928C20.0454 11.0954 20.4742 10.9967 21.0045 10.9967C21.7418 10.9967 22.3777 11.2648 22.912 11.801C23.4464 12.3372 23.7194 12.9852 23.7312 13.7449V13.9306C23.7312 13.9892 23.7247 14.0381 23.7116 14.0772C24.6029 14.1488 25.362 14.514 25.9888 15.1727C26.6155 15.8314 26.9289 16.6188 26.9289 17.5349C26.9289 17.943 26.8651 18.3258 26.7374 18.6834C26.6097 19.0409 26.4396 19.3657 26.2272 19.6575C26.3875 19.9442 26.5119 20.2426 26.6005 20.5526C26.6891 20.8627 26.7334 21.18 26.7334 21.5047C26.7334 22.4064 26.4543 23.1781 25.8959 23.8199C25.3375 24.4616 24.6368 24.8379 23.7937 24.9487C23.7612 25.6836 23.479 26.324 22.9474 26.87C22.4157 27.416 21.7785 27.689 21.0358 27.689C20.4755 27.689 20.035 27.5913 19.7145 27.3958C19.3939 27.2004 19.0492 26.8941 18.6805 26.4772C18.3117 26.8941 17.9638 27.2004 17.6367 27.3958C17.3097 27.5913 16.879 27.689 16.3447 27.689ZM19.0714 13.6745V25.0112C19.0714 25.5379 19.2637 25.9856 19.6483 26.3542C20.0329 26.7228 20.5001 26.9072 21.05 26.9072C21.5761 26.9072 22.0261 26.7124 22.4001 26.3227C22.7741 25.9331 22.978 25.4894 23.0119 24.9917C22.4919 24.9474 22.0105 24.8011 21.5674 24.5528C21.1244 24.3046 20.7582 23.972 20.469 23.555C20.3856 23.4729 20.3538 23.3812 20.3736 23.2798C20.3934 23.1783 20.4519 23.0903 20.5491 23.0155C20.6442 22.9452 20.745 22.9199 20.8513 22.9397C20.9577 22.9595 21.0433 23.018 21.1081 23.1152C21.35 23.4766 21.6623 23.7497 22.045 23.9345C22.4277 24.1194 22.8334 24.2118 23.2621 24.2118C24.0231 24.2118 24.6616 23.9557 25.1776 23.4436C25.6936 22.9315 25.9516 22.2852 25.9516 21.5047C25.9516 21.2914 25.9282 21.0836 25.8812 20.8815C25.8343 20.6793 25.7679 20.4739 25.6819 20.2654C25.39 20.5117 25.0548 20.7029 24.6762 20.8391C24.2977 20.9753 23.9019 21.0434 23.4888 21.0434C23.3735 21.0434 23.2795 21.007 23.2069 20.9342C23.1342 20.8614 23.0979 20.7673 23.0979 20.6517C23.0979 20.5362 23.1342 20.4423 23.2069 20.37C23.2795 20.2977 23.3735 20.2615 23.4888 20.2615C24.2368 20.2615 24.8668 19.9983 25.3789 19.4719C25.891 18.9454 26.1471 18.2998 26.1471 17.5349C26.1471 16.8072 25.8904 16.1835 25.377 15.6639C24.8635 15.1442 24.2498 14.8675 23.5357 14.8336C23.3924 15.2011 23.1803 15.5219 22.8995 15.7962C22.6187 16.0705 22.2945 16.2774 21.9271 16.4168C21.828 16.4494 21.73 16.4462 21.6331 16.4074C21.5361 16.3685 21.4751 16.2974 21.4502 16.194C21.4215 16.095 21.4234 15.9969 21.456 15.8998C21.4886 15.8028 21.5609 15.7334 21.673 15.6917C22.0691 15.5509 22.3809 15.3053 22.6083 14.9548C22.8356 14.6042 22.9493 14.2114 22.9493 13.7762C22.9493 13.2263 22.7587 12.7558 22.3775 12.3649C21.9963 11.974 21.5402 11.7785 21.0093 11.7785C20.4784 11.7785 20.0226 11.9629 19.6421 12.3315C19.2617 12.7001 19.0714 13.1478 19.0714 13.6745ZM18.2896 25.0112V13.6745C18.2896 13.1478 18.0999 12.7001 17.7207 12.3315C17.3414 11.9629 16.8843 11.7785 16.3495 11.7785C15.8186 11.7785 15.3586 11.9743 14.9697 12.3657C14.5807 12.7572 14.3862 13.2306 14.3862 13.7859C14.3862 14.2277 14.5022 14.6196 14.7341 14.9616C14.9661 15.3037 15.2736 15.5385 15.6567 15.6662C15.7688 15.7079 15.8486 15.7773 15.8962 15.8744C15.9437 15.9715 15.9543 16.069 15.9278 16.167C15.8797 16.2688 15.8039 16.3431 15.7004 16.3898C15.597 16.4365 15.4893 16.437 15.3772 16.3914C15.0097 16.2559 14.6898 16.0542 14.4175 15.7865C14.1452 15.5187 13.9308 15.2011 13.7744 14.8336C13.0773 14.8844 12.4762 15.1668 11.9713 15.6809C11.4664 16.195 11.2139 16.815 11.2139 17.5412C11.2139 18.3019 11.47 18.9454 11.9821 19.4719C12.4942 19.9983 13.1242 20.2615 13.8722 20.2615C13.9875 20.2615 14.0815 20.2979 14.1541 20.3707C14.2268 20.4435 14.2631 20.5376 14.2631 20.6531C14.2631 20.7686 14.2268 20.8626 14.1541 20.9349C14.0815 21.0072 13.9875 21.0434 13.8722 21.0434C13.4591 21.0434 13.0633 20.9743 12.6847 20.8362C12.3062 20.698 11.971 20.5078 11.6791 20.2654C11.5892 20.4661 11.5218 20.6633 11.4768 20.857C11.4318 21.0507 11.4094 21.2542 11.4094 21.4675C11.4094 22.248 11.6664 22.9006 12.1805 23.4251C12.6945 23.9495 13.3255 24.2118 14.0735 24.2118C14.5152 24.2118 14.923 24.114 15.297 23.9186C15.671 23.7231 15.9877 23.4553 16.247 23.1152C16.3118 23.035 16.3983 22.9807 16.5067 22.9524C16.615 22.9241 16.7148 22.9419 16.806 23.0058C16.8842 23.0827 16.9347 23.1739 16.9575 23.2794C16.9803 23.385 16.9565 23.4768 16.8862 23.555C16.5838 23.972 16.2121 24.3046 15.7711 24.5528C15.33 24.8011 14.856 24.9408 14.3491 24.9721C14.3699 25.4829 14.5739 25.9331 14.9609 26.3227C15.3479 26.7124 15.8064 26.9072 16.3364 26.9072C16.8732 26.9072 17.333 26.7228 17.7156 26.3542C18.0982 25.9856 18.2896 25.5379 18.2896 25.0112Z"/>
</mask>
<path d="M16.3447 27.689C15.5851 27.689 14.9371 27.416 14.4009 26.87C13.8647 26.324 13.5803 25.6836 13.5477 24.9487C12.7176 24.8249 12.0234 24.4349 11.4651 23.7788C10.9067 23.1227 10.6275 22.3438 10.6275 21.4421C10.6275 21.1269 10.6676 20.8174 10.7477 20.5135C10.8279 20.2097 10.9481 19.9224 11.1084 19.6517C10.8829 19.3468 10.7138 19.0198 10.6011 18.6707C10.4884 18.3216 10.4321 17.943 10.4321 17.5349C10.4321 16.635 10.738 15.8569 11.3498 15.2005C11.9615 14.5441 12.7111 14.1697 13.5985 14.0772C13.5985 14.025 13.5953 13.9729 13.5887 13.9208C13.5822 13.8687 13.579 13.81 13.579 13.7449C13.5868 12.9722 13.8575 12.321 14.3911 11.7912C14.9247 11.2616 15.5779 10.9967 16.3506 10.9967C16.8679 10.9967 17.2976 11.0954 17.6396 11.2928C17.9817 11.4902 18.3287 11.7909 18.6805 12.1949C19.0453 11.7909 19.3913 11.4902 19.7184 11.2928C20.0454 11.0954 20.4742 10.9967 21.0045 10.9967C21.7418 10.9967 22.3777 11.2648 22.912 11.801C23.4464 12.3372 23.7194 12.9852 23.7312 13.7449V13.9306C23.7312 13.9892 23.7247 14.0381 23.7116 14.0772C24.6029 14.1488 25.362 14.514 25.9888 15.1727C26.6155 15.8314 26.9289 16.6188 26.9289 17.5349C26.9289 17.943 26.8651 18.3258 26.7374 18.6834C26.6097 19.0409 26.4396 19.3657 26.2272 19.6575C26.3875 19.9442 26.5119 20.2426 26.6005 20.5526C26.6891 20.8627 26.7334 21.18 26.7334 21.5047C26.7334 22.4064 26.4543 23.1781 25.8959 23.8199C25.3375 24.4616 24.6368 24.8379 23.7937 24.9487C23.7612 25.6836 23.479 26.324 22.9474 26.87C22.4157 27.416 21.7785 27.689 21.0358 27.689C20.4755 27.689 20.035 27.5913 19.7145 27.3958C19.3939 27.2004 19.0492 26.8941 18.6805 26.4772C18.3117 26.8941 17.9638 27.2004 17.6367 27.3958C17.3097 27.5913 16.879 27.689 16.3447 27.689ZM19.0714 13.6745V25.0112C19.0714 25.5379 19.2637 25.9856 19.6483 26.3542C20.0329 26.7228 20.5001 26.9072 21.05 26.9072C21.5761 26.9072 22.0261 26.7124 22.4001 26.3227C22.7741 25.9331 22.978 25.4894 23.0119 24.9917C22.4919 24.9474 22.0105 24.8011 21.5674 24.5528C21.1244 24.3046 20.7582 23.972 20.469 23.555C20.3856 23.4729 20.3538 23.3812 20.3736 23.2798C20.3934 23.1783 20.4519 23.0903 20.5491 23.0155C20.6442 22.9452 20.745 22.9199 20.8513 22.9397C20.9577 22.9595 21.0433 23.018 21.1081 23.1152C21.35 23.4766 21.6623 23.7497 22.045 23.9345C22.4277 24.1194 22.8334 24.2118 23.2621 24.2118C24.0231 24.2118 24.6616 23.9557 25.1776 23.4436C25.6936 22.9315 25.9516 22.2852 25.9516 21.5047C25.9516 21.2914 25.9282 21.0836 25.8812 20.8815C25.8343 20.6793 25.7679 20.4739 25.6819 20.2654C25.39 20.5117 25.0548 20.7029 24.6762 20.8391C24.2977 20.9753 23.9019 21.0434 23.4888 21.0434C23.3735 21.0434 23.2795 21.007 23.2069 20.9342C23.1342 20.8614 23.0979 20.7673 23.0979 20.6517C23.0979 20.5362 23.1342 20.4423 23.2069 20.37C23.2795 20.2977 23.3735 20.2615 23.4888 20.2615C24.2368 20.2615 24.8668 19.9983 25.3789 19.4719C25.891 18.9454 26.1471 18.2998 26.1471 17.5349C26.1471 16.8072 25.8904 16.1835 25.377 15.6639C24.8635 15.1442 24.2498 14.8675 23.5357 14.8336C23.3924 15.2011 23.1803 15.5219 22.8995 15.7962C22.6187 16.0705 22.2945 16.2774 21.9271 16.4168C21.828 16.4494 21.73 16.4462 21.6331 16.4074C21.5361 16.3685 21.4751 16.2974 21.4502 16.194C21.4215 16.095 21.4234 15.9969 21.456 15.8998C21.4886 15.8028 21.5609 15.7334 21.673 15.6917C22.0691 15.5509 22.3809 15.3053 22.6083 14.9548C22.8356 14.6042 22.9493 14.2114 22.9493 13.7762C22.9493 13.2263 22.7587 12.7558 22.3775 12.3649C21.9963 11.974 21.5402 11.7785 21.0093 11.7785C20.4784 11.7785 20.0226 11.9629 19.6421 12.3315C19.2617 12.7001 19.0714 13.1478 19.0714 13.6745ZM18.2896 25.0112V13.6745C18.2896 13.1478 18.0999 12.7001 17.7207 12.3315C17.3414 11.9629 16.8843 11.7785 16.3495 11.7785C15.8186 11.7785 15.3586 11.9743 14.9697 12.3657C14.5807 12.7572 14.3862 13.2306 14.3862 13.7859C14.3862 14.2277 14.5022 14.6196 14.7341 14.9616C14.9661 15.3037 15.2736 15.5385 15.6567 15.6662C15.7688 15.7079 15.8486 15.7773 15.8962 15.8744C15.9437 15.9715 15.9543 16.069 15.9278 16.167C15.8797 16.2688 15.8039 16.3431 15.7004 16.3898C15.597 16.4365 15.4893 16.437 15.3772 16.3914C15.0097 16.2559 14.6898 16.0542 14.4175 15.7865C14.1452 15.5187 13.9308 15.2011 13.7744 14.8336C13.0773 14.8844 12.4762 15.1668 11.9713 15.6809C11.4664 16.195 11.2139 16.815 11.2139 17.5412C11.2139 18.3019 11.47 18.9454 11.9821 19.4719C12.4942 19.9983 13.1242 20.2615 13.8722 20.2615C13.9875 20.2615 14.0815 20.2979 14.1541 20.3707C14.2268 20.4435 14.2631 20.5376 14.2631 20.6531C14.2631 20.7686 14.2268 20.8626 14.1541 20.9349C14.0815 21.0072 13.9875 21.0434 13.8722 21.0434C13.4591 21.0434 13.0633 20.9743 12.6847 20.8362C12.3062 20.698 11.971 20.5078 11.6791 20.2654C11.5892 20.4661 11.5218 20.6633 11.4768 20.857C11.4318 21.0507 11.4094 21.2542 11.4094 21.4675C11.4094 22.248 11.6664 22.9006 12.1805 23.4251C12.6945 23.9495 13.3255 24.2118 14.0735 24.2118C14.5152 24.2118 14.923 24.114 15.297 23.9186C15.671 23.7231 15.9877 23.4553 16.247 23.1152C16.3118 23.035 16.3983 22.9807 16.5067 22.9524C16.615 22.9241 16.7148 22.9419 16.806 23.0058C16.8842 23.0827 16.9347 23.1739 16.9575 23.2794C16.9803 23.385 16.9565 23.4768 16.8862 23.555C16.5838 23.972 16.2121 24.3046 15.7711 24.5528C15.33 24.8011 14.856 24.9408 14.3491 24.9721C14.3699 25.4829 14.5739 25.9331 14.9609 26.3227C15.3479 26.7124 15.8064 26.9072 16.3364 26.9072C16.8732 26.9072 17.333 26.7228 17.7156 26.3542C18.0982 25.9856 18.2896 25.5379 18.2896 25.0112Z" fill="#FF950D"/>
<path d="M16.3447 27.689C15.5851 27.689 14.9371 27.416 14.4009 26.87C13.8647 26.324 13.5803 25.6836 13.5477 24.9487C12.7176 24.8249 12.0234 24.4349 11.4651 23.7788C10.9067 23.1227 10.6275 22.3438 10.6275 21.4421C10.6275 21.1269 10.6676 20.8174 10.7477 20.5135C10.8279 20.2097 10.9481 19.9224 11.1084 19.6517C10.8829 19.3468 10.7138 19.0198 10.6011 18.6707C10.4884 18.3216 10.4321 17.943 10.4321 17.5349C10.4321 16.635 10.738 15.8569 11.3498 15.2005C11.9615 14.5441 12.7111 14.1697 13.5985 14.0772C13.5985 14.025 13.5953 13.9729 13.5887 13.9208C13.5822 13.8687 13.579 13.81 13.579 13.7449C13.5868 12.9722 13.8575 12.321 14.3911 11.7912C14.9247 11.2616 15.5779 10.9967 16.3506 10.9967C16.8679 10.9967 17.2976 11.0954 17.6396 11.2928C17.9817 11.4902 18.3287 11.7909 18.6805 12.1949C19.0453 11.7909 19.3913 11.4902 19.7184 11.2928C20.0454 11.0954 20.4742 10.9967 21.0045 10.9967C21.7418 10.9967 22.3777 11.2648 22.912 11.801C23.4464 12.3372 23.7194 12.9852 23.7312 13.7449V13.9306C23.7312 13.9892 23.7247 14.0381 23.7116 14.0772C24.6029 14.1488 25.362 14.514 25.9888 15.1727C26.6155 15.8314 26.9289 16.6188 26.9289 17.5349C26.9289 17.943 26.8651 18.3258 26.7374 18.6834C26.6097 19.0409 26.4396 19.3657 26.2272 19.6575C26.3875 19.9442 26.5119 20.2426 26.6005 20.5526C26.6891 20.8627 26.7334 21.18 26.7334 21.5047C26.7334 22.4064 26.4543 23.1781 25.8959 23.8199C25.3375 24.4616 24.6368 24.8379 23.7937 24.9487C23.7612 25.6836 23.479 26.324 22.9474 26.87C22.4157 27.416 21.7785 27.689 21.0358 27.689C20.4755 27.689 20.035 27.5913 19.7145 27.3958C19.3939 27.2004 19.0492 26.8941 18.6805 26.4772C18.3117 26.8941 17.9638 27.2004 17.6367 27.3958C17.3097 27.5913 16.879 27.689 16.3447 27.689ZM19.0714 13.6745V25.0112C19.0714 25.5379 19.2637 25.9856 19.6483 26.3542C20.0329 26.7228 20.5001 26.9072 21.05 26.9072C21.5761 26.9072 22.0261 26.7124 22.4001 26.3227C22.7741 25.9331 22.978 25.4894 23.0119 24.9917C22.4919 24.9474 22.0105 24.8011 21.5674 24.5528C21.1244 24.3046 20.7582 23.972 20.469 23.555C20.3856 23.4729 20.3538 23.3812 20.3736 23.2798C20.3934 23.1783 20.4519 23.0903 20.5491 23.0155C20.6442 22.9452 20.745 22.9199 20.8513 22.9397C20.9577 22.9595 21.0433 23.018 21.1081 23.1152C21.35 23.4766 21.6623 23.7497 22.045 23.9345C22.4277 24.1194 22.8334 24.2118 23.2621 24.2118C24.0231 24.2118 24.6616 23.9557 25.1776 23.4436C25.6936 22.9315 25.9516 22.2852 25.9516 21.5047C25.9516 21.2914 25.9282 21.0836 25.8812 20.8815C25.8343 20.6793 25.7679 20.4739 25.6819 20.2654C25.39 20.5117 25.0548 20.7029 24.6762 20.8391C24.2977 20.9753 23.9019 21.0434 23.4888 21.0434C23.3735 21.0434 23.2795 21.007 23.2069 20.9342C23.1342 20.8614 23.0979 20.7673 23.0979 20.6517C23.0979 20.5362 23.1342 20.4423 23.2069 20.37C23.2795 20.2977 23.3735 20.2615 23.4888 20.2615C24.2368 20.2615 24.8668 19.9983 25.3789 19.4719C25.891 18.9454 26.1471 18.2998 26.1471 17.5349C26.1471 16.8072 25.8904 16.1835 25.377 15.6639C24.8635 15.1442 24.2498 14.8675 23.5357 14.8336C23.3924 15.2011 23.1803 15.5219 22.8995 15.7962C22.6187 16.0705 22.2945 16.2774 21.9271 16.4168C21.828 16.4494 21.73 16.4462 21.6331 16.4074C21.5361 16.3685 21.4751 16.2974 21.4502 16.194C21.4215 16.095 21.4234 15.9969 21.456 15.8998C21.4886 15.8028 21.5609 15.7334 21.673 15.6917C22.0691 15.5509 22.3809 15.3053 22.6083 14.9548C22.8356 14.6042 22.9493 14.2114 22.9493 13.7762C22.9493 13.2263 22.7587 12.7558 22.3775 12.3649C21.9963 11.974 21.5402 11.7785 21.0093 11.7785C20.4784 11.7785 20.0226 11.9629 19.6421 12.3315C19.2617 12.7001 19.0714 13.1478 19.0714 13.6745ZM18.2896 25.0112V13.6745C18.2896 13.1478 18.0999 12.7001 17.7207 12.3315C17.3414 11.9629 16.8843 11.7785 16.3495 11.7785C15.8186 11.7785 15.3586 11.9743 14.9697 12.3657C14.5807 12.7572 14.3862 13.2306 14.3862 13.7859C14.3862 14.2277 14.5022 14.6196 14.7341 14.9616C14.9661 15.3037 15.2736 15.5385 15.6567 15.6662C15.7688 15.7079 15.8486 15.7773 15.8962 15.8744C15.9437 15.9715 15.9543 16.069 15.9278 16.167C15.8797 16.2688 15.8039 16.3431 15.7004 16.3898C15.597 16.4365 15.4893 16.437 15.3772 16.3914C15.0097 16.2559 14.6898 16.0542 14.4175 15.7865C14.1452 15.5187 13.9308 15.2011 13.7744 14.8336C13.0773 14.8844 12.4762 15.1668 11.9713 15.6809C11.4664 16.195 11.2139 16.815 11.2139 17.5412C11.2139 18.3019 11.47 18.9454 11.9821 19.4719C12.4942 19.9983 13.1242 20.2615 13.8722 20.2615C13.9875 20.2615 14.0815 20.2979 14.1541 20.3707C14.2268 20.4435 14.2631 20.5376 14.2631 20.6531C14.2631 20.7686 14.2268 20.8626 14.1541 20.9349C14.0815 21.0072 13.9875 21.0434 13.8722 21.0434C13.4591 21.0434 13.0633 20.9743 12.6847 20.8362C12.3062 20.698 11.971 20.5078 11.6791 20.2654C11.5892 20.4661 11.5218 20.6633 11.4768 20.857C11.4318 21.0507 11.4094 21.2542 11.4094 21.4675C11.4094 22.248 11.6664 22.9006 12.1805 23.4251C12.6945 23.9495 13.3255 24.2118 14.0735 24.2118C14.5152 24.2118 14.923 24.114 15.297 23.9186C15.671 23.7231 15.9877 23.4553 16.247 23.1152C16.3118 23.035 16.3983 22.9807 16.5067 22.9524C16.615 22.9241 16.7148 22.9419 16.806 23.0058C16.8842 23.0827 16.9347 23.1739 16.9575 23.2794C16.9803 23.385 16.9565 23.4768 16.8862 23.555C16.5838 23.972 16.2121 24.3046 15.7711 24.5528C15.33 24.8011 14.856 24.9408 14.3491 24.9721C14.3699 25.4829 14.5739 25.9331 14.9609 26.3227C15.3479 26.7124 15.8064 26.9072 16.3364 26.9072C16.8732 26.9072 17.333 26.7228 17.7156 26.3542C18.0982 25.9856 18.2896 25.5379 18.2896 25.0112Z" stroke="#FF950D" stroke-width="0.317052" mask="url(#path-2-outside-1_4_2)"/>
</svg>
