<svg width="470" height="471" viewBox="0 0 470 471" fill="none" xmlns="http://www.w3.org/2000/svg">
<rect x="0.333374" y="0.951904" width="469.333" height="469.333" rx="64" fill="#F7843A"/>
<path d="M222.932 313.425C211.879 313.425 202.457 309.53 194.666 301.739C186.876 293.949 182.981 284.527 182.981 273.473V201.561C178.586 201.561 174.824 199.996 171.694 196.866C168.565 193.737 167 189.975 167 185.58V169.599C167 165.205 168.565 161.443 171.694 158.313C174.824 155.183 178.586 153.619 182.981 153.619H262.884C267.278 153.619 271.041 155.183 274.17 158.313C277.3 161.443 278.864 165.205 278.864 169.599V185.58C278.864 189.975 277.3 193.737 274.17 196.866C271.041 199.996 267.278 201.561 262.884 201.561V232.923C259.155 235.719 255.959 239.048 253.295 242.91C250.632 246.772 248.568 250.967 247.103 255.495H222.932V243.51H250.898V231.524H222.932V219.539H250.898V201.561H194.966V273.473C194.966 281.242 197.685 287.845 203.123 293.283C208.561 298.721 215.164 301.439 222.932 301.439C228.525 301.439 233.519 300.041 237.914 297.245C242.309 294.448 245.638 290.719 247.902 286.058C248.701 288.189 249.666 290.22 250.798 292.151C251.93 294.082 253.229 295.979 254.694 297.844C250.965 302.638 246.37 306.433 240.91 309.23C235.45 312.027 229.458 313.425 222.932 313.425ZM222.932 279.466V267.481H244.906C244.772 269.478 244.806 271.476 245.005 273.473C245.205 275.471 245.505 277.469 245.904 279.466H222.932ZM178.985 189.575H266.879V165.604H178.985V189.575ZM290.822 291.452C296.966 291.452 302.169 289.33 306.431 285.088C310.692 280.845 312.823 275.651 312.823 269.506C312.823 263.362 310.702 258.159 306.459 253.897C302.216 249.636 297.023 247.505 290.878 247.505C284.733 247.505 279.53 249.626 275.269 253.869C271.007 258.112 268.877 263.305 268.877 269.45C268.877 275.595 270.998 280.798 275.241 285.059C279.483 289.321 284.677 291.452 290.822 291.452ZM331.6 318.619L310.226 297.245C307.297 299.242 304.212 300.774 300.973 301.839C297.733 302.904 294.359 303.437 290.85 303.437C281.417 303.437 273.399 300.133 266.796 293.525C260.193 286.918 256.891 278.894 256.891 269.455C256.891 260.015 260.195 251.999 266.803 245.407C273.41 238.815 281.434 235.519 290.873 235.519C300.313 235.519 308.329 238.821 314.921 245.424C321.513 252.027 324.809 260.045 324.809 269.478C324.809 272.987 324.276 276.362 323.211 279.601C322.145 282.84 320.614 285.925 318.616 288.855L339.99 310.229L331.6 318.619Z" fill="white"/>
</svg>
