<svg width="470" height="470" viewBox="0 0 470 470" fill="none" xmlns="http://www.w3.org/2000/svg">
<rect x="0.333984" y="0.333496" width="469.333" height="469.333" rx="64" fill="#F7843A"/>
<mask id="mask0_3_67" style="mask-type:alpha" maskUnits="userSpaceOnUse" x="135" y="135" width="200" height="201">
<rect x="135" y="135.001" width="200" height="200" fill="#D9D9D9"/>
</mask>
<g mask="url(#mask0_3_67)">
<path d="M192.917 326.668L217.292 203.959L196.042 213.543V241.251H183.542V205.209L223.334 188.334C226.945 186.807 231.077 186.39 235.729 187.084C240.382 187.779 243.889 189.932 246.25 193.543L255 207.293C258.611 213.126 263.646 218.161 270.104 222.397C276.563 226.633 283.82 228.751 291.875 228.751V241.251C282.57 241.251 274.167 239.098 266.667 234.793C259.167 230.487 252.5 224.168 246.667 215.834L238.125 248.334L257.292 265.626V326.668H244.792V276.668L222.292 256.251L205.834 326.668H192.917ZM247.5 179.376C243.334 179.376 239.757 177.883 236.771 174.897C233.785 171.911 232.292 168.334 232.292 164.168C232.292 160.001 233.785 156.425 236.771 153.439C239.757 150.453 243.334 148.959 247.5 148.959C251.667 148.959 255.243 150.453 258.23 153.439C261.216 156.425 262.709 160.001 262.709 164.168C262.709 168.334 261.216 171.911 258.23 174.897C255.243 177.883 251.667 179.376 247.5 179.376Z" fill="white"/>
</g>
</svg>
