<svg width="470" height="470" viewBox="0 0 470 470" fill="none" xmlns="http://www.w3.org/2000/svg">
<rect x="0.333984" y="0.333008" width="469.333" height="469.333" rx="64" fill="#F7843A"/>
<mask id="mask0_3_96" style="mask-type:alpha" maskUnits="userSpaceOnUse" x="135" y="135" width="200" height="200">
<rect x="135" y="135" width="200" height="200" fill="#D9D9D9"/>
</mask>
<g mask="url(#mask0_3_96)">
<path d="M225.625 276.875H244.375V244.375H276.875V225.625H244.375V193.125H225.625V225.625H193.125V244.375H225.625V276.875ZM172.5 310C169.167 310 166.25 308.75 163.75 306.25C161.25 303.75 160 300.833 160 297.5V172.5C160 169.167 161.25 166.25 163.75 163.75C166.25 161.25 169.167 160 172.5 160H297.5C300.833 160 303.75 161.25 306.25 163.75C308.75 166.25 310 169.167 310 172.5V297.5C310 300.833 308.75 303.75 306.25 306.25C303.75 308.75 300.833 310 297.5 310H172.5ZM172.5 297.5H297.5V172.5H172.5V297.5Z" fill="white"/>
</g>
</svg>
