<svg width="60" height="60" viewBox="0 0 60 60" fill="none" xmlns="http://www.w3.org/2000/svg">
<path d="M30 26.6785C30.5522 26.6785 31 26.2307 31 25.6785V24.042C31 23.4897 30.5522 23.042 30 23.042C29.4477 23.042 29 23.4897 29 24.042V25.6785C29 26.2307 29.4477 26.6785 30 26.6785Z" fill="black"/>
<path d="M52.1823 5.6021C52.767 5.6021 53.2233 5.10623 53.1807 4.52836C53.0881 3.276 53.2838 2.30188 53.7791 1.55039C54.0831 1.08927 53.9555 0.46902 53.4945 0.165148C53.033 -0.13885 52.4131 -0.0112256 52.1092 0.449896C51.3619 1.58414 51.0597 2.96638 51.1861 4.67574C51.2251 5.20148 51.6637 5.6021 52.1823 5.6021Z" fill="black"/>
<path d="M56.7779 20.9815C56.2278 21.0298 55.8211 21.5151 55.8695 22.0652C56.0342 23.9394 55.8938 25.7775 55.2205 27.5392C55.0233 28.055 55.2816 28.633 55.7975 28.8303C56.3177 29.029 56.8931 28.7649 57.0886 28.2533C57.8611 26.2323 58.0548 24.0801 57.8617 21.89C57.8133 21.3398 57.3288 20.933 56.7779 20.9815Z" fill="black"/>
<path d="M52.0203 31.9795C51.4916 32.4421 50.9006 32.8901 50.2558 33.3189C47.0202 21.0876 40.6293 11.8607 45.5768 1.42876C45.8134 0.929766 45.6006 0.333396 45.1016 0.0967727C44.6028 -0.1401 44.0061 0.0728979 43.7696 0.571769C38.8212 11.0057 44.2016 20.3109 47.5104 31.025H16.3066C15.7544 31.025 15.3066 31.4728 15.3066 32.025C15.3066 32.5773 15.7544 33.025 16.3066 33.025H48.0979C50.1191 40.3146 51.0283 48.576 47.4012 58.6614C47.1667 59.3134 47.6517 60 48.3422 60C48.752 60 49.1365 59.746 49.2832 59.3382C52.6331 50.0234 52.3108 42.2519 50.7591 35.3707C51.7136 34.7796 52.5796 34.1475 53.3371 33.4847C53.7527 33.1211 53.7949 32.4894 53.4312 32.0736C53.0678 31.6579 52.4361 31.6159 52.0203 31.9795Z" fill="black"/>
<path d="M6.82029 4.52836C6.77766 5.10661 7.23441 5.6021 7.81866 5.6021C8.33728 5.6021 8.7759 5.20148 8.8149 4.67574C8.94127 2.9665 8.63927 1.58426 7.89166 0.449896C7.58778 -0.0112256 6.96766 -0.13885 6.50642 0.165148C6.04542 0.46902 5.9178 1.08927 6.22179 1.55039C6.71717 2.30213 6.91279 3.27612 6.82029 4.52836Z" fill="black"/>
<path d="M4.13224 22.0645C4.18086 21.5144 3.77424 21.029 3.224 20.9805C2.6725 20.9317 2.18863 21.3387 2.14 21.8888C1.94663 24.0774 2.1405 26.2314 2.91275 28.2521C3.065 28.6506 3.44449 28.8954 3.84712 28.8954C4.54311 28.8954 5.03211 28.1952 4.78098 27.5381C4.10849 25.7788 3.96699 23.939 4.13224 22.0645Z" fill="black"/>
<path d="M8.4968 18.3799C7.96856 19.0413 8.45281 20.0039 9.27755 20.0039C9.57117 20.0039 9.86217 19.8752 10.0595 19.6279C12.0564 17.1268 12.0185 17.2398 12.0778 16.9053C12.1227 16.6556 12.059 16.4018 11.97 16.2476C11.9083 16.1407 12.014 16.2801 10.0594 13.8316C9.71492 13.4 9.08555 13.3297 8.65405 13.6741C8.22256 14.0187 8.15193 14.648 8.49668 15.0795L9.01593 15.7296H5.57195C6.15082 13.9481 6.75457 12.3365 7.30394 10.7469C7.48431 10.2249 7.20744 9.65552 6.68544 9.47502C6.16307 9.29465 5.59408 9.57165 5.41358 10.0935C4.80071 11.867 4.08622 13.763 3.47135 15.7296H0.999992C0.447746 15.7296 0 16.1773 0 16.7296C0 17.2818 0.447746 17.7296 0.999992 17.7296H9.01593L8.4968 18.3799Z" fill="black"/>
<path d="M59.0001 15.7304H56.53C55.9081 13.7416 55.2145 11.908 54.5877 10.0945C54.4074 9.57267 53.8381 9.29555 53.3159 9.47605C52.7939 9.65642 52.5169 10.2259 52.6974 10.7479C52.8969 11.3247 54.0747 14.6386 54.4294 15.7304H50.9841L51.5034 15.0803C51.8481 14.6488 51.7775 14.0195 51.346 13.6749C50.9146 13.3304 50.2853 13.4008 49.9407 13.8324C47.9115 16.3736 48.1085 16.1119 48.0288 16.2506C47.8417 16.5757 47.8605 17.0162 48.119 17.3461C48.1775 17.4216 48.229 17.4847 49.9407 19.6287C50.284 20.0588 50.9129 20.1318 51.346 19.7862C51.7775 19.4416 51.8481 18.8123 51.5034 18.3808L50.9841 17.7306H59.0001C59.5523 17.7306 60.0001 17.2829 60.0001 16.7306C60.0001 16.1784 59.5523 15.7304 59.0001 15.7304Z" fill="black"/>
<path d="M43.7595 39.5569C36.2876 41.9381 32.5335 46.0167 30.0011 46.0167C26.8592 46.0167 22.2061 40.0203 10.7172 38.2763C13.143 23.9579 22.2127 13.1843 16.231 0.571735C15.9943 0.0727394 15.3979 -0.140009 14.899 0.0967392C14.4 0.333362 14.1874 0.929732 14.4239 1.42873C19.3716 11.8613 12.9823 21.0807 9.74505 33.3182C9.10043 32.8895 8.50956 32.4415 7.98082 31.9788C7.5652 31.6151 6.93358 31.6572 6.5697 32.0728C6.20608 32.4885 6.24808 33.1202 6.6637 33.484C7.4212 34.1468 8.28707 34.7791 9.24156 35.3702C7.6897 42.2514 7.36732 50.0229 10.7173 59.3381C10.864 59.746 11.2484 60 11.6583 60C12.3483 60 12.8339 59.3137 12.5993 58.6614C10.1187 51.7637 9.76068 45.7195 10.4283 40.2555C20.9045 41.8531 25.1449 47.0846 29.0005 47.9062V58.9999C29.0005 59.5521 29.4483 59.9998 30.0005 59.9998C30.5528 59.9998 31.0005 59.5521 31.0005 58.9999V47.9066C34.156 47.235 37.5146 43.6464 44.3668 41.4626C44.893 41.2949 45.1836 40.7324 45.0159 40.2061C44.8483 39.6798 44.2854 39.3892 43.7595 39.5569Z" fill="black"/>
</svg>
