<svg width="144" height="144" viewBox="0 0 144 144" fill="none" xmlns="http://www.w3.org/2000/svg">
<path d="M118.458 108.27L95.472 102.522L93.5159 94.698C99.666 88.6081 103.878 80.244 105.126 71.6639C108.534 70.704 111.174 67.7818 111.63 64.116L113.13 52.1159C113.448 49.5838 112.668 47.0219 110.988 45.1018C110.004 43.9737 108.762 43.1218 107.388 42.5998L107.94 31.3017L110.184 29.0517C113.562 25.4576 116.364 19.2957 110.508 10.3556C106.008 3.48609 98.3641 0 87.7801 0C83.6041 0 73.9921 0 65.0402 6.012C39.4799 6.54609 36 18.4199 36 30.0001C36 32.6942 36.6539 38.7602 37.0859 42.4201C35.5438 42.9061 34.146 43.8061 33.0539 45.0481C31.3439 46.9862 30.5519 49.5602 30.87 52.1221L32.3699 64.1222C32.8618 68.0341 35.8318 71.1121 39.5879 71.8442C40.8299 80.0941 44.8259 88.1882 50.6219 94.1763L48.5339 102.534L25.5479 108.282C10.4999 112.032 0 125.484 0 141C0 142.656 1.34409 144 3.00009 144H141C142.656 144 144 142.644 144 140.988C144 125.484 133.5 112.032 118.458 108.27Z" fill="#EBECEF"/>
</svg>
