<svg width="470" height="470" viewBox="0 0 470 470" fill="none" xmlns="http://www.w3.org/2000/svg">
<rect x="0.333984" y="0.333496" width="469.333" height="469.333" rx="64" fill="#F7843A"/>
<mask id="mask0_3_61" style="mask-type:alpha" maskUnits="userSpaceOnUse" x="135" y="135" width="200" height="201">
<rect x="135" y="135" width="200" height="200" fill="#D9D9D9"/>
</mask>
<g mask="url(#mask0_3_61)">
<path d="M208.703 255.209C205.54 255.209 202.882 254.117 200.729 251.933C198.577 249.748 197.5 247.075 197.5 243.912C197.5 240.749 198.592 238.091 200.776 235.938C202.961 233.785 205.634 232.709 208.797 232.709C211.96 232.709 214.618 233.801 216.771 235.985C218.924 238.169 220 240.842 220 244.006C220 247.169 218.908 249.827 216.724 251.979C214.54 254.132 211.867 255.209 208.703 255.209ZM261.412 255.209C258.249 255.209 255.591 254.117 253.438 251.933C251.285 249.748 250.209 247.075 250.209 243.912C250.209 240.749 251.301 238.091 253.485 235.938C255.669 233.785 258.342 232.709 261.506 232.709C264.669 232.709 267.327 233.801 269.479 235.985C271.632 238.169 272.709 240.842 272.709 244.006C272.709 247.169 271.617 249.827 269.433 251.979C267.248 254.132 264.575 255.209 261.412 255.209ZM235 305.834C254.775 305.834 271.524 298.962 285.248 285.22C298.972 271.477 305.834 254.705 305.834 234.903C305.834 231.357 305.556 227.848 305 224.375C304.445 220.903 303.75 217.709 302.917 214.792C300.139 215.486 297.135 215.973 293.904 216.25C290.673 216.528 287.289 216.667 283.75 216.667C270.262 216.667 257.515 213.889 245.509 208.334C233.503 202.778 223.264 194.861 214.792 184.584C210.07 195.834 203.299 205.66 194.479 214.063C185.66 222.466 175.556 228.959 164.167 233.542V235C164.167 254.775 171.029 271.524 184.753 285.248C198.477 298.972 215.226 305.834 235 305.834ZM235 318.334C223.473 318.334 212.639 316.146 202.5 311.771C192.361 307.396 183.542 301.459 176.042 293.959C168.542 286.459 162.604 277.639 158.229 267.5C153.854 257.361 151.667 246.528 151.667 235C151.667 223.473 153.854 212.639 158.229 202.5C162.604 192.361 168.542 183.542 176.042 176.042C183.542 168.542 192.361 162.604 202.5 158.229C212.639 153.854 223.473 151.667 235 151.667C246.528 151.667 257.361 153.854 267.5 158.229C277.639 162.604 286.459 168.542 293.959 176.042C301.459 183.542 307.396 192.361 311.771 202.5C316.146 212.639 318.334 223.473 318.334 235C318.334 246.528 316.146 257.361 311.771 267.5C307.396 277.639 301.459 286.459 293.959 293.959C286.459 301.459 277.639 307.396 267.5 311.771C257.361 316.146 246.528 318.334 235 318.334ZM215.834 166.875C228.056 181.181 239.341 190.973 249.688 196.25C260.035 201.528 271.389 204.167 283.75 204.167C287.084 204.167 289.723 204.098 291.667 203.959C293.611 203.82 295.764 203.403 298.125 202.709C291.875 191.459 283.368 182.223 272.604 175C261.841 167.778 249.306 164.167 235 164.167C231.25 164.167 227.709 164.445 224.375 165C221.042 165.556 218.195 166.181 215.834 166.875ZM166.042 218.75C172.709 216.25 180.313 210.591 188.854 201.771C197.396 192.952 203.473 182.292 207.084 169.792C195 175.209 185.868 182.118 179.688 190.521C173.507 198.924 168.959 208.334 166.042 218.75Z" fill="white"/>
</g>
</svg>
