<svg width="470" height="471" viewBox="0 0 470 471" fill="none" xmlns="http://www.w3.org/2000/svg">
<rect x="0.333344" y="0.951904" width="469.333" height="469.333" rx="64" fill="#F7843A"/>
<path d="M229.826 281.279V282.479H231.026H238.915H240.115V281.279V255.219H266.378H267.578V254.019V246.019V244.819H266.378H240.115V218.759V217.559H238.915H231.026H229.826V218.759V244.819H203.622H202.422V246.019V254.019V255.219H203.622H229.826V281.279ZM176.429 314.157L177.278 313.313L176.429 314.157C179.493 317.241 183.136 318.819 187.308 318.819H282.692C286.864 318.819 290.507 317.241 293.571 314.157L292.72 313.311L293.571 314.157C296.636 311.073 298.2 307.409 298.2 303.219V196.879C298.2 192.688 296.636 189.024 293.571 185.94L292.72 186.786L293.571 185.94C290.507 182.856 286.864 181.279 282.692 181.279H187.308C183.136 181.279 179.493 182.856 176.429 185.94L176.429 185.94C173.364 189.024 171.8 192.688 171.8 196.879V303.219C171.8 307.409 173.364 311.073 176.429 314.157ZM176.569 161.619V162.819H177.769H292.29H293.49V161.619V153.619V152.419H292.29H177.769H176.569V153.619V161.619ZM282.692 308.418H187.308C186.095 308.418 184.931 307.924 183.787 306.773C182.644 305.622 182.149 304.447 182.149 303.219V196.879C182.149 195.651 182.644 194.475 183.787 193.325C184.931 192.173 186.095 191.679 187.308 191.679H282.692C283.905 191.679 285.069 192.173 286.213 193.325C287.356 194.475 287.851 195.651 287.851 196.879V303.219C287.851 304.447 287.356 305.622 286.213 306.773C285.069 307.924 283.905 308.418 282.692 308.418Z" fill="white" stroke="white" stroke-width="2.4"/>
</svg>
