<svg width="470" height="470" viewBox="0 0 470 470" fill="none" xmlns="http://www.w3.org/2000/svg">
<rect x="0.333984" y="0.333496" width="469.333" height="469.333" rx="64" fill="#F7843A"/>
<mask id="mask0_3_71" style="mask-type:alpha" maskUnits="userSpaceOnUse" x="135" y="135" width="200" height="201">
<rect x="135" y="135" width="200" height="200" fill="#D9D9D9"/>
</mask>
<g mask="url(#mask0_3_71)">
<path d="M235 234.792C225.833 234.792 218.333 231.875 212.5 226.042C206.666 220.209 203.75 212.709 203.75 203.542C203.75 194.375 206.666 186.875 212.5 181.042C218.333 175.209 225.833 172.292 235 172.292C244.166 172.292 251.666 175.209 257.5 181.042C263.333 186.875 266.25 194.375 266.25 203.542C266.25 212.709 263.333 220.209 257.5 226.042C251.666 231.875 244.166 234.792 235 234.792ZM168.333 301.667V282.084C168.333 276.806 169.652 272.292 172.291 268.542C174.93 264.792 178.333 261.945 182.5 260C191.805 255.834 200.729 252.709 209.271 250.625C217.812 248.542 226.389 247.5 235 247.5C243.611 247.5 252.152 248.577 260.625 250.729C269.097 252.882 277.98 255.986 287.275 260.041C291.622 262.003 295.108 264.848 297.731 268.575C300.355 272.303 301.666 276.806 301.666 282.084V301.667H168.333ZM180.833 289.167H289.166V282.084C289.166 279.861 288.507 277.743 287.187 275.729C285.868 273.716 284.236 272.223 282.291 271.25C273.402 266.945 265.277 263.993 257.916 262.396C250.555 260.799 242.916 260 235 260C227.083 260 219.375 260.799 211.875 262.396C204.375 263.993 196.25 266.945 187.5 271.25C185.555 272.223 183.958 273.716 182.708 275.729C181.458 277.743 180.833 279.861 180.833 282.084V289.167ZM235 222.292C240.416 222.292 244.896 220.521 248.437 216.979C251.979 213.438 253.75 208.959 253.75 203.542C253.75 198.125 251.979 193.646 248.437 190.104C244.896 186.563 240.416 184.792 235 184.792C229.583 184.792 225.104 186.563 221.562 190.104C218.021 193.646 216.25 198.125 216.25 203.542C216.25 208.959 218.021 213.438 221.562 216.979C225.104 220.521 229.583 222.292 235 222.292Z" fill="white"/>
</g>
</svg>
