<svg width="470" height="471" viewBox="0 0 470 471" fill="none" xmlns="http://www.w3.org/2000/svg">
<rect x="0.333374" y="0.951904" width="469.333" height="469.333" rx="64" fill="#F7843A"/>
<path d="M212.627 320.619V321.769H213.777H221.637H222.787V320.619V255.154C222.787 248.062 220.301 241.995 215.345 237.023C210.389 232.05 204.342 229.553 197.271 229.553H183.122H181.972V230.703V238.591V239.741H183.122H197.271C201.643 239.741 205.263 241.227 208.207 244.201C211.154 247.178 212.627 250.819 212.627 255.199C212.627 259.578 211.154 263.202 208.211 266.148C205.267 269.093 201.647 270.567 197.271 270.567C184.812 270.567 174.528 266.052 166.336 257.004C158.119 247.93 154.01 237.08 154.01 224.393V207.83C154.01 195.143 158.119 184.293 166.336 175.219C174.528 166.171 184.812 161.656 197.271 161.656C201.643 161.656 205.263 163.142 208.207 166.117L208.207 166.117C211.154 169.093 212.627 172.734 212.627 177.114C212.627 181.494 211.154 185.118 208.211 188.063C205.267 191.009 201.647 192.483 197.271 192.483H183.122H181.972V193.633V201.52V202.67H183.122H197.271C204.341 202.67 210.388 200.178 215.344 195.214L214.531 194.402L215.344 195.214C220.301 190.25 222.787 184.185 222.787 177.088C222.787 169.991 220.301 163.92 215.346 158.944L214.531 159.755L215.346 158.944C210.39 153.967 204.342 151.469 197.271 151.469C182.186 151.469 169.478 157.022 159.219 168.095C148.975 179.152 143.85 192.417 143.85 207.83V224.393C143.85 239.806 148.975 253.071 159.219 264.128C169.478 275.201 182.186 280.755 197.271 280.755C200.549 280.755 203.662 280.177 206.601 279.018C208.763 278.165 210.772 277.035 212.627 275.631V320.619ZM247.213 320.619V321.769H248.363H256.223H257.373V320.619V275.631C259.228 277.035 261.237 278.165 263.399 279.018C266.338 280.177 269.451 280.755 272.729 280.755C287.814 280.755 300.522 275.201 310.781 264.128C321.025 253.071 326.15 239.806 326.15 224.393V207.83C326.15 192.417 321.025 179.152 310.781 168.095C300.522 157.022 287.814 151.469 272.729 151.469C265.659 151.469 259.612 153.961 254.656 158.925C249.699 163.889 247.213 169.954 247.213 177.051C247.213 184.148 249.699 190.218 254.654 195.195C259.61 200.171 265.658 202.67 272.729 202.67H286.878H288.028V201.52V193.633V192.483H286.878H272.729C268.357 192.483 264.737 190.996 261.793 188.022C258.846 185.045 257.373 181.404 257.373 177.024C257.373 172.645 258.846 169.021 261.789 166.075C264.733 163.13 268.353 161.656 272.729 161.656C285.188 161.656 295.472 166.171 303.664 175.219C311.881 184.293 315.99 195.143 315.99 207.83V224.393C315.99 237.08 311.881 247.93 303.664 257.004C295.472 266.052 285.188 270.567 272.729 270.567C268.357 270.567 264.737 269.081 261.793 266.107L260.976 266.916L261.793 266.107C258.846 263.13 257.373 259.489 257.373 255.109C257.373 250.729 258.846 247.105 261.789 244.16C264.733 241.214 268.353 239.741 272.729 239.741H286.878H288.028V238.591V230.703V229.553H286.878H272.729C265.658 229.553 259.611 232.05 254.655 237.023C249.699 241.995 247.213 248.062 247.213 255.154V320.619Z" fill="white" stroke="white" stroke-width="2.3"/>
</svg>
