<svg width="470" height="471" viewBox="0 0 470 471" fill="none" xmlns="http://www.w3.org/2000/svg">
<rect x="0.333344" y="0.951843" width="469.333" height="469.333" rx="64" fill="#F7843A"/>
<mask id="path-2-outside-1_3_2" maskUnits="userSpaceOnUse" x="153" y="153.619" width="164" height="165" fill="black">
<rect fill="white" x="153" y="153.619" width="164" height="165"/>
<path d="M212.346 316.619C204.978 316.619 198.694 313.985 193.493 308.719C188.292 303.453 185.534 297.276 185.218 290.187C177.168 288.993 170.435 285.232 165.019 278.904C159.604 272.576 156.896 265.063 156.896 256.366C156.896 253.326 157.284 250.341 158.062 247.41C158.839 244.479 160.005 241.708 161.559 239.097C159.373 236.156 157.733 233.002 156.64 229.635C155.547 226.268 155 222.616 155 218.68C155 210.001 157.967 202.496 163.901 196.165C169.834 189.834 177.104 186.222 185.711 185.33C185.711 184.827 185.679 184.325 185.616 183.822C185.553 183.319 185.521 182.753 185.521 182.125C185.597 174.672 188.223 168.391 193.398 163.282C198.573 158.173 204.908 155.619 212.403 155.619C217.42 155.619 221.588 156.571 224.905 158.475C228.223 160.379 231.588 163.279 235 167.175C238.539 163.279 241.894 160.379 245.066 158.475C248.239 156.571 252.397 155.619 257.54 155.619C264.691 155.619 270.858 158.204 276.041 163.376C281.224 168.548 283.872 174.798 283.986 182.125V183.916C283.986 184.482 283.922 184.953 283.796 185.33C292.441 186.021 299.803 189.544 305.882 195.897C311.961 202.25 315 209.844 315 218.68C315 222.616 314.381 226.309 313.142 229.758C311.904 233.206 310.254 236.338 308.194 239.154C309.749 241.919 310.956 244.796 311.815 247.787C312.674 250.777 313.104 253.838 313.104 256.969C313.104 265.667 310.396 273.11 304.981 279.3C299.565 285.49 292.769 289.119 284.592 290.187C284.276 297.276 281.54 303.453 276.384 308.719C271.227 313.985 265.047 316.619 257.843 316.619C252.409 316.619 248.137 315.676 245.028 313.791C241.919 311.905 238.577 308.952 235 304.93C231.423 308.952 228.049 311.905 224.877 313.791C221.705 315.676 217.528 316.619 212.346 316.619ZM238.792 181.446V290.791C238.792 295.871 240.657 300.189 244.387 303.744C248.117 307.3 252.648 309.077 257.982 309.077C263.084 309.077 267.449 307.198 271.076 303.441C274.703 299.683 276.681 295.403 277.009 290.602C271.967 290.175 267.297 288.764 263 286.37C258.703 283.975 255.152 280.767 252.346 276.745C251.537 275.954 251.229 275.069 251.421 274.09C251.613 273.112 252.181 272.263 253.123 271.542C254.046 270.863 255.023 270.62 256.055 270.811C257.087 271.002 257.917 271.566 258.545 272.504C260.892 275.989 263.92 278.623 267.632 280.406C271.343 282.189 275.278 283.08 279.436 283.08C286.817 283.08 293.009 280.61 298.014 275.671C303.019 270.732 305.521 264.498 305.521 256.969C305.521 254.912 305.294 252.909 304.839 250.958C304.384 249.008 303.739 247.028 302.905 245.017C300.074 247.392 296.823 249.237 293.152 250.55C289.48 251.863 285.641 252.52 281.635 252.52C280.517 252.52 279.605 252.169 278.9 251.467C278.196 250.765 277.843 249.857 277.843 248.743C277.843 247.629 278.196 246.723 278.9 246.025C279.605 245.328 280.517 244.979 281.635 244.979C288.889 244.979 295 242.44 299.967 237.363C304.933 232.285 307.417 226.058 307.417 218.68C307.417 211.662 304.927 205.646 299.948 200.634C294.968 195.622 289.016 192.953 282.09 192.626C280.7 196.17 278.643 199.265 275.919 201.911C273.196 204.556 270.052 206.552 266.488 207.896C265.528 208.211 264.577 208.18 263.636 207.805C262.696 207.43 262.104 206.744 261.863 205.747C261.585 204.792 261.603 203.846 261.919 202.91C262.235 201.974 262.937 201.304 264.024 200.902C267.866 199.545 270.889 197.176 273.095 193.795C275.3 190.414 276.403 186.625 276.403 182.427C276.403 177.123 274.554 172.586 270.857 168.815C267.159 165.045 262.736 163.159 257.586 163.159C252.437 163.159 248.017 164.937 244.327 168.493C240.637 172.048 238.792 176.366 238.792 181.446ZM231.208 290.791V181.446C231.208 176.366 229.369 172.048 225.691 168.493C222.012 164.937 217.579 163.159 212.392 163.159C207.243 163.159 202.782 165.047 199.01 168.823C195.237 172.598 193.351 177.164 193.351 182.521C193.351 186.782 194.476 190.562 196.725 193.861C198.975 197.16 201.957 199.425 205.673 200.657C206.76 201.059 207.534 201.729 207.995 202.665C208.457 203.601 208.559 204.542 208.303 205.487C207.836 206.469 207.1 207.186 206.097 207.636C205.094 208.086 204.049 208.091 202.962 207.651C199.398 206.344 196.296 204.399 193.654 201.816C191.013 199.234 188.934 196.17 187.417 192.626C180.656 193.116 174.826 195.84 169.929 200.798C165.032 205.757 162.583 211.737 162.583 218.741C162.583 226.078 165.067 232.285 170.033 237.363C175 242.44 181.111 244.979 188.365 244.979C189.483 244.979 190.395 245.33 191.1 246.032C191.804 246.734 192.157 247.642 192.157 248.756C192.157 249.87 191.804 250.776 191.1 251.474C190.395 252.171 189.483 252.52 188.365 252.52C184.359 252.52 180.52 251.854 176.848 250.522C173.177 249.189 169.926 247.355 167.095 245.017C166.223 246.952 165.569 248.854 165.133 250.723C164.697 252.591 164.479 254.554 164.479 256.611C164.479 264.139 166.972 270.433 171.957 275.492C176.943 280.551 183.063 283.08 190.318 283.08C194.601 283.08 198.557 282.137 202.185 280.252C205.812 278.367 208.883 275.784 211.398 272.504C212.026 271.73 212.866 271.206 213.917 270.933C214.967 270.66 215.935 270.832 216.82 271.448C217.578 272.189 218.068 273.069 218.289 274.087C218.51 275.105 218.28 275.991 217.597 276.745C214.665 280.767 211.06 283.975 206.782 286.37C202.504 288.764 197.907 290.112 192.991 290.413C193.193 295.34 195.171 299.683 198.924 303.441C202.678 307.198 207.125 309.077 212.265 309.077C217.472 309.077 221.931 307.3 225.642 303.744C229.353 300.189 231.208 295.871 231.208 290.791Z"/>
</mask>
<path d="M212.346 316.619C204.978 316.619 198.694 313.985 193.493 308.719C188.292 303.453 185.534 297.276 185.218 290.187C177.168 288.993 170.435 285.232 165.019 278.904C159.604 272.576 156.896 265.063 156.896 256.366C156.896 253.326 157.284 250.341 158.062 247.41C158.839 244.479 160.005 241.708 161.559 239.097C159.373 236.156 157.733 233.002 156.64 229.635C155.547 226.268 155 222.616 155 218.68C155 210.001 157.967 202.496 163.901 196.165C169.834 189.834 177.104 186.222 185.711 185.33C185.711 184.827 185.679 184.325 185.616 183.822C185.553 183.319 185.521 182.753 185.521 182.125C185.597 174.672 188.223 168.391 193.398 163.282C198.573 158.173 204.908 155.619 212.403 155.619C217.42 155.619 221.588 156.571 224.905 158.475C228.223 160.379 231.588 163.279 235 167.175C238.539 163.279 241.894 160.379 245.066 158.475C248.239 156.571 252.397 155.619 257.54 155.619C264.691 155.619 270.858 158.204 276.041 163.376C281.224 168.548 283.872 174.798 283.986 182.125V183.916C283.986 184.482 283.922 184.953 283.796 185.33C292.441 186.021 299.803 189.544 305.882 195.897C311.961 202.25 315 209.844 315 218.68C315 222.616 314.381 226.309 313.142 229.758C311.904 233.206 310.254 236.338 308.194 239.154C309.749 241.919 310.956 244.796 311.815 247.787C312.674 250.777 313.104 253.838 313.104 256.969C313.104 265.667 310.396 273.11 304.981 279.3C299.565 285.49 292.769 289.119 284.592 290.187C284.276 297.276 281.54 303.453 276.384 308.719C271.227 313.985 265.047 316.619 257.843 316.619C252.409 316.619 248.137 315.676 245.028 313.791C241.919 311.905 238.577 308.952 235 304.93C231.423 308.952 228.049 311.905 224.877 313.791C221.705 315.676 217.528 316.619 212.346 316.619ZM238.792 181.446V290.791C238.792 295.871 240.657 300.189 244.387 303.744C248.117 307.3 252.648 309.077 257.982 309.077C263.084 309.077 267.449 307.198 271.076 303.441C274.703 299.683 276.681 295.403 277.009 290.602C271.967 290.175 267.297 288.764 263 286.37C258.703 283.975 255.152 280.767 252.346 276.745C251.537 275.954 251.229 275.069 251.421 274.09C251.613 273.112 252.181 272.263 253.123 271.542C254.046 270.863 255.023 270.62 256.055 270.811C257.087 271.002 257.917 271.566 258.545 272.504C260.892 275.989 263.92 278.623 267.632 280.406C271.343 282.189 275.278 283.08 279.436 283.08C286.817 283.08 293.009 280.61 298.014 275.671C303.019 270.732 305.521 264.498 305.521 256.969C305.521 254.912 305.294 252.909 304.839 250.958C304.384 249.008 303.739 247.028 302.905 245.017C300.074 247.392 296.823 249.237 293.152 250.55C289.48 251.863 285.641 252.52 281.635 252.52C280.517 252.52 279.605 252.169 278.9 251.467C278.196 250.765 277.843 249.857 277.843 248.743C277.843 247.629 278.196 246.723 278.9 246.025C279.605 245.328 280.517 244.979 281.635 244.979C288.889 244.979 295 242.44 299.967 237.363C304.933 232.285 307.417 226.058 307.417 218.68C307.417 211.662 304.927 205.646 299.948 200.634C294.968 195.622 289.016 192.953 282.09 192.626C280.7 196.17 278.643 199.265 275.919 201.911C273.196 204.556 270.052 206.552 266.488 207.896C265.528 208.211 264.577 208.18 263.636 207.805C262.696 207.43 262.104 206.744 261.863 205.747C261.585 204.792 261.603 203.846 261.919 202.91C262.235 201.974 262.937 201.304 264.024 200.902C267.866 199.545 270.889 197.176 273.095 193.795C275.3 190.414 276.403 186.625 276.403 182.427C276.403 177.123 274.554 172.586 270.857 168.815C267.159 165.045 262.736 163.159 257.586 163.159C252.437 163.159 248.017 164.937 244.327 168.493C240.637 172.048 238.792 176.366 238.792 181.446ZM231.208 290.791V181.446C231.208 176.366 229.369 172.048 225.691 168.493C222.012 164.937 217.579 163.159 212.392 163.159C207.243 163.159 202.782 165.047 199.01 168.823C195.237 172.598 193.351 177.164 193.351 182.521C193.351 186.782 194.476 190.562 196.725 193.861C198.975 197.16 201.957 199.425 205.673 200.657C206.76 201.059 207.534 201.729 207.995 202.665C208.457 203.601 208.559 204.542 208.303 205.487C207.836 206.469 207.1 207.186 206.097 207.636C205.094 208.086 204.049 208.091 202.962 207.651C199.398 206.344 196.296 204.399 193.654 201.816C191.013 199.234 188.934 196.17 187.417 192.626C180.656 193.116 174.826 195.84 169.929 200.798C165.032 205.757 162.583 211.737 162.583 218.741C162.583 226.078 165.067 232.285 170.033 237.363C175 242.44 181.111 244.979 188.365 244.979C189.483 244.979 190.395 245.33 191.1 246.032C191.804 246.734 192.157 247.642 192.157 248.756C192.157 249.87 191.804 250.776 191.1 251.474C190.395 252.171 189.483 252.52 188.365 252.52C184.359 252.52 180.52 251.854 176.848 250.522C173.177 249.189 169.926 247.355 167.095 245.017C166.223 246.952 165.569 248.854 165.133 250.723C164.697 252.591 164.479 254.554 164.479 256.611C164.479 264.139 166.972 270.433 171.957 275.492C176.943 280.551 183.063 283.08 190.318 283.08C194.601 283.08 198.557 282.137 202.185 280.252C205.812 278.367 208.883 275.784 211.398 272.504C212.026 271.73 212.866 271.206 213.917 270.933C214.967 270.66 215.935 270.832 216.82 271.448C217.578 272.189 218.068 273.069 218.289 274.087C218.51 275.105 218.28 275.991 217.597 276.745C214.665 280.767 211.06 283.975 206.782 286.37C202.504 288.764 197.907 290.112 192.991 290.413C193.193 295.34 195.171 299.683 198.924 303.441C202.678 307.198 207.125 309.077 212.265 309.077C217.472 309.077 221.931 307.3 225.642 303.744C229.353 300.189 231.208 295.871 231.208 290.791Z" fill="white"/>
<path d="M212.346 316.619C204.978 316.619 198.694 313.985 193.493 308.719C188.292 303.453 185.534 297.276 185.218 290.187C177.168 288.993 170.435 285.232 165.019 278.904C159.604 272.576 156.896 265.063 156.896 256.366C156.896 253.326 157.284 250.341 158.062 247.41C158.839 244.479 160.005 241.708 161.559 239.097C159.373 236.156 157.733 233.002 156.64 229.635C155.547 226.268 155 222.616 155 218.68C155 210.001 157.967 202.496 163.901 196.165C169.834 189.834 177.104 186.222 185.711 185.33C185.711 184.827 185.679 184.325 185.616 183.822C185.553 183.319 185.521 182.753 185.521 182.125C185.597 174.672 188.223 168.391 193.398 163.282C198.573 158.173 204.908 155.619 212.403 155.619C217.42 155.619 221.588 156.571 224.905 158.475C228.223 160.379 231.588 163.279 235 167.175C238.539 163.279 241.894 160.379 245.066 158.475C248.239 156.571 252.397 155.619 257.54 155.619C264.691 155.619 270.858 158.204 276.041 163.376C281.224 168.548 283.872 174.798 283.986 182.125V183.916C283.986 184.482 283.922 184.953 283.796 185.33C292.441 186.021 299.803 189.544 305.882 195.897C311.961 202.25 315 209.844 315 218.68C315 222.616 314.381 226.309 313.142 229.758C311.904 233.206 310.254 236.338 308.194 239.154C309.749 241.919 310.956 244.796 311.815 247.787C312.674 250.777 313.104 253.838 313.104 256.969C313.104 265.667 310.396 273.11 304.981 279.3C299.565 285.49 292.769 289.119 284.592 290.187C284.276 297.276 281.54 303.453 276.384 308.719C271.227 313.985 265.047 316.619 257.843 316.619C252.409 316.619 248.137 315.676 245.028 313.791C241.919 311.905 238.577 308.952 235 304.93C231.423 308.952 228.049 311.905 224.877 313.791C221.705 315.676 217.528 316.619 212.346 316.619ZM238.792 181.446V290.791C238.792 295.871 240.657 300.189 244.387 303.744C248.117 307.3 252.648 309.077 257.982 309.077C263.084 309.077 267.449 307.198 271.076 303.441C274.703 299.683 276.681 295.403 277.009 290.602C271.967 290.175 267.297 288.764 263 286.37C258.703 283.975 255.152 280.767 252.346 276.745C251.537 275.954 251.229 275.069 251.421 274.09C251.613 273.112 252.181 272.263 253.123 271.542C254.046 270.863 255.023 270.62 256.055 270.811C257.087 271.002 257.917 271.566 258.545 272.504C260.892 275.989 263.92 278.623 267.632 280.406C271.343 282.189 275.278 283.08 279.436 283.08C286.817 283.08 293.009 280.61 298.014 275.671C303.019 270.732 305.521 264.498 305.521 256.969C305.521 254.912 305.294 252.909 304.839 250.958C304.384 249.008 303.739 247.028 302.905 245.017C300.074 247.392 296.823 249.237 293.152 250.55C289.48 251.863 285.641 252.52 281.635 252.52C280.517 252.52 279.605 252.169 278.9 251.467C278.196 250.765 277.843 249.857 277.843 248.743C277.843 247.629 278.196 246.723 278.9 246.025C279.605 245.328 280.517 244.979 281.635 244.979C288.889 244.979 295 242.44 299.967 237.363C304.933 232.285 307.417 226.058 307.417 218.68C307.417 211.662 304.927 205.646 299.948 200.634C294.968 195.622 289.016 192.953 282.09 192.626C280.7 196.17 278.643 199.265 275.919 201.911C273.196 204.556 270.052 206.552 266.488 207.896C265.528 208.211 264.577 208.18 263.636 207.805C262.696 207.43 262.104 206.744 261.863 205.747C261.585 204.792 261.603 203.846 261.919 202.91C262.235 201.974 262.937 201.304 264.024 200.902C267.866 199.545 270.889 197.176 273.095 193.795C275.3 190.414 276.403 186.625 276.403 182.427C276.403 177.123 274.554 172.586 270.857 168.815C267.159 165.045 262.736 163.159 257.586 163.159C252.437 163.159 248.017 164.937 244.327 168.493C240.637 172.048 238.792 176.366 238.792 181.446ZM231.208 290.791V181.446C231.208 176.366 229.369 172.048 225.691 168.493C222.012 164.937 217.579 163.159 212.392 163.159C207.243 163.159 202.782 165.047 199.01 168.823C195.237 172.598 193.351 177.164 193.351 182.521C193.351 186.782 194.476 190.562 196.725 193.861C198.975 197.16 201.957 199.425 205.673 200.657C206.76 201.059 207.534 201.729 207.995 202.665C208.457 203.601 208.559 204.542 208.303 205.487C207.836 206.469 207.1 207.186 206.097 207.636C205.094 208.086 204.049 208.091 202.962 207.651C199.398 206.344 196.296 204.399 193.654 201.816C191.013 199.234 188.934 196.17 187.417 192.626C180.656 193.116 174.826 195.84 169.929 200.798C165.032 205.757 162.583 211.737 162.583 218.741C162.583 226.078 165.067 232.285 170.033 237.363C175 242.44 181.111 244.979 188.365 244.979C189.483 244.979 190.395 245.33 191.1 246.032C191.804 246.734 192.157 247.642 192.157 248.756C192.157 249.87 191.804 250.776 191.1 251.474C190.395 252.171 189.483 252.52 188.365 252.52C184.359 252.52 180.52 251.854 176.848 250.522C173.177 249.189 169.926 247.355 167.095 245.017C166.223 246.952 165.569 248.854 165.133 250.723C164.697 252.591 164.479 254.554 164.479 256.611C164.479 264.139 166.972 270.433 171.957 275.492C176.943 280.551 183.063 283.08 190.318 283.08C194.601 283.08 198.557 282.137 202.185 280.252C205.812 278.367 208.883 275.784 211.398 272.504C212.026 271.73 212.866 271.206 213.917 270.933C214.967 270.66 215.935 270.832 216.82 271.448C217.578 272.189 218.068 273.069 218.289 274.087C218.51 275.105 218.28 275.991 217.597 276.745C214.665 280.767 211.06 283.975 206.782 286.37C202.504 288.764 197.907 290.112 192.991 290.413C193.193 295.34 195.171 299.683 198.924 303.441C202.678 307.198 207.125 309.077 212.265 309.077C217.472 309.077 221.931 307.3 225.642 303.744C229.353 300.189 231.208 295.871 231.208 290.791Z" stroke="white" stroke-width="4" mask="url(#path-2-outside-1_3_2)"/>
</svg>
