<svg width="470" height="471" viewBox="0 0 470 471" fill="none" xmlns="http://www.w3.org/2000/svg">
<rect x="0.333374" y="0.951904" width="469.333" height="469.333" rx="64" fill="#F7843A"/>
<path d="M141.866 235.592L141.622 236.119L141.866 236.645C150.448 255.13 163.066 269.962 179.71 281.118C196.368 292.283 214.818 297.869 235.025 297.869C255.233 297.869 273.674 292.283 290.316 281.117C306.943 269.962 319.553 255.129 328.134 236.645L328.378 236.119L328.134 235.592C319.552 217.107 306.934 202.275 290.29 191.119C273.632 179.954 255.182 174.369 234.975 174.369C214.767 174.369 196.326 179.954 179.684 191.12L180.38 192.158L179.684 191.12C163.057 202.275 150.447 217.108 141.866 235.592ZM284.155 198.268L284.828 197.214L284.155 198.268C298.853 207.658 310.116 220.267 317.959 236.119C310.116 251.969 298.84 264.579 284.117 273.969C269.231 283.463 252.855 288.209 234.961 288.209C217.067 288.209 200.705 283.463 185.845 273.969L185.172 275.023L185.845 273.969C171.147 264.579 159.866 251.97 151.989 236.119C159.866 220.268 171.16 207.658 185.883 198.268L185.211 197.214L185.883 198.268C200.769 188.774 217.145 184.028 235.039 184.028C252.933 184.028 269.295 188.774 284.155 198.268ZM235.069 270.304C244.43 270.304 252.461 266.931 259.094 260.224C265.725 253.519 269.056 245.438 269.056 236.049C269.056 226.657 265.699 218.596 259.018 211.937C252.339 205.28 244.288 201.933 234.931 201.933C225.57 201.933 217.539 205.306 210.906 212.013C204.275 218.718 200.944 226.799 200.944 236.188C200.944 245.581 204.301 253.641 210.982 260.3C217.661 266.957 225.712 270.304 235.069 270.304ZM234.914 260.393C228.157 260.393 222.485 258.034 217.82 253.296C213.152 248.555 210.825 242.825 210.825 236.032C210.825 229.244 213.177 223.548 217.896 218.865C222.619 214.178 228.324 211.844 235.086 211.844C241.843 211.844 247.515 214.203 252.18 218.941C256.848 223.682 259.175 229.412 259.175 236.205C259.175 242.993 256.823 248.689 252.104 253.372C247.381 258.059 241.676 260.393 234.914 260.393Z" fill="white" stroke="white" stroke-width="2.5"/>
</svg>
