<svg width="470" height="471" viewBox="0 0 470 471" fill="none" xmlns="http://www.w3.org/2000/svg">
<rect x="0.333374" y="0.951843" width="469.333" height="469.333" rx="64" fill="#F7843A"/>
<path d="M195.741 312.033L195.685 312.012C193.705 311.259 192.043 309.973 190.704 308.203C189.335 306.394 188.63 304.364 188.63 302.152V296.618H182.476C180.268 296.618 178.354 295.896 176.846 294.405C175.337 292.914 174.6 291.014 174.6 288.818V277.168C174.6 274.908 175.324 272.962 176.852 271.47C178.361 269.997 180.274 269.285 182.476 269.285H188.63V245.774H182.476C180.268 245.774 178.354 245.051 176.846 243.56C175.337 242.069 174.6 240.169 174.6 237.974V226.323C174.6 224.063 175.324 222.117 176.852 220.625C178.361 219.152 180.274 218.44 182.476 218.44H188.63V196.706H182.476C180.268 196.706 178.354 195.984 176.846 194.493C175.337 193.002 174.6 191.102 174.6 188.907V177.256C174.6 174.996 175.324 173.05 176.852 171.558L177.83 172.56L176.852 171.558C178.361 170.085 180.274 169.373 182.476 169.373H188.63V159.573C188.63 157.043 189.572 154.969 191.553 153.596L195.741 312.033ZM195.741 312.033L195.8 312.05C199.389 313.07 204.407 314.478 210.853 316.274C217.46 318.114 225.518 319.019 235 319.019C244.482 319.019 252.54 318.114 259.147 316.274C265.593 314.478 270.611 313.07 274.2 312.05L274.259 312.033L274.315 312.012C276.295 311.259 277.957 309.973 279.296 308.203C280.665 306.394 281.37 304.364 281.37 302.152V296.618H287.524C289.726 296.618 291.639 295.907 293.148 294.433C294.676 292.942 295.4 290.995 295.4 288.735V277.085C295.4 274.889 294.663 272.99 293.154 271.498C291.646 270.008 289.732 269.285 287.524 269.285H281.37V245.774H287.524C289.726 245.774 291.639 245.062 293.148 243.589C294.676 242.097 295.4 240.151 295.4 237.89V226.24C295.4 224.045 294.663 222.145 293.154 220.653C291.646 219.163 289.732 218.44 287.524 218.44H281.37V196.706H287.524C289.726 196.706 291.639 195.995 293.148 194.522C294.676 193.03 295.4 191.084 295.4 188.823V177.173C295.4 174.978 294.663 173.078 293.154 171.586C291.646 170.096 289.732 169.373 287.524 169.373H281.37V159.395C281.37 156.824 280.438 154.72 278.432 153.366C276.454 152.03 274.186 151.9 271.816 152.773C267.403 154.174 261.973 155.577 255.515 156.978C249.123 158.365 242.286 159.062 235 159.062C227.71 159.062 220.869 158.394 214.473 157.064L214.473 157.064C208.018 155.722 202.592 154.35 198.184 152.951M195.741 312.033L198.184 152.951M198.184 152.951C195.805 152.075 193.53 152.225 191.553 153.596L198.184 152.951ZM198.626 211.945C203.724 213.39 209.091 214.615 214.725 215.618C221.069 216.748 227.828 217.311 235 217.311C242.181 217.311 249.009 216.679 255.479 215.409C261.187 214.29 266.486 213.114 271.374 211.883V254.413C266.555 256.037 261.173 257.486 255.223 258.756C248.944 260.096 242.204 260.769 235 260.769C227.796 260.769 221.056 260.096 214.777 258.756C208.827 257.486 203.445 256.037 198.626 254.413V211.945ZM198.626 265.314C203.726 266.76 209.102 267.984 214.753 268.988C221.113 270.117 227.833 270.68 234.911 270.68C242.106 270.68 248.886 270.118 255.247 268.988C260.898 267.984 266.274 266.76 271.374 265.314V302.591C266.548 304.219 261.115 305.695 255.072 307.015C248.696 308.409 242.006 309.107 235 309.107C228.031 309.107 221.35 308.409 214.954 307.015C208.894 305.695 203.453 304.219 198.626 302.591V265.314ZM255.239 205.499C248.954 206.764 242.209 207.4 235 207.4C227.827 207.4 221.091 206.764 214.788 205.499C208.826 204.301 203.44 202.892 198.626 201.274V163.155C203.934 164.647 209.482 165.956 215.27 167.081C221.762 168.342 228.309 168.973 234.911 168.973C241.63 168.973 248.237 168.342 254.73 167.081C260.518 165.956 266.066 164.647 271.374 163.155V201.274C266.561 202.892 261.184 204.301 255.239 205.499Z" fill="white" stroke="white" stroke-width="2.8"/>
</svg>
