<svg width="60" height="60" viewBox="0 0 60 60" fill="none" xmlns="http://www.w3.org/2000/svg">
<path d="M51.874 8.12802C47.8146 4.07052 41.6983 2.68864 36.2852 4.61614C33.5496 5.58739 31.3502 7.90302 30.2158 10.933L27.2233 9.34677C24.6715 7.99302 21.4183 8.51614 19.3183 10.618L10.3577 19.5786C8.25397 21.6805 7.73272 24.9318 9.08647 27.4855L10.4458 30.0449C7.78522 31.2524 5.67959 33.4349 4.69897 36.058C2.64959 41.5311 3.99584 47.7393 8.13022 51.8736C10.9652 54.7105 14.7996 56.2499 18.7183 56.2499C20.029 56.2499 21.349 56.0774 22.6427 55.7249C25.7346 54.883 28.2883 52.5224 29.6533 49.3968L32.5183 50.9174C33.4671 51.4218 34.5115 51.6655 35.5596 51.6655C37.3296 51.6655 39.1052 50.968 40.4252 49.6461L49.3858 40.6874C51.4896 38.5836 52.0127 35.3324 50.6571 32.7805L49.084 29.8143C52.3652 28.4924 54.8477 25.8543 55.7215 22.6574C57.1371 17.4805 55.6633 11.9136 51.874 8.12802ZM11.6833 20.9024L20.644 11.9418C22.1683 10.4174 24.5158 10.0311 26.3458 11.0005L29.6346 12.7461C27.4333 20.5293 21.5758 26.1149 12.2065 29.3624L10.744 26.6061C9.77084 24.7743 10.159 22.4286 11.6833 20.9024ZM48.0583 39.358L39.0977 48.3168C37.5733 49.843 35.2296 50.2293 33.3958 49.258L30.2908 47.6099C30.2946 47.5968 30.3002 47.5855 30.304 47.5705C32.6833 38.4974 38.2465 32.8874 47.2765 30.4068L48.9996 33.6543C49.9727 35.488 49.5846 37.8318 48.0583 39.358ZM53.9121 22.1586C53.0871 25.1774 50.4846 27.6036 47.1227 28.4905C37.3183 31.0743 31.0502 37.3349 28.489 47.0961C27.6021 50.4768 25.1721 53.0886 22.1496 53.9136C17.629 55.1474 12.7652 53.8574 9.45397 50.5461C5.83897 46.9311 4.66147 41.5011 6.45397 36.7124C7.37647 34.2505 9.51772 32.2518 12.1821 31.3724C22.7852 27.8755 29.3271 21.5886 31.6221 12.6899C32.4096 9.63552 34.3877 7.27677 36.9115 6.38052C38.3308 5.87614 39.8046 5.63239 41.2708 5.63239C44.6927 5.63239 48.0621 6.96927 50.5465 9.45364C53.8615 12.7668 55.1515 17.6343 53.9121 22.1586Z" fill="black"/>
<path d="M41.3056 9.375C38.8137 9.375 36.4737 10.3462 34.7131 12.105C34.6212 12.1969 34.55 12.3056 34.5031 12.4256C30.3819 22.9537 22.955 30.3806 12.4287 34.5C12.3087 34.5469 12.1981 34.6181 12.1081 34.71C8.47438 38.3437 8.47438 44.2594 12.1081 47.8931C13.8687 49.6537 16.2106 50.625 18.7006 50.625C21.1906 50.625 23.5325 49.6538 25.2913 47.895C25.3944 47.7919 25.4712 47.6663 25.5181 47.5294C29.1744 36.5756 36.5806 29.1694 47.5325 25.5169C47.6712 25.4719 47.7969 25.3931 47.8981 25.29C51.5319 21.6562 51.5319 15.7406 47.8981 12.1069C46.1375 10.3462 43.7956 9.375 41.3056 9.375ZM46.7225 23.8088C35.3731 27.6619 27.6669 35.3663 23.8137 46.7175C20.9881 49.3931 16.1956 49.3294 13.4356 46.5694C10.5781 43.7119 10.535 39.0863 13.3044 36.1725C24.1737 31.8656 31.8687 24.1706 36.1775 13.2994C39.0031 10.6087 43.8069 10.6631 46.5744 13.4306C49.4225 16.2844 49.4731 20.8969 46.7225 23.8088Z" fill="black"/>
</svg>
