<svg width="470" height="470" viewBox="0 0 470 470" fill="none" xmlns="http://www.w3.org/2000/svg">
<rect x="0.333984" y="0.333496" width="469.333" height="469.333" rx="64" fill="#F7843A"/>
<mask id="mask0_3_73" style="mask-type:alpha" maskUnits="userSpaceOnUse" x="135" y="135" width="200" height="201">
<rect x="135" y="135.001" width="200" height="200" fill="#D9D9D9"/>
</mask>
<g mask="url(#mask0_3_73)">
<path d="M235 150.626C241.25 158.126 247.084 165.452 252.5 172.605C257.917 179.758 262.848 186.876 267.292 193.959L318.334 155.834V235.001C318.334 246.529 316.146 257.362 311.771 267.501C307.396 277.64 301.459 286.459 293.959 293.959C286.459 301.459 277.639 307.397 267.5 311.772C257.361 316.147 246.528 318.334 235 318.334C223.473 318.334 212.639 316.147 202.5 311.772C192.361 307.397 183.542 301.459 176.042 293.959C168.542 286.459 162.604 277.64 158.229 267.501C153.854 257.362 151.667 246.529 151.667 235.001V155.834L202.709 193.959C207.153 187.015 212.084 179.932 217.5 172.709C222.917 165.487 228.75 158.126 235 150.626ZM164.167 180.834V235.001C164.167 243.612 165.591 251.668 168.438 259.168C171.285 266.668 175.209 273.543 180.209 279.793C179.098 276.598 178.229 273.369 177.604 270.105C176.979 266.841 176.667 263.473 176.667 260.001C176.667 252.223 178.334 243.716 181.667 234.48C185 225.244 189.792 215.348 196.042 204.793L164.167 180.834ZM235 170.209C221.111 187.015 210 203.022 201.667 218.23C193.334 233.438 189.167 247.362 189.167 260.001C189.167 272.64 193.646 283.438 202.604 292.397C211.563 301.355 222.361 305.834 235 305.834C247.639 305.834 258.438 301.355 267.396 292.397C276.354 283.438 280.834 272.64 280.834 260.001C280.834 247.362 276.667 233.369 268.334 218.022C260 202.675 248.889 186.737 235 170.209ZM305.834 180.834L273.959 204.793C280.209 215.348 285 225.279 288.334 234.584C291.667 243.89 293.334 252.362 293.334 260.001C293.334 263.473 293.021 266.841 292.396 270.105C291.771 273.369 290.903 276.598 289.792 279.793C294.792 273.543 298.716 266.668 301.563 259.168C304.41 251.668 305.834 243.612 305.834 235.001V180.834Z" fill="white"/>
</g>
</svg>
