<svg width="470" height="470" viewBox="0 0 470 470" fill="none" xmlns="http://www.w3.org/2000/svg">
<rect x="0.333984" y="0.333496" width="469.333" height="469.333" rx="64" fill="#F7843A"/>
<mask id="mask0_3_74" style="mask-type:alpha" maskUnits="userSpaceOnUse" x="135" y="135" width="200" height="201">
<rect x="135" y="135.001" width="200" height="200" fill="#D9D9D9"/>
</mask>
<g mask="url(#mask0_3_74)">
<path d="M235 314.168C216.527 314.168 200.798 307.799 187.812 295.062C174.826 282.324 168.333 266.818 168.333 248.543C168.333 239.773 170.034 231.386 173.437 223.382C176.84 215.378 181.666 208.313 187.916 202.189L235 155.834L282.083 202.189C288.333 208.313 293.159 215.378 296.562 223.382C299.965 231.386 301.666 239.773 301.666 248.543C301.666 266.818 295.173 282.324 282.187 295.062C269.201 307.799 253.472 314.168 235 314.168ZM234.951 301.668C249.983 301.668 262.777 296.524 273.333 286.237C283.889 275.95 289.166 263.373 289.166 248.505C289.166 241.447 287.812 234.723 285.104 228.334C282.396 221.946 278.611 216.321 273.75 211.459L235 173.334L196.25 211.459C191.389 216.321 187.604 221.945 184.896 228.334C182.187 234.722 180.833 241.448 180.833 248.513C180.833 263.394 186.094 275.973 196.617 286.251C207.14 296.529 219.918 301.668 234.951 301.668Z" fill="white"/>
</g>
</svg>
