<svg width="470" height="470" viewBox="0 0 470 470" fill="none" xmlns="http://www.w3.org/2000/svg">
<rect x="0.333984" y="0.333496" width="469.333" height="469.333" rx="64" fill="#F7843A"/>
<mask id="mask0_3_76" style="mask-type:alpha" maskUnits="userSpaceOnUse" x="135" y="135" width="200" height="200">
<rect x="135" y="135" width="200" height="200" fill="#D9D9D9"/>
</mask>
<g mask="url(#mask0_3_76)">
<path d="M259.5 288C254.114 288 249.518 286.096 245.711 282.289C241.904 278.482 240 273.886 240 268.5V249H259.5C264.886 249 269.482 250.904 273.289 254.711C277.096 258.518 279 263.114 279 268.5V288H259.5Z" fill="white"/>
<path d="M172.5 318.334C169.167 318.334 166.25 317.084 163.75 314.584C161.25 312.084 160 309.167 160 305.834V176.667C160 173.334 161.25 170.417 163.75 167.917C166.25 165.417 169.167 164.167 172.5 164.167H186.042V151.667H199.583V164.167H270.417V151.667H283.958V164.167H297.5C300.833 164.167 303.75 165.417 306.25 167.917C308.75 170.417 310 173.334 310 176.667V305.834C310 309.167 308.75 312.084 306.25 314.584C303.75 317.084 300.833 318.334 297.5 318.334H172.5ZM172.5 305.834H297.5V216.25H172.5V305.834ZM172.5 203.75H297.5V176.667H172.5V203.75Z" fill="white"/>
</g>
</svg>
