<svg width="470" height="470" viewBox="0 0 470 470" fill="none" xmlns="http://www.w3.org/2000/svg">
<rect x="0.333984" y="0.333496" width="469.333" height="469.333" rx="64" fill="#F7843A"/>
<mask id="mask0_3_75" style="mask-type:alpha" maskUnits="userSpaceOnUse" x="135" y="135" width="200" height="200">
<rect x="135" y="135" width="200" height="200" fill="#D9D9D9"/>
</mask>
<g mask="url(#mask0_3_75)">
<path d="M220.625 318.334V280.834H201.667V215.417C201.667 208.473 203.611 203.056 207.5 199.167C211.389 195.278 216.771 193.334 223.646 193.334C230.521 193.334 235.799 195.625 239.479 200.209C243.16 204.792 245 209.861 245 215.417C252.223 216.25 257.917 219.132 262.084 224.063C266.25 228.993 268.334 235.209 268.334 242.709V260.834C268.334 271.879 259.379 280.834 248.334 280.834H236.042V318.334H220.625ZM223.767 182.084C219.589 182.084 216.007 180.596 213.021 177.621C210.035 174.646 208.542 171.07 208.542 166.892C208.542 162.714 210.029 159.132 213.004 156.146C215.98 153.16 219.556 151.667 223.734 151.667C227.911 151.667 231.493 153.154 234.479 156.129C237.466 159.105 238.959 162.681 238.959 166.859C238.959 171.036 237.471 174.618 234.496 177.604C231.521 180.591 227.945 182.084 223.767 182.084Z" fill="white"/>
</g>
</svg>
