<svg width="60" height="60" viewBox="0 0 60 60" fill="none" xmlns="http://www.w3.org/2000/svg">
<path d="M48.6422 48.7102C48.1195 46.8023 47.0812 45.0867 45.641 43.7484C44.843 43.0078 43.9277 42.3832 42.9047 41.8734C43.0301 41.2242 42.9738 40.5469 42.7301 39.9129C42.3434 38.9086 41.5359 38.1387 40.5129 37.8023C40.4824 37.793 40.452 37.7859 40.4227 37.7766C40.0336 34.2293 38.0555 30.9434 34.902 28.9383C32.6508 27.5063 31.0195 25.957 29.8781 24.1535L31.0453 24.4102C32.2793 24.682 33.552 24.3234 34.4496 23.4527C36.0855 21.866 36.9598 19.9652 37.1227 17.6426L37.8387 17.3648C38.3074 17.1832 38.6613 16.8035 38.8102 16.323C38.959 15.8437 38.8828 15.3293 38.6016 14.9145L37.8914 13.868C37.3617 13.0875 37.1367 12.143 37.2563 11.2066L37.5398 9.00234C37.8152 6.86133 37.1977 4.70508 35.8441 3.03516C35.7937 2.94961 35.7293 2.87227 35.6543 2.80664C35.6496 2.80195 35.6461 2.79609 35.6414 2.79141C34.1449 1.09219 31.9887 0.117188 29.7234 0.117188H24.1992C20.9273 0.117188 18.0445 2.08711 16.8562 5.13633C16.5117 6.01875 16.2902 6.9375 16.1871 7.86563C13.043 8.0707 10.5469 10.6922 10.5469 13.8867C10.5469 17.2148 13.2539 19.9219 16.582 19.9219C17.6953 19.9219 18.7371 19.6172 19.6336 19.0898L19.6078 19.2727C19.2035 22.1648 18.9656 25.1098 18.9 28.0301C18.5074 28.7156 18.2812 29.5078 18.2812 30.3527V39.5133C18.2812 43.3008 19.3746 46.9406 21.4078 50.0543C21.3586 52.7273 20.4398 55.3687 18.6984 57.5191L18.0211 58.3559C17.6953 58.7578 17.7574 59.3484 18.1594 59.6742C18.3328 59.8148 18.5414 59.8828 18.7488 59.8828C19.0219 59.8828 19.2926 59.7645 19.4777 59.5348L20.1551 58.698C21.6914 56.7996 22.6711 54.5707 23.073 52.248C23.2512 52.452 23.434 52.6523 23.6215 52.8492L30.0563 59.5922C30.4137 59.9672 31.0078 59.9813 31.3816 59.6238C31.7566 59.2664 31.7707 58.6734 31.4133 58.2984L24.9785 51.5555C21.8695 48.2953 20.1562 44.018 20.1562 39.5121V30.3516C20.1562 28.8012 21.4184 27.5391 22.9688 27.5391C24.5191 27.5391 25.7812 28.8012 25.7812 30.3516V42.368C25.7812 44.884 26.652 47.3473 28.2316 49.3043L36.491 59.5348C36.6762 59.7645 36.9469 59.884 37.2211 59.884C37.4273 59.884 37.6359 59.816 37.8094 59.6754C38.2125 59.3496 38.2746 58.7602 37.95 58.357L29.6906 48.1266C28.3781 46.5012 27.6562 44.4562 27.6562 42.368V30.3516C27.6562 30.1113 27.6375 29.8758 27.6035 29.6449C29.3672 30.3176 31.1191 30.6516 32.8957 30.6516C33.2707 30.6516 33.6469 30.6363 34.0254 30.607C36.5426 32.2605 38.1469 34.8879 38.5301 37.7379C37.7941 37.9219 37.1156 38.3355 36.6199 38.9461L35.9297 39.7957C35.1785 40.7215 34.9383 41.9543 35.2863 43.0945C35.6355 44.2348 36.5238 45.1219 37.6641 45.4688L37.8398 45.5227C38.1891 45.6293 38.543 45.6797 38.891 45.6797C40.1473 45.6797 41.3332 45.0152 41.9848 43.8715L42.143 43.5938C44.5266 44.8043 46.1543 46.7297 46.8328 49.2082C47.7164 52.4344 46.7484 56.1562 44.4797 58.2598C44.1 58.6113 44.0777 59.2055 44.4293 59.5852C44.6145 59.7844 44.8652 59.8852 45.1172 59.8852C45.3457 59.8852 45.5742 59.802 45.7547 59.6355C48.559 57.034 49.7191 52.6441 48.6422 48.7102ZM18.6035 5.81719C19.5094 3.49336 21.7055 1.99219 24.1992 1.99219H29.7234C31.3148 1.99219 32.8359 2.62617 33.9574 3.74062C33.2684 5.30391 31.7625 6.18984 29.9098 6.07734C29.0238 6.02461 28.2141 6.60352 27.9832 7.45547C27.6316 8.75508 26.9273 9.99141 25.8328 11.2348C24.6281 10.3852 23.5699 10.6348 22.8938 10.9957C21.7652 11.598 21.109 12.8449 21.2215 14.1715C21.2789 14.85 21.4313 15.3738 21.6855 15.7664C21.4957 16.002 21.2332 16.193 20.8805 16.3582L19.3148 13.8012C17.8523 11.4117 17.5863 8.42695 18.6035 5.81719ZM12.4219 13.8867C12.4219 11.7422 14.0531 9.97148 16.1402 9.75C16.248 11.5125 16.7777 13.2469 17.7152 14.7797L19.1625 17.1445C18.4523 17.7082 17.5559 18.0469 16.582 18.0469C14.2887 18.0469 12.4219 16.1801 12.4219 13.8867ZM20.8418 26.1762C20.9496 23.9543 21.157 21.7277 21.4641 19.5316L21.5168 19.1555C21.5648 18.8121 21.5672 18.4652 21.5273 18.1242C22.002 17.9203 22.5211 17.6191 22.9641 17.148C23.6625 17.6602 24.491 17.9566 25.4648 18.0422C25.493 18.0445 25.5211 18.0457 25.548 18.0457C26.0285 18.0457 26.4375 17.6777 26.4809 17.1902C26.5266 16.6746 26.1445 16.2199 25.6289 16.1742C24.6187 16.0852 23.9156 15.6855 23.359 14.8852C23.3297 14.8406 23.2992 14.7984 23.2664 14.7562C23.2617 14.7504 23.1387 14.5922 23.0895 14.0121C23.0402 13.4332 23.3098 12.8988 23.7762 12.6492C24.0551 12.5004 24.3281 12.4641 24.7594 12.7711C25.5363 13.3242 26.6016 13.1977 27.2367 12.4781C28.5293 11.0121 29.366 9.52852 29.7996 7.94766C32.0543 8.08242 34.0078 7.12969 35.1551 5.43516C35.6391 6.46172 35.8289 7.61367 35.6813 8.76094L35.3977 10.9652C35.2184 12.3551 35.5535 13.759 36.3398 14.918L36.8848 15.7219L36.3691 15.9223C35.7363 16.1684 35.3004 16.7684 35.2559 17.4527C35.1363 19.3207 34.4461 20.8418 33.1441 22.1051C32.6988 22.5363 32.0648 22.7133 31.4484 22.5773L26.9215 21.5813C26.4164 21.4699 25.916 21.7898 25.8047 22.2949C25.6934 22.8 26.0133 23.3004 26.5184 23.4117L27.4465 23.6156C28.3488 25.5246 29.6285 27.177 31.3816 28.6734C29.673 28.4602 27.9691 27.8883 26.2301 26.9449C26.2043 26.9309 26.1773 26.918 26.1504 26.9062C25.3113 26.1375 24.1945 25.6641 22.9688 25.6641C22.2035 25.6641 21.4805 25.8492 20.8418 26.1762ZM40.8703 42.0387L40.3559 42.941C39.9598 43.6359 39.15 43.9582 38.3848 43.7262L38.209 43.6723C37.6582 43.5047 37.2469 43.0934 37.0781 42.5438C36.9094 41.9941 37.0219 41.4223 37.384 40.9758L38.0742 40.1262C38.4012 39.723 38.8945 39.4992 39.3984 39.4992C39.5754 39.4992 39.7523 39.5262 39.9258 39.5836C40.4121 39.7441 40.7953 40.1098 40.9793 40.5867C41.1633 41.0648 41.1234 41.5945 40.8703 42.0387Z" fill="black"/>
</svg>
