<svg width="470" height="470" viewBox="0 0 470 470" fill="none" xmlns="http://www.w3.org/2000/svg">
<rect x="0.333984" y="0.333496" width="469.333" height="469.333" rx="64" fill="#F7843A"/>
<mask id="mask0_3_77" style="mask-type:alpha" maskUnits="userSpaceOnUse" x="135" y="135" width="200" height="200">
<rect x="135" y="135" width="200" height="200" fill="#D9D9D9"/>
</mask>
<g mask="url(#mask0_3_77)">
<path d="M314.166 307.708V172.5H155.833V239.167H143.333V172.5C143.333 169.028 144.557 166.076 147.005 163.646C149.453 161.215 152.396 160 155.833 160H314.166C317.604 160 320.547 161.224 322.994 163.672C325.442 166.12 326.666 169.062 326.666 172.5V293.333C326.666 296.944 325.486 300.104 323.125 302.812C320.764 305.521 317.777 307.153 314.166 307.708ZM210 251.458C200.833 251.458 193.333 248.542 187.5 242.708C181.666 236.875 178.75 229.375 178.75 220.208C178.75 211.042 181.666 203.542 187.5 197.708C193.333 191.875 200.833 188.958 210 188.958C219.166 188.958 226.666 191.875 232.5 197.708C238.333 203.542 241.25 211.042 241.25 220.208C241.25 229.375 238.333 236.875 232.5 242.708C226.666 248.542 219.166 251.458 210 251.458ZM210 238.958C215.416 238.958 219.896 237.188 223.437 233.646C226.979 230.104 228.75 225.625 228.75 220.208C228.75 214.792 226.979 210.312 223.437 206.771C219.896 203.229 215.416 201.458 210 201.458C204.583 201.458 200.104 203.229 196.562 206.771C193.021 210.312 191.25 214.792 191.25 220.208C191.25 225.625 193.021 230.104 196.562 233.646C200.104 237.188 204.583 238.958 210 238.958ZM143.333 318.333V298.75C143.333 293.472 144.652 288.958 147.291 285.208C149.93 281.458 153.333 278.611 157.5 276.667C166.805 272.5 175.729 269.375 184.271 267.292C192.812 265.208 201.389 264.167 210 264.167C218.611 264.167 227.152 265.243 235.625 267.396C244.097 269.549 252.98 272.652 262.275 276.707C266.622 278.669 270.108 281.514 272.731 285.242C275.355 288.969 276.666 293.472 276.666 298.75V318.333H143.333ZM155.833 305.833H264.166V298.75C264.166 296.528 263.507 294.41 262.187 292.396C260.868 290.382 259.236 288.889 257.291 287.917C248.402 283.611 240.277 280.66 232.916 279.062C225.555 277.465 217.916 276.667 210 276.667C202.083 276.667 194.375 277.465 186.875 279.062C179.375 280.66 171.25 283.611 162.5 287.917C160.555 288.889 158.958 290.382 157.708 292.396C156.458 294.41 155.833 296.528 155.833 298.75V305.833Z" fill="white"/>
</g>
</svg>
