<svg width="470" height="470" viewBox="0 0 470 470" fill="none" xmlns="http://www.w3.org/2000/svg">
<rect x="0.333984" y="0.333008" width="469.333" height="469.333" rx="64" fill="#F7843A"/>
<mask id="mask0_3_94" style="mask-type:alpha" maskUnits="userSpaceOnUse" x="135" y="135" width="200" height="200">
<rect x="135" y="135" width="200" height="200" fill="#D9D9D9"/>
</mask>
<g mask="url(#mask0_3_94)">
<path d="M237.917 272.5C232.361 278.055 225.625 280.833 217.708 280.833C209.792 280.833 203.056 278.055 197.5 272.5C191.944 266.944 189.167 260.243 189.167 252.396C189.167 244.548 191.944 237.847 197.5 232.291L232.083 197.5C237.639 191.944 244.375 189.166 252.292 189.166C260.208 189.166 266.944 191.944 272.5 197.5C278.056 203.055 280.833 209.757 280.833 217.604C280.833 225.451 278.056 232.152 272.5 237.708L237.917 272.5ZM206.25 263.541C209.444 266.736 213.229 268.368 217.604 268.437C221.979 268.507 225.764 266.944 228.958 263.75L241.875 250.625L219.375 228.125L206.25 241.041C203.056 244.227 201.458 247.975 201.458 252.285C201.458 256.595 203.056 260.347 206.25 263.541ZM263.75 206.458C260.556 203.264 256.771 201.632 252.396 201.562C248.021 201.493 244.236 203.055 241.042 206.25L228.125 219.375L250.625 241.875L263.75 228.958C266.944 225.764 268.507 222.014 268.437 217.708C268.368 213.402 266.806 209.652 263.75 206.458ZM172.5 310C169.062 310 166.12 308.776 163.672 306.328C161.224 303.88 160 300.937 160 297.5V172.5C160 169.062 161.224 166.119 163.672 163.672C166.12 161.224 169.062 160 172.5 160H215.208C215.903 155.139 218.125 151.146 221.875 148.021C225.625 144.896 230 143.333 235 143.333C240 143.333 244.375 144.896 248.125 148.021C251.875 151.146 254.097 155.139 254.792 160H297.5C300.938 160 303.88 161.224 306.328 163.672C308.776 166.119 310 169.062 310 172.5V297.5C310 300.937 308.776 303.88 306.328 306.328C303.88 308.776 300.938 310 297.5 310H172.5ZM172.5 297.5H297.5V172.5H172.5V297.5ZM235 168.958C236.944 168.958 238.646 168.229 240.104 166.771C241.562 165.312 242.292 163.611 242.292 161.666C242.292 159.722 241.562 158.021 240.104 156.562C238.646 155.104 236.944 154.375 235 154.375C233.056 154.375 231.354 155.104 229.896 156.562C228.437 158.021 227.708 159.722 227.708 161.666C227.708 163.611 228.437 165.312 229.896 166.771C231.354 168.229 233.056 168.958 235 168.958Z" fill="white"/>
</g>
</svg>
