<svg width="470" height="471" viewBox="0 0 470 471" fill="none" xmlns="http://www.w3.org/2000/svg">
<rect x="0.333374" y="0.951904" width="469.333" height="469.333" rx="64" fill="#F7843A"/>
<path d="M148.926 255.274L148.85 255.473V255.686V296.097C148.85 302.669 151.153 308.285 155.743 312.875C160.334 317.465 165.949 319.769 172.521 319.769H203.034C209.457 319.769 215.027 317.46 219.687 312.882L218.881 312.062L219.687 312.882C224.359 308.292 226.706 302.657 226.706 296.046V278.298V277.148H225.556H218.291H217.141V278.298V296.097C217.141 300.13 215.787 303.456 213.085 306.154C210.382 308.852 207.057 310.204 203.032 310.204H172.521C168.488 310.204 165.162 308.852 162.464 306.154C159.766 303.456 158.415 300.13 158.415 296.097V256.809L181.258 197.854L181.261 197.847L181.264 197.84C182.587 194.285 184.686 191.312 187.57 188.905L187.57 188.905C190.397 186.545 193.684 185.367 197.481 185.367C201.222 185.367 204.46 186.517 207.247 188.817L207.247 188.817C209.989 191.079 211.329 193.896 211.329 197.348V211.097V212.247H212.479H219.743H220.893V211.097V197.348C220.893 191.167 218.55 185.991 213.901 181.899L213.142 182.763L213.901 181.899C209.284 177.836 203.804 175.802 197.519 175.802C191.804 175.802 186.662 177.568 182.129 181.083C177.626 184.575 174.33 189.05 172.247 194.485L148.926 255.274ZM244.444 277.148H243.294V278.298V296.046C243.294 302.651 245.601 308.285 250.201 312.876C254.798 317.465 260.409 319.769 266.966 319.769H297.479C304.026 319.769 309.634 317.464 314.236 312.876C318.839 308.286 321.15 302.67 321.15 296.097V255.686V255.471L321.073 255.271L297.575 194.494C295.614 189.058 292.402 184.581 287.945 181.087C283.454 177.567 278.315 175.802 272.569 175.802C266.243 175.802 260.737 177.834 256.111 181.899C251.455 185.99 249.107 191.166 249.107 197.348V211.097V212.247H250.257H257.521H258.671V211.097V197.348C258.671 193.899 260.017 191.082 262.774 188.818L262.044 187.93L262.774 188.818C265.579 186.516 268.815 185.367 272.531 185.367C276.319 185.367 279.567 186.545 282.33 188.897L283.076 188.022L282.33 188.897C285.156 191.304 287.229 194.279 288.555 197.84L288.558 197.849L288.561 197.857L311.585 256.811V296.097C311.585 300.13 310.232 303.456 307.529 306.154C304.826 308.852 301.501 310.204 297.476 310.204H266.966C262.933 310.204 259.607 308.852 256.909 306.154C254.211 303.456 252.859 300.13 252.859 296.097V278.298V277.148H251.709H244.444ZM211.258 249.833L235 226.091L258.742 249.833L259.556 250.647L260.369 249.833L265.382 244.821L266.195 244.007L265.382 243.194L239.783 217.595V148.619V147.469H238.633H231.367H230.217V148.619V217.595L204.618 243.194L203.805 244.007L204.618 244.821L209.631 249.833L210.444 250.647L211.258 249.833Z" fill="white" stroke="white" stroke-width="2.3"/>
</svg>
