<svg width="470" height="470" viewBox="0 0 470 470" fill="none" xmlns="http://www.w3.org/2000/svg">
<rect x="0.333984" y="0.333008" width="469.333" height="469.333" rx="64" fill="#F7843A"/>
<mask id="mask0_3_82" style="mask-type:alpha" maskUnits="userSpaceOnUse" x="135" y="135" width="200" height="200">
<rect x="135" y="135" width="200" height="200" fill="#D9D9D9"/>
</mask>
<g mask="url(#mask0_3_82)">
<path d="M235 301.666C216.527 301.666 200.798 295.173 187.812 282.187C174.826 269.201 168.333 253.472 168.333 235C168.333 216.527 174.826 200.798 187.812 187.812C200.798 174.826 216.527 168.333 235 168.333C246.805 168.333 257.152 170.729 266.041 175.521C274.93 180.312 282.639 186.875 289.166 195.208V168.333H301.666V221.25H248.75V208.75H283.75C278.472 200.416 271.736 193.68 263.541 188.541C255.347 183.402 245.833 180.833 235 180.833C219.861 180.833 207.048 186.076 196.562 196.562C186.076 207.048 180.833 219.861 180.833 235C180.833 250.139 186.076 262.951 196.562 273.437C207.048 283.923 219.861 289.166 235 289.166C246.527 289.166 257.083 285.868 266.666 279.271C276.25 272.673 282.916 263.958 286.666 253.125H299.583C295.555 267.708 287.569 279.444 275.625 288.333C263.68 297.222 250.139 301.666 235 301.666Z" fill="white"/>
</g>
</svg>
