<svg width="470" height="470" viewBox="0 0 470 470" fill="none" xmlns="http://www.w3.org/2000/svg">
<rect x="0.333984" y="0.333008" width="469.333" height="469.333" rx="64" fill="#F7843A"/>
<mask id="mask0_3_83" style="mask-type:alpha" maskUnits="userSpaceOnUse" x="135" y="135" width="200" height="200">
<rect x="135" y="135" width="200" height="200" fill="#D9D9D9"/>
</mask>
<g mask="url(#mask0_3_83)">
<path d="M215.834 318.334L211.667 292.084C209.028 291.111 206.25 289.792 203.334 288.125C200.417 286.459 197.848 284.723 195.625 282.917L171.042 294.167L151.667 260L174.167 243.542C173.889 242.292 173.716 240.868 173.646 239.271C173.577 237.674 173.542 236.25 173.542 235C173.542 233.75 173.577 232.327 173.646 230.729C173.716 229.132 173.889 227.709 174.167 226.459L151.667 210L171.042 175.834L195.625 187.084C197.848 185.278 200.417 183.542 203.334 181.875C206.25 180.209 209.028 178.959 211.667 178.125L215.834 151.667H254.167L258.334 177.917C260.973 178.889 263.785 180.174 266.771 181.771C269.757 183.368 272.292 185.139 274.375 187.084L298.959 175.834L318.334 210L295.834 226.042C296.111 227.431 296.285 228.924 296.355 230.521C296.424 232.118 296.459 233.611 296.459 235C296.459 236.389 296.424 237.848 296.355 239.375C296.285 240.903 296.111 242.361 295.834 243.75L318.334 260L298.959 294.167L274.375 282.917C272.153 284.723 269.618 286.493 266.771 288.23C263.924 289.966 261.111 291.25 258.334 292.084L254.167 318.334H215.834ZM235 262.084C242.5 262.084 248.889 259.445 254.167 254.167C259.445 248.889 262.084 242.5 262.084 235C262.084 227.5 259.445 221.111 254.167 215.834C248.889 210.556 242.5 207.917 235 207.917C227.5 207.917 221.111 210.556 215.834 215.834C210.556 221.111 207.917 227.5 207.917 235C207.917 242.5 210.556 248.889 215.834 254.167C221.111 259.445 227.5 262.084 235 262.084ZM235 249.584C230.973 249.584 227.535 248.16 224.688 245.313C221.841 242.466 220.417 239.028 220.417 235C220.417 230.973 221.841 227.535 224.688 224.688C227.535 221.841 230.973 220.417 235 220.417C239.028 220.417 242.466 221.841 245.313 224.688C248.16 227.535 249.584 230.973 249.584 235C249.584 239.028 248.16 242.466 245.313 245.313C242.466 248.16 239.028 249.584 235 249.584ZM225.834 305.834H244.167L247.084 282.5C251.667 281.389 256.007 279.653 260.104 277.292C264.202 274.931 267.917 272.084 271.25 268.75L293.334 278.334L301.667 263.334L282.084 248.959C282.639 246.598 283.091 244.271 283.438 241.98C283.785 239.688 283.959 237.361 283.959 235C283.959 232.639 283.82 230.313 283.542 228.021C283.264 225.729 282.778 223.403 282.084 221.042L301.667 206.667L293.334 191.667L271.25 201.25C268.056 197.639 264.445 194.618 260.417 192.188C256.389 189.757 251.945 188.195 247.084 187.5L244.167 164.167H225.834L222.917 187.5C218.195 188.473 213.785 190.139 209.688 192.5C205.591 194.861 201.945 197.778 198.75 201.25L176.667 191.667L168.334 206.667L187.917 221.042C187.361 223.403 186.91 225.729 186.563 228.021C186.216 230.313 186.042 232.639 186.042 235C186.042 237.361 186.216 239.688 186.563 241.98C186.91 244.271 187.361 246.598 187.917 248.959L168.334 263.334L176.667 278.334L198.75 268.75C202.084 272.084 205.799 274.931 209.896 277.292C213.993 279.653 218.334 281.389 222.917 282.5L225.834 305.834Z" fill="white"/>
</g>
</svg>
