<svg width="24" height="24" viewBox="0 0 24 24" fill="none" xmlns="http://www.w3.org/2000/svg">
<g clip-path="url(#clip0_2714_11535)">
<mask id="path-1-inside-1_2714_11535" fill="white">
<path d="M17.6234 15.9374C17.1318 15.9332 16.6447 16.0311 16.1929 16.2247C15.7411 16.4183 15.3343 16.7036 14.9984 17.0624L9.6096 13.4999C9.82458 13.0357 9.93593 12.5302 9.93593 12.0186C9.93593 11.5071 9.82458 11.0016 9.6096 10.5374L14.9984 6.91864C15.6065 7.58194 16.4426 7.99138 17.3395 8.06516C18.2363 8.13895 19.1281 7.87164 19.8365 7.31665C20.5449 6.76165 21.0178 5.95983 21.1608 5.07135C21.3038 4.18286 21.1063 3.27314 20.6079 2.52389C20.1094 1.77464 19.3466 1.24104 18.4718 1.02967C17.5971 0.818301 16.6748 0.944728 15.8892 1.3837C15.1036 1.82267 14.5126 2.54186 14.2341 3.39761C13.9556 4.25336 14.0103 5.18267 14.3871 5.99989L8.99835 9.58114C8.51192 9.05513 7.87819 8.68801 7.17989 8.52771C6.4816 8.36741 5.7512 8.42138 5.08406 8.68257C4.41691 8.94376 3.84402 9.40004 3.44018 9.99183C3.03633 10.5836 2.82031 11.2834 2.82031 11.9999C2.82031 12.7163 3.03633 13.4162 3.44018 14.0079C3.84402 14.5997 4.41691 15.056 5.08406 15.3172C5.7512 15.5784 6.4816 15.6324 7.17989 15.4721C7.87819 15.3118 8.51192 14.9447 8.99835 14.4186L14.4021 18.0186C14.0826 18.7187 13.9987 19.5036 14.1629 20.2554C14.3271 21.0072 14.7305 21.6856 15.3128 22.1888C15.8951 22.6919 16.6248 22.9928 17.3925 23.0463C18.1602 23.0997 18.9246 22.9029 19.5709 22.4852C20.2173 22.0676 20.7109 21.4517 20.9777 20.7299C21.2445 20.008 21.2701 19.2191 21.0507 18.4815C20.8313 17.7439 20.3787 17.0973 19.7608 16.6386C19.1429 16.1799 18.3929 15.9339 17.6234 15.9374ZM17.6234 2.06239C18.1054 2.06239 18.5767 2.20535 18.9776 2.47318C19.3784 2.74102 19.6908 3.12171 19.8753 3.5671C20.0598 4.0125 20.1081 4.5026 20.014 4.97542C19.92 5.44825 19.6878 5.88257 19.3469 6.22346C19.006 6.56435 18.5717 6.7965 18.0989 6.89056C17.6261 6.98461 17.136 6.93634 16.6906 6.75185C16.2452 6.56736 15.8645 6.25494 15.5966 5.85409C15.3288 5.45325 15.1859 4.98198 15.1859 4.49989C15.1868 3.85373 15.444 3.23432 15.9009 2.77741C16.3578 2.32051 16.9772 2.06338 17.6234 2.06239ZM6.37335 14.4374C5.89126 14.4374 5.42 14.2944 5.01915 14.0266C4.61831 13.7588 4.30589 13.3781 4.1214 12.9327C3.93691 12.4873 3.88864 11.9972 3.98269 11.5244C4.07674 11.0515 4.30889 10.6172 4.64978 10.2763C4.99067 9.93543 5.42499 9.70328 5.89782 9.60923C6.37065 9.51518 6.86075 9.56345 7.30614 9.74794C7.75154 9.93242 8.13223 10.2448 8.40006 10.6457C8.6679 11.0465 8.81085 11.5178 8.81085 11.9999C8.80986 12.6461 8.55274 13.2655 8.09583 13.7224C7.63893 14.1793 7.01951 14.4364 6.37335 14.4374ZM17.6234 21.9374C17.1413 21.9374 16.67 21.7944 16.2692 21.5266C15.8683 21.2588 15.5559 20.8781 15.3714 20.4327C15.1869 19.9873 15.1386 19.4972 15.2327 19.0244C15.3267 18.5515 15.5589 18.1172 15.8998 17.7763C16.2407 17.4354 16.675 17.2033 17.1478 17.1092C17.6207 17.0152 18.1108 17.0634 18.5561 17.2479C19.0015 17.4324 19.3822 17.7448 19.6501 18.1457C19.9179 18.5465 20.0609 19.0178 20.0609 19.4999C20.0599 20.1461 19.8027 20.7655 19.3458 21.2224C18.8889 21.6793 18.2695 21.9364 17.6234 21.9374Z"/>
</mask>
<path d="M17.6234 15.9374C17.1318 15.9332 16.6447 16.0311 16.1929 16.2247C15.7411 16.4183 15.3343 16.7036 14.9984 17.0624L9.6096 13.4999C9.82458 13.0357 9.93593 12.5302 9.93593 12.0186C9.93593 11.5071 9.82458 11.0016 9.6096 10.5374L14.9984 6.91864C15.6065 7.58194 16.4426 7.99138 17.3395 8.06516C18.2363 8.13895 19.1281 7.87164 19.8365 7.31665C20.5449 6.76165 21.0178 5.95983 21.1608 5.07135C21.3038 4.18286 21.1063 3.27314 20.6079 2.52389C20.1094 1.77464 19.3466 1.24104 18.4718 1.02967C17.5971 0.818301 16.6748 0.944728 15.8892 1.3837C15.1036 1.82267 14.5126 2.54186 14.2341 3.39761C13.9556 4.25336 14.0103 5.18267 14.3871 5.99989L8.99835 9.58114C8.51192 9.05513 7.87819 8.68801 7.17989 8.52771C6.4816 8.36741 5.7512 8.42138 5.08406 8.68257C4.41691 8.94376 3.84402 9.40004 3.44018 9.99183C3.03633 10.5836 2.82031 11.2834 2.82031 11.9999C2.82031 12.7163 3.03633 13.4162 3.44018 14.0079C3.84402 14.5997 4.41691 15.056 5.08406 15.3172C5.7512 15.5784 6.4816 15.6324 7.17989 15.4721C7.87819 15.3118 8.51192 14.9447 8.99835 14.4186L14.4021 18.0186C14.0826 18.7187 13.9987 19.5036 14.1629 20.2554C14.3271 21.0072 14.7305 21.6856 15.3128 22.1888C15.8951 22.6919 16.6248 22.9928 17.3925 23.0463C18.1602 23.0997 18.9246 22.9029 19.5709 22.4852C20.2173 22.0676 20.7109 21.4517 20.9777 20.7299C21.2445 20.008 21.2701 19.2191 21.0507 18.4815C20.8313 17.7439 20.3787 17.0973 19.7608 16.6386C19.1429 16.1799 18.3929 15.9339 17.6234 15.9374ZM17.6234 2.06239C18.1054 2.06239 18.5767 2.20535 18.9776 2.47318C19.3784 2.74102 19.6908 3.12171 19.8753 3.5671C20.0598 4.0125 20.1081 4.5026 20.014 4.97542C19.92 5.44825 19.6878 5.88257 19.3469 6.22346C19.006 6.56435 18.5717 6.7965 18.0989 6.89056C17.6261 6.98461 17.136 6.93634 16.6906 6.75185C16.2452 6.56736 15.8645 6.25494 15.5966 5.85409C15.3288 5.45325 15.1859 4.98198 15.1859 4.49989C15.1868 3.85373 15.444 3.23432 15.9009 2.77741C16.3578 2.32051 16.9772 2.06338 17.6234 2.06239ZM6.37335 14.4374C5.89126 14.4374 5.42 14.2944 5.01915 14.0266C4.61831 13.7588 4.30589 13.3781 4.1214 12.9327C3.93691 12.4873 3.88864 11.9972 3.98269 11.5244C4.07674 11.0515 4.30889 10.6172 4.64978 10.2763C4.99067 9.93543 5.42499 9.70328 5.89782 9.60923C6.37065 9.51518 6.86075 9.56345 7.30614 9.74794C7.75154 9.93242 8.13223 10.2448 8.40006 10.6457C8.6679 11.0465 8.81085 11.5178 8.81085 11.9999C8.80986 12.6461 8.55274 13.2655 8.09583 13.7224C7.63893 14.1793 7.01951 14.4364 6.37335 14.4374ZM17.6234 21.9374C17.1413 21.9374 16.67 21.7944 16.2692 21.5266C15.8683 21.2588 15.5559 20.8781 15.3714 20.4327C15.1869 19.9873 15.1386 19.4972 15.2327 19.0244C15.3267 18.5515 15.5589 18.1172 15.8998 17.7763C16.2407 17.4354 16.675 17.2033 17.1478 17.1092C17.6207 17.0152 18.1108 17.0634 18.5561 17.2479C19.0015 17.4324 19.3822 17.7448 19.6501 18.1457C19.9179 18.5465 20.0609 19.0178 20.0609 19.4999C20.0599 20.1461 19.8027 20.7655 19.3458 21.2224C18.8889 21.6793 18.2695 21.9364 17.6234 21.9374Z" fill="black"/>
<path d="M17.6234 15.9374L17.5557 23.9371L17.6079 23.9375L17.66 23.9373L17.6234 15.9374ZM14.9984 17.0624L10.5865 23.7359L16.2211 27.4609L20.8379 22.5305L14.9984 17.0624ZM9.6096 13.4999L2.3502 10.1382L-0.540268 16.38L5.19776 20.1734L9.6096 13.4999ZM9.6096 10.5374L5.14963 3.89596L-0.5192 7.70279L2.3502 13.8991L9.6096 10.5374ZM14.9984 6.91864L20.8949 1.51212L16.2474 -3.55663L10.5384 0.277208L14.9984 6.91864ZM14.3871 5.99989L18.8151 12.6627L24.5205 8.871L21.652 2.65003L14.3871 5.99989ZM8.99835 9.58114L3.12486 15.0127L7.75123 20.0155L13.4263 16.244L8.99835 9.58114ZM8.99835 14.4186L13.4338 7.76082L7.75651 3.97857L3.12486 8.98706L8.99835 14.4186ZM14.4021 18.0186L21.6801 21.3399L24.5096 15.1396L18.8376 11.3608L14.4021 18.0186ZM17.6234 2.06239V-5.93762L17.6111 -5.9376L17.6234 2.06239ZM15.1859 4.49989L7.18585 4.48761V4.49989H15.1859ZM6.37335 14.4374V22.4374L6.38563 22.4374L6.37335 14.4374ZM8.81085 11.9999L16.8109 12.0122V11.9999H8.81085ZM17.6234 21.9374V29.9374L17.6356 29.9374L17.6234 21.9374ZM20.0609 19.4999L28.0609 19.5122V19.4999H20.0609ZM17.691 7.93768C16.0933 7.92417 14.5101 8.24215 13.0416 8.87154L19.3443 23.5779C18.7793 23.82 18.1703 23.9423 17.5557 23.9371L17.691 7.93768ZM13.0416 8.87154C11.573 9.50093 10.2509 10.428 9.15882 11.5943L20.8379 22.5305C20.4178 22.9791 19.9092 23.3358 19.3443 23.5779L13.0416 8.87154ZM19.4102 10.3889L14.0215 6.82639L5.19776 20.1734L10.5865 23.7359L19.4102 10.3889ZM16.869 16.8616C17.5719 15.3438 17.9359 13.6913 17.9359 12.0186H1.93593C1.93593 11.3692 2.07729 10.7275 2.3502 10.1382L16.869 16.8616ZM17.9359 12.0186C17.9359 10.346 17.5719 8.69346 16.869 7.17569L2.3502 13.8991C2.07729 13.3098 1.93593 12.6681 1.93593 12.0186H17.9359ZM14.0696 17.1788L19.4583 13.5601L10.5384 0.277208L5.14963 3.89596L14.0696 17.1788ZM9.10179 12.3252C11.0714 14.4733 13.7789 15.7993 16.6836 16.0382L17.9954 0.0920973C19.1062 0.18348 20.1417 0.690587 20.8949 1.51212L9.10179 12.3252ZM16.6836 16.0382C19.5882 16.2772 22.476 15.4115 24.7702 13.6141L14.9027 1.01917C15.7801 0.331784 16.8845 0.000714362 17.9954 0.0920973L16.6836 16.0382ZM24.7702 13.6141C27.0644 11.8168 28.596 9.22001 29.0591 6.34262L13.2625 3.80007C13.4396 2.69964 14.0253 1.70655 14.9027 1.01917L24.7702 13.6141ZM29.0591 6.34262C29.5223 3.46522 28.8828 0.51903 27.2684 -1.90744L13.9473 6.95521C13.3299 6.02724 13.0853 4.9005 13.2625 3.80007L29.0591 6.34262ZM27.2684 -1.90744C25.6541 -4.33391 23.1837 -6.06201 20.3509 -6.74653L16.5928 8.80587C15.5094 8.54408 14.5647 7.88319 13.9473 6.95521L27.2684 -1.90744ZM20.3509 -6.74653C17.518 -7.43106 14.5311 -7.02162 11.9869 -5.6L19.7915 8.36739C18.8185 8.91108 17.6763 9.06766 16.5928 8.80587L20.3509 -6.74653ZM11.9869 -5.6C9.44275 -4.17838 7.52855 -1.84924 6.62673 0.922152L21.8415 5.87307C21.4966 6.93296 20.7645 7.82371 19.7915 8.36739L11.9869 -5.6ZM6.62673 0.922152C5.72492 3.69354 5.90186 6.70314 7.12223 9.34975L21.652 2.65003C22.1187 3.6622 22.1864 4.81319 21.8415 5.87307L6.62673 0.922152ZM9.95914 -0.662924L4.57039 2.91833L13.4263 16.244L18.8151 12.6627L9.95914 -0.662924ZM14.8718 4.14956C13.2931 2.44233 11.2362 1.25079 8.96983 0.73052L5.38996 16.3249C4.52016 16.1252 3.73077 15.6679 3.12486 15.0127L14.8718 4.14956ZM8.96983 0.73052C6.70345 0.210244 4.33285 0.385408 2.16755 1.23314L8.00056 16.132C7.16956 16.4573 6.25976 16.5246 5.38996 16.3249L8.96983 0.73052ZM2.16755 1.23314C0.00224805 2.08087 -1.85714 3.56178 -3.16785 5.48251L10.0482 14.5012C9.54517 15.2383 8.83157 15.8067 8.00056 16.132L2.16755 1.23314ZM-3.16785 5.48251C-4.47856 7.40325 -5.17969 9.67456 -5.17969 11.9999H10.8203C10.8203 12.8923 10.5512 13.764 10.0482 14.5012L-3.16785 5.48251ZM-5.17969 11.9999C-5.17969 14.3252 -4.47856 16.5965 -3.16785 18.5173L10.0482 9.49863C10.5512 10.2358 10.8203 11.1075 10.8203 11.9999H-5.17969ZM-3.16785 18.5173C-1.85714 20.438 0.002244 21.9189 2.16755 22.7666L8.00056 7.86779C8.83157 8.19313 9.54517 8.76148 10.0482 9.49863L-3.16785 18.5173ZM2.16755 22.7666C4.33285 23.6144 6.70345 23.7895 8.96983 23.2693L5.38996 7.67489C6.25976 7.47521 7.16956 7.54244 8.00056 7.86779L2.16755 22.7666ZM8.96983 23.2693C11.2362 22.749 13.2931 21.5575 14.8718 19.8502L3.12486 8.98706C3.73077 8.33185 4.52016 7.87456 5.38996 7.67489L8.96983 23.2693ZM4.56289 21.0765L9.96664 24.6765L18.8376 11.3608L13.4338 7.76082L4.56289 21.0765ZM7.12413 14.6973C6.08641 16.9713 5.81377 19.5203 6.34708 21.9623L21.9786 18.5485C22.1836 19.4868 22.0788 20.4662 21.6801 21.3399L7.12413 14.6973ZM6.34708 21.9623C6.88038 24.4043 8.19089 26.6076 10.0821 28.2419L20.5435 16.1357C21.2702 16.7636 21.7737 17.6102 21.9786 18.5485L6.34708 21.9623ZM10.0821 28.2419C11.9734 29.8761 14.3434 30.8533 16.8369 31.0269L17.9481 15.0656C18.9062 15.1323 19.8169 15.5078 20.5435 16.1357L10.0821 28.2419ZM16.8369 31.0269C19.3304 31.2005 21.813 30.5612 23.9124 29.2047L15.2295 15.7657C16.0361 15.2445 16.99 14.9989 17.9481 15.0656L16.8369 31.0269ZM23.9124 29.2047C26.0119 27.8483 27.615 25.8478 28.4816 23.5033L13.4739 17.9564C13.8068 17.0556 14.4228 16.2869 15.2295 15.7657L23.9124 29.2047ZM28.4816 23.5033C29.3481 21.1588 29.4313 18.5966 28.7187 16.2008L13.3827 20.7623C13.1089 19.8417 13.1409 18.8572 13.4739 17.9564L28.4816 23.5033ZM28.7187 16.2008C28.0061 13.805 26.5361 11.7047 24.5291 10.2149L14.9925 23.0622C14.2214 22.4898 13.6565 21.6828 13.3827 20.7623L28.7187 16.2008ZM24.5291 10.2149C22.5221 8.7251 20.0862 7.92602 17.5867 7.93747L17.66 23.9373C16.6996 23.9417 15.7637 23.6347 14.9925 23.0622L24.5291 10.2149ZM17.6234 10.0624C16.5232 10.0624 15.4477 9.73616 14.533 9.12494L23.4221 -4.17857C21.7057 -5.32546 19.6877 -5.93761 17.6234 -5.93761V10.0624ZM14.533 9.12494C13.6183 8.51373 12.9053 7.64499 12.4843 6.62857L27.2663 0.505633C26.4764 -1.40158 25.1386 -3.03169 23.4221 -4.17857L14.533 9.12494ZM12.4843 6.62857C12.0633 5.61214 11.9531 4.49371 12.1677 3.4147L27.8603 6.53615C28.263 4.51148 28.0563 2.41285 27.2663 0.505633L12.4843 6.62857ZM12.1677 3.4147C12.3824 2.33569 12.9121 1.34454 13.6901 0.566609L25.0038 11.8803C26.4635 10.4206 27.4576 8.56082 27.8603 6.53615L12.1677 3.4147ZM13.6901 0.566609C14.468 -0.211321 15.4591 -0.741097 16.5382 -0.955727L19.6596 14.7368C21.6843 14.3341 23.5441 13.34 25.0038 11.8803L13.6901 0.566609ZM16.5382 -0.955727C17.6172 -1.17036 18.7356 -1.0602 19.752 -0.639189L13.6291 14.1429C15.5363 14.9329 17.6349 15.1396 19.6596 14.7368L16.5382 -0.955727ZM19.752 -0.639189C20.7684 -0.218177 21.6372 0.494782 22.2484 1.40953L8.94489 10.2987C10.0918 12.0151 11.7219 13.3529 13.6291 14.1429L19.752 -0.639189ZM22.2484 1.40953C22.8596 2.32428 23.1859 3.39973 23.1859 4.49989L7.18585 4.49989C7.18585 6.56423 7.798 8.58222 8.94489 10.2987L22.2484 1.40953ZM23.1858 4.51217C23.1836 5.98348 22.5981 7.39389 21.5577 8.43427L10.244 -2.87944C8.28984 -0.925253 7.19011 1.72398 7.18586 4.48761L23.1858 4.51217ZM21.5577 8.43427C20.5174 9.47465 19.1069 10.0601 17.6356 10.0624L17.6111 -5.9376C14.8474 -5.93336 12.1982 -4.83363 10.244 -2.87944L21.5577 8.43427ZM6.37335 6.43739C7.47351 6.43739 8.54897 6.76363 9.46371 7.37484L0.57459 20.6784C2.29103 21.8252 4.30901 22.4374 6.37335 22.4374V6.43739ZM9.46371 7.37484C10.3785 7.98606 11.0914 8.8548 11.5124 9.87121L-3.26964 15.9941C-2.47965 17.9014 -1.14185 19.5315 0.57459 20.6784L9.46371 7.37484ZM11.5124 9.87121C11.9334 10.8876 12.0436 12.0061 11.829 13.0851L-3.86359 9.96364C-4.26633 11.9883 -4.05963 14.0869 -3.26964 15.9941L11.5124 9.87121ZM11.829 13.0851C11.6143 14.1641 11.0846 15.1552 10.3066 15.9332L-1.00707 4.61946C-2.46678 6.07917 -3.46086 7.93896 -3.86359 9.96364L11.829 13.0851ZM10.3066 15.9332C9.52871 16.7111 8.53757 17.2409 7.45854 17.4555L4.3371 1.76294C2.31242 2.16568 0.452633 3.15976 -1.00707 4.61946L10.3066 15.9332ZM7.45854 17.4555C6.37952 17.6701 5.26109 17.56 4.24468 17.139L10.3676 2.3569C8.46041 1.56691 6.36178 1.36021 4.3371 1.76294L7.45854 17.4555ZM4.24468 17.139C3.22826 16.718 2.35952 16.005 1.7483 15.0903L15.0518 6.20113C13.9049 4.48469 12.2748 3.14689 10.3676 2.3569L4.24468 17.139ZM1.7483 15.0903C1.13709 14.1755 0.810854 13.1001 0.810854 11.9999H16.8109C16.8109 9.93555 16.1987 7.91756 15.0518 6.20113L1.7483 15.0903ZM0.810863 11.9876C0.813122 10.5163 1.3986 9.10589 2.43898 8.06551L13.7527 19.3792C15.7069 17.425 16.8066 14.7758 16.8108 12.0122L0.810863 11.9876ZM2.43898 8.06551C3.47936 7.02514 4.88976 6.43966 6.36107 6.4374L6.38563 22.4374C9.14927 22.4331 11.7985 21.3334 13.7527 19.3792L2.43898 8.06551ZM17.6234 13.9374C18.7235 13.9374 19.799 14.2636 20.7137 14.8748L11.8246 28.1784C13.541 29.3252 15.559 29.9374 17.6234 29.9374V13.9374ZM20.7137 14.8748C21.6285 15.4861 22.3414 16.3548 22.7624 17.3712L7.98036 23.4942C8.77035 25.4014 10.1082 27.0315 11.8246 28.1784L20.7137 14.8748ZM22.7624 17.3712C23.1835 18.3876 23.2936 19.5061 23.079 20.5851L7.38641 17.4636C6.98368 19.4883 7.19037 21.5869 7.98036 23.4942L22.7624 17.3712ZM23.079 20.5851C22.8643 21.6641 22.3346 22.6552 21.5566 23.4332L10.2429 12.1195C8.78321 13.5792 7.78914 15.439 7.38641 17.4636L23.079 20.5851ZM21.5566 23.4332C20.7787 24.2111 19.7875 24.7409 18.7085 24.9555L15.5871 9.26295C13.5624 9.66568 11.7026 10.6597 10.2429 12.1195L21.5566 23.4332ZM18.7085 24.9555C17.6295 25.1701 16.5111 25.06 15.4947 24.639L21.6176 9.8569C19.7104 9.0669 17.6118 8.86021 15.5871 9.26295L18.7085 24.9555ZM15.4947 24.639C14.4783 24.218 13.6095 23.505 12.9983 22.5903L26.3018 13.7011C25.1549 11.9847 23.5248 10.6469 21.6176 9.8569L15.4947 24.639ZM12.9983 22.5903C12.3871 21.6755 12.0609 20.6 12.0609 19.4999H28.0609C28.0609 17.4355 27.4487 15.4176 26.3018 13.7011L12.9983 22.5903ZM12.0609 19.4876C12.0631 18.0163 12.6486 16.6059 13.689 15.5655L25.0027 26.8792C26.9569 24.925 28.0566 22.2758 28.0608 19.5122L12.0609 19.4876ZM13.689 15.5655C14.7294 14.5251 16.1398 13.9397 17.6111 13.9374L17.6356 29.9374C20.3993 29.9331 23.0485 28.8334 25.0027 26.8792L13.689 15.5655Z" fill="black" mask="url(#path-1-inside-1_2714_11535)"/>
<mask id="path-3-inside-2_2714_11535" fill="white">
<path d="M17.6234 15.9374C17.1318 15.9332 16.6447 16.0311 16.1929 16.2247C15.7411 16.4183 15.3343 16.7036 14.9984 17.0624L9.6096 13.4999C9.82458 13.0357 9.93593 12.5302 9.93593 12.0186C9.93593 11.5071 9.82458 11.0016 9.6096 10.5374L14.9984 6.91864C15.6065 7.58194 16.4426 7.99138 17.3395 8.06516C18.2363 8.13895 19.1281 7.87164 19.8365 7.31665C20.5449 6.76165 21.0178 5.95983 21.1608 5.07135C21.3038 4.18286 21.1063 3.27314 20.6079 2.52389C20.1094 1.77464 19.3466 1.24104 18.4718 1.02967C17.5971 0.818301 16.6748 0.944728 15.8892 1.3837C15.1036 1.82267 14.5126 2.54186 14.2341 3.39761C13.9556 4.25336 14.0103 5.18267 14.3871 5.99989L8.99835 9.58114C8.51192 9.05513 7.87819 8.68801 7.17989 8.52771C6.4816 8.36741 5.7512 8.42138 5.08406 8.68257C4.41691 8.94376 3.84402 9.40004 3.44018 9.99184C3.03633 10.5836 2.82031 11.2834 2.82031 11.9999C2.82031 12.7163 3.03633 13.4162 3.44018 14.0079C3.84402 14.5997 4.41691 15.056 5.08406 15.3172C5.7512 15.5784 6.4816 15.6324 7.17989 15.4721C7.87819 15.3118 8.51192 14.9447 8.99835 14.4186L14.4021 18.0186C14.0826 18.7188 13.9987 19.5036 14.1629 20.2554C14.3271 21.0072 14.7305 21.6856 15.3128 22.1888C15.8951 22.6919 16.6248 22.9928 17.3925 23.0463C18.1602 23.0997 18.9246 22.9029 19.5709 22.4852C20.2173 22.0676 20.7109 21.4517 20.9777 20.7299C21.2445 20.008 21.2701 19.2191 21.0507 18.4815C20.8313 17.7439 20.3787 17.0973 19.7608 16.6386C19.1429 16.1799 18.3929 15.9339 17.6234 15.9374ZM17.6234 2.06239C18.1054 2.06239 18.5767 2.20535 18.9776 2.47318C19.3784 2.74102 19.6908 3.12171 19.8753 3.5671C20.0598 4.0125 20.1081 4.5026 20.014 4.97542C19.92 5.44825 19.6878 5.88257 19.3469 6.22346C19.006 6.56435 18.5717 6.7965 18.0989 6.89056C17.6261 6.98461 17.136 6.93634 16.6906 6.75185C16.2452 6.56736 15.8645 6.25494 15.5966 5.85409C15.3288 5.45325 15.1859 4.98198 15.1859 4.49989C15.1868 3.85373 15.444 3.23432 15.9009 2.77741C16.3578 2.32051 16.9772 2.06338 17.6234 2.06239ZM6.37335 14.4374C5.89126 14.4374 5.42 14.2944 5.01915 14.0266C4.61831 13.7588 4.30589 13.3781 4.1214 12.9327C3.93691 12.4873 3.88864 11.9972 3.98269 11.5244C4.07674 11.0515 4.30889 10.6172 4.64978 10.2763C4.99067 9.93543 5.42499 9.70328 5.89782 9.60923C6.37065 9.51518 6.86075 9.56345 7.30614 9.74794C7.75154 9.93242 8.13223 10.2448 8.40006 10.6457C8.6679 11.0465 8.81085 11.5178 8.81085 11.9999C8.80986 12.6461 8.55274 13.2655 8.09583 13.7224C7.63893 14.1793 7.01951 14.4364 6.37335 14.4374ZM17.6234 21.9374C17.1413 21.9374 16.67 21.7944 16.2692 21.5266C15.8683 21.2588 15.5559 20.8781 15.3714 20.4327C15.1869 19.9873 15.1386 19.4972 15.2327 19.0244C15.3267 18.5515 15.5589 18.1172 15.8998 17.7763C16.2407 17.4354 16.675 17.2033 17.1478 17.1092C17.6207 17.0152 18.1108 17.0634 18.5561 17.2479C19.0015 17.4324 19.3822 17.7448 19.6501 18.1457C19.9179 18.5465 20.0609 19.0178 20.0609 19.4999C20.0599 20.1461 19.8027 20.7655 19.3458 21.2224C18.8889 21.6793 18.2695 21.9364 17.6234 21.9374Z"/>
</mask>
<path d="M17.6234 15.9374C17.1318 15.9332 16.6447 16.0311 16.1929 16.2247C15.7411 16.4183 15.3343 16.7036 14.9984 17.0624L9.6096 13.4999C9.82458 13.0357 9.93593 12.5302 9.93593 12.0186C9.93593 11.5071 9.82458 11.0016 9.6096 10.5374L14.9984 6.91864C15.6065 7.58194 16.4426 7.99138 17.3395 8.06516C18.2363 8.13895 19.1281 7.87164 19.8365 7.31665C20.5449 6.76165 21.0178 5.95983 21.1608 5.07135C21.3038 4.18286 21.1063 3.27314 20.6079 2.52389C20.1094 1.77464 19.3466 1.24104 18.4718 1.02967C17.5971 0.818301 16.6748 0.944728 15.8892 1.3837C15.1036 1.82267 14.5126 2.54186 14.2341 3.39761C13.9556 4.25336 14.0103 5.18267 14.3871 5.99989L8.99835 9.58114C8.51192 9.05513 7.87819 8.68801 7.17989 8.52771C6.4816 8.36741 5.7512 8.42138 5.08406 8.68257C4.41691 8.94376 3.84402 9.40004 3.44018 9.99184C3.03633 10.5836 2.82031 11.2834 2.82031 11.9999C2.82031 12.7163 3.03633 13.4162 3.44018 14.0079C3.84402 14.5997 4.41691 15.056 5.08406 15.3172C5.7512 15.5784 6.4816 15.6324 7.17989 15.4721C7.87819 15.3118 8.51192 14.9447 8.99835 14.4186L14.4021 18.0186C14.0826 18.7188 13.9987 19.5036 14.1629 20.2554C14.3271 21.0072 14.7305 21.6856 15.3128 22.1888C15.8951 22.6919 16.6248 22.9928 17.3925 23.0463C18.1602 23.0997 18.9246 22.9029 19.5709 22.4852C20.2173 22.0676 20.7109 21.4517 20.9777 20.7299C21.2445 20.008 21.2701 19.2191 21.0507 18.4815C20.8313 17.7439 20.3787 17.0973 19.7608 16.6386C19.1429 16.1799 18.3929 15.9339 17.6234 15.9374ZM17.6234 2.06239C18.1054 2.06239 18.5767 2.20535 18.9776 2.47318C19.3784 2.74102 19.6908 3.12171 19.8753 3.5671C20.0598 4.0125 20.1081 4.5026 20.014 4.97542C19.92 5.44825 19.6878 5.88257 19.3469 6.22346C19.006 6.56435 18.5717 6.7965 18.0989 6.89056C17.6261 6.98461 17.136 6.93634 16.6906 6.75185C16.2452 6.56736 15.8645 6.25494 15.5966 5.85409C15.3288 5.45325 15.1859 4.98198 15.1859 4.49989C15.1868 3.85373 15.444 3.23432 15.9009 2.77741C16.3578 2.32051 16.9772 2.06338 17.6234 2.06239ZM6.37335 14.4374C5.89126 14.4374 5.42 14.2944 5.01915 14.0266C4.61831 13.7588 4.30589 13.3781 4.1214 12.9327C3.93691 12.4873 3.88864 11.9972 3.98269 11.5244C4.07674 11.0515 4.30889 10.6172 4.64978 10.2763C4.99067 9.93543 5.42499 9.70328 5.89782 9.60923C6.37065 9.51518 6.86075 9.56345 7.30614 9.74794C7.75154 9.93242 8.13223 10.2448 8.40006 10.6457C8.6679 11.0465 8.81085 11.5178 8.81085 11.9999C8.80986 12.6461 8.55274 13.2655 8.09583 13.7224C7.63893 14.1793 7.01951 14.4364 6.37335 14.4374ZM17.6234 21.9374C17.1413 21.9374 16.67 21.7944 16.2692 21.5266C15.8683 21.2588 15.5559 20.8781 15.3714 20.4327C15.1869 19.9873 15.1386 19.4972 15.2327 19.0244C15.3267 18.5515 15.5589 18.1172 15.8998 17.7763C16.2407 17.4354 16.675 17.2033 17.1478 17.1092C17.6207 17.0152 18.1108 17.0634 18.5561 17.2479C19.0015 17.4324 19.3822 17.7448 19.6501 18.1457C19.9179 18.5465 20.0609 19.0178 20.0609 19.4999C20.0599 20.1461 19.8027 20.7655 19.3458 21.2224C18.8889 21.6793 18.2695 21.9364 17.6234 21.9374Z" fill="black"/>
<path d="M17.6234 15.9374L17.5557 23.9371L17.6079 23.9375L17.66 23.9373L17.6234 15.9374ZM14.9984 17.0624L10.5865 23.7359L16.2211 27.4609L20.8379 22.5305L14.9984 17.0624ZM9.6096 13.4999L2.3502 10.1382L-0.540268 16.38L5.19776 20.1734L9.6096 13.4999ZM9.6096 10.5374L5.14963 3.89596L-0.519199 7.70279L2.3502 13.8991L9.6096 10.5374ZM14.9984 6.91864L20.8949 1.51212L16.2474 -3.55663L10.5384 0.277209L14.9984 6.91864ZM14.3871 5.99989L18.8151 12.6627L24.5205 8.871L21.652 2.65003L14.3871 5.99989ZM8.99835 9.58114L3.12486 15.0127L7.75123 20.0155L13.4263 16.244L8.99835 9.58114ZM8.99835 14.4186L13.4338 7.76082L7.75651 3.97857L3.12486 8.98706L8.99835 14.4186ZM14.4021 18.0186L21.6801 21.3399L24.5096 15.1396L18.8376 11.3608L14.4021 18.0186ZM17.6234 2.06239V-5.93762L17.6111 -5.9376L17.6234 2.06239ZM15.1859 4.49989L7.18585 4.48761V4.49989H15.1859ZM6.37335 14.4374V22.4374L6.38563 22.4374L6.37335 14.4374ZM8.81085 11.9999L16.8109 12.0122V11.9999H8.81085ZM17.6234 21.9374V29.9374L17.6356 29.9374L17.6234 21.9374ZM20.0609 19.4999L28.0609 19.5122V19.4999H20.0609ZM17.691 7.93768C16.0933 7.92417 14.5101 8.24216 13.0416 8.87154L19.3443 23.5779C18.7793 23.82 18.1703 23.9423 17.5557 23.9371L17.691 7.93768ZM13.0416 8.87154C11.573 9.50093 10.2509 10.428 9.15881 11.5943L20.8379 22.5305C20.4178 22.9791 19.9092 23.3358 19.3443 23.5779L13.0416 8.87154ZM19.4102 10.3889L14.0215 6.82639L5.19776 20.1734L10.5865 23.7359L19.4102 10.3889ZM16.869 16.8616C17.5719 15.3438 17.9359 13.6913 17.9359 12.0186H1.93593C1.93593 11.3692 2.07729 10.7275 2.3502 10.1382L16.869 16.8616ZM17.9359 12.0186C17.9359 10.346 17.5719 8.69346 16.869 7.17569L2.3502 13.8991C2.07729 13.3098 1.93593 12.6681 1.93593 12.0186H17.9359ZM14.0696 17.1788L19.4583 13.5601L10.5384 0.277209L5.14963 3.89596L14.0696 17.1788ZM9.10179 12.3252C11.0714 14.4733 13.7789 15.7993 16.6836 16.0382L17.9954 0.0920978C19.1062 0.183481 20.1417 0.690587 20.8949 1.51212L9.10179 12.3252ZM16.6836 16.0382C19.5882 16.2772 22.476 15.4115 24.7702 13.6141L14.9027 1.01917C15.7801 0.331785 16.8845 0.000714898 17.9954 0.0920978L16.6836 16.0382ZM24.7702 13.6141C27.0644 11.8168 28.596 9.22001 29.0591 6.34262L13.2625 3.80007C13.4396 2.69965 14.0253 1.70655 14.9027 1.01917L24.7702 13.6141ZM29.0591 6.34262C29.5223 3.46522 28.8828 0.519031 27.2684 -1.90744L13.9473 6.95521C13.3299 6.02724 13.0853 4.9005 13.2625 3.80007L29.0591 6.34262ZM27.2684 -1.90744C25.6541 -4.33391 23.1837 -6.06201 20.3509 -6.74653L16.5928 8.80587C15.5094 8.54408 14.5647 7.88319 13.9473 6.95521L27.2684 -1.90744ZM20.3509 -6.74653C17.518 -7.43106 14.5311 -7.02162 11.9869 -5.6L19.7915 8.36739C18.8185 8.91108 17.6763 9.06766 16.5928 8.80587L20.3509 -6.74653ZM11.9869 -5.6C9.44275 -4.17838 7.52855 -1.84924 6.62673 0.922152L21.8415 5.87307C21.4966 6.93296 20.7645 7.82371 19.7915 8.36739L11.9869 -5.6ZM6.62673 0.922152C5.72492 3.69354 5.90186 6.70314 7.12223 9.34975L21.652 2.65003C22.1187 3.6622 22.1864 4.81319 21.8415 5.87307L6.62673 0.922152ZM9.95914 -0.662924L4.57039 2.91833L13.4263 16.244L18.8151 12.6627L9.95914 -0.662924ZM14.8718 4.14956C13.2931 2.44233 11.2362 1.25079 8.96983 0.73052L5.38996 16.3249C4.52016 16.1252 3.73077 15.6679 3.12486 15.0127L14.8718 4.14956ZM8.96983 0.73052C6.70345 0.210245 4.33285 0.385409 2.16755 1.23314L8.00056 16.132C7.16956 16.4573 6.25976 16.5246 5.38996 16.3249L8.96983 0.73052ZM2.16755 1.23314C0.00224781 2.08087 -1.85714 3.56178 -3.16785 5.48252L10.0482 14.5012C9.54517 15.2383 8.83157 15.8067 8.00056 16.132L2.16755 1.23314ZM-3.16785 5.48252C-4.47856 7.40325 -5.17969 9.67456 -5.17969 11.9999H10.8203C10.8203 12.8923 10.5512 13.764 10.0482 14.5012L-3.16785 5.48252ZM-5.17969 11.9999C-5.17969 14.3252 -4.47856 16.5965 -3.16785 18.5173L10.0482 9.49863C10.5512 10.2358 10.8203 11.1075 10.8203 11.9999H-5.17969ZM-3.16785 18.5173C-1.85714 20.438 0.00224376 21.9189 2.16755 22.7666L8.00056 7.86779C8.83157 8.19313 9.54518 8.76148 10.0482 9.49863L-3.16785 18.5173ZM2.16755 22.7666C4.33285 23.6144 6.70345 23.7895 8.96983 23.2693L5.38996 7.67489C6.25976 7.47522 7.16956 7.54244 8.00056 7.86779L2.16755 22.7666ZM8.96983 23.2693C11.2362 22.749 13.2931 21.5575 14.8718 19.8502L3.12486 8.98706C3.73077 8.33185 4.52016 7.87456 5.38996 7.67489L8.96983 23.2693ZM4.56289 21.0765L9.96664 24.6765L18.8376 11.3608L13.4338 7.76082L4.56289 21.0765ZM7.12413 14.6973C6.08641 16.9713 5.81377 19.5203 6.34708 21.9623L21.9786 18.5485C22.1836 19.4868 22.0788 20.4662 21.6801 21.3399L7.12413 14.6973ZM6.34708 21.9623C6.88038 24.4043 8.19089 26.6076 10.0821 28.2419L20.5435 16.1357C21.2702 16.7636 21.7737 17.6102 21.9786 18.5485L6.34708 21.9623ZM10.0821 28.2419C11.9734 29.8761 14.3434 30.8533 16.8369 31.0269L17.9481 15.0656C18.9062 15.1323 19.8169 15.5078 20.5435 16.1357L10.0821 28.2419ZM16.8369 31.0269C19.3304 31.2005 21.813 30.5612 23.9124 29.2047L15.2295 15.7657C16.0361 15.2445 16.99 14.9989 17.9481 15.0656L16.8369 31.0269ZM23.9124 29.2047C26.0119 27.8483 27.615 25.8478 28.4816 23.5033L13.4739 17.9564C13.8068 17.0556 14.4228 16.2869 15.2295 15.7657L23.9124 29.2047ZM28.4816 23.5033C29.3481 21.1588 29.4313 18.5966 28.7187 16.2008L13.3827 20.7623C13.1089 19.8417 13.1409 18.8572 13.4739 17.9564L28.4816 23.5033ZM28.7187 16.2008C28.0061 13.805 26.5361 11.7047 24.5291 10.2149L14.9925 23.0622C14.2214 22.4898 13.6565 21.6828 13.3827 20.7623L28.7187 16.2008ZM24.5291 10.2149C22.5221 8.7251 20.0862 7.92602 17.5867 7.93748L17.66 23.9373C16.6996 23.9417 15.7637 23.6347 14.9925 23.0622L24.5291 10.2149ZM17.6234 10.0624C16.5232 10.0624 15.4477 9.73616 14.533 9.12494L23.4221 -4.17857C21.7057 -5.32546 19.6877 -5.93761 17.6234 -5.93761V10.0624ZM14.533 9.12494C13.6183 8.51373 12.9053 7.64499 12.4843 6.62857L27.2663 0.505633C26.4764 -1.40158 25.1386 -3.03169 23.4221 -4.17857L14.533 9.12494ZM12.4843 6.62857C12.0633 5.61214 11.9531 4.49371 12.1677 3.4147L27.8603 6.53615C28.263 4.51148 28.0563 2.41285 27.2663 0.505633L12.4843 6.62857ZM12.1677 3.4147C12.3824 2.33569 12.9121 1.34454 13.6901 0.56661L25.0038 11.8803C26.4635 10.4206 27.4576 8.56082 27.8603 6.53615L12.1677 3.4147ZM13.6901 0.56661C14.468 -0.21132 15.4591 -0.741096 16.5382 -0.955726L19.6596 14.7368C21.6843 14.3341 23.5441 13.34 25.0038 11.8803L13.6901 0.56661ZM16.5382 -0.955726C17.6172 -1.17036 18.7356 -1.0602 19.752 -0.639188L13.6291 14.1429C15.5363 14.9329 17.6349 15.1396 19.6596 14.7368L16.5382 -0.955726ZM19.752 -0.639188C20.7684 -0.218176 21.6372 0.494783 22.2484 1.40953L8.94489 10.2987C10.0918 12.0151 11.7219 13.3529 13.6291 14.1429L19.752 -0.639188ZM22.2484 1.40953C22.8596 2.32428 23.1859 3.39973 23.1859 4.49989H7.18585C7.18585 6.56423 7.798 8.58222 8.94489 10.2987L22.2484 1.40953ZM23.1858 4.51217C23.1836 5.98348 22.5981 7.39389 21.5577 8.43427L10.244 -2.87944C8.28984 -0.925252 7.19011 1.72398 7.18586 4.48761L23.1858 4.51217ZM21.5577 8.43427C20.5174 9.47465 19.1069 10.0601 17.6356 10.0624L17.6111 -5.9376C14.8474 -5.93336 12.1982 -4.83363 10.244 -2.87944L21.5577 8.43427ZM6.37335 6.43739C7.47351 6.43739 8.54897 6.76363 9.46371 7.37484L0.57459 20.6784C2.29103 21.8252 4.30901 22.4374 6.37335 22.4374V6.43739ZM9.46371 7.37484C10.3785 7.98606 11.0914 8.8548 11.5124 9.87121L-3.26964 15.9942C-2.47965 17.9014 -1.14185 19.5315 0.57459 20.6784L9.46371 7.37484ZM11.5124 9.87121C11.9334 10.8876 12.0436 12.0061 11.829 13.0851L-3.86359 9.96364C-4.26633 11.9883 -4.05963 14.0869 -3.26964 15.9942L11.5124 9.87121ZM11.829 13.0851C11.6143 14.1641 11.0846 15.1552 10.3066 15.9332L-1.00707 4.61947C-2.46678 6.07918 -3.46086 7.93896 -3.86359 9.96364L11.829 13.0851ZM10.3066 15.9332C9.52871 16.7111 8.53757 17.2409 7.45854 17.4555L4.3371 1.76295C2.31242 2.16568 0.452633 3.15976 -1.00707 4.61947L10.3066 15.9332ZM7.45854 17.4555C6.37952 17.6701 5.26109 17.56 4.24468 17.139L10.3676 2.3569C8.46041 1.56691 6.36178 1.36021 4.3371 1.76295L7.45854 17.4555ZM4.24468 17.139C3.22826 16.718 2.35952 16.005 1.7483 15.0903L15.0518 6.20113C13.9049 4.48469 12.2748 3.14689 10.3676 2.3569L4.24468 17.139ZM1.7483 15.0903C1.13709 14.1755 0.810854 13.1001 0.810854 11.9999H16.8109C16.8109 9.93555 16.1987 7.91757 15.0518 6.20113L1.7483 15.0903ZM0.810863 11.9876C0.813122 10.5163 1.3986 9.10589 2.43898 8.06552L13.7527 19.3792C15.7069 17.425 16.8066 14.7758 16.8108 12.0122L0.810863 11.9876ZM2.43898 8.06552C3.47936 7.02514 4.88976 6.43966 6.36107 6.4374L6.38563 22.4374C9.14927 22.4331 11.7985 21.3334 13.7527 19.3792L2.43898 8.06552ZM17.6234 13.9374C18.7235 13.9374 19.799 14.2636 20.7137 14.8748L11.8246 28.1784C13.541 29.3252 15.559 29.9374 17.6234 29.9374V13.9374ZM20.7137 14.8748C21.6285 15.4861 22.3414 16.3548 22.7624 17.3712L7.98036 23.4942C8.77035 25.4014 10.1082 27.0315 11.8246 28.1784L20.7137 14.8748ZM22.7624 17.3712C23.1835 18.3876 23.2936 19.5061 23.079 20.5851L7.38641 17.4636C6.98368 19.4883 7.19037 21.5869 7.98036 23.4942L22.7624 17.3712ZM23.079 20.5851C22.8643 21.6641 22.3346 22.6552 21.5566 23.4332L10.2429 12.1195C8.78321 13.5792 7.78914 15.439 7.38641 17.4636L23.079 20.5851ZM21.5566 23.4332C20.7787 24.2111 19.7875 24.7409 18.7085 24.9555L15.5871 9.26295C13.5624 9.66568 11.7026 10.6597 10.2429 12.1195L21.5566 23.4332ZM18.7085 24.9555C17.6295 25.1701 16.5111 25.06 15.4947 24.639L21.6176 9.8569C19.7104 9.06691 17.6118 8.86022 15.5871 9.26295L18.7085 24.9555ZM15.4947 24.639C14.4783 24.218 13.6095 23.505 12.9983 22.5903L26.3018 13.7011C25.1549 11.9847 23.5248 10.6469 21.6176 9.8569L15.4947 24.639ZM12.9983 22.5903C12.3871 21.6755 12.0609 20.6001 12.0609 19.4999H28.0609C28.0609 17.4355 27.4487 15.4176 26.3018 13.7011L12.9983 22.5903ZM12.0609 19.4876C12.0631 18.0163 12.6486 16.6059 13.689 15.5655L25.0027 26.8792C26.9569 24.925 28.0566 22.2758 28.0608 19.5122L12.0609 19.4876ZM13.689 15.5655C14.7294 14.5251 16.1398 13.9397 17.6111 13.9374L17.6356 29.9374C20.3993 29.9331 23.0485 28.8334 25.0027 26.8792L13.689 15.5655Z" fill="black" mask="url(#path-3-inside-2_2714_11535)"/>
</g>
<defs>
<clipPath id="clip0_2714_11535">
<rect width="24" height="24" fill="white"/>
</clipPath>
</defs>
</svg>
