<svg width="60" height="60" viewBox="0 0 60 60" fill="none" xmlns="http://www.w3.org/2000/svg">
<path d="M42.3915 30.2521C42.1429 30.2515 41.9043 30.3496 41.728 30.5249C41.5517 30.7001 41.4522 30.9382 41.4514 31.1868C41.2886 36.317 40.2822 41.3854 38.4726 46.1887C37.9063 47.9864 36.9284 49.6273 35.6168 50.9809C34.3051 52.3345 32.6958 53.3635 30.9168 53.9862C21.7556 56.852 13.8596 43.4865 11.4625 35.4092C14.817 33.7131 17.5187 30.9583 19.1491 27.5714C19.2587 27.351 19.2771 27.0963 19.2005 26.8624C19.1239 26.6284 18.9584 26.434 18.7397 26.321C18.5209 26.2081 18.2666 26.1857 18.0315 26.2586C17.7964 26.3316 17.5994 26.494 17.4831 26.711C16.0691 29.6164 13.7877 32.0111 10.954 33.5639C10.8435 33.1262 10.7359 32.6868 10.6385 32.2418C9.9762 29.2741 11.7503 25.1744 12.5435 23.55C12.5975 23.4394 12.6293 23.3192 12.6369 23.1964C12.6445 23.0735 12.6278 22.9504 12.5878 22.8339C12.5478 22.7175 12.4853 22.6101 12.4038 22.5179C12.3223 22.4256 12.2234 22.3504 12.1128 22.2963C12.0022 22.2423 11.8821 22.2106 11.7592 22.203C11.6363 22.1954 11.5132 22.212 11.3968 22.252C11.2804 22.292 11.173 22.3546 11.0807 22.4361C10.9885 22.5176 10.9132 22.6164 10.8591 22.727C9.76615 24.9657 8.04608 29.2315 8.8077 32.6465C10.9153 42.8988 20.0824 59.2401 31.4696 55.7774C33.5285 55.0675 35.3935 53.8871 36.9164 52.3302C38.4392 50.7732 39.578 48.8826 40.2422 46.8084C42.1213 41.8079 43.1633 36.5318 43.3262 31.1924C43.3266 31.0693 43.3027 30.9473 43.256 30.8334C43.2092 30.7195 43.1405 30.6159 43.0537 30.5286C42.9669 30.4413 42.8637 30.3719 42.7501 30.3245C42.6365 30.2771 42.5146 30.2525 42.3915 30.2521Z" fill="black"/>
<path d="M50.4841 21.9087L49.7692 21.1644L50.1363 20.9539C50.5079 20.6507 50.7886 20.2508 50.9475 19.7983C51.1064 19.3459 51.1374 18.8583 51.037 18.3893C50.7693 17.6131 50.2352 16.957 49.5294 16.5374C48.8237 16.1178 47.9921 15.9619 47.1823 16.0975L45.421 16.8423H43.613L43.1154 16.6708L43.8565 16.4985C44.7152 16.2989 45.466 15.7807 45.9573 15.0488C46.4486 14.3168 46.6437 13.4256 46.5031 12.5554C46.3626 11.6851 45.8969 10.9006 45.2001 10.3605C44.5034 9.82041 43.6276 9.56494 42.7498 9.64575L38.1114 10.0728C38.3472 9.4313 38.3822 8.73322 38.2116 8.07137C38.0411 7.40952 37.6731 6.81528 37.1566 6.36764C35.3529 4.47234 32.1534 5.83476 31.7511 8.35095L31.4975 9.63431C31.4911 9.66867 31.4865 9.70336 31.4838 9.73821C31.4807 10.2064 31.3602 10.6664 31.1334 11.076C30.9067 11.4856 30.5808 11.8319 30.1857 12.0831L25.6408 15.1418C26.181 13.8538 26.8793 12.638 27.7196 11.5223C28.1897 10.8907 28.5741 10.4435 28.7124 10.2865C29.0888 9.95644 29.3866 9.54638 29.5842 9.08635C29.7817 8.62632 29.8738 8.12796 29.8539 7.62772C29.7189 4.81419 26.6038 3.97796 26.4838 3.94683C23.4126 2.91236 20.0019 6.12746 18.3244 9.56949C16.8393 8.02032 14.4839 4.26986 12.0404 6.51182L9.43692 9.18072C6.4236 12.8619 14.6019 14.2856 12.4141 19.4338C12.3394 19.6679 12.3595 19.9219 12.4701 20.1412C12.5807 20.3606 12.773 20.5278 13.0056 20.6068C13.2382 20.6859 13.4926 20.6705 13.7139 20.5639C13.9353 20.4573 14.106 20.2682 14.1893 20.037C15.4846 16.228 13.819 14.426 11.7099 12.1453C11.4643 11.7328 10.2852 11.054 10.7765 10.4921L13.3741 7.82907C13.4585 7.75025 13.5678 7.7034 13.683 7.69664C13.7983 7.68987 13.9123 7.7236 14.0053 7.79201C15.3845 9.04275 16.6514 10.412 17.7915 11.8839C17.8936 12.0119 18.0273 12.1112 18.1794 12.172C18.3315 12.2328 18.4968 12.2529 18.659 12.2306C18.8213 12.2082 18.9749 12.144 19.1049 12.0443C19.2348 11.9446 19.3366 11.8128 19.4003 11.6619C19.8358 10.6636 20.3625 9.70757 20.9736 8.80595C22.0775 10.2231 23.6463 11.2051 25.4034 11.5788C24.315 13.151 23.5869 14.9441 23.2709 16.83C21.7476 18.1973 20.6829 20.0009 20.2218 21.9952C20.1941 22.2385 20.2627 22.4831 20.413 22.6766C20.5632 22.87 20.7832 22.997 21.0259 23.0303C21.2686 23.0636 21.5147 23.0006 21.7115 22.8548C21.9084 22.709 22.0404 22.492 22.0792 22.2501C22.5204 20.599 23.4493 19.1194 24.7444 18.0044L31.2082 13.6548C31.8296 13.2472 32.3468 12.6996 32.7182 12.0559C33.0896 11.4121 33.3048 10.6903 33.3466 9.94829L33.591 8.71431C33.7938 7.62171 35.0324 6.84841 35.8823 7.74031C36.1226 7.94123 36.296 8.21072 36.379 8.51277C36.4621 8.81482 36.4511 9.13504 36.3473 9.43062C36.2817 9.52406 36.0656 10.8077 36.0324 10.9451C36.0066 11.0876 36.0139 11.2341 36.0538 11.3734C36.0937 11.5126 36.165 11.6407 36.2624 11.748C36.3597 11.8552 36.4804 11.9386 36.6152 11.9917C36.7499 12.0448 36.895 12.0662 37.0393 12.0542L42.9218 11.5123C43.1441 11.4909 43.3684 11.5167 43.58 11.5878C43.7917 11.6589 43.986 11.7739 44.1503 11.9251C44.3631 12.1237 44.5183 12.3761 44.5993 12.6557C44.6803 12.9352 44.6842 13.2315 44.6105 13.5131C44.5369 13.7947 44.3884 14.0511 44.1809 14.2552C43.9733 14.4593 43.7144 14.6034 43.4316 14.6723L39.6492 15.5515C38.5104 15.498 32.1181 15.6133 27.9195 23.706C27.8107 23.9261 27.7925 24.1802 27.8689 24.4135C27.9454 24.6468 28.1103 24.8409 28.3282 24.9539C28.5462 25.067 28.7998 25.09 29.0346 25.0181C29.2694 24.9462 29.4665 24.785 29.5837 24.5692C33.2859 17.4337 38.7385 17.3876 39.5433 17.4229C39.633 17.4323 43.463 18.8286 43.4564 18.7171C44.2968 18.7508 45.1386 18.7262 45.9756 18.6434L47.6893 17.9188C48.2829 17.981 49.6552 18.402 49.1054 19.3839L47.7955 20.135C47.6727 20.2066 47.5677 20.305 47.4883 20.4229C47.4089 20.5408 47.3572 20.6751 47.3371 20.8158C47.3169 20.9564 47.3288 21.0999 47.3719 21.2353C47.415 21.3707 47.4881 21.4947 47.5859 21.5979L49.1329 23.2076C49.3502 23.4424 49.4732 23.749 49.4786 24.0689C49.4839 24.3887 49.3711 24.6993 49.1619 24.9412C48.9526 25.1831 48.6615 25.3394 48.3442 25.3801C48.0269 25.4208 47.7058 25.3432 47.4422 25.162L43.4702 22.3197C41.587 21.2283 37.4354 20.5193 34.7326 25.1835C34.6133 25.3989 34.5835 25.6525 34.6496 25.8896C34.7158 26.1266 34.8725 26.3282 35.086 26.4507C35.2995 26.5732 35.5526 26.6068 35.7907 26.5442C36.0288 26.4817 36.2327 26.328 36.3583 26.1164C37.5289 24.0751 38.9558 23.472 40.141 23.4018C40.6564 24.7443 41.0133 26.1424 41.2046 27.5678C41.2416 27.8111 41.373 28.0301 41.5703 28.1774C41.7675 28.3247 42.0148 28.3885 42.2587 28.3549C42.5026 28.3213 42.7234 28.1932 42.8736 27.9981C43.0237 27.803 43.091 27.5566 43.061 27.3123C42.8979 26.1221 42.6327 24.9481 42.2685 23.8032C42.3343 23.8331 42.3909 23.8602 42.4294 23.88L46.351 26.6862C46.9949 27.1367 47.7829 27.3324 48.5627 27.2355C49.3424 27.1387 50.0586 26.7561 50.5727 26.1619C51.0868 25.5676 51.3623 24.8038 51.346 24.0182C51.3296 23.2326 51.0225 22.481 50.4841 21.9087ZM22.2171 7.25565C23.4999 5.93306 24.7678 5.42064 26.0023 5.7589C26.0215 5.76393 27.9127 6.29167 27.9809 7.71376C28.0232 8.65058 27.2971 8.96222 26.576 9.93404C23.5521 9.31735 22.5373 7.93747 22.2171 7.25565Z" fill="black"/>
<path d="M31.9196 30.7922C31.9245 30.7809 31.9354 30.7732 31.9397 30.7617L33.0959 27.7133C33.1797 27.4819 33.1692 27.2269 33.0665 27.0032C32.9639 26.7795 32.7773 26.6052 32.5472 26.5179C32.3171 26.4307 32.0619 26.4374 31.8367 26.5367C31.6115 26.6361 31.4345 26.82 31.3438 27.0488L30.2709 29.876C28.2907 31.3309 26.0552 32.4017 23.6804 33.0328C22.5672 33.0534 15.8769 33.3495 15.5574 37.5037C15.548 37.6264 15.5628 37.7498 15.6011 37.8668C15.6393 37.9838 15.7003 38.0922 15.7804 38.1856C15.8605 38.2791 15.9582 38.3559 16.068 38.4116C16.1778 38.4672 16.2975 38.5008 16.4202 38.5102C16.543 38.5196 16.6664 38.5048 16.7834 38.4666C16.9004 38.4283 17.0087 38.3674 17.1022 38.2873C17.1956 38.2071 17.2724 38.1094 17.3281 37.9996C17.3838 37.8898 17.4173 37.7702 17.4267 37.6474C17.5453 36.106 19.7709 35.3877 21.6701 35.0898C20.34 36.8596 18.686 39.6121 19.1464 41.9128C19.198 42.1538 19.3424 42.3647 19.5484 42.5C19.7544 42.6353 20.0054 42.684 20.247 42.6356C20.4887 42.5872 20.7015 42.4456 20.8396 42.2415C20.9776 42.0373 21.0297 41.787 20.9845 41.5447C20.569 39.4662 23.1357 36.1167 24.3454 34.7867C25.877 34.3235 27.3658 33.7289 28.7953 33.0096C27.6678 35.3839 26.8107 37.8773 26.2399 40.443C25.6824 42.6532 25.5545 47.3666 23.5967 48.221C23.3783 48.28 23.1885 48.4158 23.0622 48.6035C22.9359 48.7912 22.8815 49.0181 22.909 49.2427C22.9366 49.4672 23.0442 49.6743 23.2122 49.8259C23.3801 49.9774 23.5971 50.0633 23.8233 50.0678C24.3986 49.9366 24.933 49.6664 25.3796 49.2808C25.8262 48.8952 26.1715 48.406 26.3852 47.856C27.2032 49.3373 28.3101 50.6394 29.6402 51.6853C29.8451 51.8204 30.0948 51.8698 30.3357 51.8228C30.5766 51.7759 30.7895 51.6364 30.9287 51.4343C31.0679 51.2322 31.1223 50.9835 31.0803 50.7417C31.0383 50.4999 30.9031 50.2842 30.7039 50.1409C29.2166 48.8776 28.0298 47.2983 27.23 45.5183C27.565 44.1356 27.5353 43.7635 27.7284 42.7511C29.1653 44.2926 31.25 45.9123 33.7724 46.0789C34.0184 46.0914 34.2595 46.0066 34.4435 45.8429C34.6275 45.6791 34.7397 45.4495 34.7558 45.2037C34.7719 44.9579 34.6906 44.7157 34.5296 44.5293C34.3685 44.3429 34.1405 44.2274 33.895 44.2077C31.4011 44.0434 29.3297 41.8852 28.1833 40.392C28.5552 38.7956 29.0514 37.2307 29.6673 35.7116C30.7529 36.9947 31.5877 38.4704 32.1283 40.0618C32.1925 40.302 32.3493 40.5069 32.5643 40.6317C32.7792 40.7566 33.0349 40.7911 33.2753 40.7278C35.2828 40.1212 32.107 35.9102 31.5343 35.061C33.7497 35.3892 35.6546 36.1776 35.7872 37.6332C35.8132 37.8781 35.9345 38.103 36.1249 38.2592C36.3153 38.4154 36.5595 38.4904 36.8048 38.4681C37.0501 38.4457 37.2767 38.3277 37.4357 38.1397C37.5947 37.9516 37.6734 37.7086 37.6547 37.463C37.362 34.2567 33.4862 33.342 30.8329 33.0919L31.9095 30.8326C31.9158 30.8196 31.914 30.8054 31.9196 30.7922Z" fill="black"/>
</svg>
