<svg width="470" height="470" viewBox="0 0 470 470" fill="none" xmlns="http://www.w3.org/2000/svg">
<rect x="0.333984" y="0.333008" width="469.333" height="469.333" rx="64" fill="#F7843A"/>
<mask id="mask0_3_87" style="mask-type:alpha" maskUnits="userSpaceOnUse" x="135" y="135" width="200" height="200">
<rect x="135" y="135" width="200" height="200" fill="#D9D9D9"/>
</mask>
<g mask="url(#mask0_3_87)">
<path d="M268.333 293.334C263.333 293.334 258.507 292.743 253.854 291.563C249.201 290.382 244.861 288.681 240.833 286.459C248.889 280.209 255.139 272.604 259.583 263.646C264.027 254.688 266.25 245.139 266.25 235C266.25 224.861 264.027 215.313 259.583 206.354C255.139 197.396 248.889 189.792 240.833 183.542C244.861 181.32 249.201 179.618 253.854 178.438C258.507 177.257 263.333 176.667 268.333 176.667C284.583 176.667 298.368 182.327 309.687 193.646C321.007 204.966 326.666 218.75 326.666 235C326.666 251.25 321.007 265.035 309.687 276.354C298.368 287.674 284.583 293.334 268.333 293.334ZM201.666 293.334C185.416 293.334 171.632 287.674 160.312 276.354C148.993 265.035 143.333 251.25 143.333 235C143.333 218.75 148.993 204.966 160.312 193.646C171.632 182.327 185.416 176.667 201.666 176.667C206.666 176.667 211.493 177.257 216.146 178.438C220.798 179.618 225.139 181.32 229.166 183.542C227.361 184.931 225.694 186.389 224.166 187.917C222.639 189.445 221.111 191.042 219.583 192.709C216.805 191.598 213.923 190.729 210.937 190.104C207.951 189.479 204.861 189.167 201.666 189.167C189.027 189.167 178.229 193.611 169.271 202.5C160.312 211.389 155.833 222.223 155.833 235C155.833 247.639 160.312 258.438 169.271 267.396C178.229 276.354 189.027 280.834 201.666 280.834C204.861 280.834 207.951 280.521 210.937 279.896C213.923 279.271 216.805 278.403 219.583 277.292C221.111 278.959 222.639 280.556 224.166 282.084C225.694 283.611 227.361 285.07 229.166 286.459C225.139 288.681 220.798 290.382 216.146 291.563C211.493 292.743 206.666 293.334 201.666 293.334ZM235 282.917C227.083 277.5 220.937 270.556 216.562 262.084C212.187 253.611 210 244.584 210 235C210 225.417 212.187 216.389 216.562 207.917C220.937 199.445 227.083 192.5 235 187.084C242.916 192.5 249.062 199.445 253.437 207.917C257.812 216.389 260 225.417 260 235C260 244.584 257.812 253.611 253.437 262.084C249.062 270.556 242.916 277.5 235 282.917Z" fill="white"/>
</g>
</svg>
