<svg width="470" height="470" viewBox="0 0 470 470" fill="none" xmlns="http://www.w3.org/2000/svg">
<rect x="0.333984" y="0.333008" width="469.333" height="469.333" rx="64" fill="#F7843A"/>
<mask id="mask0_3_88" style="mask-type:alpha" maskUnits="userSpaceOnUse" x="135" y="135" width="200" height="200">
<rect x="135" y="135" width="200" height="200" fill="#D9D9D9"/>
</mask>
<g mask="url(#mask0_3_88)">
<path d="M192.446 318.334C187.899 318.334 184.271 317.014 181.562 314.375C178.854 311.736 177.289 308.328 176.868 304.151L160 151.667H310L293.133 304.151C292.711 308.328 291.146 311.736 288.438 314.375C285.729 317.014 282.153 318.334 277.708 318.334H192.446ZM179.583 214.167L189.576 305.834H280.417L290.417 214.167H179.583ZM178.125 201.667H291.875L296.042 164.167H173.958L178.125 201.667ZM235 294.792C241.25 294.792 246.562 292.661 250.938 288.4C255.312 284.138 257.5 278.908 257.5 272.709C257.5 266.181 255.521 259.236 251.562 251.875C247.604 244.514 242.083 237.5 235 230.834C227.917 237.5 222.396 244.514 218.438 251.875C214.479 259.236 212.5 266.181 212.5 272.709C212.5 278.908 214.688 284.138 219.062 288.4C223.438 292.661 228.75 294.792 235 294.792ZM235 282.292C232.167 282.292 229.792 281.334 227.875 279.417C225.958 277.5 225 275.125 225 272.292C225 269.375 225.799 265.903 227.396 261.875C228.993 257.848 231.528 253.611 235 249.167C238.472 253.75 241.007 258.056 242.604 262.084C244.201 266.111 245 269.514 245 272.292C245 275.125 244.042 277.5 242.125 279.417C240.208 281.334 237.833 282.292 235 282.292Z" fill="white"/>
</g>
</svg>
