<svg width="34" height="46" viewBox="0 0 34 46" fill="none" xmlns="http://www.w3.org/2000/svg">
<path d="M33.1624 6.38087C33.0955 4.00765 30.3835 2.09931 25.5425 0.985663C25.3015 0.934007 25.0498 0.979358 24.8421 1.11189C24.6343 1.24443 24.487 1.45349 24.4323 1.69379C24.3775 1.93409 24.4196 2.18629 24.5494 2.39578C24.6793 2.60528 24.8864 2.7552 25.126 2.81307C38.1343 6.14084 28.0131 10.8259 16.9998 10.8056C5.98625 10.8195 -4.15436 6.14341 8.87341 2.81303C9.11261 2.75481 9.31931 2.60481 9.44882 2.39544C9.57834 2.18607 9.62027 1.93414 9.56555 1.69411C9.51084 1.45408 9.36388 1.24521 9.15642 1.11265C8.94897 0.980091 8.69768 0.934481 8.45687 0.985681C3.70368 2.06902 0.948853 3.98826 0.855469 6.28926C1.35861 10.8874 5.2529 38.7573 5.44105 40.5089C5.65308 46.8098 28.3502 46.8121 28.5582 40.5071C28.6132 40.0915 29.0155 37.0968 29.5635 33.0374C29.5932 32.7926 29.5253 32.546 29.3746 32.351C29.2238 32.1559 29.0023 32.028 28.758 31.995C28.5136 31.9621 28.2661 32.0266 28.0691 32.1748C27.872 32.3229 27.7412 32.5427 27.705 32.7866C26.6841 40.3506 26.6841 40.3589 26.6841 40.4403C26.6841 41.6369 22.9113 43.3746 16.9997 43.3746C11.0877 43.3746 7.31525 41.6369 7.31525 40.4403C7.31525 40.3563 5.88858 29.7845 4.63356 20.5013C5.01854 20.5808 5.38132 20.6677 5.75382 20.7574C7.59199 21.2402 9.48776 21.4681 11.388 21.4349C13.291 21.4681 15.1897 21.2401 17.0308 20.7574C18.7254 20.3098 20.474 20.0993 22.2264 20.1321C25.8284 20.134 26.5992 20.6702 29.2782 21.1477C28.9219 23.8051 28.5555 26.5266 28.2117 29.064C28.1949 29.1861 28.2023 29.3102 28.2335 29.4294C28.2648 29.5486 28.3192 29.6605 28.3937 29.7586C28.4682 29.8568 28.5614 29.9392 28.6678 30.0014C28.7742 30.0635 28.8918 30.104 29.0139 30.1206C29.136 30.1372 29.2602 30.1296 29.3793 30.0981C29.4985 30.0667 29.6103 30.0121 29.7083 29.9374C29.8063 29.8628 29.8886 29.7695 29.9506 29.663C30.0125 29.5565 30.0529 29.4388 30.0693 29.3167C30.4538 26.484 30.8662 23.4179 31.2599 20.4764C31.8576 15.9242 32.938 8.27822 33.1624 6.38087ZM22.2264 18.2571C20.3263 18.2244 18.4307 18.452 16.5923 18.9337C14.8949 19.3824 13.1434 19.5932 11.388 19.5599C9.63551 19.5929 7.88695 19.3825 6.19235 18.9346C5.6285 18.7989 5.04978 18.6602 4.36892 18.544C3.89902 15.0694 3.47273 11.919 3.17816 9.74262C9.38455 13.6493 24.62 13.6491 30.8243 9.74062C30.5645 11.6619 30.2164 14.2266 29.8313 17.0633L29.5292 19.2879C26.872 18.7944 26.0045 18.2651 22.2264 18.2571Z" fill="black"/>
</svg>
