<svg width="470" height="470" viewBox="0 0 470 470" fill="none" xmlns="http://www.w3.org/2000/svg">
<rect x="0.333984" y="0.333008" width="469.333" height="469.333" rx="64" fill="#F7843A"/>
<mask id="mask0_3_92" style="mask-type:alpha" maskUnits="userSpaceOnUse" x="135" y="135" width="200" height="200">
<rect x="135" y="135" width="200" height="200" fill="#D9D9D9"/>
</mask>
<g mask="url(#mask0_3_92)">
<path d="M249.583 317.5L240.833 308.75L270.417 279.167L190.833 199.583L161.25 229.167L152.5 220.417L164.167 208.333L152.5 196.667L170.208 178.958L161.458 170.208L170.208 161.458L179.167 170L196.667 152.5L208.333 164.167L220.417 152.5L229.167 161.25L199.583 190.833L279.167 270.417L308.75 240.833L317.5 249.583L305.833 261.667L317.5 273.333L299.583 291.25L308.333 300L299.583 308.75L290.833 300L273.333 317.5L261.667 305.833L249.583 317.5Z" fill="white"/>
</g>
</svg>
