<svg width="470" height="470" viewBox="0 0 470 470" fill="none" xmlns="http://www.w3.org/2000/svg">
<rect x="0.333984" y="0.333496" width="469.333" height="469.333" rx="64" fill="#F7843A"/>
<mask id="mask0_3_68" style="mask-type:alpha" maskUnits="userSpaceOnUse" x="135" y="135" width="200" height="201">
<rect x="135" y="135.001" width="200" height="200" fill="#D9D9D9"/>
</mask>
<g mask="url(#mask0_3_68)">
<path d="M235.104 233.126C242.118 233.126 247.951 230.8 252.604 226.147C257.257 221.494 259.583 215.661 259.583 208.647C259.583 201.633 257.257 195.765 252.604 191.043C247.951 186.32 242.118 183.959 235.104 183.959C228.09 183.959 222.222 186.32 217.5 191.043C212.778 195.765 210.417 201.633 210.417 208.647C210.417 215.661 212.778 221.494 217.5 226.147C222.222 230.8 228.09 233.126 235.104 233.126ZM221.875 212.709C220.764 212.709 219.792 212.293 218.958 211.459C218.125 210.626 217.708 209.654 217.708 208.543C217.708 207.432 218.125 206.459 218.958 205.626C219.792 204.793 220.764 204.376 221.875 204.376C222.986 204.376 223.958 204.793 224.792 205.626C225.625 206.459 226.042 207.432 226.042 208.543C226.042 209.654 225.625 210.626 224.792 211.459C223.958 212.293 222.986 212.709 221.875 212.709ZM235 212.709C233.889 212.709 232.917 212.293 232.083 211.459C231.25 210.626 230.833 209.654 230.833 208.543C230.833 207.432 231.25 206.459 232.083 205.626C232.917 204.793 233.889 204.376 235 204.376C236.111 204.376 237.083 204.793 237.917 205.626C238.75 206.459 239.167 207.432 239.167 208.543C239.167 209.654 238.75 210.626 237.917 211.459C237.083 212.293 236.111 212.709 235 212.709ZM248.125 212.709C247.014 212.709 246.042 212.293 245.208 211.459C244.375 210.626 243.958 209.654 243.958 208.543C243.958 207.432 244.375 206.459 245.208 205.626C246.042 204.793 247.014 204.376 248.125 204.376C249.236 204.376 250.208 204.793 251.042 205.626C251.875 206.459 252.292 207.432 252.292 208.543C252.292 209.654 251.875 210.626 251.042 211.459C250.208 212.293 249.236 212.709 248.125 212.709ZM172.5 310.001C169.167 310.001 166.25 308.751 163.75 306.251C161.25 303.751 160 300.834 160 297.501V172.501C160 169.168 161.25 166.251 163.75 163.751C166.25 161.251 169.167 160.001 172.5 160.001H297.5C300.833 160.001 303.75 161.251 306.25 163.751C308.75 166.251 310 169.168 310 172.501V297.501C310 300.834 308.75 303.751 306.25 306.251C303.75 308.751 300.833 310.001 297.5 310.001H172.5ZM172.5 297.501H297.5V172.501H172.5V297.501Z" fill="white"/>
</g>
</svg>
