<svg width="470" height="470" viewBox="0 0 470 470" fill="none" xmlns="http://www.w3.org/2000/svg">
<rect x="0.333984" y="0.333008" width="469.333" height="469.333" rx="64" fill="#F7843A"/>
<mask id="mask0_3_93" style="mask-type:alpha" maskUnits="userSpaceOnUse" x="135" y="135" width="200" height="200">
<rect x="135" y="135" width="200" height="200" fill="#D9D9D9"/>
</mask>
<g mask="url(#mask0_3_93)">
<path d="M237.708 232.916V149.583C237.708 147.777 238.31 146.284 239.515 145.104C240.72 143.923 242.213 143.333 243.994 143.333C245.776 143.333 247.257 143.932 248.437 145.13C249.618 146.328 250.208 147.812 250.208 149.583V232.916H237.708ZM202.916 232.916V157.916C202.916 156.111 203.519 154.618 204.724 153.437C205.929 152.257 207.422 151.666 209.203 151.666C210.984 151.666 212.465 152.265 213.646 153.463C214.826 154.661 215.416 156.146 215.416 157.916V232.916H202.916ZM238.138 326.666C218.702 326.666 202.209 319.93 188.658 306.458C175.108 292.986 168.333 276.527 168.333 257.083V174.583C168.333 172.812 168.935 171.328 170.14 170.13C171.345 168.932 172.838 168.333 174.619 168.333C176.401 168.333 177.882 168.932 179.062 170.13C180.243 171.328 180.833 172.812 180.833 174.583V257.083C180.833 273.037 186.374 286.539 197.457 297.59C208.54 308.641 222.082 314.166 238.082 314.166C254.083 314.166 267.708 308.576 278.958 297.396C290.208 286.215 296.389 272.639 297.5 256.666V224.583H295.416C292.465 224.583 289.991 225.581 287.994 227.578C285.998 229.574 285 232.048 285 235V266.25H262.083C256.805 266.25 252.361 268.055 248.75 271.666C245.139 275.277 243.333 279.722 243.333 285V291.25H230.833V285C230.833 276.25 233.854 268.854 239.896 262.812C245.937 256.771 253.333 253.75 262.083 253.75H272.5V166.25C272.5 164.479 273.102 162.994 274.307 161.797C275.512 160.599 277.005 160 278.786 160C280.567 160 282.048 160.599 283.229 161.797C284.409 162.994 285 164.479 285 166.25V214.583C286.527 213.75 288.194 213.125 290 212.708C291.805 212.291 293.611 212.083 295.416 212.083H310V256.666C308.889 276.25 301.493 292.812 287.812 306.354C274.132 319.896 257.573 326.666 238.138 326.666Z" fill="white"/>
</g>
</svg>
